<?xml version="1.0" encoding="UTF-8" standalone="no"?>
<svg xmlns:ffdec="https://www.free-decompiler.com/flash" xmlns:xlink="http://www.w3.org/1999/xlink" ffdec:objectType="frame" height="247.95px" width="247.2px" xmlns="http://www.w3.org/2000/svg">
  <g transform="matrix(1.0, 0.0, 0.0, 1.0, 125.65, 165.35)">
    <use ffdec:characterId="268" height="78.3" transform="matrix(1.8769, 0.1301, -0.1064, 1.5352, -4.05, -14.25)" width="101.2" xlink:href="#sprite0"/>
  </g>
  <defs>
    <g id="sprite0">
      <use ffdec:characterId="267" height="78.3" transform="matrix(1.0, 0.0, 0.0, 1.0, 0.0, 0.0)" width="101.2" xlink:href="#shape0"/>
    </g>
    <g id="shape0">
      <path d="M46.75 8.6 Q50.7 10.6 50.65 11.6 L45.4 11.35 39.7 11.6 35.5 11.9 33.7 11.75 35.0 12.4 Q36.55 13.15 37.95 14.15 42.35 17.25 43.3 20.85 41.5 19.45 39.7 18.8 L38.3 18.35 38.8 19.0 40.05 21.05 Q42.0 24.8 42.8 29.6 39.0 25.85 36.2 23.7 L34.2 22.3 34.75 23.55 Q35.4 25.15 35.7 27.3 L32.3 24.25 28.9 21.8 Q25.15 19.7 21.85 22.1 25.95 17.0 25.45 12.35 25.05 8.15 21.0 5.05 17.1 2.05 11.05 0.85 4.8 -0.3 -1.8 0.7 -16.7 3.05 -21.7 10.65 -27.6 19.55 -18.2 33.85 -21.45 32.0 -27.0 34.05 -29.25 34.9 -31.25 36.15 -33.15 37.4 -34.05 38.6 L-30.15 31.85 -28.1 28.6 -30.95 29.75 Q-34.0 31.15 -34.95 32.3 -34.3 30.55 -32.9 28.25 L-31.65 26.35 -32.65 26.75 Q-33.85 27.35 -35.15 28.3 -39.35 31.3 -42.75 36.6 -41.55 29.35 -37.4 23.5 -33.95 18.7 -30.6 17.1 L-39.5 18.35 -36.8 15.35 Q-33.8 12.35 -32.4 11.95 L-35.05 10.0 -35.85 9.65 -34.0 8.55 Q-31.9 7.4 -30.45 7.3 -31.4 6.55 -32.15 6.25 L-32.7 6.1 -29.8 4.9 Q-26.8 3.35 -26.55 1.9 -26.3 0.25 -36.1 -4.35 -44.3 -8.3 -50.55 -10.4 -43.6 -12.35 -33.15 -11.65 L-24.1 -10.6 Q-25.35 -12.5 -27.3 -14.45 -31.15 -18.45 -34.4 -19.05 -30.95 -19.4 -24.15 -19.1 L-18.05 -18.7 -17.15 -27.85 Q-16.05 -37.4 -15.2 -39.7 -14.35 -35.4 -11.0 -26.1 -7.75 -17.05 -7.0 -16.45 -6.75 -18.75 -7.05 -23.2 L-7.5 -28.8 -4.2 -22.7 Q-1.85 -18.25 -1.75 -16.35 -1.25 -17.65 -0.3 -20.6 L0.45 -23.25 1.4 -20.4 Q2.3 -17.0 2.5 -14.45 6.85 -25.1 13.2 -27.3 15.2 -28.0 17.85 -27.95 L21.05 -27.95 Q16.05 -20.2 14.4 -16.9 12.1 -12.4 11.8 -8.9 13.8 -10.45 15.95 -10.65 L19.85 -10.15 23.5 -8.85 Q25.7 -8.2 27.2 -8.3 25.5 -6.85 24.0 -5.2 L22.85 -3.7 25.7 -4.35 29.3 -4.95 Q28.7 -3.55 27.55 -2.25 26.65 -1.35 26.9 -1.05 L27.75 -1.0 29.9 -1.15 Q33.8 -1.05 39.1 1.45 37.4 1.8 35.2 3.55 L33.4 5.25 35.6 6.1 Q38.25 6.85 40.35 6.7 42.7 6.5 46.75 8.6" fill="#181818" fill-rule="evenodd" stroke="none"/>
      <path d="M16.6 -27.1 L19.9 -27.6 Q10.45 -15.1 10.8 -6.45 14.05 -10.5 18.7 -9.4 L22.3 -8.15 Q24.25 -7.45 25.3 -7.55 23.7 -6.15 22.25 -4.25 L21.25 -2.55 24.3 -3.4 28.05 -4.15 Q27.45 -2.75 25.4 -1.2 23.75 0.05 23.9 0.3 L25.05 0.2 27.65 -0.3 Q32.2 -0.75 36.85 1.4 35.3 1.75 33.25 3.6 L31.6 5.35 33.8 6.5 Q36.4 7.6 38.4 7.4 40.8 7.25 44.85 8.65 48.75 10.1 48.75 11.05 L43.7 10.6 38.25 10.75 32.05 10.95 28.15 10.7 30.05 11.3 Q32.4 12.1 34.45 13.05 41.0 16.05 41.95 19.6 40.15 18.2 37.45 17.3 L35.15 16.6 36.0 17.35 38.0 19.65 Q41.05 23.65 41.85 28.3 38.35 23.75 33.95 20.6 L31.3 18.95 30.3 18.4 32.05 20.65 Q33.95 23.3 34.25 25.35 30.95 21.25 28.65 20.15 25.15 18.55 21.2 21.3 L22.5 19.25 22.7 18.2 Q22.6 17.75 21.75 17.95 L20.95 18.2 21.5 17.35 Q21.95 16.3 21.6 15.8 21.3 15.2 18.55 16.05 L15.95 16.9 18.1 15.4 Q20.1 13.8 19.65 13.25 19.15 12.7 15.4 13.9 L11.7 15.25 12.2 13.7 Q12.6 12.15 12.35 11.8 L11.05 12.0 10.15 12.55 10.3 11.3 Q10.3 10.0 9.9 9.8 9.5 9.6 8.1 10.65 L6.8 11.8 6.8 10.25 Q6.75 8.75 6.15 8.85 5.6 8.95 3.85 10.75 L2.15 12.55 1.9 11.3 Q1.6 10.05 1.2 10.25 0.8 10.4 0.7 12.0 L0.65 13.55 Q-1.1 8.2 -1.55 5.8 L-1.8 15.4 Q-2.8 12.7 -3.95 10.15 -6.35 5.0 -7.4 5.7 -8.35 6.35 -7.45 10.6 L-6.35 14.7 Q-11.55 12.7 -13.15 11.75 -13.5 11.25 -13.6 11.35 L-13.15 11.75 Q-12.45 12.95 -11.25 16.05 L-15.35 14.3 -15.05 15.65 -16.35 16.25 Q-17.6 16.9 -17.6 17.25 -17.65 17.7 -16.75 19.15 -15.8 20.8 -14.75 21.7 L-16.9 22.05 -17.35 22.35 -16.25 23.15 -17.5 23.9 Q-18.75 24.75 -18.8 25.35 -18.9 26.0 -18.45 26.8 L-18.0 27.5 -18.6 27.75 Q-19.15 28.1 -19.1 28.65 L-18.5 30.05 Q-17.9 31.3 -17.65 32.75 -20.85 31.0 -25.9 32.6 -30.5 34.05 -32.45 36.65 -31.0 33.75 -27.9 29.95 L-25.15 26.75 -28.55 27.85 Q-32.1 29.2 -33.05 30.35 -32.45 28.7 -30.45 26.3 L-28.55 24.2 -29.9 24.55 Q-31.6 25.1 -33.2 26.0 -38.45 28.85 -41.1 34.25 -39.9 27.4 -34.4 21.45 -32.25 19.15 -29.9 17.55 -27.8 16.1 -26.45 15.8 L-34.3 16.75 -37.8 17.6 -35.2 15.1 Q-32.35 12.45 -31.0 12.05 -32.45 10.85 -33.6 10.15 L-34.4 9.65 -32.45 8.75 Q-30.2 7.8 -28.85 7.65 -29.75 6.75 -30.45 6.4 L-30.95 6.2 Q-29.5 5.7 -28.0 4.85 -25.05 3.15 -24.75 1.7 -24.65 0.9 -27.55 -1.05 -30.2 -2.85 -34.4 -4.95 -44.35 -9.85 -48.95 -10.1 -42.3 -12.0 -31.55 -10.95 L-22.2 -9.55 Q-23.35 -11.6 -25.2 -13.8 -28.8 -18.2 -32.05 -18.75 L-22.55 -18.35 -17.1 -17.5 -16.35 -26.1 -15.1 -37.45 Q-14.25 -33.25 -10.65 -23.4 -7.2 -13.7 -6.4 -13.15 -5.75 -15.35 -6.1 -20.35 L-6.7 -26.4 -3.65 -19.5 Q-1.55 -14.2 -1.45 -12.25 -1.0 -13.55 -0.3 -17.4 L0.25 -21.0 1.1 -17.8 Q1.95 -14.2 2.1 -11.75 6.9 -23.5 12.5 -26.1 14.2 -26.85 16.6 -27.1" fill="#ffffff" fill-rule="evenodd" stroke="none"/>
      <path d="M-2.1 -0.8 Q-1.35 3.55 -0.4 3.25 0.55 2.9 1.1 1.5 L1.55 0.05 1.4 1.8 Q1.5 3.3 2.05 2.9 L3.5 1.05 4.15 -0.15 3.35 2.35 Q2.8 4.9 4.15 4.95 5.5 5.0 9.3 3.2 L12.75 1.4 11.8 4.7 Q11.1 8.0 12.4 7.8 13.7 7.6 14.65 5.95 L15.25 4.3 15.65 5.75 Q16.15 7.15 16.7 7.1 L18.1 6.05 18.85 5.1 17.5 7.6 Q16.4 10.15 17.35 10.25 18.85 10.45 22.9 10.15 L22.15 11.3 Q21.55 12.55 22.1 12.95 22.65 13.4 25.4 13.75 L27.95 14.1 26.55 15.25 Q25.35 16.6 26.35 17.35 L28.95 19.6 28.65 20.15 Q27.05 19.45 24.95 19.85 22.9 20.3 20.65 21.8 L22.25 19.45 22.7 18.2 Q22.6 17.75 21.6 18.05 L20.6 18.5 20.95 17.55 Q21.25 16.6 20.9 16.0 L17.95 16.25 15.35 17.2 17.35 15.65 Q19.3 14.0 18.8 13.4 18.25 12.9 14.8 14.3 L11.3 15.8 11.85 14.2 Q12.4 12.5 12.1 12.25 L10.75 12.4 9.8 12.9 10.1 11.45 Q10.3 10.0 9.9 9.8 9.5 9.6 8.05 10.95 L6.7 12.35 6.75 10.85 Q6.65 9.4 6.05 9.45 5.5 9.55 3.85 11.35 L2.35 13.15 2.0 11.55 Q1.6 10.05 1.2 10.25 0.8 10.4 0.65 12.45 L0.55 14.45 -1.55 5.8 -1.75 16.1 -3.95 10.45 Q-6.35 5.0 -7.4 5.7 -8.35 6.35 -7.3 10.75 L-6.05 15.05 Q-11.55 12.7 -13.15 11.75 -13.5 11.25 -13.6 11.35 L-13.15 11.75 -10.95 16.2 -14.85 14.6 -14.75 15.85 -16.05 16.35 Q-17.3 16.95 -17.3 17.3 L-16.45 19.25 Q-15.45 20.85 -14.45 21.8 L-16.5 22.05 -16.8 22.35 -15.75 23.25 -17.1 24.0 Q-18.45 24.8 -18.5 25.4 -18.6 26.0 -18.2 26.85 L-17.8 27.6 -18.35 27.85 Q-18.85 28.25 -18.8 28.8 L-18.25 30.4 Q-17.6 31.8 -17.4 33.25 -18.95 32.4 -20.85 32.15 L-24.65 32.25 Q-26.0 31.4 -25.9 30.35 -25.85 29.25 -24.3 28.5 -22.4 27.55 -22.2 24.95 -22.0 22.55 -23.0 21.65 -23.35 21.35 -22.85 21.1 L-21.55 20.8 Q-19.65 20.35 -20.9 19.05 -22.15 17.8 -21.6 15.4 L-21.25 13.65 Q-21.15 12.8 -21.6 12.45 -22.0 12.0 -21.45 12.05 L-19.95 12.5 Q-17.2 13.1 -17.0 11.6 -16.85 10.05 -17.0 8.0 L-17.2 6.3 -14.9 7.85 Q-12.45 9.1 -11.85 7.7 -11.25 6.3 -11.55 3.5 L-11.95 0.95 -10.15 2.6 Q-8.15 4.05 -7.5 3.4 -6.85 2.65 -6.8 0.55 L-6.9 -1.45 -6.0 1.5 Q-4.9 4.25 -4.1 3.05 -3.25 1.9 -2.85 -1.8 L-2.65 -5.2 -2.1 -0.8" fill="#d6d6d6" fill-rule="evenodd" stroke="none"/>
    </g>
  </defs>
</svg>
