<?xml version="1.0" encoding="UTF-8" standalone="no"?>
<svg xmlns:ffdec="https://www.free-decompiler.com/flash" xmlns:xlink="http://www.w3.org/1999/xlink" ffdec:objectType="frame" height="247.95px" width="247.2px" xmlns="http://www.w3.org/2000/svg">
  <g transform="matrix(1.0, 0.0, 0.0, 1.0, 125.65, 165.35)">
    <use ffdec:characterId="265" height="84.35" transform="matrix(1.0, 0.0, 0.0, 1.0, -77.85, -71.65)" width="102.6" xlink:href="#shape0"/>
  </g>
  <defs>
    <g id="shape0">
      <path d="M81.35 48.6 Q72.15 52.0 58.45 54.15 44.7 56.35 34.9 55.95 24.0 55.5 23.45 51.95 21.1 36.9 29.3 24.7 37.55 12.5 51.55 10.3 65.55 8.1 77.1 17.15 88.65 26.25 91.05 41.3 91.6 44.85 81.35 48.6" fill="#000000" fill-rule="evenodd" stroke="none"/>
      <path d="M35.25 21.2 Q41.9 14.4 51.6 12.85 64.35 10.85 74.85 19.1 85.4 27.4 87.55 41.1 88.0 43.9 81.0 46.85 69.8 43.7 54.55 36.8 48.8 34.25 39.6 25.55 L35.25 21.2" fill="#d5aa00" fill-rule="evenodd" stroke="none"/>
      <path d="M81.0 46.85 L80.6 47.05 78.75 47.75 78.4 47.9 72.5 49.75 72.1 49.85 72.05 49.85 Q65.8 51.55 57.9 52.8 45.4 54.8 36.45 54.4 26.55 54.0 26.05 50.8 23.9 37.1 31.35 26.0 L32.0 25.1 Q33.5 22.95 35.25 21.2 L39.6 25.55 Q48.8 34.25 54.55 36.8 69.8 43.7 81.0 46.85" fill="#b66d01" fill-rule="evenodd" stroke="none"/>
      <path d="M97.75 29.45 Q96.85 51.9 102.6 69.55 82.75 65.2 65.45 68.45 47.05 71.95 30.0 84.35 26.8 74.1 24.3 68.9 17.4 54.0 0.0 26.6 12.75 29.55 19.15 32.05 29.05 35.95 40.2 44.0 42.85 17.9 47.05 0.0 51.8 5.1 59.3 15.4 71.3 31.95 75.6 37.55 83.2 24.65 100.85 6.95 98.4 12.6 97.75 29.45" fill="#000000" fill-rule="evenodd" stroke="none"/>
      <path d="M42.65 46.2 Q45.5 20.35 48.75 7.15 53.05 11.5 60.7 21.65 71.4 35.85 76.4 42.0 L83.0 30.55 Q88.4 22.1 96.7 14.3 94.55 18.9 94.2 32.9 93.85 48.0 97.3 61.05 L97.85 63.0 99.05 66.75 Q80.65 63.0 64.6 65.8 L63.3 66.05 56.85 64.3 55.8 63.8 55.3 63.35 Q51.25 58.75 46.35 52.25 44.85 50.3 42.9 46.65 L42.65 46.2" fill="#ffea00" fill-rule="evenodd" stroke="none"/>
      <path d="M42.65 46.2 L42.9 46.65 Q44.85 50.3 46.35 52.25 51.25 58.75 55.3 63.35 L55.8 63.8 56.85 64.3 63.3 66.05 60.1 66.75 55.1 68.15 54.0 68.5 50.65 69.75 48.25 66.0 41.95 54.9 Q37.3 47.15 32.75 41.75 L37.6 44.8 41.75 47.55 42.1 47.75 42.45 48.0 42.65 46.2 M40.15 74.5 Q35.9 76.8 31.7 79.65 L30.25 74.65 30.0 73.8 29.5 72.4 27.15 66.65 Q23.0 57.55 13.7 42.95 L7.65 33.7 Q19.85 44.3 30.0 58.65 35.35 66.15 40.15 74.5" fill="#ffd800" fill-rule="evenodd" stroke="none"/>
      <path d="M50.65 69.75 L47.5 70.95 45.95 71.65 40.9 74.1 40.15 74.5 Q35.35 66.15 30.0 58.65 19.85 44.3 7.65 33.7 L5.35 30.3 Q9.15 31.45 14.45 33.45 25.1 37.45 32.75 41.75 37.3 47.15 41.95 54.9 L48.25 66.0 50.65 69.75" fill="#d5aa00" fill-rule="evenodd" stroke="none"/>
      <path d="M36.85 60.25 Q37.8 62.65 37.65 64.9 L37.45 66.4 36.7 68.4 Q35.95 69.6 34.7 70.1 L32.05 70.15 Q31.15 69.9 30.15 69.2 27.75 67.45 26.5 64.15 25.7 62.05 25.7 60.05 25.7 59.0 25.85 58.05 26.55 55.15 28.65 54.35 30.8 53.5 33.15 55.25 35.6 56.95 36.85 60.25" fill="#d5aa00" fill-rule="evenodd" stroke="none"/>
      <path d="M29.2 52.9 Q31.5 52.0 33.95 53.95 36.15 55.75 37.45 59.0 38.85 62.2 38.4 64.8 37.9 67.8 35.2 68.65 32.5 69.45 30.15 67.5 28.0 65.85 26.95 62.6 25.85 59.45 26.35 56.75 26.9 53.8 29.2 52.9 M36.9 65.4 L37.5 63.65 Q37.85 61.35 36.7 58.55 35.55 55.75 33.6 54.25 31.45 52.5 29.5 53.3 28.0 53.9 27.35 55.55 L27.2 55.85 27.15 56.15 27.1 56.3 27.0 56.65 Q26.75 58.1 27.0 59.65 L27.2 60.7 27.5 61.75 27.85 62.65 27.95 62.75 28.3 63.6 28.6 64.1 30.3 66.0 Q32.0 67.35 33.8 67.2 L34.7 67.0 36.05 66.3 36.9 65.4" fill="#000000" fill-rule="evenodd" stroke="none"/>
      <path d="M27.35 55.55 Q28.0 53.9 29.5 53.3 31.45 52.5 33.6 54.25 35.55 55.75 36.7 58.55 37.85 61.35 37.5 63.65 L36.9 65.4 36.55 65.3 Q34.6 65.05 32.8 63.9 30.6 62.45 29.35 60.75 28.0 58.9 27.8 57.7 27.75 57.05 27.5 56.7 L27.65 54.95 27.35 55.55 M33.75 57.0 Q33.75 54.95 31.75 54.25 29.7 53.6 29.7 55.95 29.7 56.75 30.0 57.3 30.55 58.5 32.15 58.5 33.75 58.5 33.75 57.0" fill="#1784ff" fill-rule="evenodd" stroke="none"/>
      <path d="M27.35 55.55 L27.65 54.95 27.5 56.7 Q27.75 57.05 27.8 57.7 28.0 58.9 29.35 60.75 30.6 62.45 32.8 63.9 34.6 65.05 36.55 65.3 L36.9 65.4 36.05 66.3 34.7 67.0 33.8 67.2 Q32.0 67.35 30.3 66.0 L28.6 64.1 28.3 63.6 27.95 62.75 27.85 62.65 27.5 61.75 27.2 60.7 27.0 59.65 Q26.75 58.1 27.0 56.65 L27.1 56.3 27.15 56.15 27.2 55.85 27.35 55.55" fill="#0062ce" fill-rule="evenodd" stroke="none"/>
      <path d="M33.75 57.0 Q33.75 58.5 32.15 58.5 30.55 58.5 30.0 57.3 29.7 56.75 29.7 55.95 29.7 53.6 31.75 54.25 33.75 54.95 33.75 57.0" fill="#84beff" fill-rule="evenodd" stroke="none"/>
      <path d="M62.15 42.75 Q64.85 44.55 65.75 48.05 66.65 51.5 65.6 55.05 64.55 58.75 62.15 60.05 59.85 61.35 56.95 59.05 54.2 56.9 53.45 53.8 52.55 50.05 52.95 47.15 53.45 43.3 56.25 42.1 59.25 40.85 62.15 42.75" fill="#d5aa00" fill-rule="evenodd" stroke="none"/>
      <path d="M65.3 53.6 Q66.2 51.15 65.3 47.75 64.6 44.4 62.7 42.35 60.65 40.05 58.3 40.5 56.45 40.9 55.4 42.8 L54.95 43.85 54.8 44.15 54.75 44.25 54.7 44.45 54.35 47.8 54.45 49.0 54.45 49.05 54.55 49.55 54.75 50.65 54.75 50.6 54.95 51.3 55.15 51.9 55.2 52.1 55.75 53.3 55.95 53.65 56.0 53.7 56.85 54.9 Q58.7 57.05 61.3 56.85 L61.6 56.8 63.65 56.0 64.0 55.75 64.2 55.55 64.15 55.55 64.55 55.1 65.3 53.6 M54.2 43.85 Q55.4 40.6 58.1 40.05 60.85 39.45 63.15 42.15 65.3 44.5 66.2 48.35 67.1 52.2 66.1 55.05 65.0 58.3 61.85 58.7 58.7 59.15 56.4 56.5 54.35 54.2 53.75 50.45 53.15 46.7 54.2 43.85" fill="#000000" fill-rule="evenodd" stroke="none"/>
      <path d="M63.15 46.8 Q63.15 43.8 61.2 42.45 59.2 41.15 59.2 44.0 59.25 45.05 59.6 46.0 60.3 47.95 61.95 47.95 L62.85 47.6 63.15 46.8 M55.4 42.8 Q56.45 40.9 58.3 40.5 60.65 40.05 62.7 42.35 64.6 44.4 65.3 47.75 66.2 51.15 65.3 53.6 L61.9 52.75 Q55.4 50.55 55.4 42.9 L55.4 42.8" fill="#1784ff" fill-rule="evenodd" stroke="none"/>
      <path d="M55.4 42.8 L55.4 42.9 Q55.4 50.55 61.9 52.75 L65.3 53.6 64.55 55.1 64.15 55.55 64.2 55.55 64.0 55.75 63.65 56.0 61.6 56.8 61.3 56.85 Q58.7 57.05 56.85 54.9 L56.0 53.7 55.95 53.65 55.75 53.3 55.2 52.1 55.15 51.9 54.95 51.3 54.75 50.6 54.75 50.65 54.55 49.55 54.45 49.05 54.45 49.0 54.35 47.8 54.7 44.45 54.75 44.25 54.8 44.15 54.95 43.85 55.4 42.8" fill="#0062ce" fill-rule="evenodd" stroke="none"/>
      <path d="M63.15 46.8 L62.85 47.6 61.95 47.95 Q60.3 47.95 59.6 46.0 59.25 45.05 59.2 44.0 59.2 41.15 61.2 42.45 63.15 43.8 63.15 46.8" fill="#84beff" fill-rule="evenodd" stroke="none"/>
      <path d="M92.25 46.05 Q94.3 48.3 94.4 51.05 94.65 54.4 93.85 56.85 92.85 60.0 90.3 60.65 87.55 61.25 85.35 59.2 83.3 57.25 83.1 54.1 82.85 51.05 84.3 48.2 85.7 45.15 87.95 44.4 90.1 43.65 92.25 46.05" fill="#d5aa00" fill-rule="evenodd" stroke="none"/>
      <path d="M93.2 56.25 Q94.55 54.5 95.0 51.6 95.45 48.65 94.5 46.35 93.65 43.8 91.5 43.5 89.45 43.1 87.7 45.1 L86.95 46.1 86.5 46.9 85.5 49.65 Q85.2 51.05 85.25 52.35 L85.25 52.4 Q85.3 53.65 85.7 54.8 L86.25 55.95 88.2 57.6 88.6 57.7 89.0 57.85 90.9 57.9 91.4 57.7 92.75 56.8 93.1 56.4 93.15 56.3 93.2 56.25 M91.45 43.05 Q93.9 43.4 94.95 46.35 95.95 49.0 95.5 52.4 95.0 55.9 93.3 57.9 91.35 60.15 88.6 59.55 85.85 58.85 84.85 56.0 83.9 53.45 84.6 50.15 85.25 46.9 87.1 44.9 89.05 42.6 91.45 43.05" fill="#000000" fill-rule="evenodd" stroke="none"/>
      <path d="M86.95 46.1 L87.7 45.1 Q89.45 43.1 91.5 43.5 93.65 43.8 94.5 46.35 95.45 48.65 95.0 51.6 94.55 54.5 93.2 56.25 90.35 55.6 88.4 52.85 86.6 50.25 86.6 48.45 L86.95 46.1 M93.8 49.4 L93.9 48.45 Q93.65 44.9 92.2 44.9 90.85 44.9 90.85 46.1 L91.3 48.15 Q91.95 50.2 92.7 50.2 93.6 50.2 93.8 49.4" fill="#1784ff" fill-rule="evenodd" stroke="none"/>
      <path d="M86.95 46.1 L86.6 48.45 Q86.6 50.25 88.4 52.85 90.35 55.6 93.2 56.25 L93.15 56.3 93.1 56.4 92.75 56.8 91.4 57.7 90.9 57.9 89.0 57.85 88.6 57.7 88.2 57.6 86.25 55.95 85.7 54.8 Q85.3 53.65 85.25 52.4 L85.25 52.35 Q85.2 51.05 85.5 49.65 L86.5 46.9 86.95 46.1" fill="#0062ce" fill-rule="evenodd" stroke="none"/>
      <path d="M93.8 49.4 Q93.6 50.2 92.7 50.2 91.95 50.2 91.3 48.15 L90.85 46.1 Q90.85 44.9 92.2 44.9 93.65 44.9 93.9 48.45 L93.8 49.4" fill="#84beff" fill-rule="evenodd" stroke="none"/>
      <path d="M97.3 61.05 Q97.7 61.1 97.75 61.8 L97.85 63.0 Q87.15 62.1 73.45 63.05 46.1 64.95 30.15 74.25 L30.05 74.1 30.0 73.8 29.5 72.4 Q45.55 62.95 65.45 60.5 81.1 58.55 97.3 61.05" fill="#b66d01" fill-rule="evenodd" stroke="none"/>
    </g>
  </defs>
</svg>
