<?xml version="1.0" encoding="UTF-8" standalone="no"?>
<svg xmlns:ffdec="https://www.free-decompiler.com/flash" xmlns:xlink="http://www.w3.org/1999/xlink" ffdec:objectType="frame" height="247.95px" width="247.2px" xmlns="http://www.w3.org/2000/svg">
  <g transform="matrix(1.0, 0.0, 0.0, 1.0, 125.65, 165.35)">
    <use ffdec:characterId="238" height="156.9" transform="matrix(0.4701, 0.0, 0.0, 0.4701, -99.9, -45.55)" width="412.9" xlink:href="#shape0"/>
  </g>
  <defs>
    <g id="shape0">
      <path d="M276.15 5.7 L283.4 31.0 Q255.6 32.0 227.2 32.1 170.4 32.3 167.25 27.9 163.4 22.55 173.35 18.45 183.8 14.15 214.3 9.15 243.8 4.3 262.95 4.5 272.5 4.65 276.15 5.7" fill="#000000" fill-rule="evenodd" stroke="none"/>
      <path d="M275.15 10.7 L282.4 36.0 Q254.6 37.0 226.2 37.1 169.4 37.3 166.25 32.9 162.4 27.55 172.35 23.45 182.8 19.15 213.3 14.15 242.8 9.3 261.95 9.5 271.5 9.65 275.15 10.7" fill="#4c4c4c" fill-rule="evenodd" stroke="none"/>
      <path d="M376.75 100.55 Q393.5 105.4 403.05 110.7 412.9 116.25 412.9 121.1 412.9 132.4 394.15 141.75 371.9 152.8 329.95 156.9 323.65 143.65 311.4 136.05 299.1 128.4 279.3 125.5 252.15 121.55 241.5 120.65 230.55 119.75 209.6 119.75 188.25 119.8 174.7 120.5 157.3 121.35 142.85 123.65 117.6 127.6 105.9 137.05 101.5 140.65 97.45 146.25 L90.65 156.4 Q0.15 151.4 0.0 122.55 -0.05 110.5 25.95 101.3 55.05 91.0 112.35 86.05 114.2 40.2 115.1 33.65 115.95 27.35 117.7 24.45 119.2 21.95 122.7 19.95 135.0 12.9 164.55 6.3 191.95 0.15 206.75 0.0 239.4 -0.35 249.8 12.3 251.5 14.4 254.75 21.05 256.7 24.95 259.45 24.9 263.1 24.95 264.9 21.95 265.9 20.25 267.05 15.35 268.1 10.65 269.4 8.85 271.4 5.9 275.5 6.05 287.9 6.5 291.45 40.1 292.35 48.6 293.2 67.15 293.95 82.8 294.85 87.75 339.8 89.85 376.75 100.55" fill="#000000" fill-rule="evenodd" stroke="none"/>
      <path d="M391.05 139.15 Q372.35 147.25 329.55 151.45 323.2 138.1 311.4 130.65 299.4 123.05 279.7 120.2 254.75 116.55 241.1 115.75 232.2 115.2 208.4 115.25 187.15 115.3 171.6 116.3 152.4 117.5 137.9 120.35 112.9 125.25 103.55 133.25 100.0 136.25 96.75 141.35 L90.65 150.95 Q44.6 148.35 27.1 143.3 5.55 137.05 5.5 122.55 5.45 110.8 30.15 102.8 57.1 94.0 115.25 89.0 117.0 47.2 119.1 36.25 120.3 29.95 122.45 26.8 124.15 24.3 127.75 22.25 139.65 15.4 167.05 10.55 190.4 6.4 206.75 6.25 239.4 5.9 249.4 17.1 251.05 18.95 254.1 24.8 255.95 28.25 258.7 28.2 263.9 28.6 266.3 25.65 267.85 23.7 268.75 19.0 269.75 13.95 270.6 12.55 272.25 9.75 276.25 10.4 283.2 11.55 287.05 44.35 L289.65 70.75 Q291.0 85.8 291.95 91.05 337.7 93.2 372.4 102.35 407.05 111.55 407.05 121.45 407.05 132.25 391.05 139.15" fill="#dedede" fill-rule="evenodd" stroke="none"/>
      <path d="M343.85 101.4 Q372.9 106.15 389.35 112.0 406.7 118.25 406.55 124.6 L406.5 125.45 Q403.75 134.6 387.15 140.7 368.25 147.65 329.55 151.45 323.2 138.1 311.4 130.65 299.4 123.05 279.7 120.2 254.75 116.55 241.1 115.75 232.2 115.2 208.4 115.25 187.15 115.3 171.6 116.3 152.4 117.5 137.9 120.35 112.9 125.25 103.55 133.25 100.0 136.25 96.75 141.35 L90.65 150.95 Q44.6 148.35 27.1 143.3 5.55 137.05 5.5 122.55 5.5 119.95 6.65 117.65 14.35 110.75 44.4 103.9 70.95 97.85 96.2 95.6 L143.1 92.85 Q167.05 92.05 208.05 91.8 281.7 91.3 343.85 101.4" fill="#8c8c8c" fill-rule="evenodd" stroke="none"/>
      <path d="M295.1 91.2 L298.95 91.45 298.95 91.75 295.1 91.2 M249.4 17.1 Q251.05 18.95 254.1 24.8 255.95 28.25 258.7 28.2 263.9 28.6 266.3 25.65 267.85 23.7 268.75 19.0 269.75 13.95 270.6 12.55 272.25 9.75 276.25 10.4 283.15 11.55 287.05 44.2 L289.6 70.5 Q290.95 85.6 291.9 90.85 L263.05 88.55 Q238.8 87.2 208.35 86.9 148.5 86.35 115.3 88.5 117.0 47.05 119.1 36.2 120.3 29.95 122.45 26.8 124.15 24.3 127.75 22.25 139.65 15.4 167.05 10.55 190.4 6.4 206.75 6.25 239.4 5.9 249.4 17.1" fill="#bebebe" fill-rule="evenodd" stroke="none"/>
      <path d="M290.0 74.65 Q290.85 84.4 291.6 88.95 244.8 83.15 212.75 84.3 L115.3 87.8 115.8 76.1 Q150.3 70.75 206.9 69.95 257.4 69.2 290.0 74.65" fill="#363636" fill-rule="evenodd" stroke="none"/>
      <path d="M292.45 86.95 L294.0 91.15 263.0 89.0 204.85 87.15 Q168.7 87.5 114.3 88.9 L114.65 85.4 Q169.85 83.45 205.9 83.25 L262.1 85.05 292.45 86.95" fill="#000000" fill-rule="evenodd" stroke="none"/>
    </g>
  </defs>
</svg>
