<?xml version="1.0" encoding="UTF-8" standalone="no"?>
<svg xmlns:ffdec="https://www.free-decompiler.com/flash" xmlns:xlink="http://www.w3.org/1999/xlink" ffdec:objectType="frame" height="247.95px" width="247.2px" xmlns="http://www.w3.org/2000/svg">
  <g transform="matrix(1.0, 0.0, 0.0, 1.0, 125.65, 165.35)">
    <use ffdec:characterId="221" height="80.35" transform="matrix(0.9142, 0.0, 0.0, 0.9142, -76.45, -48.95)" width="165.6" xlink:href="#sprite0"/>
  </g>
  <defs>
    <g id="sprite0">
      <use ffdec:characterId="220" height="80.35" transform="matrix(1.0, 0.0, 0.0, 1.0, 0.0, 0.0)" width="165.6" xlink:href="#shape0"/>
    </g>
    <g id="shape0">
      <path d="M122.1 23.0 Q124.25 33.15 127.65 51.45 144.25 53.3 154.05 56.3 164.7 59.55 165.55 63.65 166.35 67.5 158.2 70.85 150.6 73.95 136.35 76.3 122.7 78.5 105.55 79.55 88.35 80.6 71.3 80.25 38.9 79.6 18.8 75.05 9.7 73.0 4.85 70.45 0.05 67.95 0.0 65.3 -0.05 61.35 9.95 57.8 20.3 54.1 38.45 51.85 40.5 46.6 42.25 36.35 L44.85 19.0 42.2 17.45 Q39.35 15.95 38.1 15.75 40.2 17.1 41.05 18.2 42.4 19.85 41.5 21.45 40.85 22.55 37.05 23.5 L34.4 24.7 Q32.3 25.55 30.65 25.2 28.8 24.75 28.75 22.75 L29.0 19.3 Q27.2 21.9 25.45 22.6 L22.0 22.45 Q20.8 21.95 20.15 20.7 L19.35 18.75 17.9 16.15 Q17.15 14.4 17.4 13.5 17.75 12.2 19.3 11.55 20.75 10.95 22.85 11.1 20.25 9.85 20.4 7.25 20.5 5.05 22.15 3.95 L23.8 3.1 Q23.85 2.75 25.55 1.5 27.45 0.1 28.5 0.35 L30.0 0.7 Q30.85 1.05 31.6 2.2 L31.9 4.2 31.95 7.25 Q33.0 3.55 33.85 2.05 35.05 -0.1 36.65 0.05 38.45 0.25 39.85 1.7 L41.2 3.3 43.85 5.15 Q45.0 6.3 45.0 8.15 45.05 10.25 41.25 11.65 42.5 11.9 43.75 12.5 L46.1 13.75 Q46.9 9.5 47.6 7.35 48.5 4.6 49.7 4.05 53.3 2.35 60.65 1.65 L79.4 0.55 Q93.3 -0.2 102.6 0.1 L115.05 1.25 Q118.2 4.4 122.1 23.0" fill="#000000" fill-rule="evenodd" stroke="none"/>
      <path d="M155.6 58.8 Q161.8 61.1 161.8 63.7 161.85 66.35 155.75 68.8 149.8 71.2 139.0 73.15 116.15 77.2 83.7 77.65 51.3 78.1 28.35 74.65 17.5 73.0 11.5 70.8 5.35 68.5 5.3 65.85 5.25 63.25 11.35 60.75 17.3 58.35 28.1 56.45 51.0 52.35 83.4 51.9 115.8 51.45 138.75 54.95 149.6 56.55 155.6 58.8" fill="#317331" fill-rule="evenodd" stroke="none"/>
      <path d="M5.3 66.05 L5.3 65.85 Q5.25 62.4 15.55 59.35 25.5 56.3 42.65 54.35 L40.2 62.45 28.15 61.6 Q14.3 61.65 5.3 66.05 M130.3 58.8 Q128.35 59.35 126.9 60.15 L125.8 60.85 123.85 53.25 Q138.55 54.5 148.2 56.7 158.05 58.9 160.8 61.7 L144.75 58.7 Q136.45 57.05 130.3 58.8" fill="#175917" fill-rule="evenodd" stroke="none"/>
      <path d="M120.75 30.55 L127.05 61.1 Q109.35 67.9 80.95 67.7 L57.85 66.35 Q47.25 65.1 39.6 63.15 42.8 54.3 46.3 31.3 L48.7 16.25 Q50.1 9.2 51.45 6.75 L64.1 4.5 80.1 3.0 Q91.55 2.35 102.2 3.1 L108.95 3.7 113.15 3.95 Q116.35 10.65 120.75 30.55" fill="#134a13" fill-rule="evenodd" stroke="none"/>
      <path d="M121.9 36.05 L125.85 55.5 Q110.75 60.05 87.6 61.35 72.25 62.25 59.0 60.9 49.15 59.9 41.25 57.8 43.25 50.45 45.3 37.65 53.4 39.35 62.55 40.1 75.05 41.15 88.1 40.4 103.9 39.45 121.9 36.05" fill="#0b2a06" fill-rule="evenodd" stroke="none"/>
      <path d="M113.15 3.95 L113.3 4.25 Q99.15 6.75 78.65 7.45 63.45 8.0 51.3 6.95 L51.45 6.75 64.1 4.5 80.1 3.0 Q91.55 2.35 102.2 3.1 L108.95 3.7 113.15 3.95" fill="#317331" fill-rule="evenodd" stroke="none"/>
      <path d="M119.15 47.65 Q118.5 38.95 116.3 37.25 114.1 35.55 104.3 36.5 L97.0 37.55 Q93.65 38.3 92.8 39.1 92.0 39.85 91.3 43.2 90.65 46.45 90.5 50.3 90.05 60.05 92.7 61.55 94.05 62.3 98.05 62.55 101.8 62.8 106.25 62.45 117.05 61.6 118.35 59.0 119.8 56.1 119.15 47.65 M112.2 32.95 Q116.65 33.0 117.7 33.55 118.75 34.05 119.9 37.95 120.95 41.55 121.65 46.5 122.35 51.55 122.4 55.45 122.4 59.75 121.45 60.9 120.55 62.15 116.0 63.35 111.8 64.45 106.2 65.15 L96.15 65.75 Q91.35 65.65 89.95 64.65 88.2 63.35 87.3 59.05 86.45 55.3 86.45 50.1 86.4 45.35 87.05 41.25 87.65 37.1 88.6 35.85 90.0 34.1 102.8 33.2 L112.2 32.95" fill="#ffd800" fill-rule="evenodd" stroke="none"/>
      <path d="M48.25 16.0 L51.25 18.5 Q54.5 21.6 55.9 24.65 58.25 29.6 58.7 35.25 58.95 38.05 58.7 39.9 L51.05 38.65 51.15 36.0 Q51.15 32.75 50.8 30.1 50.5 27.5 48.85 24.05 L47.25 21.1 48.25 16.0" fill="#082204" fill-rule="evenodd" stroke="none"/>
      <path d="M20.85 18.35 L19.4 16.55 Q18.55 15.55 18.75 13.9 18.95 12.1 23.3 11.9 L27.55 12.05 Q26.0 11.7 24.45 10.95 21.35 9.5 21.5 7.8 21.7 5.85 22.6 5.3 23.9 4.85 24.75 4.1 L26.65 2.2 Q27.4 1.6 29.05 1.8 30.65 1.95 31.25 6.5 L31.5 11.0 Q32.25 8.7 33.3 6.4 35.4 1.8 37.05 1.75 38.55 1.75 39.2 2.65 L39.75 3.55 40.55 4.55 Q41.35 5.2 42.3 5.4 43.0 5.8 43.55 7.75 43.95 9.3 40.0 10.8 L35.95 12.0 37.1 12.05 40.2 12.65 Q45.4 14.15 50.1 18.65 54.85 23.15 56.5 31.8 57.35 36.15 57.25 39.6 L53.45 38.9 Q54.05 36.3 53.6 32.55 52.7 25.1 47.55 19.6 44.2 16.0 39.35 14.95 L36.3 14.6 35.15 14.65 37.75 16.9 Q40.4 19.35 40.3 20.25 40.2 21.4 38.9 21.75 37.1 22.0 36.1 22.4 35.55 22.6 34.85 23.15 L33.85 23.9 Q32.7 24.6 30.85 23.35 29.75 22.6 29.9 19.45 L30.2 16.45 27.45 19.5 Q24.4 22.4 22.9 21.65 21.55 20.95 21.35 20.3 21.3 19.3 20.85 18.35" fill="#317331" fill-rule="evenodd" stroke="none"/>
      <path d="M25.45 5.2 L28.2 7.7 Q31.0 10.65 31.5 12.8 33.15 10.35 36.45 7.75 L39.4 5.65 36.65 9.15 Q33.6 12.75 32.25 13.6 33.25 14.1 34.5 17.5 L35.55 20.75 33.3 18.35 Q31.0 15.7 30.8 14.2 29.2 15.25 25.25 16.35 L21.65 17.25 24.4 15.4 Q27.65 13.45 29.95 13.0 28.35 12.0 26.75 8.5 L25.45 5.2" fill="#084608" fill-rule="evenodd" stroke="none"/>
    </g>
  </defs>
</svg>
