<?xml version="1.0" encoding="UTF-8" standalone="no"?>
<svg xmlns:ffdec="https://www.free-decompiler.com/flash" xmlns:xlink="http://www.w3.org/1999/xlink" ffdec:objectType="frame" height="247.95px" width="247.2px" xmlns="http://www.w3.org/2000/svg">
  <g transform="matrix(1.0, 0.0, 0.0, 1.0, 125.65, 165.35)">
    <use ffdec:characterId="270" height="93.05" transform="matrix(0.9119, -0.0482, 0.0482, 0.912, -89.1, -56.85)" width="160.9" xlink:href="#shape0"/>
  </g>
  <defs>
    <g id="shape0">
      <path d="M110.6 11.6 Q110.55 14.8 115.8 34.9 122.35 37.35 133.8 43.75 L147.2 51.35 Q156.5 56.35 159.55 65.05 161.9 71.65 160.1 75.7 157.8 80.7 146.95 83.6 142.3 84.85 125.2 85.1 L97.15 84.05 75.25 84.9 Q57.05 86.7 50.95 89.75 45.3 92.6 35.85 93.0 L21.7 92.15 Q14.2 90.95 7.65 84.05 -0.95 75.05 0.1 62.0 1.05 49.7 6.45 43.4 10.9 38.15 19.45 35.8 26.25 33.9 36.45 36.1 45.25 37.95 47.3 39.95 47.75 34.75 52.85 23.35 58.1 11.75 61.35 9.2 64.4 6.8 73.45 4.3 81.3 2.2 86.7 1.65 L94.6 0.95 100.35 0.0 Q101.45 0.05 103.9 1.05 106.85 2.2 107.15 3.2 107.9 3.35 109.1 5.65 110.6 8.45 110.6 11.6" fill="#222222" fill-rule="evenodd" stroke="none"/>
      <path d="M89.85 76.7 L89.9 76.7 90.6 77.3 94.8 80.15 95.0 80.3 95.35 80.5 96.35 81.1 96.7 81.25 Q67.2 80.0 51.2 85.7 L40.75 89.35 Q34.9 90.8 26.95 90.0 19.6 89.3 13.8 85.35 6.65 80.5 4.1 71.7 L4.05 71.6 3.5 68.8 Q6.55 72.65 12.0 75.95 22.95 82.6 35.15 79.3 56.75 73.35 89.85 76.7" fill="#c86811" fill-rule="evenodd" stroke="none"/>
      <path d="M3.5 68.8 Q2.95 64.8 3.6 59.7 4.3 53.9 5.95 49.9 9.0 42.65 18.0 39.25 25.55 36.4 31.9 37.6 42.6 39.7 54.05 47.55 L71.35 61.1 85.2 72.9 89.85 76.7 Q56.75 73.35 35.15 79.3 22.95 82.6 12.0 75.95 6.55 72.65 3.5 68.8" fill="#dd7e15" fill-rule="evenodd" stroke="none"/>
      <path d="M123.4 57.8 L123.7 58.0 Q125.95 59.05 131.0 60.65 136.45 62.4 139.05 63.5 144.15 65.7 148.45 68.0 154.25 71.05 156.05 73.0 L156.45 73.45 Q155.85 74.85 154.75 76.0 150.4 80.3 136.95 82.2 122.85 84.25 110.0 81.8 100.4 79.9 91.4 73.9 89.75 72.8 87.85 71.3 99.6 73.05 113.05 70.95 126.45 68.85 126.1 66.95 130.35 72.95 133.75 73.65 130.15 71.85 126.1 63.8 L123.4 57.8 M67.4 54.2 L66.45 53.45 Q63.75 43.9 63.9 35.5 64.15 22.1 72.8 9.2 L75.4 5.7 Q80.25 4.25 85.95 3.75 97.65 2.75 103.5 5.5 106.0 6.7 107.4 12.35 L108.6 20.45 Q108.95 24.0 111.2 31.6 114.25 41.85 119.45 54.55 L119.5 54.6 99.65 55.45 Q80.75 55.4 74.2 54.8 L67.4 54.2" fill="#ec993e" fill-rule="evenodd" stroke="none"/>
      <path d="M123.4 57.8 L123.0 56.85 122.3 55.0 117.3 39.6 117.15 39.15 Q127.7 43.6 137.25 48.75 146.7 53.8 150.5 57.1 155.35 61.25 156.65 66.6 L156.8 67.25 157.05 71.05 156.45 73.45 156.05 73.0 Q154.25 71.05 148.45 68.0 144.15 65.7 139.05 63.5 136.45 62.4 131.0 60.65 125.95 59.05 123.7 58.0 L123.4 57.8 M66.45 53.45 L66.2 53.25 64.95 52.25 Q54.25 44.0 49.75 41.1 54.2 27.7 56.3 22.45 59.85 13.7 63.75 11.0 68.8 7.5 75.4 5.7 L72.8 9.2 Q64.15 22.1 63.9 35.5 63.75 43.9 66.45 53.45" fill="#dd7e15" fill-rule="evenodd" stroke="none"/>
      <path d="M87.85 71.3 Q85.95 69.85 83.85 68.0 L81.5 65.9 78.9 63.55 74.65 59.95 71.25 57.2 75.7 57.6 92.05 57.9 93.05 57.7 107.15 57.85 120.4 56.25 124.85 64.75 125.8 66.55 125.9 66.65 126.1 66.95 Q126.45 68.85 113.05 70.95 99.6 73.05 87.85 71.3" fill="#4b1b03" fill-rule="evenodd" stroke="none"/>
      <path d="M71.25 57.2 L69.35 55.75 67.4 54.2 74.2 54.8 Q80.75 55.4 99.65 55.45 L119.5 54.6 120.4 56.25 107.15 57.85 93.05 57.7 92.05 57.9 75.7 57.6 71.25 57.2" fill="#f3c189" fill-rule="evenodd" stroke="none"/>
    </g>
  </defs>
</svg>
