<?xml version="1.0" encoding="UTF-8" standalone="no"?>
<svg xmlns:ffdec="https://www.free-decompiler.com/flash" xmlns:xlink="http://www.w3.org/1999/xlink" ffdec:objectType="frame" height="247.95px" width="247.2px" xmlns="http://www.w3.org/2000/svg">
  <g transform="matrix(1.0, 0.0, 0.0, 1.0, 125.65, 165.35)">
    <use ffdec:characterId="45" height="136.15" transform="matrix(0.8663, 0.0, 0.0, 0.8663, -56.25, -94.5)" width="125.7" xlink:href="#shape0"/>
  </g>
  <defs>
    <g id="shape0">
      <path d="M104.65 53.85 Q109.0 54.7 111.0 55.7 113.2 56.8 117.8 66.35 L123.3 78.55 Q125.15 82.55 125.6 88.65 126.15 96.2 122.85 97.55 119.95 98.75 115.7 98.2 111.65 97.65 107.45 95.65 97.9 91.0 94.9 83.25 L90.85 92.25 94.2 94.6 Q97.75 97.25 98.8 98.7 L102.15 102.8 Q104.7 105.2 107.85 105.4 111.25 105.7 114.65 113.5 117.65 120.4 117.95 125.4 107.45 120.7 90.45 118.85 75.0 117.25 59.45 118.5 46.95 119.45 28.75 125.95 20.25 128.95 3.5 136.15 0.2 135.4 0.0 130.75 0.0 129.5 0.7 124.05 1.15 120.55 3.95 115.55 7.55 109.15 11.65 108.6 13.05 108.4 14.2 104.8 15.55 100.5 16.15 99.75 17.95 97.65 19.75 96.35 22.8 94.2 28.35 91.9 23.7 86.05 17.05 72.55 9.8 57.85 5.4 44.35 1.05 30.75 3.4 15.9 4.4 9.55 6.5 5.3 8.6 1.0 11.15 0.3 20.2 -2.2 34.45 15.7 41.95 25.2 51.2 40.35 53.15 43.2 55.3 57.65 57.4 71.6 58.0 84.5 L59.6 84.1 62.55 83.9 Q66.65 66.4 71.65 56.9 75.6 49.45 79.25 48.1 81.75 47.2 88.55 49.3 L97.85 52.45 104.65 53.85" fill="#010101" fill-rule="evenodd" stroke="none"/>
      <path d="M104.8 56.95 Q108.85 57.6 112.8 63.5 116.2 68.5 118.75 76.1 121.1 83.0 121.7 88.6 122.3 94.3 120.65 94.65 114.7 96.1 106.4 90.55 98.1 85.05 94.95 77.7 93.65 78.5 92.0 81.2 90.0 84.35 85.0 94.0 89.95 96.25 93.35 98.9 95.4 100.5 100.2 105.25 102.7 107.7 105.4 108.15 108.7 108.65 111.1 114.25 112.35 117.15 113.5 122.05 104.35 118.05 91.45 116.15 77.95 114.2 63.4 115.0 29.2 116.95 4.05 132.4 2.95 131.55 3.4 128.4 3.8 125.5 5.3 121.85 6.85 118.1 8.8 115.3 11.0 112.25 13.05 111.5 14.65 110.75 15.4 109.45 L16.45 106.75 Q17.85 102.65 22.2 100.0 28.7 95.9 34.5 93.55 27.4 83.9 21.35 72.25 14.75 59.55 11.0 47.6 2.1 18.55 12.65 4.3 15.75 0.1 29.85 17.9 40.85 31.8 47.75 43.85 50.0 47.7 55.65 88.75 L58.25 88.6 66.2 88.85 Q68.4 76.05 72.2 65.8 77.4 51.65 82.9 52.05 88.3 52.45 93.3 54.05 99.4 56.05 104.8 56.95" fill="#f2fbff" fill-rule="evenodd" stroke="none"/>
      <path d="M13.0 111.85 Q11.95 113.15 11.2 115.25 10.3 117.85 10.5 119.85 11.15 125.55 20.25 124.3 11.7 127.75 4.05 132.4 2.95 131.55 3.4 128.4 3.8 125.5 5.3 121.85 6.85 118.1 8.8 115.3 11.0 112.25 13.05 111.5 L13.6 111.2 13.0 111.85 M22.4 99.85 Q21.85 102.3 23.55 103.95 25.85 106.1 31.7 106.1 L20.15 108.6 Q16.15 109.5 14.75 110.35 15.45 109.6 15.95 108.3 L16.8 105.85 Q18.2 102.45 22.2 100.0 L22.4 99.85 M82.7 52.0 Q83.0 56.0 83.55 58.0 84.25 60.35 88.55 67.45 L94.75 77.8 Q93.55 78.6 91.8 81.4 89.8 84.7 85.0 94.0 89.95 96.25 93.35 98.9 L95.55 100.7 88.15 99.75 Q80.15 98.3 75.55 96.2 69.4 93.35 66.3 88.3 68.55 75.6 72.25 65.6 77.35 51.85 82.7 52.0" fill="#c0d6e0" fill-rule="evenodd" stroke="none"/>
      <path d="M14.15 16.95 L17.75 19.95 Q17.9 18.75 18.2 17.5 18.7 14.95 19.05 14.65 19.5 14.35 31.0 28.7 42.5 42.95 43.95 45.5 45.15 47.45 48.85 68.7 L52.3 89.55 46.7 81.2 45.85 85.8 40.65 73.55 40.65 87.55 38.5 84.35 38.2 84.4 Q37.9 84.55 37.75 85.15 37.25 86.9 38.5 91.85 26.8 75.8 19.25 50.05 15.45 37.15 14.0 27.45 L14.15 16.95 M82.25 56.15 Q84.85 62.75 88.6 68.35 L92.35 73.55 84.15 90.4 84.4 80.75 79.95 84.5 81.85 73.55 70.3 86.65 Q72.4 79.2 74.95 71.65 80.0 56.6 82.25 56.15" fill="#d0506b" fill-rule="evenodd" stroke="none"/>
      <path d="M20.9 23.45 Q21.65 22.3 22.75 22.85 L25.55 24.3 Q27.15 24.9 33.25 32.8 39.75 41.2 41.95 46.2 44.5 52.0 46.4 62.15 48.35 72.85 46.85 74.7 45.3 76.6 39.35 73.0 33.55 69.6 30.75 65.65 29.25 63.6 26.95 58.05 24.45 52.05 22.55 45.75 17.55 28.85 20.9 23.45" fill="#fe7793" fill-rule="evenodd" stroke="none"/>
      <path d="M107.9 105.65 L110.65 110.25 100.6 107.55 Q89.3 104.85 82.7 104.95 92.95 104.3 101.45 104.95 L107.9 105.65 M13.7 112.85 Q8.1 115.6 5.65 118.05 L7.3 114.9 Q9.1 111.65 10.1 111.0 14.2 108.6 21.9 107.05 31.25 105.15 40.65 105.8 24.9 107.35 13.7 112.85" fill="#010101" fill-rule="evenodd" stroke="none"/>
    </g>
  </defs>
</svg>
