<?xml version="1.0" encoding="UTF-8" standalone="no"?>
<svg xmlns:ffdec="https://www.free-decompiler.com/flash" xmlns:xlink="http://www.w3.org/1999/xlink" ffdec:objectType="frame" height="247.95px" width="247.2px" xmlns="http://www.w3.org/2000/svg">
  <g transform="matrix(1.0, 0.0, 0.0, 1.0, 125.65, 165.35)">
    <use ffdec:characterId="253" height="106.05" transform="matrix(0.9586, -0.0491, 0.0491, 0.9586, -82.25, -80.15)" width="147.45" xlink:href="#shape0"/>
  </g>
  <defs>
    <g id="shape0">
      <path d="M143.45 4.35 Q148.1 6.85 147.35 11.75 147.0 14.25 145.4 16.8 146.2 21.7 144.3 25.45 142.9 28.1 140.0 30.3 139.1 34.0 137.85 36.25 135.3 40.7 130.65 42.35 130.4 45.1 128.25 47.15 126.3 49.1 123.45 49.75 122.2 53.35 120.85 54.5 L117.8 56.0 Q117.1 60.1 113.7 62.85 L110.85 64.75 108.45 66.1 108.75 66.6 108.9 67.65 Q112.05 68.25 113.3 70.25 L114.4 72.5 Q116.85 73.65 118.0 74.85 119.9 76.75 120.1 79.6 L122.55 81.65 Q123.9 83.2 124.85 86.0 126.35 90.45 125.0 95.05 123.55 99.8 120.55 99.2 117.95 98.65 117.3 98.0 L116.25 96.65 Q113.15 97.65 110.95 95.95 L109.3 94.6 Q108.35 93.9 107.35 93.8 L104.2 94.1 101.5 94.45 Q100.7 94.4 98.9 93.4 97.15 92.4 94.5 92.3 L90.7 92.7 88.35 92.95 Q87.85 92.85 85.35 91.75 83.5 90.9 81.45 91.25 L75.95 92.65 Q74.55 93.0 73.4 92.25 L72.55 91.4 71.3 92.65 Q70.55 93.2 69.5 93.35 68.35 93.6 66.7 92.85 65.05 92.15 63.8 92.4 62.8 92.55 61.35 93.45 59.9 94.35 58.85 94.5 L57.2 94.15 55.05 94.05 Q53.9 94.2 52.65 94.95 L50.6 96.2 47.45 96.5 Q45.4 96.5 44.05 97.2 L41.45 98.85 39.7 100.35 38.0 100.8 36.35 100.4 Q35.9 102.15 34.35 102.8 L30.65 103.05 Q29.5 105.3 27.15 105.9 24.5 106.55 22.9 103.95 22.05 102.5 22.55 99.8 L23.4 95.1 Q23.5 93.0 24.55 90.95 L26.4 88.1 Q26.3 80.5 33.0 76.9 32.9 74.6 35.3 72.6 37.65 70.7 39.9 70.8 40.0 69.9 40.75 69.1 L41.85 68.25 Q41.3 67.4 41.25 66.4 41.15 65.5 41.45 65.0 40.0 64.75 39.1 62.55 L37.35 63.8 35.15 64.55 Q33.1 67.75 30.9 69.05 28.55 70.45 23.95 70.9 21.55 72.7 17.85 72.85 14.25 73.05 10.75 71.65 L6.0 71.2 Q2.7 70.3 2.25 67.25 -0.9 63.6 0.4 59.3 1.45 55.85 4.45 53.8 3.35 49.05 6.35 45.35 8.75 42.35 12.25 41.35 12.75 38.4 14.4 36.5 15.9 34.75 18.25 34.15 19.85 29.3 23.85 27.5 26.7 26.25 29.9 26.75 31.35 25.45 33.65 25.4 35.65 25.35 36.4 26.05 39.1 24.35 43.25 25.65 44.65 24.8 46.8 25.05 48.75 25.3 49.85 26.15 L52.5 26.0 Q53.8 26.15 54.7 26.75 59.5 25.25 62.95 27.35 65.55 28.95 65.8 30.85 69.05 32.05 70.15 35.15 71.05 37.55 70.4 39.25 71.9 40.25 72.0 41.8 L71.6 44.5 Q73.0 45.5 73.2 46.95 73.35 48.25 72.55 50.45 73.6 51.2 74.1 52.8 74.7 54.75 74.15 56.95 L74.85 57.4 75.45 58.2 75.75 57.2 76.05 56.4 Q75.25 53.85 75.25 52.2 75.25 49.25 78.2 47.35 77.85 44.55 78.5 42.6 79.15 40.45 81.15 38.7 80.45 35.5 81.9 33.05 83.2 30.9 85.6 30.15 85.55 26.0 87.75 22.9 90.1 19.65 93.85 19.35 94.6 15.55 97.4 14.15 98.3 13.65 99.5 13.4 L101.05 13.1 Q102.0 11.3 104.15 9.95 107.3 7.95 111.25 8.85 117.45 1.3 124.85 3.0 128.4 0.35 133.6 0.05 140.15 -0.35 143.45 4.35" fill="#000000" fill-rule="evenodd" stroke="none"/>
      <path d="M140.9 6.5 Q143.5 7.2 143.85 10.65 144.2 14.25 141.6 16.2 143.6 18.25 142.0 22.65 140.3 27.2 136.5 28.2 137.05 29.3 136.75 31.15 136.5 33.0 135.45 34.85 132.8 39.35 128.25 39.95 128.25 42.65 126.9 44.35 125.1 46.5 121.15 46.8 L120.1 50.85 Q118.8 53.25 115.35 53.35 115.65 56.15 113.6 59.0 111.0 62.55 105.95 63.6 105.95 65.25 105.2 65.85 104.0 66.85 99.15 68.1 L104.4 67.95 Q106.5 68.25 105.7 70.55 108.8 70.2 110.3 71.3 111.85 72.4 111.4 74.8 113.8 74.8 115.85 77.05 118.05 79.55 117.3 82.45 120.15 82.9 121.65 87.0 123.3 91.45 121.5 96.3 120.7 94.85 118.2 93.95 115.45 92.9 113.9 94.15 112.1 91.85 108.6 91.05 104.9 90.2 101.9 91.65 100.7 90.2 96.4 89.45 91.75 88.65 89.55 90.05 88.35 88.6 84.55 88.4 80.3 88.2 76.25 89.95 75.15 88.2 72.8 88.15 70.4 88.1 69.1 90.1 67.3 88.85 64.05 89.15 60.7 89.45 58.9 91.3 57.5 90.35 54.5 91.05 51.75 91.65 49.0 93.35 47.35 92.85 44.15 94.1 40.7 95.5 38.25 97.95 L34.55 98.05 Q32.95 98.95 32.35 100.9 27.35 98.4 25.35 102.55 23.8 95.8 29.7 89.15 29.0 85.85 30.45 83.2 32.0 80.45 35.65 78.9 35.55 76.4 37.35 74.8 39.2 73.15 41.8 73.45 42.7 71.0 43.5 70.5 L48.4 70.1 Q45.4 68.95 44.4 67.8 43.05 66.25 44.85 64.5 42.65 63.85 41.95 62.4 41.25 61.0 41.8 58.5 40.85 58.6 40.55 57.7 40.3 57.0 40.05 53.6 39.95 56.75 37.95 59.3 35.85 61.9 33.25 62.0 32.7 64.9 29.25 66.8 25.85 68.65 23.0 67.85 22.0 70.05 17.25 70.35 12.55 70.65 10.95 68.6 9.65 69.9 6.9 68.65 4.1 67.45 5.0 65.8 4.35 65.6 3.75 64.55 3.1 63.4 3.1 61.95 3.15 58.05 7.75 55.35 6.25 49.95 8.95 47.0 10.7 45.0 15.15 43.6 14.15 37.9 20.9 36.8 20.9 33.15 23.95 30.95 27.0 28.6 30.25 30.25 31.05 28.5 33.5 28.45 35.35 28.4 36.7 29.15 37.65 27.9 40.05 27.8 42.55 27.75 43.1 29.3 44.05 27.85 46.1 27.85 48.2 27.85 49.05 29.5 50.35 28.4 52.25 28.65 54.15 28.95 54.35 30.1 56.9 28.1 60.05 29.0 63.3 29.9 63.4 33.1 66.4 33.1 67.25 36.4 67.55 37.7 67.25 38.95 67.0 40.2 66.15 40.65 68.6 41.05 68.95 42.8 69.25 44.4 67.6 45.1 70.25 46.25 70.15 48.35 70.05 50.05 68.75 51.1 70.8 52.3 71.2 54.95 71.6 57.65 69.75 58.3 72.3 59.1 71.8 62.75 71.5 64.85 70.4 67.15 71.7 65.35 72.9 64.85 74.3 64.2 75.25 65.55 76.1 63.95 77.55 64.4 78.75 64.8 79.7 66.3 78.1 63.35 78.0 60.75 77.85 57.7 80.05 56.6 79.45 56.6 78.85 55.45 78.15 54.3 78.1 52.95 77.85 49.35 81.85 49.45 80.65 46.15 81.2 43.85 81.85 41.1 85.0 40.7 83.45 38.0 83.75 36.15 84.2 33.3 88.75 32.75 87.55 28.95 89.7 25.45 92.05 21.6 96.15 22.8 96.4 18.95 97.6 17.65 99.2 15.85 103.1 17.35 102.35 16.65 102.9 15.25 103.5 13.9 104.9 12.8 108.65 9.95 112.5 12.25 114.85 8.55 118.45 6.6 122.9 4.2 126.2 6.95 127.25 4.9 129.5 3.85 131.55 2.85 134.1 2.9 136.5 2.95 138.35 3.9 140.35 4.9 140.9 6.5" fill="#ff7eb2" fill-rule="evenodd" stroke="none"/>
      <path d="M81.1 44.4 L82.2 42.0 Q83.15 40.9 85.0 40.7 L84.4 39.55 Q87.1 40.25 87.4 43.05 87.6 45.4 86.15 50.05 88.35 50.05 91.5 54.35 L93.65 57.3 Q94.8 58.7 95.5 58.75 96.9 58.9 100.8 57.25 L104.4 55.55 Q107.2 55.4 107.9 56.15 108.4 56.7 107.9 57.85 111.7 58.3 113.6 58.95 111.05 62.55 105.95 63.6 L105.8 65.1 Q105.5 65.8 104.3 66.4 L98.7 67.9 Q96.1 68.65 95.5 69.05 94.1 66.9 92.65 66.7 91.3 66.55 89.6 68.15 86.7 65.25 81.2 68.8 81.0 67.05 79.15 65.15 77.9 62.4 78.0 60.2 78.1 57.6 80.05 56.6 79.45 56.6 78.85 55.45 78.15 54.3 78.1 52.95 77.85 49.35 81.85 49.45 80.85 46.55 81.1 44.4 M67.0 40.85 Q68.85 41.5 68.95 43.05 69.05 44.5 67.6 45.1 70.25 46.25 70.15 48.35 70.05 50.05 68.75 51.1 70.8 52.3 71.2 54.95 71.6 57.65 69.75 58.3 73.05 59.35 71.25 65.0 68.5 64.65 65.6 65.75 62.3 66.95 63.0 69.1 59.8 67.35 57.75 69.1 56.1 70.55 56.1 72.65 54.9 70.7 51.3 72.05 49.85 72.6 48.9 73.55 47.85 74.55 48.0 75.5 45.75 74.15 43.75 76.1 41.75 78.1 42.95 80.05 35.1 80.9 35.9 83.75 34.95 84.25 34.6 85.55 34.25 86.8 34.55 87.95 36.85 86.55 38.8 86.35 40.8 86.2 42.15 87.3 43.9 85.4 45.85 85.05 47.6 84.8 49.2 85.75 47.25 85.75 45.15 86.45 42.8 87.25 42.5 88.4 L39.3 88.55 Q37.6 88.9 35.95 89.65 L36.05 89.7 35.75 89.75 34.25 90.55 Q33.6 91.3 33.5 92.5 33.5 93.6 33.9 94.4 36.2 92.55 37.4 93.25 38.35 90.9 42.2 90.15 46.1 89.4 47.7 91.4 48.55 88.85 52.75 88.0 56.75 87.2 57.8 88.55 58.5 86.3 61.15 85.65 L62.95 85.8 Q63.65 86.2 63.5 87.15 65.4 84.05 71.85 83.65 L76.65 84.05 Q78.95 84.6 79.6 85.75 80.25 84.6 82.35 84.0 L86.6 83.6 Q89.0 83.7 90.6 84.45 92.35 85.25 92.45 86.6 92.9 84.35 96.9 85.15 98.5 85.5 99.7 86.2 100.95 86.95 101.05 87.7 102.7 85.5 106.45 86.3 110.1 87.0 110.75 89.0 111.2 87.55 113.65 87.55 115.85 87.6 118.2 88.65 117.45 86.6 116.1 84.5 114.8 82.5 113.3 81.0 110.25 79.8 108.65 79.8 106.65 77.95 102.45 78.25 98.6 78.5 96.25 80.25 95.95 79.6 93.9 79.55 91.7 79.5 89.2 80.25 90.2 79.05 92.05 78.5 94.35 77.75 96.25 78.75 97.35 77.5 99.45 76.95 103.15 76.0 108.4 78.05 109.25 77.6 110.35 77.45 L109.4 74.0 Q108.65 71.85 107.8 70.5 L108.7 70.65 111.3 72.75 Q111.6 73.6 111.4 74.8 113.8 74.8 115.85 77.05 118.05 79.55 117.3 82.45 120.15 82.9 121.65 87.0 123.3 91.45 121.5 96.3 120.7 94.85 118.2 93.95 115.45 92.9 113.9 94.15 112.1 91.85 108.6 91.05 104.9 90.2 101.9 91.65 100.7 90.2 96.4 89.45 91.75 88.65 89.55 90.05 88.35 88.6 84.55 88.4 80.3 88.2 76.25 89.95 75.15 88.2 72.8 88.15 70.4 88.1 69.1 90.1 67.3 88.85 64.05 89.15 60.7 89.45 58.9 91.3 57.5 90.35 54.5 91.05 51.75 91.65 49.0 93.35 47.35 92.85 44.15 94.1 40.7 95.5 38.25 97.95 L34.55 98.05 Q32.95 98.95 32.35 100.9 27.35 98.4 25.35 102.55 23.8 95.8 29.7 89.15 29.0 85.85 30.45 83.2 32.0 80.45 35.65 78.9 35.55 76.4 37.35 74.8 39.2 73.15 41.8 73.45 42.7 71.0 43.5 70.5 L48.4 70.1 Q45.4 68.95 44.4 67.8 43.05 66.25 44.85 64.5 42.65 63.85 41.95 62.4 41.25 61.0 41.8 58.5 40.85 58.6 40.55 57.7 40.3 57.0 40.05 53.6 39.95 56.75 37.95 59.3 35.85 61.9 33.25 62.0 32.7 64.9 29.25 66.8 25.85 68.65 23.0 67.85 22.0 70.05 17.25 70.35 12.55 70.65 10.95 68.6 9.65 69.9 6.9 68.65 4.1 67.45 5.0 65.8 4.35 65.6 3.75 64.55 3.1 63.4 3.1 61.95 3.15 58.05 7.75 55.35 6.65 51.35 7.85 48.65 8.8 46.5 11.4 45.1 15.85 47.2 11.65 56.15 13.45 57.85 10.25 61.7 12.3 60.7 14.75 60.9 17.55 61.2 18.1 63.15 19.65 59.7 22.95 59.0 26.1 58.3 28.35 60.55 27.9 57.8 30.3 56.05 32.75 54.25 35.75 55.3 36.7 51.65 38.9 49.6 41.55 47.15 43.85 49.8 44.8 46.5 47.45 45.2 50.1 43.9 51.85 45.95 50.85 42.9 53.5 42.0 L55.65 41.95 Q56.85 42.25 57.5 43.25 58.15 41.95 61.4 41.25 L67.0 40.85" fill="#df578e" fill-rule="evenodd" stroke="none"/>
      <path d="M103.55 71.4 Q103.7 70.65 102.55 69.45 L100.85 68.0 Q104.0 67.8 104.9 68.05 106.4 68.5 105.7 70.55 108.8 70.2 110.3 71.3 111.85 72.4 111.4 74.8 113.8 74.8 115.85 77.05 118.05 79.55 117.3 82.45 119.55 82.8 121.1 85.75 122.75 88.85 122.35 92.75 120.4 89.95 118.6 88.45 118.75 86.35 117.15 84.0 115.45 81.4 113.05 80.75 113.1 79.95 111.25 78.15 L108.55 75.65 Q108.55 74.0 106.75 72.8 105.95 72.3 103.55 71.4 M58.2 73.8 Q59.3 71.75 61.55 70.5 64.0 69.1 66.15 69.75 67.0 68.8 69.05 68.55 71.15 68.3 71.4 69.35 72.45 67.75 75.3 67.25 78.4 66.65 79.45 68.65 81.3 66.35 84.2 66.7 86.9 67.05 89.8 69.45 93.25 69.75 95.55 71.05 98.0 72.45 98.7 74.8 96.45 72.75 94.0 72.15 91.25 71.5 88.75 72.75 87.95 70.85 84.65 70.45 81.3 70.05 78.95 71.6 76.9 69.8 72.85 70.1 69.15 70.35 67.4 71.95 67.35 71.7 66.5 71.35 L64.25 70.95 Q60.7 70.85 58.2 73.8 M63.4 33.1 Q65.8 33.1 66.9 35.45 64.8 36.55 61.4 37.2 61.4 35.5 59.65 34.6 57.95 33.75 56.2 34.1 54.05 32.2 50.2 34.25 50.1 33.5 48.6 33.4 46.8 33.25 44.15 34.25 44.15 33.9 42.9 33.55 L39.6 33.05 Q34.3 32.85 29.45 35.3 28.85 33.85 26.4 33.85 24.0 33.85 21.3 35.15 L21.1 35.3 Q21.8 32.15 24.5 30.55 27.4 28.8 30.25 30.25 31.05 28.5 33.5 28.45 35.35 28.4 36.7 29.15 37.65 27.9 40.05 27.8 42.55 27.75 43.1 29.3 44.05 27.85 46.1 27.85 48.2 27.85 49.05 29.5 50.35 28.4 52.25 28.65 54.15 28.95 54.35 30.1 56.9 28.1 60.05 29.0 63.3 29.9 63.4 33.1 M140.9 6.5 Q143.5 7.2 143.85 10.65 144.2 14.25 141.6 16.2 142.55 17.2 142.6 19.1 139.4 18.5 138.05 17.9 138.5 15.05 137.7 13.4 136.7 11.6 134.15 11.6 134.05 8.85 130.75 8.75 128.4 8.7 124.05 10.1 123.15 8.9 121.85 9.55 120.85 10.1 118.0 12.7 117.0 11.6 114.75 12.95 111.2 15.05 110.2 15.3 L108.0 14.4 104.15 13.45 Q105.7 11.9 107.8 11.4 110.25 10.9 112.5 12.25 114.85 8.55 118.45 6.6 122.9 4.2 126.2 6.95 127.25 4.9 129.5 3.85 131.55 2.85 134.1 2.9 136.5 2.95 138.35 3.9 140.35 4.9 140.9 6.5" fill="#ffa4c9" fill-rule="evenodd" stroke="none"/>
      <path d="M94.5 46.9 Q95.4 45.4 95.6 43.7 95.8 41.95 95.1 40.7 97.4 40.7 98.3 38.05 99.3 35.1 96.75 31.3 98.1 32.45 99.6 32.65 101.05 32.8 102.2 32.0 104.85 30.05 103.35 24.5 104.65 25.8 106.4 26.0 108.05 26.15 109.45 25.3 110.85 24.45 111.35 22.9 111.9 21.2 111.05 19.25 112.2 20.2 113.85 20.25 115.45 20.3 116.85 19.55 120.25 17.8 119.45 14.15 121.1 15.5 123.0 15.65 126.05 15.95 130.05 13.25 128.55 15.9 128.65 16.45 128.8 17.55 132.05 19.1 128.15 19.4 126.5 23.6 124.85 27.7 127.3 30.6 122.95 30.2 120.75 33.15 118.6 36.15 120.25 40.1 117.1 38.4 115.0 40.4 113.05 42.2 113.8 45.1 L112.1 44.95 Q110.9 45.2 109.9 46.0 107.3 48.1 108.4 51.05 105.6 50.45 104.0 52.7 102.5 54.9 102.6 59.0 100.2 59.15 98.8 60.65 96.95 62.6 97.35 66.4 97.1 65.4 95.35 65.05 93.2 64.65 90.95 66.15 90.95 64.15 88.35 64.4 86.8 64.55 82.5 66.0 84.55 64.55 84.8 63.7 85.05 62.65 82.8 62.15 85.8 62.25 86.95 60.1 88.2 57.85 85.55 55.6 86.75 56.3 88.05 55.85 89.3 55.5 90.1 54.35 90.9 53.2 90.75 51.85 90.55 50.3 89.1 49.05 92.3 50.5 94.5 46.9 M62.05 47.8 Q62.75 48.8 64.7 48.2 63.1 49.8 63.2 51.85 63.25 53.95 65.35 54.45 63.75 56.95 64.3 59.3 64.8 61.5 67.15 63.3 64.05 62.05 63.3 62.15 61.65 62.4 60.45 65.8 60.4 64.6 59.6 64.05 58.85 63.6 57.9 63.85 56.95 64.15 56.45 65.0 55.9 65.9 56.3 67.1 54.45 64.95 52.65 66.25 51.1 67.35 51.1 69.0 51.1 64.8 50.45 63.5 49.95 62.5 48.3 62.15 50.65 60.3 49.3 58.65 48.0 57.05 44.8 57.2 45.45 56.3 44.9 55.35 44.15 54.25 41.85 53.75 45.6 53.65 46.85 53.05 48.65 52.25 50.0 49.35 51.25 51.85 53.55 51.1 55.8 50.45 56.1 47.4 L59.75 47.85 Q61.0 47.5 61.35 44.95 61.65 47.25 62.05 47.8" fill="#fff1f7" fill-rule="evenodd" stroke="none"/>
      <path d="M91.0 59.05 Q91.85 60.45 93.55 61.0 92.6 62.4 93.6 63.55 94.7 64.7 97.3 64.75 L97.35 66.45 Q97.15 65.4 95.35 65.05 93.2 64.65 90.95 66.15 90.95 64.15 88.35 64.4 86.8 64.55 82.5 66.0 84.55 64.55 84.8 63.7 85.05 62.65 82.8 62.15 85.8 62.25 86.95 60.1 88.2 57.85 85.55 55.6 86.75 56.3 88.05 55.85 89.3 55.5 90.1 54.35 90.9 53.2 90.75 51.85 90.55 50.3 89.1 49.05 91.4 50.1 93.4 48.25 93.35 49.45 93.85 50.05 91.45 51.3 90.9 53.45 90.4 55.5 91.85 56.15 89.9 57.4 91.0 59.05 M98.55 39.3 Q97.35 39.65 97.15 40.55 97.4 41.95 98.3 42.1 96.75 42.75 95.6 43.75 95.85 42.0 95.1 40.7 97.4 40.7 98.3 38.05 99.3 35.1 96.75 31.3 98.1 32.45 99.6 32.65 101.05 32.8 102.2 32.0 104.85 30.05 103.35 24.5 104.65 25.8 106.4 26.0 108.05 26.15 109.45 25.3 110.85 24.45 111.35 22.9 111.9 21.2 111.05 19.25 112.2 20.2 113.85 20.25 115.45 20.3 116.85 19.55 120.25 17.8 119.45 14.15 121.1 15.5 123.0 15.65 126.05 15.95 130.05 13.25 L129.55 14.15 Q125.75 15.1 122.1 17.55 118.2 20.2 118.5 22.15 115.5 22.35 114.5 23.2 113.35 24.15 113.5 26.9 109.35 27.45 107.4 29.0 105.2 30.75 106.4 33.3 102.7 34.35 101.85 35.05 100.4 36.15 101.2 38.75 L98.55 39.3 M62.05 47.8 Q62.75 48.8 64.7 48.2 63.1 49.8 63.2 51.85 63.25 53.95 65.35 54.45 63.75 56.95 64.3 59.3 64.8 61.5 67.15 63.3 64.05 62.05 63.3 62.15 61.65 62.4 60.45 65.8 60.4 64.6 59.6 64.05 58.85 63.6 57.9 63.85 56.95 64.15 56.45 65.0 55.9 65.9 56.3 67.1 54.45 64.95 52.65 66.25 51.1 67.35 51.1 69.0 51.1 64.8 50.45 63.5 49.95 62.5 48.3 62.15 50.65 60.3 49.3 58.65 48.0 57.05 44.8 57.2 45.45 56.3 44.9 55.35 44.15 54.25 41.85 53.75 45.6 53.65 46.85 53.05 48.65 52.25 50.0 49.35 51.25 51.85 53.55 51.1 55.8 50.45 56.1 47.4 L59.75 47.85 Q61.0 47.5 61.35 44.95 61.65 47.25 62.05 47.8" fill="#ffc9df" fill-rule="evenodd" stroke="none"/>
    </g>
  </defs>
</svg>
