<?xml version="1.0" encoding="UTF-8" standalone="no"?>
<svg xmlns:ffdec="https://www.free-decompiler.com/flash" xmlns:xlink="http://www.w3.org/1999/xlink" ffdec:objectType="frame" height="247.95px" width="247.2px" xmlns="http://www.w3.org/2000/svg">
  <g transform="matrix(1.0, 0.0, 0.0, 1.0, 125.65, 165.35)">
    <use ffdec:characterId="109" height="88.1" transform="matrix(0.8667, -0.1369, 0.1369, 0.8667, -125.65, -32.0)" width="185.65" xlink:href="#shape0"/>
  </g>
  <defs>
    <g id="shape0">
      <path d="M20.7 65.65 Q28.5 62.55 30.65 68.85 31.45 71.2 30.75 73.35 30.0 75.55 28.25 75.55 30.6 78.0 28.2 81.2 25.9 84.35 24.05 83.05 23.5 85.75 20.75 86.85 18.05 87.9 15.95 86.5 14.75 88.2 12.4 88.1 10.0 87.95 9.45 85.6 6.95 87.8 4.05 85.2 1.15 82.55 3.05 79.95 0.7 80.05 0.1 77.1 -0.5 74.0 2.1 71.6 -0.2 70.7 1.85 67.15 3.95 63.55 7.1 64.0 7.1 62.4 8.8 60.95 10.5 59.55 12.8 59.25 18.7 58.5 20.7 65.65" fill="#000000" fill-rule="evenodd" stroke="none"/>
      <path d="M25.45 66.75 Q27.25 67.75 27.75 70.1 28.2 72.25 27.35 73.6 26.45 75.05 24.9 74.0 27.9 76.1 26.55 79.3 26.0 80.6 24.95 80.85 23.8 81.2 22.65 80.0 22.05 83.05 19.55 84.4 17.05 85.75 16.25 83.5 14.55 85.25 12.75 85.25 10.8 85.3 11.0 82.65 8.6 84.65 6.6 83.75 4.3 82.8 5.75 78.35 3.45 78.4 2.95 75.75 2.35 72.95 6.15 71.55 2.45 71.0 3.9 68.15 5.4 65.2 10.25 64.85 9.1 64.0 10.05 62.9 11.0 61.85 12.95 61.6 18.2 60.85 19.85 66.8 23.25 65.5 25.45 66.75" fill="#f5fdff" fill-rule="evenodd" stroke="none"/>
      <path d="M25.45 66.75 Q27.25 67.75 27.75 70.1 28.2 72.25 27.35 73.6 26.45 75.05 24.9 74.0 27.9 76.1 26.55 79.3 26.0 80.6 24.95 80.85 23.8 81.2 22.65 80.0 22.05 83.05 19.55 84.4 17.05 85.75 16.25 83.5 14.55 85.25 12.75 85.25 10.8 85.3 11.0 82.65 8.6 84.65 6.6 83.75 4.3 82.8 5.75 78.35 4.6 78.4 3.65 77.25 2.7 76.05 2.9 74.65 3.3 75.55 4.2 75.85 L6.25 75.6 Q5.25 79.45 7.25 79.85 9.25 80.3 10.35 78.05 9.85 80.75 12.2 81.05 14.5 81.3 15.2 79.2 L17.95 79.15 Q19.0 77.7 17.1 75.9 20.55 77.35 21.25 74.25 21.5 73.1 20.9 72.15 20.2 71.15 18.8 71.2 22.45 70.45 20.95 68.5 L18.75 66.65 19.7 66.45 19.85 66.8 Q23.25 65.5 25.45 66.75" fill="#a8b7b0" fill-rule="evenodd" stroke="none"/>
      <path d="M10.65 82.9 L10.7 82.55 10.9 82.7 10.65 82.9 M25.5 66.8 Q27.3 67.85 27.75 70.15 28.2 72.3 27.35 73.65 26.45 75.05 24.9 74.0 27.9 76.1 26.55 79.3 26.0 80.6 24.95 80.85 23.8 81.2 22.65 80.0 22.05 83.05 19.55 84.4 17.05 85.75 16.25 83.5 14.55 85.2 12.8 85.25 10.85 85.3 11.0 82.75 12.8 84.1 13.95 83.6 14.85 83.2 15.75 81.4 17.4 83.65 19.3 82.95 21.25 82.25 22.15 78.8 24.55 80.0 24.9 77.55 25.3 75.15 22.15 73.15 24.05 74.25 25.2 72.4 26.35 70.6 23.3 70.2 24.95 67.95 23.1 67.05 21.3 66.2 19.85 67.5 L20.05 66.75 Q23.4 65.5 25.5 66.8" fill="#52827a" fill-rule="evenodd" stroke="none"/>
      <path d="M163.55 23.85 Q166.35 28.15 168.35 33.75 171.75 43.15 171.95 53.85 152.7 43.65 117.55 50.9 102.65 53.95 88.45 59.65 74.6 65.2 65.1 71.75 65.7 73.65 65.3 73.9 64.8 74.2 62.15 68.55 61.2 66.5 57.75 63.25 54.65 60.3 53.65 57.3 49.8 57.15 46.05 55.9 L39.35 55.55 Q34.05 56.25 26.0 63.05 L18.3 69.3 Q17.0 68.95 18.4 60.15 19.9 50.65 23.3 46.15 31.1 35.75 40.6 26.5 51.55 15.85 63.3 8.2 73.9 1.35 90.1 0.25 98.8 -0.35 111.15 0.4 117.35 0.45 131.55 8.0 144.65 14.95 146.6 17.75 149.15 18.25 154.6 20.6 160.45 23.1 163.55 23.85" fill="#000000" fill-rule="evenodd" stroke="none"/>
      <path d="M66.75 69.85 L66.55 70.0 Q66.5 69.4 66.75 69.85 L64.7 65.55 Q63.8 63.6 60.85 60.65 58.2 57.95 57.25 55.1 53.6 54.95 48.4 53.2 44.15 51.75 40.4 52.25 35.15 52.95 27.4 58.95 23.5 61.95 20.65 64.8 21.15 61.15 22.35 56.75 24.7 48.0 28.05 44.3 39.0 32.3 44.85 26.8 54.25 18.0 64.9 11.05 74.95 4.55 89.85 3.5 97.9 3.0 109.4 3.75 115.25 3.75 129.4 11.35 142.55 18.35 144.35 21.0 146.75 21.45 151.65 23.65 156.9 25.95 159.8 26.7 163.1 31.75 164.45 35.0 167.7 42.95 167.9 53.0 149.7 43.35 116.5 50.15 86.6 56.3 66.75 69.85" fill="#ff0000" fill-rule="evenodd" stroke="none"/>
      <path d="M162.55 31.1 Q164.55 34.8 165.85 39.05 L155.85 41.75 Q156.65 38.8 157.05 35.45 157.8 28.85 155.6 27.05 152.85 24.85 132.0 22.9 L111.7 21.4 138.15 19.15 Q117.85 8.85 111.95 6.85 L93.35 6.3 Q77.7 7.35 69.7 10.7 61.7 14.05 44.85 30.0 30.75 43.35 27.15 48.3 25.0 51.3 21.1 64.35 L20.65 64.8 Q21.15 61.15 22.35 56.75 24.7 48.0 28.05 44.3 39.0 32.3 44.85 26.8 54.25 18.0 64.9 11.05 74.95 4.55 89.85 3.5 97.9 3.0 109.4 3.75 115.25 3.75 129.4 11.35 142.55 18.35 144.35 21.0 146.75 21.45 151.65 23.65 156.9 25.95 159.8 26.7 L162.55 31.1" fill="#ff412f" fill-rule="evenodd" stroke="none"/>
      <path d="M108.55 16.25 Q100.25 21.35 91.75 31.55 97.4 33.9 102.45 36.7 L88.55 47.85 Q72.9 59.85 63.95 64.15 L60.4 60.15 Q58.15 57.8 57.25 55.1 53.6 54.95 48.4 53.2 44.15 51.75 40.4 52.25 35.15 52.95 27.4 58.95 23.5 61.95 20.65 64.8 L20.75 64.2 Q31.55 49.2 39.55 49.15 L46.0 48.1 Q45.45 45.55 46.0 40.95 L46.7 36.95 Q46.45 38.55 53.4 45.0 L55.9 43.45 Q55.95 39.7 57.25 36.55 59.05 32.15 63.75 26.8 L60.9 38.9 64.2 36.15 Q67.55 30.85 73.45 23.55 72.25 25.3 70.2 32.15 74.8 29.55 78.5 28.6 80.0 28.25 82.4 28.65 87.6 24.55 93.15 21.65 101.1 17.45 108.55 16.25" fill="#ab0000" fill-rule="evenodd" stroke="none"/>
      <path d="M147.35 20.95 Q149.2 21.3 151.75 22.5 L156.4 24.65 Q141.7 20.6 111.25 21.55 117.95 18.85 127.25 17.95 135.6 17.1 143.4 17.9 144.2 18.45 147.05 19.75 149.05 20.85 147.35 20.95" fill="#000000" fill-rule="evenodd" stroke="none"/>
      <path d="M163.7 35.0 Q165.6 34.0 167.65 35.2 169.65 36.4 170.35 38.95 173.9 37.25 177.2 40.15 180.5 43.0 178.45 45.95 181.4 45.25 183.1 49.6 184.9 54.0 181.9 56.35 184.7 57.5 185.45 62.3 186.2 67.05 183.75 68.15 185.8 70.8 181.85 75.25 177.9 79.7 175.55 76.35 172.55 76.9 169.1 74.9 165.4 72.8 166.65 70.5 163.25 71.5 161.0 69.75 158.65 68.05 159.65 65.1 157.1 67.4 153.65 66.25 150.15 65.1 149.55 61.8 146.9 64.25 143.2 64.05 139.35 63.85 138.0 60.8 136.3 63.95 131.6 64.1 126.9 64.25 124.7 61.35 122.65 63.65 118.75 63.9 114.75 64.15 112.8 62.0 111.8 65.55 106.6 66.55 101.6 67.5 99.5 65.2 97.95 67.95 96.0 69.0 93.2 70.5 90.6 67.55 90.4 69.75 87.15 70.6 L82.1 70.95 Q81.9 73.45 79.7 75.05 77.5 76.65 74.6 76.55 72.05 80.9 66.3 78.6 63.95 77.65 62.75 75.95 61.45 74.15 62.15 72.35 58.4 73.1 58.4 67.9 58.35 62.75 61.7 60.95 59.85 59.75 60.35 55.85 60.9 51.75 64.2 51.5 61.55 49.15 63.9 45.4 66.3 41.65 69.3 43.0 69.4 40.0 72.45 38.35 75.55 36.75 78.15 38.25 78.35 36.1 81.65 34.9 L87.65 34.7 Q88.75 31.35 92.45 30.45 96.05 29.5 99.5 31.4 99.95 28.4 104.4 28.6 108.8 28.85 108.9 31.45 110.85 27.75 114.3 27.65 116.6 27.6 120.45 29.35 122.2 27.25 126.2 27.1 130.15 26.9 131.6 28.85 133.55 26.65 136.55 26.8 139.45 27.0 141.5 29.2 143.95 26.5 148.5 27.85 152.9 29.1 153.1 31.65 155.1 29.35 159.1 30.75 163.0 32.15 163.7 35.0" fill="#000000" fill-rule="evenodd" stroke="none"/>
      <path d="M166.55 38.4 Q168.85 39.95 168.8 42.7 172.4 41.0 174.55 42.8 176.7 44.6 174.65 47.55 177.45 46.85 179.2 50.8 181.0 54.7 179.1 57.6 181.75 58.65 182.15 63.0 182.5 67.25 180.65 67.85 182.7 70.5 179.6 73.1 176.55 75.7 174.2 72.35 171.4 72.85 170.0 71.2 168.55 69.55 169.85 67.15 166.4 68.15 163.7 66.5 160.9 64.8 161.85 61.9 159.3 64.15 155.35 62.75 151.45 61.35 150.8 58.05 148.2 60.4 144.25 59.9 140.2 59.4 138.9 56.3 137.15 59.45 131.95 59.7 126.75 59.9 124.6 57.0 122.5 59.35 118.1 59.85 113.6 60.4 111.65 58.3 110.7 61.9 106.2 63.15 101.85 64.35 99.75 62.1 98.35 64.55 95.7 65.5 92.35 66.65 89.7 63.65 89.55 65.9 85.25 67.3 81.6 68.5 79.15 68.25 78.75 73.45 72.95 73.3 70.5 77.45 67.6 75.6 64.8 73.75 66.15 70.75 63.3 71.65 63.15 67.8 63.0 64.0 66.15 62.3 64.45 61.2 64.55 57.9 64.7 54.45 67.15 53.45 65.85 50.65 67.2 48.05 68.6 45.3 71.4 46.6 71.45 43.6 74.3 42.4 77.05 41.2 79.7 42.7 79.95 40.05 82.2 38.55 84.85 36.75 87.7 39.3 88.9 35.75 93.25 34.65 97.7 33.5 99.75 36.7 100.25 33.7 104.35 33.05 108.45 32.45 108.6 35.05 110.6 31.25 114.8 31.7 118.5 32.1 120.5 34.65 121.9 31.25 126.85 31.1 131.7 30.9 132.4 33.5 133.75 30.6 136.3 30.55 138.9 30.5 141.1 33.55 142.4 30.25 147.55 31.85 152.55 33.4 152.75 36.0 154.95 33.65 158.85 34.7 162.7 35.8 161.95 38.45 164.2 36.8 166.55 38.4" fill="#ffffff" fill-rule="evenodd" stroke="none"/>
      <path d="M162.05 57.25 Q162.7 57.9 163.6 57.95 165.3 58.05 165.95 56.7 L166.6 57.0 Q166.1 57.7 166.0 58.5 165.9 59.75 166.75 60.7 167.65 61.65 168.95 61.8 170.15 61.9 171.1 61.25 L171.05 61.7 Q171.0 62.6 171.6 63.3 172.2 64.0 173.2 64.1 175.0 64.2 175.6 62.7 L176.15 63.1 Q175.2 63.9 175.1 65.1 175.0 66.35 175.85 67.3 176.75 68.25 178.05 68.35 179.95 68.5 181.0 67.1 L181.3 67.35 181.0 67.65 180.65 67.85 Q182.7 70.5 179.6 73.1 176.55 75.7 174.2 72.35 171.4 72.85 170.0 71.2 168.55 69.55 169.85 67.15 166.4 68.15 163.7 66.5 160.9 64.8 161.85 61.9 159.3 64.15 155.35 62.75 151.45 61.35 150.8 58.05 148.2 60.4 144.25 59.9 140.2 59.4 138.9 56.3 137.15 59.45 131.95 59.7 126.75 59.9 124.6 57.0 122.5 59.35 118.1 59.85 113.6 60.4 111.65 58.3 110.7 61.9 106.2 63.15 101.85 64.35 99.75 62.1 98.35 64.55 95.7 65.5 92.35 66.65 89.7 63.65 89.55 65.9 85.25 67.3 81.6 68.5 79.15 68.25 78.75 73.45 72.95 73.3 70.5 77.45 67.6 75.6 64.8 73.75 66.15 70.75 63.3 71.65 63.15 67.8 63.0 64.0 66.15 62.3 64.45 61.2 64.55 57.9 64.7 54.45 67.15 53.45 65.85 50.65 67.2 48.05 68.6 45.3 71.4 46.6 L71.45 45.9 71.6 45.25 71.95 44.4 72.15 44.1 72.7 43.45 73.35 42.9 74.2 42.4 74.55 42.3 74.75 42.2 75.75 41.95 75.9 41.95 76.4 41.9 76.45 41.9 78.2 42.1 78.65 43.1 Q77.45 43.7 77.35 44.9 77.25 45.8 77.9 46.5 78.5 47.25 79.5 47.3 L79.6 47.3 79.9 48.0 Q78.95 48.8 78.8 50.0 78.75 51.15 79.5 52.1 80.25 53.05 81.45 53.25 81.4 54.4 82.15 55.25 81.75 55.65 81.65 56.4 81.6 57.3 82.2 58.0 82.85 58.7 83.8 58.75 84.75 58.85 85.55 58.3 86.3 57.7 86.35 56.8 L86.35 56.4 Q87.1 58.1 89.1 58.25 90.8 58.4 91.85 57.25 92.05 58.25 92.85 58.95 93.65 59.65 94.75 59.7 96.1 59.8 97.1 59.05 98.15 58.25 98.25 57.0 L98.2 56.3 99.45 56.75 Q100.4 56.85 101.1 56.3 101.85 55.8 101.95 54.95 102.75 55.6 103.8 55.65 105.15 55.75 106.15 55.0 107.2 54.2 107.3 52.95 L107.3 52.5 107.75 52.4 Q108.45 53.2 109.4 53.25 110.35 53.35 111.1 52.75 111.85 52.2 111.95 51.35 L112.55 51.2 Q112.55 52.35 113.4 53.25 114.25 54.15 115.5 54.25 116.85 54.35 117.9 53.6 118.95 52.8 119.0 51.55 L119.0 51.35 Q119.6 52.75 121.05 52.8 122.05 52.9 122.8 52.3 123.55 51.75 123.6 50.85 123.7 49.95 123.1 49.3 L124.3 49.25 Q125.15 50.75 126.9 50.9 L128.9 50.5 Q129.8 50.0 130.2 49.1 L130.6 49.1 130.6 49.15 Q130.5 50.4 131.35 51.35 132.2 52.35 133.55 52.45 134.9 52.55 135.9 51.75 136.95 50.95 137.05 49.7 L137.05 49.3 Q137.3 50.2 138.1 50.8 138.85 51.45 139.9 51.55 142.0 51.7 143.0 50.0 L143.05 50.0 143.05 50.1 Q143.0 51.0 143.6 51.7 144.2 52.4 145.2 52.5 147.0 52.6 147.6 51.1 L147.85 51.15 147.75 51.6 Q147.65 52.85 148.5 53.8 149.4 54.8 150.75 54.9 L152.35 54.65 Q152.45 55.45 153.05 56.0 153.65 56.6 154.5 56.65 L156.0 56.35 Q156.85 57.4 158.25 57.45 L160.15 57.1 Q161.0 56.65 161.4 55.8 161.45 56.65 162.05 57.25" fill="#a8b7b0" fill-rule="evenodd" stroke="none"/>
      <path d="M116.4 58.2 Q118.55 58.35 119.4 59.65 L115.0 59.85 Q112.75 59.5 111.65 58.3 110.7 61.9 106.2 63.15 101.85 64.35 99.75 62.1 98.35 64.55 95.7 65.5 92.35 66.65 89.7 63.65 89.55 65.9 85.25 67.3 81.6 68.5 79.15 68.25 78.75 73.45 72.95 73.3 70.5 77.45 67.6 75.6 64.8 73.75 66.15 70.75 63.3 71.65 63.15 67.8 63.0 64.0 66.15 62.3 64.45 61.2 64.55 57.9 64.7 54.45 67.15 53.45 66.3 51.6 66.7 49.5 67.1 47.45 68.45 46.6 L68.45 46.65 69.1 46.65 Q70.15 46.75 70.8 47.5 71.5 48.25 71.4 49.25 71.25 51.05 70.5 51.35 L69.0 51.7 Q70.05 51.35 70.95 52.45 71.75 53.5 71.65 54.7 71.5 56.5 69.65 57.1 71.0 57.35 71.85 58.3 72.7 59.25 72.6 60.45 73.0 61.2 72.95 62.05 72.9 63.05 72.1 63.85 L73.15 64.35 Q73.5 63.65 74.4 63.25 L76.35 62.95 Q78.0 63.1 78.8 64.05 L78.85 63.9 Q78.95 62.5 80.25 61.65 81.6 60.75 83.3 60.9 84.85 61.05 85.95 61.9 87.0 62.8 87.2 63.95 87.45 62.55 89.05 62.1 90.7 61.6 90.7 63.25 91.9 61.15 94.1 60.45 96.55 59.7 98.6 61.4 98.7 60.65 99.5 60.2 100.3 59.75 101.3 59.8 102.15 59.85 102.8 60.35 L102.8 60.3 Q102.9 59.45 103.65 58.9 104.4 58.4 105.4 58.45 107.0 58.6 107.5 59.9 L108.05 59.9 Q107.5 59.15 107.55 58.3 107.65 57.15 108.7 56.4 109.75 55.7 111.15 55.8 112.4 55.9 113.3 56.7 114.2 57.45 114.25 58.45 L116.4 58.2" fill="#52827a" fill-rule="evenodd" stroke="none"/>
    </g>
  </defs>
</svg>
