<?xml version="1.0" encoding="UTF-8" standalone="no"?>
<svg xmlns:ffdec="https://www.free-decompiler.com/flash" xmlns:xlink="http://www.w3.org/1999/xlink" ffdec:objectType="frame" height="247.95px" width="247.2px" xmlns="http://www.w3.org/2000/svg">
  <g transform="matrix(1.0, 0.0, 0.0, 1.0, 125.65, 165.35)">
    <use ffdec:characterId="713" height="110.1" transform="matrix(0.973, 0.0929, -0.095, 0.9949, -57.0, -49.6)" width="118.3" xlink:href="#sprite0"/>
  </g>
  <defs>
    <g id="sprite0">
      <use ffdec:characterId="712" height="110.1" transform="matrix(1.0, 0.0, 0.0, 1.0, 0.0, 0.0)" width="118.3" xlink:href="#shape0"/>
    </g>
    <g id="shape0">
      <path d="M111.3 48.8 Q112.3 51.4 112.1 53.9 111.95 55.8 111.35 56.5 L109.6 58.2 108.05 58.35 Q107.4 58.1 105.65 57.1 L101.55 54.7 Q95.45 51.4 91.2 55.05 89.85 56.2 88.9 57.9 L88.2 59.4 84.9 57.15 Q83.0 55.95 80.8 55.1 75.2 52.9 62.85 51.1 46.35 48.65 39.3 51.8 36.05 53.3 33.75 56.25 31.95 58.6 29.95 63.0 27.3 68.95 30.7 73.6 32.4 75.95 34.65 77.1 L33.7 78.35 Q32.65 80.15 32.2 83.25 30.85 93.1 36.1 111.85 31.2 112.05 26.8 108.35 22.3 104.55 20.9 98.8 L19.2 90.65 18.15 84.75 Q17.6 82.2 17.0 81.05 16.3 79.65 15.15 79.3 12.5 78.45 9.85 81.95 7.35 85.2 6.45 89.8 5.65 93.8 5.75 98.0 5.8 100.85 4.65 103.15 3.2 106.0 -0.55 105.95 -2.4 105.95 -4.05 105.35 L-5.55 96.8 Q-6.4 91.2 -6.05 86.1 -5.15 72.0 4.65 56.5 11.85 45.1 24.4 38.35 35.45 32.4 49.75 30.55 62.4 28.9 75.6 30.65 87.75 32.25 96.85 36.25 108.4 41.3 111.3 48.8" fill="#000000" fill-rule="evenodd" stroke="none"/>
      <path d="M26.35 3.0 Q31.8 0.7 35.85 2.7 39.05 4.3 41.55 8.75 43.5 12.35 46.85 23.95 L49.85 34.8 Q48.3 36.0 45.45 37.05 39.8 39.15 33.6 38.4 26.1 37.55 18.25 29.95 14.9 26.7 12.85 23.4 10.8 20.05 10.8 17.8 10.75 12.6 16.4 8.35 19.8 5.75 26.35 3.0" fill="#000000" fill-rule="evenodd" stroke="none"/>
      <path d="M26.75 5.3 Q30.5 3.65 33.55 4.5 36.6 5.3 38.75 8.55 40.5 11.3 44.7 22.7 L48.55 33.55 Q47.2 34.6 44.7 35.5 39.8 37.35 34.35 36.8 28.3 36.2 20.65 29.15 17.45 26.2 15.25 23.2 13.0 20.2 12.6 18.35 11.9 15.0 17.4 10.75 21.5 7.55 26.75 5.3" fill="#d7d7d7" fill-rule="evenodd" stroke="none"/>
      <path d="M28.3 27.75 Q35.25 34.85 37.65 35.75 38.8 36.15 39.45 36.8 36.95 37.05 34.35 36.8 28.3 36.2 20.65 29.15 17.45 26.2 15.25 23.2 13.0 20.2 12.6 18.35 12.15 16.2 14.35 13.6 16.15 11.45 19.6 9.2 17.2 14.65 19.3 17.6 21.95 21.3 28.3 27.75" fill="#adadad" fill-rule="evenodd" stroke="none"/>
      <path d="M32.2 10.7 Q29.0 8.65 24.7 8.6 22.05 8.55 19.45 9.25 23.05 6.9 26.75 5.3 30.5 3.65 33.55 4.5 36.6 5.3 38.75 8.55 41.2 12.35 47.65 31.05 L40.9 33.55 Q40.25 28.85 38.85 23.6 36.0 13.2 32.2 10.7" fill="#ffffff" fill-rule="evenodd" stroke="none"/>
      <path d="M81.3 53.5 Q71.95 50.3 57.25 48.8 41.9 47.2 35.35 52.1 32.95 53.9 30.95 57.15 L27.85 62.9 Q25.1 67.65 28.45 72.85 30.1 75.5 32.3 77.1 L31.55 79.85 Q30.8 83.3 30.55 87.15 29.75 99.4 34.45 110.75 31.15 109.7 28.0 106.65 24.25 103.1 22.35 98.1 20.2 92.3 19.65 84.1 19.45 81.0 19.1 79.8 18.55 78.0 17.05 77.1 13.55 75.1 10.2 78.7 7.45 81.7 5.55 87.5 4.7 90.05 4.75 94.45 4.75 98.65 3.9 100.95 2.8 103.8 0.0 104.3 L-2.65 104.25 -4.15 96.15 Q-4.95 90.95 -4.7 86.25 -3.9 73.25 5.5 58.25 12.45 47.25 24.85 40.65 35.8 34.8 50.0 32.85 62.6 31.15 75.6 32.7 87.65 34.15 96.45 37.9 109.15 43.3 110.1 50.45 110.4 52.65 109.5 54.8 L108.55 56.5 Q107.35 56.15 99.75 52.05 94.95 49.45 90.85 52.65 L88.55 55.1 87.75 56.4 Q86.0 55.1 81.3 53.5" fill="#d7d7d7" fill-rule="evenodd" stroke="none"/>
      <path d="M25.55 72.4 Q25.05 70.25 25.65 66.15 25.8 65.15 27.0 64.95 25.75 69.15 28.9 73.55 30.45 75.75 32.3 77.1 L31.35 79.35 Q30.35 82.25 30.0 85.8 28.8 97.0 34.45 109.65 31.55 108.75 29.8 106.05 28.1 103.35 26.75 97.7 L26.35 95.85 26.35 95.55 Q26.55 89.6 28.05 82.5 L28.45 79.25 Q28.35 77.85 27.45 76.4 25.9 73.95 25.55 72.4" fill="#ffffff" fill-rule="evenodd" stroke="none"/>
      <path d="M96.45 37.9 Q105.75 41.85 108.75 47.7 110.85 51.8 109.75 56.35 L108.8 57.25 Q109.0 55.8 108.1 53.5 106.3 48.9 100.8 44.45 98.5 42.55 93.45 40.7 88.1 38.7 81.3 37.45 64.55 34.3 48.4 37.0 31.75 39.7 20.55 48.35 11.1 55.6 4.3 68.1 -0.35 76.5 -1.15 89.05 -1.55 95.75 -1.2 104.4 L-2.65 104.25 -4.15 96.15 Q-4.95 90.95 -4.7 86.25 -3.9 73.25 5.5 58.25 12.45 47.25 24.85 40.65 35.8 34.8 50.0 32.85 62.6 31.15 75.6 32.7 87.65 34.15 96.45 37.9" fill="#ffffff" fill-rule="evenodd" stroke="none"/>
      <path d="M81.3 53.5 Q71.95 50.3 57.25 48.8 41.9 47.2 35.35 52.1 32.95 53.9 30.95 57.15 L27.85 62.9 Q27.1 64.2 27.05 65.5 L25.6 65.55 25.65 62.9 Q25.95 58.95 28.55 54.55 33.8 45.8 45.5 43.85 57.4 41.9 65.9 43.2 70.65 43.95 78.3 46.95 80.75 47.9 84.35 50.65 L87.45 53.25 88.0 51.9 Q88.7 50.3 89.55 49.0 92.25 44.85 95.35 45.5 99.95 46.5 104.05 50.7 106.75 53.45 108.8 57.1 L99.75 52.05 Q94.95 49.45 90.85 52.65 L88.55 55.1 87.75 56.4 Q86.0 55.1 81.3 53.5" fill="#adadad" fill-rule="evenodd" stroke="none"/>
      <path d="M24.55 32.65 L25.65 31.9 Q27.3 30.95 29.95 29.75 33.2 28.35 39.85 26.35 L45.9 24.7 48.4 32.65 48.0 32.9 45.25 33.4 Q43.35 33.6 37.1 35.65 L31.3 37.65 24.55 32.65" fill="#000000" fill-rule="evenodd" stroke="none"/>
      <path d="M32.6 35.55 L30.3 36.6 26.35 33.7 29.7 32.2 34.65 30.1 Q38.35 28.8 42.85 27.7 L46.6 26.85 47.7 31.2 45.05 31.65 38.3 33.35 Q35.45 34.3 32.6 35.55" fill="#910000" fill-rule="evenodd" stroke="none"/>
      <path d="M31.05 31.2 L34.3 34.45 30.3 36.6 26.35 33.7 31.05 31.2" fill="#580000" fill-rule="evenodd" stroke="none"/>
      <path d="M19.65 85.65 Q18.75 80.7 17.3 78.95 14.45 75.45 10.4 79.0 6.7 82.25 5.35 87.6 4.75 90.05 4.8 94.55 4.8 98.55 3.9 100.95 2.95 103.4 0.75 104.1 1.35 98.1 2.2 92.85 3.65 84.1 5.35 80.75 6.45 78.6 8.3 76.7 10.2 74.75 12.25 73.7 17.25 71.2 19.85 75.3 20.5 76.35 21.15 79.6 L22.3 86.45 Q24.0 96.5 26.0 100.25 29.25 106.45 34.1 110.9 30.05 109.15 27.2 106.65 23.35 103.3 22.35 99.2 L19.65 85.65" fill="#adadad" fill-rule="evenodd" stroke="none"/>
    </g>
  </defs>
</svg>
