<?xml version="1.0" encoding="UTF-8" standalone="no"?>
<svg xmlns:ffdec="https://www.free-decompiler.com/flash" xmlns:xlink="http://www.w3.org/1999/xlink" ffdec:objectType="frame" height="247.95px" width="247.2px" xmlns="http://www.w3.org/2000/svg">
  <g transform="matrix(1.0, 0.0, 0.0, 1.0, 125.65, 165.35)">
    <use ffdec:characterId="472" height="57.45" transform="matrix(0.6782, 0.0, 0.0, 0.6782, -46.55, -14.4)" width="60.0" xlink:href="#sprite0"/>
  </g>
  <defs>
    <g id="sprite0">
      <use ffdec:characterId="471" height="57.45" transform="matrix(1.0, 0.0, 0.0, 1.0, 0.0, 0.0)" width="60.0" xlink:href="#shape0"/>
    </g>
    <g id="shape0">
      <path d="M33.6 33.25 L33.7 30.2 34.2 29.6 Q34.95 29.0 36.2 28.7 L34.6 28.45 34.75 22.95 34.6 23.4 Q34.05 24.5 31.35 24.75 L28.15 24.65 26.55 24.95 Q25.25 25.3 24.45 24.7 L24.4 30.95 33.6 33.25 M58.4 18.05 Q60.35 23.35 57.95 26.45 56.7 28.0 52.95 28.7 L46.75 29.45 46.6 29.5 Q51.05 30.4 54.45 31.45 58.25 32.65 58.95 33.5 60.15 35.05 59.95 37.95 59.7 41.2 57.65 46.9 57.3 47.85 55.45 49.05 53.6 50.25 51.25 51.1 45.25 53.25 42.75 51.3 40.25 49.45 35.15 38.1 L36.6 52.7 Q36.65 53.75 34.9 54.75 33.25 55.7 30.55 56.45 24.4 58.0 19.65 57.1 15.1 56.2 12.25 51.6 9.8 47.7 10.25 44.65 10.4 43.2 13.45 39.65 15.6 37.1 19.05 33.7 L7.2 35.55 Q3.7 35.75 1.45 30.8 0.6 28.9 0.2 26.75 -0.15 24.7 0.05 23.4 0.6 20.4 2.0 17.85 3.8 14.65 6.45 13.35 8.65 12.25 11.3 12.2 14.75 12.2 16.95 14.35 L19.15 16.75 Q17.15 13.1 16.6 9.25 16.4 7.95 17.6 5.8 18.9 3.5 20.7 2.5 23.2 1.1 25.2 0.55 28.15 -0.25 31.55 0.1 35.1 0.5 36.95 2.65 38.65 4.5 38.65 7.2 38.65 9.05 37.4 14.05 41.35 8.9 43.75 7.9 47.65 6.3 50.3 7.75 L52.4 9.4 54.25 11.3 Q56.9 13.9 58.4 18.05" fill="#0e0e0e" fill-rule="evenodd" stroke="none"/>
      <path d="M20.35 55.75 Q17.65 55.95 15.0 51.95 12.75 48.6 12.25 45.65 11.95 43.75 18.65 37.45 22.0 34.25 25.45 31.5 L32.55 34.5 33.45 41.9 34.6 51.7 Q34.75 53.85 29.1 54.9 L20.35 55.75 M7.2 15.3 Q9.45 14.15 10.15 14.05 11.95 13.8 14.3 15.3 16.5 16.7 21.2 21.2 L25.45 25.4 24.45 31.5 17.25 32.2 7.2 33.5 Q4.6 34.0 3.0 29.85 1.65 26.25 2.1 23.4 2.55 20.6 3.5 18.85 4.8 16.5 7.2 15.3 M31.55 2.15 Q34.65 2.5 35.8 4.25 36.6 5.5 36.6 8.2 36.6 10.25 34.85 16.4 33.3 21.95 32.55 23.4 32.05 24.45 30.55 25.05 29.2 25.65 28.5 25.4 27.05 24.95 25.45 21.35 L23.95 19.25 21.8 16.8 Q18.95 13.3 18.35 9.2 18.2 8.1 19.45 6.6 20.65 5.15 22.4 4.15 24.75 2.9 26.15 2.5 L31.55 2.15 M57.95 35.55 Q58.6 37.1 58.3 39.5 57.9 42.45 55.95 46.1 55.05 47.75 51.2 49.2 47.05 50.75 44.75 49.7 42.7 48.75 38.4 41.55 L34.6 34.5 33.55 30.5 35.4 30.4 40.7 30.5 Q44.55 30.7 50.7 32.35 57.35 34.15 57.95 35.55 M56.45 18.55 Q58.2 22.3 56.9 24.4 55.95 25.95 52.45 26.7 L46.75 27.45 40.55 28.05 36.6 28.45 34.6 22.4 35.6 19.35 Q37.05 17.0 38.95 14.55 42.65 9.65 44.75 9.2 47.8 8.6 49.75 10.0 50.9 10.9 52.85 13.25 55.05 15.45 56.45 18.55" fill="#f1f1f1" fill-rule="evenodd" stroke="none"/>
      <path d="M57.95 35.55 Q58.6 37.1 58.3 39.5 57.9 42.45 55.95 46.1 55.05 47.7 51.25 49.15 47.2 50.7 44.85 49.75 L49.05 49.2 Q51.5 48.3 53.6 45.9 55.55 43.6 56.2 41.95 56.95 40.0 56.65 37.4 56.45 35.9 54.55 33.55 57.55 34.7 57.95 35.55" fill="#cdcdcd" fill-rule="evenodd" stroke="none"/>
      <path d="M39.5 31.8 Q40.4 30.65 40.7 30.65 L46.8 31.55 Q52.3 32.4 50.85 32.35 49.05 32.25 46.9 33.05 44.45 33.95 43.75 35.4 43.15 36.55 44.2 38.4 44.8 39.4 45.7 40.4 45.15 39.85 44.2 39.4 42.65 38.7 40.7 38.75 38.5 38.85 39.2 41.7 39.55 43.15 40.35 44.55 L35.6 36.75 36.05 35.9 37.65 34.0 39.5 31.8" fill="#d8d8d8" fill-rule="evenodd" stroke="none"/>
      <path d="M38.1 32.75 L38.6 30.4 40.7 30.5 45.1 31.05 50.5 32.3 Q51.3 32.8 49.8 32.5 L44.9 31.65 Q42.7 31.5 41.7 32.65 40.55 34.05 42.85 37.25 L45.35 40.05 43.5 38.75 Q41.05 37.4 38.65 37.4 37.15 37.4 37.45 39.1 37.7 40.25 38.75 42.1 L38.65 41.95 34.95 35.25 Q35.4 35.0 36.6 34.5 37.55 34.15 38.1 32.75" fill="#bcbcbc" fill-rule="evenodd" stroke="none"/>
      <path d="M12.25 45.65 Q12.15 45.1 12.7 44.1 14.4 48.75 16.95 50.3 L21.15 52.65 Q23.05 53.5 25.45 53.75 L30.15 53.5 Q32.15 52.8 33.0 50.75 L34.1 47.05 34.6 51.7 Q34.75 53.85 29.1 54.9 L20.35 55.75 Q17.65 55.95 15.0 51.95 12.75 48.6 12.25 45.65" fill="#cdcdcd" fill-rule="evenodd" stroke="none"/>
      <path d="M25.55 45.1 Q23.85 46.7 22.2 49.0 22.65 47.75 22.25 44.55 21.85 41.0 20.7 39.8 19.4 38.5 16.45 39.6 L22.95 33.6 Q23.9 33.8 24.45 34.5 25.1 35.4 32.65 35.4 L34.6 51.7 34.45 52.4 Q34.15 49.2 33.4 46.9 32.3 43.35 30.5 42.85 28.5 42.3 25.55 45.1" fill="#d8d8d8" fill-rule="evenodd" stroke="none"/>
      <path d="M17.95 23.15 Q18.4 21.9 17.35 19.2 L16.25 16.75 19.25 19.2 Q22.3 21.8 22.35 22.5 22.5 23.65 23.4 25.2 L21.7 32.35 14.25 32.65 Q14.85 32.55 15.4 32.05 16.55 31.2 16.25 29.6 16.0 28.05 14.9 26.65 L13.9 25.55 15.65 25.1 Q17.55 24.45 17.95 23.15" fill="#d8d8d8" fill-rule="evenodd" stroke="none"/>
      <path d="M26.0 41.3 L23.75 43.5 Q23.95 41.95 23.75 39.1 23.45 35.35 21.0 36.0 20.25 36.25 19.35 36.85 L18.65 37.4 22.7 32.65 23.95 33.85 26.8 36.05 Q28.1 36.9 30.95 37.1 L33.55 37.1 33.55 42.5 32.8 41.2 Q31.7 39.8 30.2 39.45 28.6 39.1 26.0 41.3" fill="#bcbcbc" fill-rule="evenodd" stroke="none"/>
      <path d="M7.2 15.3 Q9.25 14.25 9.75 14.15 11.3 13.75 13.05 14.6 9.95 15.4 8.4 16.25 5.8 17.7 5.05 20.1 4.15 23.15 4.25 24.75 4.3 25.95 5.15 28.45 5.7 30.1 6.25 30.7 L9.15 32.35 11.15 32.9 7.2 33.5 Q4.6 34.0 3.0 29.85 1.65 26.25 2.1 23.4 2.55 20.6 3.5 18.85 4.8 16.5 7.2 15.3" fill="#cdcdcd" fill-rule="evenodd" stroke="none"/>
      <path d="M20.35 23.5 Q20.45 21.35 19.55 19.65 L22.75 22.75 Q21.65 23.6 22.35 26.55 23.0 29.1 22.75 31.65 L19.15 32.0 Q19.95 31.0 19.65 29.95 19.05 27.85 16.25 26.15 L13.55 24.85 14.55 25.15 16.85 25.5 Q20.2 25.7 20.35 23.5" fill="#bcbcbc" fill-rule="evenodd" stroke="none"/>
      <path d="M31.2 15.05 Q32.75 15.05 34.85 12.65 L36.6 10.3 33.9 19.8 31.05 19.85 27.1 20.45 25.2 20.75 24.4 20.45 21.85 16.7 Q19.2 12.75 19.0 12.0 L19.7 12.9 21.35 14.7 Q23.9 17.0 24.75 15.05 25.6 13.05 25.75 10.95 L25.75 9.25 27.55 12.15 Q29.65 15.05 31.2 15.05" fill="#d8d8d8" fill-rule="evenodd" stroke="none"/>
      <path d="M31.55 2.15 Q34.65 2.5 35.8 4.25 36.6 5.5 36.6 8.15 L36.55 8.9 Q36.25 11.95 34.2 18.6 L33.55 20.35 28.5 20.35 25.45 21.35 Q25.05 20.5 23.05 18.25 20.95 15.9 19.95 14.05 22.5 17.75 24.05 17.75 25.4 17.75 25.7 13.15 L25.75 8.6 26.8 12.25 Q28.2 15.95 30.1 16.75 L31.3 17.4 Q32.05 17.75 32.55 17.4 34.1 16.5 35.15 13.4 35.9 11.05 36.3 7.75 34.9 6.05 32.9 4.8 29.8 2.95 26.8 3.5 22.05 4.4 18.35 8.55 18.6 7.45 19.8 6.2 20.9 5.0 22.4 4.15 24.75 2.9 26.15 2.5 L31.55 2.15" fill="#c1bdbd" fill-rule="evenodd" stroke="none"/>
      <path d="M39.0 14.35 L38.65 15.05 38.1 16.55 Q37.7 18.7 40.0 18.75 L43.95 18.3 45.1 17.75 Q43.9 18.8 43.15 20.1 41.65 22.7 43.75 24.2 45.85 25.7 48.75 26.45 L51.2 26.9 40.7 27.9 40.2 25.95 Q39.6 23.8 38.65 23.15 L35.25 20.8 35.9 19.05 Q36.95 16.85 39.0 14.35" fill="#d8d8d8" fill-rule="evenodd" stroke="none"/>
      <path d="M38.3 28.3 Q37.35 25.3 36.6 24.4 L34.8 21.75 35.6 19.35 37.55 16.4 Q36.9 18.95 37.3 19.45 38.15 20.6 40.4 19.95 42.1 19.45 44.35 18.1 42.6 19.4 41.6 20.75 40.25 22.55 40.35 24.2 40.5 26.7 47.95 27.3 L46.75 27.45 38.3 28.3 M56.45 18.55 Q58.2 22.3 56.9 24.4 55.95 26.0 52.15 26.75 53.45 25.9 54.25 24.45 55.1 22.9 54.9 21.35 54.5 18.7 53.3 16.4 52.15 14.1 49.85 11.65 47.95 9.6 45.25 9.15 48.05 8.7 49.85 10.1 50.95 10.95 52.85 13.25 55.05 15.45 56.45 18.55" fill="#bcbcbc" fill-rule="evenodd" stroke="none"/>
      <path d="M41.35 39.45 Q43.65 39.3 46.0 41.05 48.05 42.65 48.85 44.55 49.5 46.25 47.7 46.85 45.95 47.5 43.6 46.45 41.5 45.5 40.55 42.45 40.15 41.25 40.2 40.35 40.25 39.45 40.7 39.45 L41.35 39.45 M53.45 35.6 Q54.7 36.95 54.95 38.6 55.2 40.3 54.25 41.5 53.4 42.6 51.1 41.9 49.05 41.3 46.95 39.65 44.85 38.0 44.25 36.45 43.65 34.7 45.45 34.0 47.95 33.1 50.2 33.65 52.15 34.1 53.45 35.6 M25.5 45.5 Q26.3 43.7 27.45 43.2 29.05 42.45 30.4 43.2 31.6 43.85 32.0 45.35 32.45 46.9 31.7 48.5 30.9 50.25 28.8 51.3 26.75 52.4 25.7 51.55 24.75 50.8 24.75 48.9 24.75 47.2 25.5 45.5 M16.8 41.45 Q17.95 39.65 19.3 39.8 20.45 39.9 21.05 41.15 21.55 42.25 21.55 43.9 21.5 45.55 21.0 46.85 20.5 48.25 19.65 48.6 17.35 49.65 16.25 48.4 15.3 47.4 15.55 45.2 15.75 43.1 16.8 41.45 M12.3 22.75 Q10.55 22.0 9.5 20.6 8.45 19.2 8.65 18.05 8.85 16.75 10.5 16.4 12.1 16.05 13.65 16.95 15.0 17.75 16.0 19.25 16.85 20.6 17.0 21.8 17.1 23.0 16.25 23.15 14.25 23.6 12.3 22.75 M7.45 26.25 Q9.9 24.25 13.3 26.05 14.65 26.8 15.4 27.8 16.2 28.85 15.95 29.6 15.35 31.4 13.45 31.6 11.85 31.75 9.9 30.75 8.05 29.8 7.25 28.5 6.4 27.05 7.45 26.25 M21.0 7.6 Q22.55 6.6 23.65 7.25 24.6 7.85 25.0 9.45 25.4 10.95 25.05 12.5 24.7 14.1 23.75 14.7 23.05 15.15 22.2 14.3 21.45 13.55 20.9 12.1 20.35 10.65 20.35 9.4 20.3 8.05 21.0 7.6 M28.8 5.55 Q30.75 4.85 31.8 5.75 32.75 6.55 32.85 8.35 32.95 9.95 32.35 11.55 31.75 13.2 30.85 13.7 29.95 14.15 29.2 13.1 28.5 12.15 28.1 10.4 27.75 8.7 27.9 7.35 28.05 5.8 28.8 5.55 M48.9 16.7 L51.9 16.75 Q52.95 17.25 52.95 18.8 52.95 20.3 52.05 21.7 51.1 23.2 49.55 23.7 47.8 24.3 45.8 23.15 43.75 22.05 43.9 20.65 44.0 19.4 45.6 18.2 47.05 17.15 48.9 16.7 M42.5 11.8 Q43.7 10.45 44.75 10.3 45.65 10.15 46.4 10.85 47.1 11.55 47.2 12.6 47.45 15.35 43.75 16.75 41.65 17.55 40.95 16.75 40.35 16.1 40.9 14.55 41.35 13.05 42.5 11.8" fill="#ffffff" fill-rule="evenodd" stroke="none"/>
      <path d="M12.65 24.95 L11.25 23.4 15.95 24.75 Q21.1 26.15 23.4 26.45 23.85 26.5 23.4 27.05 23.0 27.55 23.4 27.45 L21.65 27.8 16.6 27.25 Q14.5 26.65 12.65 24.95 M27.5 30.5 L28.95 32.0 Q30.1 33.75 28.5 34.5 26.9 35.3 25.5 41.05 24.8 43.95 24.45 46.65 L24.0 45.9 Q23.55 44.6 23.4 41.6 23.25 38.6 25.35 34.25 L27.5 30.5 M35.6 32.5 L36.5 31.25 Q37.45 30.25 37.6 31.5 37.8 32.75 41.25 36.3 L44.75 39.6 44.45 39.65 Q43.75 39.5 41.7 38.55 39.65 37.6 37.4 34.95 L35.6 32.5 M36.6 27.45 Q36.35 29.45 36.6 24.4 L37.95 22.15 Q39.6 19.85 40.95 19.4 L43.8 18.15 45.75 17.35 41.25 21.6 Q36.75 26.15 36.6 27.45 M31.55 22.4 Q32.8 23.8 30.8 23.75 L28.5 23.4 27.25 20.3 Q25.9 16.75 25.75 14.35 25.6 12.0 25.85 10.4 L26.1 9.25 26.3 10.6 27.0 13.85 Q28.55 19.05 31.55 22.4" fill="#3f3f3f" fill-rule="evenodd" stroke="none"/>
      <path d="M29.5 19.45 Q33.05 19.45 36.2 22.35 39.35 25.25 39.35 28.6 39.35 31.95 36.55 34.7 33.7 37.4 30.2 37.4 26.6 37.4 23.5 34.6 20.35 31.8 20.35 28.45 20.35 25.05 23.15 22.3 25.95 19.45 29.5 19.45" fill="#352f00" fill-rule="evenodd" stroke="none"/>
      <path d="M30.0 21.35 Q33.15 21.35 35.4 23.45 37.6 25.5 37.6 28.45 37.6 31.4 35.4 33.45 33.15 35.55 30.0 35.55 26.85 35.55 24.65 33.45 22.4 31.4 22.4 28.45 22.4 25.5 24.65 23.45 26.85 21.35 30.0 21.35" fill="#ffd015" fill-rule="evenodd" stroke="none"/>
      <path d="M35.25 23.15 Q37.15 24.65 37.55 27.5 L37.55 28.8 Q37.45 29.15 37.3 28.25 37.05 26.4 35.45 25.15 33.65 23.85 30.2 23.15 27.15 22.6 24.45 25.2 23.1 26.5 22.35 27.9 22.45 26.6 22.95 25.45 23.65 23.95 25.1 22.5 26.6 20.95 30.05 21.3 33.25 21.65 35.25 23.15" fill="#fde16f" fill-rule="evenodd" stroke="none"/>
      <path d="M37.6 28.45 Q37.6 31.4 35.4 33.45 33.15 35.55 30.0 35.55 26.95 35.55 24.8 33.6 22.6 31.65 22.4 28.85 24.5 33.2 30.2 33.35 33.9 33.45 35.85 31.6 37.3 30.25 37.6 28.0 L37.6 28.45" fill="#edb200" fill-rule="evenodd" stroke="none"/>
    </g>
  </defs>
</svg>
