<?xml version="1.0" encoding="UTF-8" standalone="no"?>
<svg xmlns:ffdec="https://www.free-decompiler.com/flash" xmlns:xlink="http://www.w3.org/1999/xlink" ffdec:objectType="frame" height="247.95px" width="247.2px" xmlns="http://www.w3.org/2000/svg">
  <g transform="matrix(1.0, 0.0, 0.0, 1.0, 125.65, 165.35)">
    <use ffdec:characterId="480" height="22.0" transform="matrix(1.1632, 0.0, 0.0, 1.1867, -57.35, 3.55)" width="95.9" xlink:href="#sprite0"/>
  </g>
  <defs>
    <g id="sprite0">
      <use ffdec:characterId="479" height="22.0" transform="matrix(1.0, 0.0, 0.0, 1.0, 0.0, 0.0)" width="95.9" xlink:href="#shape0"/>
    </g>
    <g id="shape0">
      <path d="M81.6 0.0 Q84.95 2.65 95.9 15.3 L84.4 17.6 Q69.9 20.1 55.05 21.4 40.25 22.7 18.65 21.15 L0.0 19.35 Q0.3 16.75 4.75 11.15 L9.15 6.1 23.0 6.8 Q39.0 7.25 49.95 6.1 58.05 5.25 69.85 2.45 80.25 -0.05 81.6 0.0" fill="#000000" fill-rule="evenodd" stroke="none"/>
      <path d="M92.9 13.95 L82.25 15.9 Q68.7 18.05 54.05 19.35 39.4 20.65 19.7 19.4 L2.9 17.95 Q3.2 15.4 7.1 11.45 9.05 9.45 10.9 7.95 L23.45 8.75 Q38.15 9.3 48.95 8.15 58.6 7.15 68.65 5.0 77.1 3.2 79.9 1.95 81.9 3.0 92.9 13.95" fill="#ececec" fill-rule="evenodd" stroke="none"/>
      <path d="M84.5 6.15 L87.6 9.35 Q78.15 12.95 60.15 15.3 42.6 17.55 23.55 16.5 L3.95 14.45 5.65 12.35 Q19.9 13.65 37.7 13.25 53.75 12.85 67.4 10.4 77.05 8.7 84.5 6.15" fill="#5b77d0" fill-rule="evenodd" stroke="none"/>
    </g>
  </defs>
</svg>
