<?xml version="1.0" encoding="UTF-8" standalone="no"?>
<svg xmlns:ffdec="https://www.free-decompiler.com/flash" xmlns:xlink="http://www.w3.org/1999/xlink" ffdec:objectType="frame" height="247.95px" width="247.2px" xmlns="http://www.w3.org/2000/svg">
  <g transform="matrix(1.0, 0.0, 0.0, 1.0, 125.65, 165.35)">
    <use ffdec:characterId="492" height="79.95" transform="matrix(0.7533, 0.0045, -0.0045, 0.8215, -104.9, -35.8)" width="204.0" xlink:href="#sprite0"/>
  </g>
  <defs>
    <g id="sprite0">
      <use ffdec:characterId="491" height="79.95" transform="matrix(1.0, 0.0, 0.0, 1.0, 0.0, 0.0)" width="204.0" xlink:href="#shape0"/>
    </g>
    <g id="shape0">
      <path d="M96.45 17.05 Q100.85 22.75 102.45 28.5 94.05 34.95 84.7 42.85 66.15 58.7 61.65 66.25 57.2 73.7 36.85 77.7 27.0 79.6 20.9 79.8 23.7 79.6 28.6 74.4 L31.7 70.85 32.95 69.25 27.05 70.45 16.35 70.75 Q22.4 68.5 28.05 61.15 30.5 57.9 33.95 51.75 L34.45 51.15 34.4 51.0 33.95 51.75 Q32.05 53.0 23.85 54.35 L14.95 55.65 17.85 55.05 Q20.85 54.15 23.9 52.65 28.0 50.6 31.1 44.7 34.35 38.4 36.0 28.5 37.7 18.2 47.35 12.3 57.25 6.2 73.75 5.9 87.65 5.65 96.45 17.05" fill="#000000" fill-rule="evenodd" stroke="none"/>
      <path d="M28.4 51.0 L27.95 50.95 29.75 50.35 28.4 51.0 M92.1 19.35 Q96.2 24.7 97.9 30.05 90.35 35.35 82.05 42.0 65.45 55.25 61.65 61.7 56.8 70.05 30.8 75.75 33.1 74.55 36.25 69.4 L38.9 64.45 34.95 65.7 Q30.3 66.85 26.95 66.25 32.45 64.15 36.5 55.4 38.65 50.75 39.9 45.3 39.5 46.3 35.75 47.95 L29.75 50.35 Q30.9 49.55 32.35 47.7 L35.0 44.3 36.55 41.6 Q37.35 39.55 38.75 31.3 40.25 22.2 49.15 15.9 58.6 9.15 72.25 8.9 84.0 8.7 92.1 19.35 M30.8 75.75 L29.8 76.1 Q29.3 76.15 29.55 76.1 L30.8 75.75" fill="#594533" fill-rule="evenodd" stroke="none"/>
      <path d="M208.2 44.2 Q214.9 51.75 217.2 57.2 220.5 64.95 217.65 70.9 216.25 73.9 214.15 75.3 L209.0 69.1 Q203.05 62.2 199.05 58.7 193.3 53.65 190.35 51.55 186.4 48.7 185.45 49.65 183.35 51.85 179.7 53.25 175.9 54.75 176.4 52.65 176.95 50.65 173.35 47.6 L170.65 45.7 Q169.3 44.95 168.85 45.1 168.5 45.25 168.2 46.6 L167.65 49.25 Q166.9 52.65 165.85 51.15 164.5 49.3 158.3 47.6 152.3 46.0 150.75 46.65 150.15 46.85 150.0 47.6 L149.95 48.85 Q149.85 50.3 147.75 49.65 L138.75 48.45 132.65 48.15 136.0 50.55 Q139.05 52.9 137.15 52.65 L123.2 54.0 111.5 55.7 117.55 60.2 Q114.6 63.2 110.1 67.0 101.15 74.55 93.35 78.3 85.6 82.1 69.8 84.35 L55.6 85.85 55.6 84.35 Q54.9 72.0 59.9 59.4 65.0 46.7 74.8 36.2 85.15 25.25 99.0 18.65 113.9 11.55 131.1 10.45 147.75 9.4 163.9 14.7 177.55 19.25 190.0 28.0 200.3 35.25 208.2 44.2" fill="#000000" fill-rule="evenodd" stroke="none"/>
      <path d="M215.35 66.95 Q214.45 68.85 212.65 69.25 L207.35 63.4 Q201.3 57.0 197.55 54.15 191.15 49.3 188.4 47.4 183.7 44.1 183.95 45.1 184.2 46.25 180.9 49.35 L178.75 51.0 Q177.8 51.45 178.05 50.6 178.55 48.95 173.35 43.8 L169.55 40.4 Q167.75 39.0 167.35 39.1 166.95 39.2 166.25 44.1 165.6 48.5 164.6 47.3 163.25 45.75 155.9 43.6 148.65 41.5 147.6 42.15 146.85 42.6 148.4 44.85 L148.95 46.0 147.7 46.1 135.8 44.5 126.6 43.6 129.9 47.5 Q132.85 51.35 131.1 51.15 L117.2 51.8 105.45 52.65 111.5 60.2 Q110.1 62.15 107.35 64.75 101.85 70.1 94.85 73.75 86.9 78.0 73.45 80.05 L65.05 81.05 60.15 81.3 Q59.5 71.35 64.5 60.15 69.55 48.8 79.1 39.1 89.2 28.85 102.3 22.6 116.7 15.85 132.65 14.95 161.35 13.35 187.15 30.8 196.35 37.05 203.95 44.95 209.85 51.05 212.65 55.7 217.15 63.15 215.35 66.95" fill="#594533" fill-rule="evenodd" stroke="none"/>
      <path d="M87.6 31.6 Q86.95 32.0 87.05 31.8 L87.35 31.55 87.6 31.6 93.9 27.3 Q97.5 24.7 103.85 21.9 108.7 19.75 114.6 17.65 L113.0 18.0 116.0 17.15 121.45 15.4 Q124.8 14.35 127.75 14.5 131.3 14.65 138.65 16.45 152.0 19.7 155.4 21.2 160.75 23.55 162.85 28.5 164.7 33.0 165.4 40.25 L165.65 46.25 Q165.6 43.0 164.3 38.95 161.75 30.8 155.85 26.55 152.1 23.9 146.7 21.75 141.25 19.5 135.15 18.25 L122.05 19.45 Q113.1 20.65 102.3 26.95 98.95 28.95 95.8 31.2 L93.35 33.05 87.6 31.6 M84.0 29.45 Q82.25 26.45 76.95 25.1 71.05 23.6 65.1 25.85 61.1 27.35 58.9 31.15 56.7 34.9 55.6 42.1 53.3 57.7 45.3 63.2 42.8 64.9 40.05 65.4 L37.8 65.55 43.6 60.0 Q49.7 53.65 51.1 49.65 52.15 46.55 52.45 41.8 52.75 36.95 54.1 33.05 55.85 28.1 60.9 24.4 64.7 21.6 67.7 21.0 74.05 19.65 79.1 23.5 82.1 25.85 84.0 29.45 M81.3 37.6 L88.55 36.1 81.3 34.55 88.1 34.7 105.45 36.05 Q117.6 37.5 125.55 44.0 129.5 47.25 131.05 50.25 125.05 48.15 114.5 43.6 106.7 40.25 88.7 36.15 L81.9 42.1 Q75.2 48.35 70.7 54.15 L68.95 56.85 72.5 58.8 Q75.25 59.85 78.6 60.05 L95.15 59.3 101.95 58.15 108.45 57.2 Q110.7 56.95 111.45 57.75 111.85 58.15 111.75 58.6 L106.9 60.05 91.7 64.1 Q84.5 65.9 77.3 62.65 72.7 60.6 68.9 56.95 65.3 63.3 63.85 73.7 63.15 78.9 63.15 82.8 L60.15 82.8 Q60.4 79.15 61.3 74.1 63.1 64.0 66.2 57.2 69.25 50.35 75.55 43.3 78.75 39.75 81.3 37.6 M90.4 16.65 Q92.5 18.95 93.35 21.0 L91.85 22.5 Q89.9 19.1 85.45 16.1 76.55 10.0 64.05 11.6 56.25 12.65 49.7 19.2 43.35 25.6 42.05 33.05 40.15 43.9 34.1 48.6 31.1 50.95 28.45 51.15 32.3 49.45 34.4 46.7 36.15 44.45 37.2 40.7 L39.05 33.1 Q40.3 28.0 42.05 24.0 46.05 14.65 57.8 11.0 68.45 7.7 79.75 10.45 86.15 12.0 90.4 16.65 M171.3 25.05 Q184.2 32.4 185.45 34.55 186.9 36.9 184.05 44.25 182.65 47.95 180.95 51.15 L180.05 46.9 177.95 39.1 Q175.25 31.25 166.35 23.8 161.3 19.65 155.7 16.5 164.2 21.0 171.3 25.05 M205.0 48.05 Q206.8 51.9 205.6 53.15 205.1 53.75 203.6 54.35 L200.3 55.7 Q199.7 55.75 199.45 53.8 L199.05 48.15 Q198.8 44.9 195.85 40.65 L188.6 31.65 Q191.75 33.4 197.1 38.45 203.2 44.2 205.0 48.05" fill="#7f664f" fill-rule="evenodd" stroke="none"/>
      <path d="M79.85 73.9 Q83.45 74.2 86.0 73.85 94.9 72.75 104.85 66.35 109.8 63.15 113.0 60.2 L108.05 65.1 Q102.45 70.4 99.4 72.3 96.35 74.15 79.45 78.65 L63.15 82.8 Q62.65 81.25 62.55 79.35 62.4 75.55 64.65 73.75 65.9 72.8 68.4 72.75 L73.7 73.15 79.85 73.9 M90.35 49.65 Q96.8 47.05 101.6 46.55 104.45 46.25 112.85 46.6 118.75 46.85 125.55 49.0 128.9 50.1 131.1 51.15 L117.15 53.35 Q101.3 56.1 91.85 58.7 82.4 61.3 74.85 58.75 72.5 57.95 70.6 56.75 L69.2 55.7 76.25 54.1 Q84.45 52.0 90.35 49.65 M84.3 27.0 Q80.25 23.2 75.0 22.2 70.45 21.4 65.6 22.8 61.3 24.0 58.0 26.6 54.85 29.05 54.1 31.55 52.55 36.7 52.05 39.35 51.35 42.6 51.1 46.65 50.8 50.55 49.05 54.6 47.65 57.8 45.05 61.7 42.75 65.15 35.4 66.05 L28.45 66.25 Q31.4 65.95 35.2 62.6 38.65 59.55 42.0 54.7 44.45 51.1 45.5 44.6 L46.4 38.6 Q47.05 34.85 48.05 31.55 49.3 27.5 53.25 23.65 57.45 19.5 62.55 17.8 68.4 15.85 73.65 17.7 79.8 19.85 84.3 27.0 M81.3 31.55 L77.2 35.65 Q72.5 40.65 69.2 45.1 66.2 49.2 62.15 56.95 L57.15 66.25 Q55.45 68.6 50.1 69.9 L46.55 70.6 45.05 70.75 48.75 67.2 Q52.7 63.05 54.1 60.2 L57.7 53.65 Q59.65 49.6 60.15 45.1 60.7 39.65 62.4 37.05 64.2 34.35 69.2 31.55 73.45 29.2 79.3 29.4 82.25 29.45 84.3 30.05 L81.3 31.55 M147.35 42.55 Q149.1 45.05 149.2 46.65 L131.1 45.1 Q129.95 44.9 125.55 42.5 119.7 39.25 116.0 37.6 111.3 35.45 107.15 34.05 L103.95 33.05 107.2 32.05 Q111.3 30.95 115.4 30.4 128.4 28.65 136.15 33.1 143.95 37.6 147.35 42.55 M164.6 29.1 L168.0 31.6 173.4 36.05 Q175.05 37.7 176.65 43.85 L177.95 49.65 Q177.0 47.75 171.95 44.1 L167.15 40.75 164.6 29.1 M193.7 44.05 Q194.9 46.65 194.85 49.9 L194.5 52.65 Q194.05 51.25 189.7 48.05 L185.45 45.1 187.0 37.6 189.65 39.25 Q192.55 41.45 193.7 44.05 M208.3 52.4 L208.9 53.85 Q209.3 55.85 208.65 58.6 208.2 60.5 207.35 62.05 L206.6 63.2 200.65 56.45 Q204.45 54.45 208.3 52.4" fill="#3b2d20" fill-rule="evenodd" stroke="none"/>
      <path d="M100.45 60.2 Q87.2 62.8 78.95 60.8 75.65 60.0 72.8 58.65 L70.6 57.5 70.3 56.7 Q71.2 58.5 76.3 58.6 85.05 58.85 103.4 53.5 105.55 52.9 109.05 54.95 L112.1 57.15 Q107.05 58.85 100.45 60.2 M75.25 39.1 L75.25 37.6 75.6 37.1 76.95 35.9 Q79.55 34.05 83.35 33.0 95.5 29.75 114.5 36.05 122.7 38.8 127.75 43.0 130.25 45.1 131.1 46.65 127.2 44.3 121.45 41.85 110.0 36.9 100.9 36.05 90.05 35.1 81.55 37.0 78.9 37.6 76.8 38.4 L75.25 39.1 M82.8 30.05 Q82.4 31.25 81.6 32.25 80.05 34.2 78.25 33.05 72.95 29.75 68.5 35.5 64.2 41.05 60.15 55.7 57.5 65.3 48.05 70.45 41.85 73.9 33.7 74.95 41.3 73.8 47.2 69.6 55.95 63.25 58.65 51.15 62.7 32.75 73.15 29.55 L79.95 29.2 Q81.7 29.5 82.8 30.05 M133.75 12.8 Q140.55 14.1 146.45 15.95 165.25 21.85 167.35 31.55 168.4 36.45 167.25 42.75 166.65 45.95 165.85 48.15 166.15 43.2 164.95 37.55 162.6 26.2 155.25 22.5 146.1 17.85 131.65 15.2 L122.65 13.8 119.05 13.45 128.1 11.95 133.75 12.8 M167.2 21.15 Q183.95 29.55 185.45 33.05 188.1 39.15 185.2 45.35 184.05 47.8 182.35 49.45 180.75 51.0 179.4 51.15 180.8 48.9 181.9 45.9 184.0 39.85 182.45 36.05 179.15 28.05 163.1 20.7 158.1 18.4 152.4 16.45 L147.75 14.95 150.75 13.45 155.8 15.7 167.2 21.15 M207.1 46.55 L207.9 49.85 Q208.75 54.75 206.6 55.7 204.6 56.55 201.4 56.6 L198.15 56.45 199.15 55.85 202.1 52.65 Q204.2 50.05 202.6 45.85 L201.3 43.15 200.55 42.1 206.6 45.1 207.1 46.55" fill="#000000" fill-rule="evenodd" stroke="none"/>
      <path d="M209.0 50.6 Q211.3 53.4 212.65 55.7 217.15 63.15 215.35 66.95 214.45 68.85 212.65 69.25 L209.55 65.8 Q210.45 64.75 211.15 61.7 212.3 56.65 209.0 50.6" fill="#7f664f" fill-rule="evenodd" stroke="none"/>
    </g>
  </defs>
</svg>
