<?xml version="1.0" encoding="UTF-8" standalone="no"?>
<svg xmlns:ffdec="https://www.free-decompiler.com/flash" xmlns:xlink="http://www.w3.org/1999/xlink" ffdec:objectType="frame" height="247.95px" width="247.2px" xmlns="http://www.w3.org/2000/svg">
  <g transform="matrix(1.0, 0.0, 0.0, 1.0, 125.65, 165.35)">
    <use ffdec:characterId="494" height="136.8" transform="matrix(0.8938, -0.0154, 0.0127, 0.738, -67.85, -45.6)" width="144.3" xlink:href="#sprite0"/>
  </g>
  <defs>
    <g id="sprite0">
      <use ffdec:characterId="493" height="136.8" transform="matrix(1.0, 0.0, 0.0, 1.0, 0.0, 0.0)" width="144.3" xlink:href="#shape0"/>
    </g>
    <g id="shape0">
      <path d="M132.7 9.45 Q138.75 16.4 139.15 27.6 139.5 36.45 136.45 46.05 135.25 49.9 133.8 52.85 132.45 55.65 131.35 56.75 L125.7 61.4 Q121.25 64.75 117.15 67.0 105.75 73.25 104.05 67.75 103.15 64.8 97.7 62.35 92.9 60.2 85.65 58.9 78.85 57.65 72.4 57.55 65.85 57.45 62.65 58.55 L57.25 60.65 Q54.9 61.8 52.85 63.45 49.4 66.2 40.45 76.5 32.9 85.2 37.4 107.1 39.6 118.05 43.35 127.3 41.45 132.45 37.9 134.4 34.45 136.3 29.5 135.2 27.35 134.7 26.2 131.05 25.55 128.85 24.7 122.75 23.75 116.3 22.9 113.15 21.45 107.9 18.85 105.1 16.2 102.2 13.75 103.95 11.8 105.35 9.8 109.85 8.9 111.9 6.85 117.8 5.3 122.15 4.6 122.8 3.75 123.65 3.65 122.45 L3.6 118.1 Q3.3 108.95 -0.6 100.8 -3.8 94.05 -4.75 85.65 -5.55 78.35 -4.55 70.6 -3.7 63.85 -1.7 58.25 0.15 53.0 2.15 50.95 6.65 46.35 17.25 40.15 L26.15 34.95 35.3 28.75 Q36.35 27.95 37.8 25.8 L40.8 21.2 Q45.4 14.3 51.15 10.0 70.0 -4.15 110.4 -0.4 125.4 0.95 132.7 9.45" fill="#000000" fill-rule="evenodd" stroke="none"/>
      <path d="M129.1 9.65 Q135.3 16.05 136.5 26.2 137.5 34.7 134.8 43.4 132.35 51.4 128.6 54.4 L124.3 58.25 118.45 63.1 Q110.9 68.6 107.95 64.8 100.95 55.75 84.3 53.45 L71.6 52.9 Q65.9 53.25 62.75 54.4 57.45 56.25 50.95 62.3 47.05 66.0 36.85 77.15 29.9 84.85 33.35 106.85 35.05 117.85 38.2 127.3 36.55 130.1 34.1 131.85 30.6 134.35 29.15 130.25 28.55 128.65 27.8 125.25 L26.3 118.8 Q24.2 109.95 21.4 104.95 18.6 100.0 15.7 100.0 13.25 100.0 10.9 103.4 8.95 106.2 7.45 110.6 6.15 114.35 5.9 116.9 L5.8 117.5 5.75 116.9 5.4 112.6 Q4.35 103.8 0.7 96.05 -1.45 91.4 -1.85 84.2 -2.25 77.75 -1.15 70.5 -0.15 63.7 1.8 58.45 3.75 53.05 5.9 51.4 10.5 47.85 22.15 41.0 34.45 33.85 36.9 32.05 37.9 31.35 39.35 29.2 L42.4 24.55 Q47.2 17.35 52.8 12.75 71.45 -2.55 107.95 0.8 121.65 2.1 129.1 9.65" fill="#151515" fill-rule="evenodd" stroke="none"/>
      <path d="M103.65 44.5 Q111.0 45.65 116.95 49.65 121.6 52.8 125.1 57.55 119.3 62.85 115.9 64.8 110.4 67.95 107.95 64.8 100.95 55.75 84.3 53.45 L71.6 52.9 Q65.9 53.25 62.75 54.4 57.45 56.25 50.95 62.3 47.05 66.0 36.85 77.15 29.9 84.85 33.35 106.85 35.05 117.85 38.2 127.3 L35.95 130.2 Q34.0 128.95 32.4 121.25 L31.05 114.3 29.45 107.2 27.55 100.85 Q26.2 96.2 25.65 92.5 24.1 81.35 29.15 73.7 35.4 64.25 40.25 58.75 44.6 53.9 50.05 49.75 51.55 48.55 57.15 47.15 L70.5 44.75 Q89.6 42.25 103.65 44.5" fill="#070707" fill-rule="evenodd" stroke="none"/>
      <path d="M31.65 83.8 L28.95 88.15 Q25.85 92.95 23.75 95.05 21.65 97.15 18.2 95.8 L15.2 94.35 12.2 92.9 Q9.7 92.0 7.65 95.1 6.65 96.65 6.1 98.4 L5.2 90.8 7.95 87.45 12.8 87.45 21.0 90.8 31.65 83.8 M100.35 42.45 Q97.7 41.35 94.5 40.6 L91.85 40.0 93.4 40.6 Q95.3 41.35 96.95 42.25 102.25 45.25 103.4 48.85 104.55 52.45 101.35 56.8 L99.05 59.4 97.95 60.4 Q97.75 58.85 93.7 57.8 L89.7 57.05 Q90.15 56.15 89.45 54.3 88.0 50.6 82.4 45.8 76.45 40.7 66.65 45.2 61.2 47.7 55.85 52.4 L64.2 44.85 Q71.35 38.55 74.5 36.35 79.35 33.05 87.1 31.95 96.1 30.7 105.85 33.0 114.75 35.15 119.45 41.4 121.45 44.05 122.2 46.9 122.9 49.65 122.25 51.85 120.95 56.45 112.5 60.85 109.85 62.2 106.8 63.4 L104.3 64.35 101.55 62.2 102.7 61.4 105.2 59.2 Q108.85 55.35 108.85 51.25 108.85 45.95 100.35 42.45" fill="#313131" fill-rule="evenodd" stroke="none"/>
      <path d="M120.5 21.4 Q122.0 20.75 122.8 19.55 L124.15 16.75 Q125.6 13.55 120.4 9.75 115.75 6.35 107.95 3.8 103.5 2.35 96.35 2.1 L81.15 2.95 Q72.65 4.15 65.8 6.85 58.15 9.8 53.7 14.2 46.9 20.95 42.6 28.05 L39.75 33.2 Q38.75 35.05 38.2 35.05 36.7 35.05 31.1 38.2 23.95 42.3 8.55 52.5 5.5 54.45 3.8 60.0 2.4 64.65 2.15 71.0 1.9 76.6 2.65 81.0 3.4 85.4 4.6 85.6 L7.3 85.35 9.45 84.1 Q10.8 83.3 11.95 83.1 L15.85 83.5 Q16.95 83.85 18.5 85.55 20.05 87.3 21.1 87.7 22.9 88.3 25.7 86.75 29.05 84.9 34.3 79.7 35.3 78.7 33.85 81.15 L30.2 86.45 Q23.65 94.65 20.1 93.05 19.15 92.65 17.8 91.7 L15.5 90.1 Q12.75 88.35 10.95 88.95 8.35 89.85 6.8 91.7 4.95 93.85 5.9 96.05 7.05 98.8 7.0 103.9 L6.7 108.4 Q8.65 103.2 11.5 99.75 17.15 92.75 21.6 101.45 24.45 106.95 25.85 110.7 27.3 114.6 28.6 120.3 L29.5 124.7 Q30.0 127.15 30.6 128.3 32.1 131.5 35.6 128.75 36.85 127.8 37.95 127.65 36.0 130.65 33.8 132.05 30.55 134.15 29.15 130.25 28.55 128.65 27.8 125.25 L26.3 118.8 Q24.2 109.95 21.4 104.95 18.6 100.0 15.7 100.0 13.25 100.0 10.9 103.4 8.95 106.2 7.45 110.6 6.15 114.35 5.9 116.9 L5.8 117.5 5.75 116.9 5.4 112.6 Q4.35 103.8 0.7 96.05 -1.45 91.4 -1.85 84.2 -2.25 77.75 -1.15 70.5 -0.15 63.7 1.8 58.45 3.75 53.05 5.9 51.4 10.5 47.85 22.15 41.0 34.45 33.85 36.9 32.05 37.9 31.35 39.35 29.2 L42.4 24.55 Q47.2 17.35 52.8 12.75 71.45 -2.55 107.95 0.8 121.65 2.1 128.95 9.9 135.15 16.5 136.2 26.9 137.1 35.7 134.3 44.6 131.75 52.85 128.05 55.8 L123.9 59.4 118.5 63.6 Q122.65 60.15 125.65 55.3 129.6 49.05 131.2 41.0 132.3 35.5 131.85 32.45 L131.45 30.95 131.2 30.55 Q131.2 31.7 130.25 33.0 128.3 35.6 123.45 36.55 120.85 37.05 118.9 36.1 117.85 35.55 115.4 33.5 112.9 31.4 110.75 30.35 107.4 28.65 102.8 28.15 93.75 27.15 81.2 33.0 73.6 36.55 66.55 41.6 L69.2 40.0 Q73.2 37.2 77.7 35.5 84.7 32.8 91.15 33.55 98.45 34.4 104.6 36.55 110.5 38.6 114.25 41.5 118.05 44.45 118.85 47.7 119.65 51.15 117.0 54.4 112.4 59.95 107.8 61.45 L105.05 61.9 104.05 61.85 Q108.05 59.0 110.05 55.0 114.05 46.95 104.05 41.0 98.2 37.45 90.5 36.95 84.55 36.55 77.9 37.9 81.3 38.0 84.7 39.5 100.35 46.5 98.6 53.35 98.05 55.5 95.85 57.4 L93.75 58.85 94.55 56.7 Q95.2 54.05 94.4 51.6 91.8 43.8 75.65 41.0 68.95 39.85 61.3 47.0 57.45 50.6 55.0 54.4 55.95 52.6 57.75 50.2 61.35 45.45 65.4 42.4 70.75 37.25 78.2 32.55 92.5 23.55 105.35 23.15 117.3 22.75 120.5 21.4" fill="#545454" fill-rule="evenodd" stroke="none"/>
      <path d="M45.95 35.05 Q48.4 41.15 55.0 55.85 60.9 53.4 68.85 53.65 L75.65 54.4 61.45 55.85 Q56.85 56.5 45.75 66.65 40.25 71.75 35.6 76.7 L40.75 67.75 Q42.5 65.0 45.3 63.3 46.7 62.5 47.75 62.2 L46.55 59.25 Q45.05 55.7 43.5 53.1 40.55 48.15 34.55 42.6 L30.7 39.25 29.15 38.0 Q33.65 35.8 38.2 33.55 L42.0 27.55 43.5 30.15 45.95 35.05" fill="#545454" fill-rule="evenodd" stroke="none"/>
      <path d="M35.7 37.7 L33.0 35.05 Q32.8 33.8 33.0 32.65 33.45 30.25 35.6 30.55 39.2 31.1 47.45 46.5 51.55 54.25 55.0 61.85 54.0 62.55 53.0 62.75 51.0 63.2 50.8 60.7 50.35 54.8 41.65 44.35 L35.7 37.7" fill="#000000" fill-rule="evenodd" stroke="none"/>
      <path d="M-0.9 70.15 L-0.55 67.75 -0.4 74.85 Q-0.1 82.8 0.6 87.15 2.75 85.15 6.7 83.8 11.15 82.3 13.55 82.7 14.9 82.95 17.05 84.4 L17.35 84.6 Q15.95 83.85 14.2 83.65 11.2 83.3 8.55 84.7 6.4 85.85 4.5 88.6 3.15 90.55 2.1 93.1 L3.65 101.85 4.3 106.3 2.45 101.35 Q0.45 95.6 -0.55 91.6 -2.05 85.65 -1.45 76.1 L-0.9 70.15 M124.2 9.1 Q121.4 6.35 118.8 4.6 116.05 2.75 113.85 2.2 119.7 3.3 124.35 5.65 132.05 9.5 133.8 15.7 L135.5 21.7 Q136.4 25.0 136.7 27.45 137.55 33.75 135.1 39.5 135.7 35.55 135.25 30.8 134.7 25.05 132.65 20.45 L132.5 21.65 Q132.05 25.2 128.95 26.55 124.85 28.35 116.45 26.05 112.8 25.0 106.7 24.05 L101.25 23.3 104.95 22.95 Q109.3 22.7 112.8 23.0 L116.8 23.45 120.35 23.75 Q124.05 23.8 126.05 21.65 128.45 19.05 127.25 14.95 126.45 12.2 124.2 9.1" fill="#b7b7b7" fill-rule="evenodd" stroke="none"/>
    </g>
  </defs>
</svg>
