<?xml version="1.0" encoding="UTF-8" standalone="no"?>
<svg xmlns:ffdec="https://www.free-decompiler.com/flash" xmlns:xlink="http://www.w3.org/1999/xlink" ffdec:objectType="frame" height="247.95px" width="247.2px" xmlns="http://www.w3.org/2000/svg">
  <g transform="matrix(1.0, 0.0, 0.0, 1.0, 125.65, 165.35)">
    <use ffdec:characterId="709" height="108.25" transform="matrix(1.0, 0.0, 0.0, 1.0, -111.7, -80.45)" width="233.25" xlink:href="#shape0"/>
  </g>
  <defs>
    <g id="shape0">
      <path d="M205.55 41.8 Q222.25 47.25 233.25 52.55 233.1 57.6 228.4 65.55 224.7 71.8 213.05 87.95 206.65 91.95 192.35 95.9 175.85 100.5 164.05 100.15 154.05 92.55 138.05 89.0 122.8 85.55 106.0 86.6 88.95 87.7 75.2 93.05 60.5 98.75 53.05 108.15 36.9 108.55 29.4 107.05 23.35 105.85 20.25 102.7 11.95 94.35 8.9 90.15 1.9 80.6 0.0 69.9 9.75 68.25 25.2 63.15 39.6 58.4 47.65 54.5 70.6 43.4 85.15 38.8 113.95 29.6 143.55 30.25 172.1 30.95 205.55 41.8" fill="#000000" fill-rule="evenodd" stroke="none"/>
      <path d="M119.3 1.75 Q125.1 3.7 137.15 22.9 L154.95 51.95 Q149.9 55.2 132.1 57.9 115.75 60.4 96.55 61.3 76.8 62.2 65.75 60.85 56.6 59.75 56.45 57.35 61.2 51.85 65.45 35.7 70.0 18.2 71.05 14.8 73.05 8.4 75.9 6.85 85.6 1.6 99.2 0.35 111.65 -0.8 119.3 1.75" fill="#000000" fill-rule="evenodd" stroke="none"/>
      <path d="M227.75 59.85 L221.9 69.55 Q216.7 77.6 210.25 86.15 201.25 78.6 169.75 74.35 140.15 70.35 113.65 71.95 90.6 73.35 61.75 82.9 36.95 91.15 21.2 100.5 9.25 86.95 5.2 76.35 16.3 75.0 29.95 70.9 42.15 67.25 54.05 62.15 80.95 50.7 93.65 47.0 113.65 41.1 137.8 40.2 L159.7 42.05 Q183.95 44.55 195.8 47.85 203.75 50.1 213.15 53.7 221.3 56.8 227.75 59.85" fill="#ebb589" fill-rule="evenodd" stroke="none"/>
      <path d="M5.2 76.35 Q4.8 76.4 4.7 75.7 L4.55 74.5 3.7 71.35 Q25.35 68.4 51.85 56.0 76.85 44.3 99.45 38.4 121.5 32.6 138.5 33.05 164.9 33.85 189.95 40.2 208.8 45.0 230.5 54.1 228.7 60.3 227.75 59.85 221.3 56.8 213.15 53.7 203.75 50.1 195.8 47.85 183.95 44.55 159.7 42.05 L137.8 40.2 Q113.65 41.1 93.65 47.0 80.95 50.7 54.05 62.15 42.15 67.25 29.95 70.9 16.3 75.0 5.2 76.35" fill="#ff0000" fill-rule="evenodd" stroke="none"/>
      <path d="M104.95 75.05 Q127.0 73.05 150.35 74.65 185.8 77.15 206.6 87.9 197.4 91.65 192.25 93.05 181.7 95.8 164.65 97.3 133.15 81.55 100.85 84.65 69.75 87.6 50.35 106.5 L33.4 105.35 Q26.0 104.2 24.2 101.8 38.25 92.8 62.25 84.85 86.5 76.75 104.95 75.05" fill="#b56640" fill-rule="evenodd" stroke="none"/>
      <path d="M75.8 10.15 Q79.4 7.4 85.1 5.45 90.9 3.5 97.25 2.95 106.9 2.15 115.85 3.7 121.15 4.65 125.1 10.0 L138.4 30.25 124.15 30.75 Q116.7 31.4 107.75 33.35 92.6 34.55 83.9 26.3 77.1 19.95 75.8 10.15" fill="#ebb589" fill-rule="evenodd" stroke="none"/>
      <path d="M75.8 10.15 Q77.1 19.95 83.9 26.3 92.6 34.55 107.75 33.35 75.2 42.25 65.6 45.9 68.85 35.8 72.65 21.8 L75.8 10.15" fill="#ce7c40" fill-rule="evenodd" stroke="none"/>
      <path d="M135.25 42.2 L150.35 69.0 131.55 68.35 114.7 69.0 Q120.7 60.45 135.25 42.2 M154.65 69.0 Q162.05 61.85 178.6 46.75 L185.75 74.15 Q175.95 71.7 168.4 70.5 L154.65 69.0 M212.55 56.45 L210.6 83.3 200.5 78.85 Q193.85 76.05 188.6 74.7 196.3 68.15 212.55 56.45 M110.4 69.6 Q92.05 71.05 81.3 74.2 83.45 68.05 91.85 49.05 L110.4 69.6 M78.15 75.3 Q70.3 77.25 62.2 79.65 53.05 82.35 49.05 84.15 51.8 76.25 57.6 61.6 L78.15 75.3 M32.0 91.9 Q25.65 95.2 20.8 98.45 22.2 91.15 27.65 73.05 L47.05 85.3 Q40.15 87.65 32.0 91.9" fill="#2c6e48" fill-rule="evenodd" stroke="none"/>
      <path d="M111.8 65.6 L97.25 48.8 Q103.35 46.7 112.05 45.25 121.5 43.65 129.25 43.65 L111.8 65.6 M74.45 56.95 Q82.55 53.15 87.85 51.35 L78.15 71.6 62.85 61.95 Q66.35 60.75 74.45 56.95 M32.75 72.35 Q38.75 72.0 52.9 64.7 L46.9 81.4 32.75 72.35 M8.25 78.45 L22.8 75.6 18.8 93.0 14.6 88.5 Q10.05 83.1 8.25 78.45 M215.4 58.75 L222.85 61.9 213.1 77.9 215.4 58.75 M188.0 71.05 L182.45 48.25 Q192.75 49.4 208.85 55.35 L188.0 71.05 M152.05 65.35 L140.1 44.1 Q155.7 44.6 173.85 47.25 L152.05 65.35" fill="#ff0000" fill-rule="evenodd" stroke="none"/>
    </g>
  </defs>
</svg>
