<?xml version="1.0" encoding="UTF-8" standalone="no"?>
<svg xmlns:ffdec="https://www.free-decompiler.com/flash" xmlns:xlink="http://www.w3.org/1999/xlink" ffdec:objectType="frame" height="247.95px" width="247.2px" xmlns="http://www.w3.org/2000/svg">
  <g transform="matrix(1.0, 0.0, 0.0, 1.0, 125.65, 165.35)">
    <use ffdec:characterId="159" height="46.65" transform="matrix(1.3348, -0.8273, 0.8273, 1.3348, -33.25, 13.8)" width="91.65" xlink:href="#sprite0"/>
  </g>
  <defs>
    <g id="sprite0">
      <use ffdec:characterId="158" height="46.65" transform="matrix(1.0, 0.0, 0.0, 1.0, 0.0, 0.0)" width="91.65" xlink:href="#shape0"/>
    </g>
    <g id="shape0">
      <path d="M-11.3 -14.65 Q-10.4 -14.6 -9.6 -14.2 -8.6 -13.7 -8.15 -13.05 -6.95 -11.3 -9.8 -9.1 -13.75 -6.1 -15.1 -4.9 -17.3 -3.0 -18.45 -1.15 L-22.8 5.35 -28.3 13.05 Q-31.15 16.75 -34.45 20.1 -38.2 23.8 -39.1 23.3 -40.05 22.55 -39.25 17.75 -38.5 12.95 -36.9 9.55 -35.55 6.8 -32.3 2.35 L-29.3 -1.5 -21.05 -8.2 Q-12.6 -14.8 -11.3 -14.65" fill="#000000" fill-rule="evenodd" stroke="none"/>
      <path d="M-12.8 -12.6 L-11.05 -12.6 -9.35 -12.7 Q-7.7 -12.55 -10.15 -10.7 L-15.6 -5.9 Q-18.15 -3.35 -19.35 -1.45 L-23.3 4.25 -28.35 11.05 Q-31.3 14.85 -33.8 17.65 -37.15 21.35 -37.95 20.9 -38.75 20.25 -37.9 16.1 -37.05 12.1 -35.6 8.95 -34.45 6.5 -31.5 2.5 L-28.85 -0.9 -21.55 -6.8 Q-14.0 -12.75 -12.8 -12.6" fill="#db4027" fill-rule="evenodd" stroke="none"/>
      <path d="M-11.5 -9.65 Q-10.3 -10.9 -10.65 -10.3 -10.95 -9.7 -12.2 -8.2 -15.5 -4.0 -16.25 -3.85 -17.05 -3.65 -18.5 -2.65 L-21.6 -0.25 Q-22.55 0.5 -25.0 3.2 L-28.2 6.6 -25.75 2.9 Q-24.25 0.8 -22.35 -1.15 L-17.2 -5.0 Q-13.35 -7.7 -11.5 -9.65" fill="#000000" fill-rule="evenodd" stroke="none"/>
      <path d="M-24.9 -13.85 Q-22.55 -15.35 -20.0 -16.5 L-17.1 -17.25 -12.85 -17.7 Q-7.4 -17.85 -6.2 -16.2 -5.15 -14.55 -8.0 -13.2 -9.45 -12.55 -11.1 -12.2 L-16.45 -9.65 Q-18.8 -8.45 -23.3 -3.45 L-26.65 0.25 -29.45 3.0 Q-31.55 4.65 -36.85 6.25 -41.55 7.7 -43.15 7.65 -44.35 7.6 -45.1 7.0 -45.85 6.35 -45.1 5.95 -42.35 4.4 -36.9 -1.4 -32.5 -6.1 -29.95 -9.55 -28.25 -11.75 -24.9 -13.85" fill="#000000" fill-rule="evenodd" stroke="none"/>
      <path d="M-23.8 -13.3 L-19.1 -15.55 Q-17.0 -16.45 -13.35 -16.55 -9.1 -16.7 -8.0 -15.1 -7.0 -13.65 -8.95 -13.35 L-11.1 -13.3 -12.75 -12.65 -17.2 -10.6 Q-19.3 -9.55 -23.7 -4.65 L-27.0 -1.05 -29.6 1.55 Q-31.45 3.1 -36.2 4.75 -40.45 6.25 -41.8 6.2 L-43.3 6.15 Q-43.65 6.1 -43.05 5.75 -40.6 4.4 -35.3 -1.5 -31.3 -5.9 -28.65 -9.45 -27.2 -11.35 -23.8 -13.3" fill="#db4027" fill-rule="evenodd" stroke="none"/>
      <path d="M-23.8 -13.3 L-19.1 -15.55 Q-17.0 -16.45 -13.35 -16.55 -9.1 -16.7 -8.0 -15.1 -7.05 -13.75 -8.8 -13.35 L-9.15 -13.45 Q-11.85 -14.4 -15.65 -13.0 -19.15 -11.7 -22.5 -8.95 -25.3 -6.6 -29.1 -4.2 -32.55 -1.95 -37.4 0.75 L-32.25 -5.05 -28.65 -9.45 Q-27.2 -11.35 -23.8 -13.3" fill="#ec614a" fill-rule="evenodd" stroke="none"/>
      <path d="M0.5 -14.15 L-2.95 -11.25 -7.65 -7.55 Q-8.8 -6.75 -10.5 -8.3 -12.15 -9.75 -12.3 -11.4 -12.5 -12.75 -9.75 -14.7 L-5.7 -16.95 -2.6 -17.15 Q-0.65 -16.8 0.55 -15.6 1.6 -14.6 1.15 -14.3 L0.5 -14.15" fill="#000000" fill-rule="evenodd" stroke="none"/>
      <path d="M-0.8 -14.95 Q0.0 -14.15 -0.35 -13.9 L-0.85 -13.8 Q-6.0 -9.4 -7.25 -8.55 -8.25 -8.0 -9.6 -9.15 -10.9 -10.35 -10.95 -11.65 -11.1 -12.7 -8.9 -14.25 -7.25 -15.45 -5.75 -16.0 L-3.3 -16.15 Q-1.7 -15.85 -0.8 -14.95" fill="#db4027" fill-rule="evenodd" stroke="none"/>
      <path d="M46.05 -0.3 Q46.0 2.25 45.05 6.65 L44.1 10.5 44.55 10.9 45.5 12.1 Q45.9 12.9 44.9 16.8 43.85 20.7 43.05 21.0 L42.1 20.95 40.35 19.85 30.25 12.8 Q23.2 7.95 11.6 2.4 L-1.05 -3.4 -3.55 -4.3 -5.95 -5.1 Q-8.5 -6.2 -8.35 -8.1 -8.2 -10.15 -1.7 -14.85 3.25 -18.4 7.65 -20.7 10.4 -22.2 13.25 -22.8 L18.75 -23.25 Q21.05 -23.2 23.7 -21.85 25.0 -21.2 25.8 -20.55 L29.45 -20.2 35.4 -19.3 Q39.7 -18.25 44.1 -13.55 45.8 -11.65 46.1 -7.35 L46.15 -3.7 46.05 -0.3" fill="#000000" fill-rule="evenodd" stroke="none"/>
      <path d="M44.85 -3.85 L44.75 -0.7 Q44.7 1.65 43.65 6.5 L42.55 10.8 43.2 11.1 44.25 12.2 Q44.7 13.05 43.95 15.9 43.2 18.8 42.45 19.1 L41.6 18.95 39.9 17.85 30.25 11.05 Q23.65 6.55 12.5 1.2 L0.3 -4.3 -2.0 -5.1 -4.2 -5.8 Q-6.5 -6.65 -6.3 -8.05 -6.2 -10.0 -0.1 -14.35 4.55 -17.7 8.7 -19.9 11.25 -21.25 13.7 -21.8 L18.6 -22.1 Q20.75 -22.1 23.35 -20.65 L25.5 -19.2 29.0 -19.15 34.75 -18.55 Q38.8 -17.55 42.9 -13.15 44.55 -11.35 44.75 -7.35 L44.85 -3.85" fill="#db4027" fill-rule="evenodd" stroke="none"/>
      <path d="M27.85 3.7 L33.65 6.5 Q40.15 9.75 44.2 12.2 L44.25 12.2 44.35 13.65 43.95 15.85 Q40.9 13.0 30.7 7.15 18.7 0.6 14.05 -2.1 L23.7 1.85 27.85 3.7 M41.85 -12.55 Q40.45 -14.1 39.85 -13.85 39.1 -13.85 38.9 -12.6 38.7 -11.5 39.0 -10.95 L39.1 -10.45 39.95 -9.1 Q39.1 -10.35 33.3 -13.5 29.75 -15.4 24.85 -17.45 L18.0 -20.1 14.5 -20.7 9.6 -20.3 Q11.85 -21.4 14.1 -21.85 L18.6 -22.1 Q20.75 -22.1 23.35 -20.65 L25.5 -19.2 29.0 -19.15 34.75 -18.55 Q38.8 -17.55 42.9 -13.15 44.25 -11.65 44.65 -8.75 43.2 -11.15 41.85 -12.55" fill="#ec614a" fill-rule="evenodd" stroke="none"/>
      <path d="M36.6 -13.95 Q38.8 -11.8 39.2 -10.65 37.45 -12.35 34.35 -14.45 L31.6 -16.2 29.8 -17.05 25.65 -19.2 28.45 -19.2 Q29.55 -18.45 30.85 -17.85 L32.75 -16.95 Q34.4 -16.1 36.6 -13.95" fill="#000000" fill-rule="evenodd" stroke="none"/>
      <path d="M34.95 6.1 L39.0 7.9 43.35 10.05 43.05 11.05 43.7 11.4 44.75 12.5 44.9 13.65 Q43.4 12.4 39.75 10.35 37.8 9.3 34.05 7.4 L23.2 2.2 12.55 -2.8 25.7 2.2 Q32.95 5.1 34.95 6.1" fill="#000000" fill-rule="evenodd" stroke="none"/>
      <path d="M28.05 -3.15 L29.2 -3.2 Q29.45 -3.5 29.35 -4.4 29.2 -5.3 28.9 -5.4 28.45 -5.55 27.7 -4.95 26.95 -4.3 27.05 -3.95 27.25 -3.45 28.05 -3.15 M28.7 -7.65 Q28.65 -8.3 28.2 -8.75 27.75 -9.2 27.1 -9.05 26.45 -8.85 25.95 -8.35 25.45 -7.8 25.45 -7.2 25.45 -6.55 26.2 -6.15 26.9 -5.8 27.5 -5.95 L28.45 -6.65 28.7 -7.65 M34.85 -5.75 Q34.7 -3.3 32.75 -2.4 31.35 -1.7 30.15 -2.0 29.8 -0.9 29.6 0.45 L29.45 1.55 27.6 1.3 27.9 0.05 Q28.15 -1.2 28.0 -1.25 27.8 -1.3 27.4 0.05 L27.05 1.35 25.35 1.0 25.95 -0.45 Q26.5 -1.8 26.3 -1.85 L25.55 -0.6 24.9 0.7 23.25 -0.4 25.15 -3.8 Q23.45 -4.85 23.2 -6.7 23.0 -8.7 24.95 -10.35 26.95 -11.9 28.7 -12.35 L31.45 -12.3 Q32.8 -11.8 33.75 -10.2 34.9 -8.35 34.85 -5.75 M31.75 -4.3 Q32.6 -4.35 32.95 -4.8 33.4 -5.25 33.35 -5.85 L33.0 -6.9 Q32.6 -7.4 32.0 -7.45 31.4 -7.55 30.9 -7.05 30.45 -6.6 30.35 -5.9 30.25 -5.25 30.55 -4.85 30.95 -4.3 31.75 -4.3" fill="#ffffff" fill-rule="evenodd" stroke="none"/>
    </g>
  </defs>
</svg>
