<?xml version="1.0" encoding="UTF-8" standalone="no"?>
<svg xmlns:ffdec="https://www.free-decompiler.com/flash" xmlns:xlink="http://www.w3.org/1999/xlink" ffdec:objectType="frame" height="247.95px" width="247.2px" xmlns="http://www.w3.org/2000/svg">
  <g transform="matrix(1.0, 0.0, 0.0, 1.0, 125.65, 165.35)">
    <use ffdec:characterId="328" height="66.6" transform="matrix(1.5507, -0.0606, 0.0606, 1.5507, -6.6, -43.3)" width="70.95" xlink:href="#sprite0"/>
  </g>
  <defs>
    <g id="sprite0">
      <use ffdec:characterId="327" height="66.6" transform="matrix(1.0, 0.0, 0.0, 1.0, 0.0, 0.0)" width="70.95" xlink:href="#shape0"/>
    </g>
    <g id="shape0">
      <path d="M11.4 -30.35 Q15.3 -28.7 17.3 -26.9 16.35 -18.2 15.55 -7.6 14.0 13.6 14.8 23.0 7.65 25.05 -1.25 26.0 -11.15 27.05 -17.3 25.95 -18.75 14.35 -22.7 -4.8 -24.65 -14.35 -26.35 -21.55 -24.85 -24.1 -21.55 -26.75 -14.85 -32.1 -5.6 -32.85 3.65 -33.6 11.4 -30.35" fill="#000000" fill-rule="evenodd" stroke="none"/>
      <path d="M10.3 -29.45 Q13.9 -28.05 15.8 -26.55 14.9 -17.75 14.15 -7.2 12.6 14.0 13.4 23.15 6.8 25.15 -1.45 26.05 -10.65 27.05 -16.3 25.95 -17.65 14.7 -21.5 -4.35 L-25.1 -21.1 Q-23.65 -23.45 -20.45 -25.9 -14.1 -30.8 -5.5 -31.5 3.05 -32.2 10.3 -29.45" fill="#bdbdbd" fill-rule="evenodd" stroke="none"/>
      <path d="M3.9 -31.15 Q7.5 -30.55 10.7 -29.3 9.1 -19.7 8.7 -1.0 8.4 13.4 8.9 24.3 L-1.9 26.1 -12.55 26.4 -12.65 25.85 Q-12.9 19.15 -15.85 0.75 -18.6 -16.5 -20.7 -25.7 -17.9 -27.9 -14.55 -29.3 -10.35 -31.1 -5.5 -31.5 L3.9 -31.15" fill="#000000" fill-rule="evenodd" stroke="none"/>
      <path d="M-1.45 26.05 Q-10.65 27.05 -16.3 25.95 L-17.1 20.3 Q-12.1 18.55 -2.55 17.8 7.5 17.05 13.15 18.2 13.2 21.2 13.4 23.15 6.8 25.15 -1.45 26.05" fill="#8e8e8e" fill-rule="evenodd" stroke="none"/>
      <path d="M10.55 17.55 L13.15 18.0 Q13.2 20.95 13.4 23.15 L11.4 23.7 9.8 23.4 Q9.0 23.2 8.9 22.85 8.75 22.3 8.7 19.95 L8.7 17.45 10.55 17.55 M-14.8 19.5 L-13.25 19.35 -12.8 22.15 Q-12.5 24.75 -12.55 25.2 -12.55 25.55 -14.2 25.65 L-16.35 25.55 -17.1 20.2 -14.8 19.5" fill="#ffffff" fill-rule="evenodd" stroke="none"/>
      <path d="M-24.3 31.25 L-31.3 33.05 -34.15 33.55 Q-34.65 33.05 -34.9 31.5 -35.15 30.0 -34.85 29.05 -34.55 28.15 -22.15 26.2 L-1.1 23.65 Q8.1 23.0 21.65 23.45 34.7 23.9 35.25 24.65 35.85 25.45 35.95 27.0 36.1 28.7 35.25 29.0 L31.9 28.85 24.25 28.15 Q11.25 27.2 -0.4 27.75 -12.0 28.3 -24.3 31.25" fill="#000000" fill-rule="evenodd" stroke="none"/>
      <path d="M-30.9 32.1 L-33.6 32.6 -34.2 31.45 Q-34.4 30.45 -34.1 29.6 -33.8 28.75 -21.8 26.8 -9.75 24.9 -1.1 24.35 8.1 23.75 21.3 24.1 34.0 24.45 34.55 25.15 35.15 25.95 35.25 27.05 35.35 28.25 34.5 28.5 L31.15 28.3 23.6 27.45 Q10.8 26.25 -0.8 26.75 -12.45 27.3 -24.2 30.25 L-30.9 32.1" fill="#000000" fill-rule="evenodd" stroke="none"/>
      <path d="M34.55 25.15 L34.85 25.65 34.7 25.7 Q34.1 26.4 31.95 26.4 L26.55 25.8 8.75 24.0 Q17.65 23.9 25.95 24.3 34.15 24.65 34.55 25.15 M-26.3 29.25 L-31.6 30.55 Q-33.7 30.85 -34.25 30.1 L-34.1 29.6 Q-33.9 28.95 -25.7 27.5 L-9.0 25.05 Q-13.55 25.8 -18.65 27.1 L-26.3 29.25" fill="#939393" fill-rule="evenodd" stroke="none"/>
    </g>
  </defs>
</svg>
