<?xml version="1.0" encoding="UTF-8" standalone="no"?>
<svg xmlns:ffdec="https://www.free-decompiler.com/flash" xmlns:xlink="http://www.w3.org/1999/xlink" ffdec:objectType="frame" height="247.95px" width="247.2px" xmlns="http://www.w3.org/2000/svg">
  <g transform="matrix(1.0, 0.0, 0.0, 1.0, 125.65, 165.35)">
    <use ffdec:characterId="457" height="81.35" transform="matrix(1.0974, 0.1544, -0.1544, 1.0974, -8.7, -8.65)" width="110.85" xlink:href="#sprite0"/>
  </g>
  <defs>
    <g id="sprite0">
      <use ffdec:characterId="283" height="212.6" transform="matrix(0.2157, -0.0821, 0.0821, 0.2157, -58.85, -5.45)" width="433.1" xlink:href="#shape0"/>
    </g>
    <g id="shape0">
      <path d="M433.1 159.3 Q433.5 167.1 426.5 175.7 418.25 185.8 401.95 193.65 359.6 214.05 278.8 212.5 189.2 210.75 113.35 195.25 39.75 180.2 16.6 160.2 -2.8 143.4 0.45 128.0 1.6 122.65 5.4 118.3 8.4 114.85 11.2 113.75 19.75 110.35 42.6 106.15 73.2 100.5 93.85 102.15 103.5 102.95 108.9 101.8 L120.65 99.25 Q143.95 96.0 222.45 102.35 315.55 109.9 376.95 127.95 403.55 135.8 418.35 144.15 432.75 152.3 433.1 159.3" fill="#000000" fill-rule="evenodd" stroke="none"/>
      <path d="M423.65 160.45 Q424.1 167.2 417.5 174.55 409.65 183.2 394.15 189.85 353.75 207.15 276.5 205.15 190.8 202.95 118.15 189.0 47.6 175.45 25.3 158.05 6.6 143.4 9.65 130.15 10.7 125.5 14.3 121.75 17.15 118.85 19.8 117.9 27.95 115.05 49.8 111.6 79.0 106.95 98.75 108.55 108.0 109.3 113.15 108.35 L124.4 106.2 Q146.6 103.65 221.75 109.7 310.85 116.9 369.7 132.95 395.2 139.9 409.4 147.25 423.25 154.4 423.65 160.45" fill="#624933" fill-rule="evenodd" stroke="none"/>
      <path d="M76.55 130.65 Q54.55 133.0 47.75 136.2 40.1 139.8 40.65 148.75 40.95 153.5 32.5 152.65 25.25 151.9 14.7 147.6 6.35 136.6 10.75 127.0 12.3 123.55 15.3 120.85 17.7 118.65 19.8 117.9 26.85 115.5 45.8 112.25 71.2 107.9 90.3 108.15 93.0 116.65 90.8 122.15 87.9 129.45 76.55 130.65 M342.2 139.35 Q335.3 131.1 337.9 125.45 377.8 133.65 401.0 143.4 423.1 152.65 423.65 160.45 424.0 165.65 419.95 171.4 415.35 178.0 406.05 183.75 398.25 185.15 395.3 183.95 391.9 182.6 395.35 178.0 403.45 167.25 385.7 157.95 372.95 151.3 356.3 148.6 348.95 147.4 342.2 139.35" fill="#30241b" fill-rule="evenodd" stroke="none"/>
      <path d="M400.95 145.2 L399.8 142.9 Q411.2 147.6 417.3 152.05 423.4 156.55 423.65 160.45 424.1 167.2 417.5 174.55 409.65 183.2 394.15 189.85 353.75 207.15 276.5 205.15 190.8 202.95 118.15 189.0 47.6 175.45 25.3 158.05 6.6 143.4 9.65 130.15 10.7 125.5 14.3 121.75 17.15 118.85 19.8 117.9 22.2 117.1 28.95 115.55 L46.45 112.15 Q45.1 113.6 41.65 115.0 21.75 120.6 22.1 127.7 22.4 134.35 40.05 141.7 52.85 147.05 95.0 150.35 157.0 155.15 179.35 158.2 210.05 162.45 253.3 174.85 273.2 180.55 283.35 182.85 299.85 186.6 315.2 187.85 332.4 189.25 354.3 186.2 376.25 183.15 392.2 177.15 409.75 170.55 413.1 162.8 416.9 153.9 400.95 145.2" fill="#201711" fill-rule="evenodd" stroke="none"/>
      <path d="M346.15 189.8 Q372.0 187.4 391.5 179.75 404.95 174.45 411.35 168.15 415.1 164.4 415.75 161.2 415.0 166.25 411.65 171.2 405.8 179.85 394.1 183.75 373.75 190.55 359.4 192.85 336.45 196.6 308.05 194.3 307.7 194.05 307.3 193.95 L297.15 192.95 Q288.35 191.95 239.95 181.2 194.4 171.1 175.5 169.9 143.45 167.85 99.3 161.75 47.25 154.55 38.45 148.95 19.1 136.5 20.75 127.9 21.85 132.7 29.4 138.2 40.35 146.2 59.3 149.35 77.7 152.4 107.2 154.6 L145.0 156.95 Q159.2 157.95 185.15 161.55 213.85 165.55 218.95 167.9 223.4 170.0 246.15 176.05 L268.15 181.9 278.75 184.95 292.7 188.3 298.4 189.4 Q322.3 192.05 346.15 189.8" fill="#624933" fill-rule="evenodd" stroke="none"/>
      <path d="M343.4 41.35 Q349.0 51.8 355.95 86.3 364.4 128.1 364.9 165.05 343.35 174.25 310.85 178.1 L290.6 179.8 282.6 180.1 Q268.95 174.6 248.8 168.35 208.6 155.85 176.45 152.15 150.95 148.95 118.4 148.45 104.1 148.25 76.85 148.8 L68.55 147.9 70.85 138.8 Q73.9 127.3 77.75 115.6 88.55 82.95 96.15 63.25 111.4 23.6 120.25 15.75 129.7 7.3 152.85 4.7 172.0 2.5 192.9 4.7 L210.75 6.35 Q212.3 6.4 210.85 6.15 L219.15 4.6 239.0 1.7 Q269.8 -1.9 282.95 2.05 298.5 6.7 319.0 20.2 339.1 33.4 343.4 41.35" fill="#000000" fill-rule="evenodd" stroke="none"/>
      <path d="M336.3 44.9 Q341.45 54.8 348.2 90.1 356.2 132.15 356.6 168.05 338.65 175.15 309.8 179.8 287.1 183.4 281.9 182.95 280.05 183.0 268.15 179.65 L241.1 172.1 Q198.9 160.6 176.7 158.5 146.4 155.0 108.55 151.8 L76.7 149.3 Q80.0 135.45 85.85 117.3 113.1 32.5 126.1 20.6 135.05 12.4 156.85 9.8 174.85 7.65 194.55 9.75 L211.4 11.3 Q212.85 11.35 211.5 11.1 L219.35 9.6 Q229.0 7.9 238.05 6.75 267.05 3.2 279.45 7.0 294.1 11.55 313.35 24.5 332.3 37.25 336.3 44.9" fill="#624933" fill-rule="evenodd" stroke="none"/>
      <path d="M306.75 40.15 Q318.45 39.25 287.7 30.45 298.05 29.15 306.95 32.85 315.65 36.55 314.8 41.4 313.95 46.25 301.85 45.3 289.35 44.3 273.7 37.5 254.1 28.95 238.95 23.25 216.0 14.6 197.4 10.05 L211.6 11.35 Q212.75 11.35 211.5 11.1 L219.4 9.6 Q229.9 13.0 242.85 18.15 254.35 22.7 264.6 27.4 280.45 34.65 288.45 37.3 299.05 40.75 306.75 40.15" fill="#000000" fill-rule="evenodd" stroke="none"/>
      <path d="M354.5 132.85 Q356.45 151.8 356.6 168.05 338.65 175.15 309.8 179.8 287.1 183.4 281.9 182.95 280.05 183.0 268.15 179.65 L241.1 172.1 Q198.9 160.6 176.7 158.5 146.4 155.0 108.55 151.8 L76.7 149.3 Q79.9 135.75 85.65 117.9 129.85 141.35 210.0 147.25 266.4 151.8 305.2 146.85 336.8 142.8 354.5 132.85" fill="#201711" fill-rule="evenodd" stroke="none"/>
      <path d="M154.95 10.05 Q171.75 7.8 191.1 9.4 181.15 28.95 168.7 79.0 160.4 112.55 151.85 155.8 L76.7 149.3 Q80.0 135.45 85.85 117.3 113.1 32.5 126.1 20.6 134.65 12.8 154.95 10.05 M246.2 13.1 L263.8 16.25 Q273.55 17.7 285.9 24.3 300.45 32.05 302.75 32.8 310.15 35.2 311.6 37.85 313.05 40.6 307.75 43.15 303.4 45.25 268.65 32.3 227.45 16.25 212.75 10.85 L223.45 8.9 246.2 13.1" fill="#000000" fill-opacity="0.14901961" fill-rule="evenodd" stroke="none"/>
    </g>
  </defs>
</svg>
