<?xml version="1.0" encoding="UTF-8" standalone="no"?>
<svg xmlns:ffdec="https://www.free-decompiler.com/flash" xmlns:xlink="http://www.w3.org/1999/xlink" ffdec:objectType="frame" height="247.95px" width="247.2px" xmlns="http://www.w3.org/2000/svg">
  <g transform="matrix(1.0, 0.0, 0.0, 1.0, 125.65, 165.35)">
    <use ffdec:characterId="163" height="94.75" transform="matrix(1.0, 0.0, 0.0, 1.0, -83.4, -63.8)" width="164.6" xlink:href="#shape0"/>
  </g>
  <defs>
    <g id="shape0">
      <path d="M24.1 94.75 Q31.45 80.9 38.0 73.7 43.6 67.45 52.1 62.6 73.75 50.35 98.6 57.5 108.35 60.35 116.6 65.7 124.1 70.55 127.8 75.65 103.45 75.05 67.6 82.8 39.25 88.85 24.1 94.75" fill="#000000" fill-opacity="0.99607843" fill-rule="evenodd" stroke="none"/>
      <path d="M120.15 72.95 Q100.65 73.9 78.0 77.4 46.9 82.3 29.45 89.8 39.2 70.05 53.25 63.75 58.2 61.5 64.8 60.55 L75.05 59.25 Q87.8 57.25 97.25 60.0 107.4 62.9 120.15 72.95" fill="#cc0000" fill-opacity="0.99607843" fill-rule="evenodd" stroke="none"/>
      <path d="M21.9 60.15 Q21.85 50.9 22.55 46.15 23.65 37.15 27.25 28.55 34.2 11.8 50.9 9.9 L63.45 10.4 72.6 12.25 Q72.05 12.85 47.65 74.2 42.55 77.45 35.9 79.75 22.7 84.35 15.3 79.35 19.55 76.0 20.9 70.9 21.85 67.6 21.9 60.15" fill="#000000" fill-opacity="0.99607843" fill-rule="evenodd" stroke="none"/>
      <path d="M51.1 11.9 L62.5 12.35 70.8 14.1 Q70.3 14.65 48.2 70.15 43.55 73.15 37.6 75.2 25.6 79.35 18.9 74.85 22.75 71.85 23.95 67.25 24.8 64.2 24.85 57.45 24.85 49.1 25.4 44.75 26.45 36.6 29.7 28.8 36.0 13.65 51.1 11.9" fill="#666666" fill-opacity="0.99607843" fill-rule="evenodd" stroke="none"/>
      <path d="M93.2 0.5 L99.0 1.7 100.4 2.05 Q122.0 8.6 125.9 30.0 128.65 44.9 136.75 52.2 144.05 58.75 164.6 66.55 157.0 71.7 153.8 74.15 148.65 78.1 142.9 85.4 117.95 61.55 89.75 63.15 60.5 64.65 17.45 93.6 L0.5 74.55 0.0 73.95 Q4.1 72.5 9.3 70.1 19.75 65.65 25.35 61.5 32.65 56.15 36.15 48.2 37.7 44.75 40.45 33.7 41.25 30.75 42.15 28.15 43.85 22.9 46.1 19.4 49.3 14.5 54.4 10.65 57.45 8.25 61.3 6.15 70.15 1.45 80.65 0.3 87.05 -0.35 93.0 0.45 L93.2 0.5" fill="#000000" fill-opacity="0.99607843" fill-rule="evenodd" stroke="none"/>
      <path d="M97.0 4.65 L88.95 5.3 Q64.25 8.1 54.2 21.0 50.75 25.25 48.2 31.95 L44.35 41.8 39.5 52.1 Q36.2 58.1 31.95 62.5 29.75 64.75 24.7 67.6 20.25 70.15 14.9 72.35 L13.8 72.75 7.9 75.3 4.5 76.8 3.7 75.85 3.65 75.75 3.15 75.15 12.05 71.4 Q22.05 67.05 27.45 63.0 34.45 57.75 37.85 49.95 39.3 46.55 42.0 35.8 42.65 32.8 43.55 30.35 45.25 25.15 47.4 21.75 50.4 16.9 55.3 13.15 58.3 10.8 61.9 8.8 70.5 4.15 80.55 3.1 86.65 2.5 92.4 3.2 L92.6 3.25 Q95.5 3.65 98.25 4.45 L97.0 4.65" fill="#666666" fill-opacity="0.99607843" fill-rule="evenodd" stroke="none"/>
      <path d="M81.85 25.6 L86.15 25.0 Q90.9 24.25 95.4 26.55 100.4 29.1 99.25 33.25 102.5 33.25 103.2 36.1 103.9 38.85 101.7 40.95 99.1 40.45 98.05 42.25 97.1 43.75 97.7 45.65 95.3 43.7 93.4 44.1 91.85 44.4 91.25 45.85 89.4 44.35 87.45 45.15 86.2 45.6 85.05 47.0 83.15 45.1 81.35 45.15 80.0 45.15 78.3 46.2 76.1 43.6 74.85 43.4 74.0 43.35 72.25 44.8 69.25 41.95 70.4 38.7 70.75 37.55 71.7 36.6 72.5 35.8 73.2 35.55 73.55 28.95 77.8 26.75 79.35 26.0 81.85 25.6" fill="#ffffff" fill-opacity="0.99607843" fill-rule="evenodd" stroke="none"/>
      <path d="M79.7 46.4 Q81.1 45.45 83.0 46.15 85.05 46.9 84.8 48.7 84.55 50.35 83.75 51.75 L83.0 52.8 80.4 52.65 Q77.75 52.0 78.0 50.1 78.25 48.15 78.9 47.05 79.4 46.2 79.7 46.4" fill="#ffffff" fill-opacity="0.99607843" fill-rule="evenodd" stroke="none"/>
      <path d="M85.95 47.3 Q86.75 45.9 88.5 45.7 90.45 45.55 90.95 47.3 91.45 48.85 91.35 50.5 L91.2 51.75 Q90.2 52.45 89.05 52.65 86.7 53.2 86.1 51.35 85.5 49.45 85.6 48.2 85.7 47.2 85.95 47.3" fill="#ffffff" fill-opacity="0.99607843" fill-rule="evenodd" stroke="none"/>
      <path d="M91.95 47.45 Q91.95 45.85 93.45 45.0 95.0 44.1 96.25 45.45 97.3 46.7 98.0 48.15 L98.35 49.4 96.9 51.05 Q95.15 52.45 93.8 51.05 92.45 49.55 91.95 48.4 91.65 47.45 91.95 47.45" fill="#ffffff" fill-opacity="0.99607843" fill-rule="evenodd" stroke="none"/>
      <path d="M77.6 41.4 Q76.8 42.2 75.6 42.2 74.4 42.2 73.55 41.4 72.75 40.6 72.75 39.45 72.75 38.35 73.55 37.55 74.4 36.75 75.6 36.75 76.8 36.75 77.6 37.55 78.45 38.35 78.45 39.45 78.45 40.6 77.6 41.4" fill="#000000" fill-opacity="0.99607843" fill-rule="evenodd" stroke="none"/>
      <path d="M100.25 39.25 Q99.45 40.0 98.15 40.0 96.9 40.0 96.0 39.25 95.15 38.55 95.15 37.5 95.15 36.5 96.0 35.75 96.9 35.05 98.15 35.05 99.45 35.05 100.25 35.75 101.15 36.5 101.15 37.55 101.15 38.55 100.25 39.25" fill="#000000" fill-opacity="0.99607843" fill-rule="evenodd" stroke="none"/>
      <path d="M87.05 43.4 Q86.9 44.25 86.35 44.35 85.85 44.5 85.3 43.8 84.75 43.1 84.5 42.0 84.25 40.9 84.4 40.05 84.55 39.2 85.05 39.05 85.6 38.95 86.15 39.65 86.7 40.3 86.95 41.4 87.2 42.5 87.05 43.4" fill="#000000" fill-opacity="0.99607843" fill-rule="evenodd" stroke="none"/>
      <path d="M90.25 42.45 Q90.05 43.25 89.5 43.35 89.0 43.45 88.45 42.8 87.95 42.05 87.75 40.9 87.55 39.85 87.75 39.0 88.0 38.1 88.5 38.0 89.05 37.9 89.55 38.65 90.05 39.4 90.25 40.45 90.45 41.6 90.25 42.45" fill="#000000" fill-opacity="0.99607843" fill-rule="evenodd" stroke="none"/>
    </g>
  </defs>
</svg>
