<?xml version="1.0" encoding="UTF-8" standalone="no"?>
<svg xmlns:ffdec="https://www.free-decompiler.com/flash" xmlns:xlink="http://www.w3.org/1999/xlink" ffdec:objectType="frame" height="247.95px" width="247.2px" xmlns="http://www.w3.org/2000/svg">
  <g transform="matrix(1.0, 0.0, 0.0, 1.0, 125.65, 165.35)">
    <use ffdec:characterId="459" height="121.15" transform="matrix(1.3319, 0.0739, -0.0739, 1.3319, -48.8, -165.35)" width="66.15" xlink:href="#sprite0"/>
  </g>
  <defs>
    <g id="sprite0">
      <use ffdec:characterId="458" height="121.15" transform="matrix(1.0, 0.0, 0.0, 1.0, 0.0, 0.0)" width="66.15" xlink:href="#shape0"/>
    </g>
    <g id="shape0">
      <path d="M4.15 75.5 Q0.65 65.05 0.0 52.85 15.2 60.9 25.7 70.45 34.8 78.7 39.9 87.55 44.25 95.1 45.15 102.0 45.95 108.05 44.05 111.7 34.8 110.7 26.9 106.0 19.15 101.4 13.35 93.55 7.55 85.8 4.15 75.5" fill="#000000" fill-rule="evenodd" stroke="none"/>
      <path d="M5.15 75.2 Q1.65 65.35 1.05 54.35 14.8 61.65 24.7 71.0 33.15 78.95 38.15 87.75 42.35 95.1 43.55 101.75 44.55 107.55 43.0 110.2 34.65 108.85 27.2 104.15 19.85 99.5 14.2 92.15 8.5 84.65 5.15 75.2" fill="#ededed" fill-rule="evenodd" stroke="none"/>
      <path d="M2.55 65.9 Q7.6 61.0 9.65 59.4 16.95 64.0 22.9 69.35 22.35 71.6 20.0 76.15 L17.75 80.25 14.7 81.05 7.85 81.7 Q4.3 74.35 2.55 65.9" fill="#ffe25a" fill-rule="evenodd" stroke="none"/>
      <path d="M14.05 69.4 Q13.5 73.0 12.65 72.95 10.65 73.0 3.85 71.15 1.5 63.1 1.05 54.35 8.2 58.15 14.45 62.6 14.6 66.0 14.05 69.4" fill="#ff007e" fill-rule="evenodd" stroke="none"/>
      <path d="M18.05 80.55 Q11.35 71.0 6.65 63.45 L21.15 82.45 Q36.95 102.65 43.55 108.8 L43.0 110.2 41.7 109.95 Q31.5 99.7 18.05 80.55" fill="#000000" fill-rule="evenodd" stroke="none"/>
      <path d="M21.4 23.4 Q35.8 39.65 44.0 55.6 51.1 69.4 53.2 82.1 55.0 92.9 53.0 101.5 51.25 108.95 47.35 112.45 36.9 107.2 29.65 98.1 22.55 89.25 19.15 77.45 15.75 65.65 16.25 52.0 16.8 38.1 21.4 23.4" fill="#000000" fill-rule="evenodd" stroke="none"/>
      <path d="M20.8 76.1 Q17.35 64.75 17.6 52.05 17.8 38.9 21.95 25.65 35.0 40.35 42.6 55.8 49.0 68.9 51.05 81.5 52.8 92.05 51.2 100.45 49.85 107.75 46.85 110.2 37.55 104.9 30.85 96.05 24.25 87.35 20.8 76.1" fill="#ededed" fill-rule="evenodd" stroke="none"/>
      <path d="M18.65 39.95 Q26.9 36.35 29.95 35.4 36.5 44.1 41.2 53.05 39.55 55.4 34.75 59.75 L30.25 63.6 26.25 63.25 Q21.55 62.55 17.9 61.0 16.95 50.75 18.65 39.95" fill="#ffe25a" fill-rule="evenodd" stroke="none"/>
      <path d="M34.15 41.35 Q32.85 45.4 30.7 49.2 28.45 53.2 27.5 52.75 25.15 51.9 17.85 46.75 18.7 36.15 21.95 25.65 28.75 33.3 34.15 41.35" fill="#00aeff" fill-rule="evenodd" stroke="none"/>
      <path d="M24.6 38.9 Q28.4 52.3 33.25 67.75 43.0 98.6 48.1 108.8 L46.85 110.2 45.4 109.35 Q37.9 92.7 30.5 64.15 26.8 49.85 24.6 38.9" fill="#000000" fill-rule="evenodd" stroke="none"/>
      <path d="M51.45 0.0 Q61.15 23.55 64.45 44.55 67.35 62.7 65.25 77.8 63.45 90.7 58.4 99.65 54.05 107.45 48.75 110.05 39.4 100.3 34.8 87.4 30.3 74.8 30.65 60.25 31.05 45.7 36.25 30.5 41.55 14.95 51.45 0.0" fill="#000000" fill-rule="evenodd" stroke="none"/>
      <path d="M51.25 2.75 Q60.1 24.1 62.9 44.25 65.25 61.4 63.15 76.4 61.4 88.95 56.9 97.85 53.0 105.6 48.95 107.3 40.9 97.95 36.75 85.55 32.7 73.3 32.9 59.35 33.1 45.3 37.65 31.05 42.35 16.25 51.25 2.75" fill="#ededed" fill-rule="evenodd" stroke="none"/>
      <path d="M53.2 45.9 Q50.2 47.3 47.15 48.65 45.45 48.0 43.05 46.75 38.3 44.3 34.95 41.25 37.45 29.3 42.85 17.7 L56.4 16.65 Q60.4 28.85 62.35 40.7 59.8 42.75 53.2 45.9" fill="#ffe25a" fill-rule="evenodd" stroke="none"/>
      <path d="M51.25 2.75 Q55.85 13.85 58.9 24.9 56.1 29.0 52.55 32.5 48.75 36.2 47.9 35.35 45.7 33.55 39.7 25.05 44.2 13.45 51.25 2.75" fill="#ffbc1a" fill-rule="evenodd" stroke="none"/>
      <path d="M49.55 18.65 Q49.05 35.2 48.95 54.4 48.8 92.8 50.75 106.2 49.8 106.95 48.95 107.3 L47.7 105.8 Q45.4 84.3 47.25 49.35 48.15 31.85 49.55 18.65" fill="#000000" fill-rule="evenodd" stroke="none"/>
      <path d="M28.1 106.05 Q28.65 104.7 41.9 103.4 L51.1 102.65 Q55.35 102.45 55.65 102.65 56.4 103.1 58.95 110.6 61.5 118.3 60.65 119.05 59.6 119.95 43.95 120.8 28.15 121.65 27.25 120.55 26.35 119.45 26.9 113.5 27.4 107.95 28.1 106.05" fill="#000000" fill-rule="evenodd" stroke="none"/>
      <path d="M29.85 107.15 Q30.3 106.05 42.1 105.0 L50.3 104.4 Q54.05 104.25 54.3 104.4 55.0 104.75 57.25 110.85 59.55 117.1 58.75 117.65 57.85 118.4 43.95 119.05 29.9 119.75 29.1 118.85 28.3 118.0 28.8 113.15 29.25 108.7 29.85 107.15" fill="#ffffff" fill-rule="evenodd" stroke="none"/>
      <path d="M29.85 107.15 Q30.2 106.35 37.15 105.55 36.85 109.7 36.75 119.3 L29.1 118.85 Q28.3 118.0 28.8 113.15 29.25 108.7 29.85 107.15" fill="#dbdbdb" fill-rule="evenodd" stroke="none"/>
      <path d="M28.05 114.85 L28.2 112.8 37.75 113.05 28.05 114.85 M58.85 113.9 L59.45 116.2 48.9 116.55 41.4 117.0 47.95 116.05 58.85 113.9 M48.7 109.8 L56.55 107.6 57.35 109.6 52.2 109.65 48.7 109.8 M43.55 108.6 L37.6 109.5 28.4 111.3 28.75 109.05 39.05 108.85 43.55 108.6" fill="#000000" fill-rule="evenodd" stroke="none"/>
    </g>
  </defs>
</svg>
