<?xml version="1.0" encoding="UTF-8" standalone="no"?>
<svg xmlns:ffdec="https://www.free-decompiler.com/flash" xmlns:xlink="http://www.w3.org/1999/xlink" ffdec:objectType="frame" height="247.95px" width="247.2px" xmlns="http://www.w3.org/2000/svg">
  <g transform="matrix(1.0, 0.0, 0.0, 1.0, 125.65, 165.35)">
    <use ffdec:characterId="710" height="76.1" transform="matrix(1.0, 0.0, 0.0, 1.0, -74.4, -48.7)" width="130.75" xlink:href="#shape0"/>
  </g>
  <defs>
    <g id="shape0">
      <path d="M108.2 31.6 Q112.5 35.0 122.15 39.9 L130.75 44.15 Q129.5 50.8 123.6 54.8 119.5 57.55 117.3 57.55 116.7 57.55 111.15 52.95 105.8 48.5 105.65 48.7 101.8 54.95 89.2 60.85 77.4 66.4 70.15 66.4 L59.15 66.1 Q49.2 65.05 40.45 61.25 33.1 63.0 24.4 69.75 20.05 73.1 16.9 76.1 11.85 76.1 6.95 73.6 -0.5 69.8 0.05 62.1 0.1 61.1 7.3 55.7 15.45 49.6 18.2 45.5 18.85 44.55 17.95 40.2 16.8 34.8 16.8 33.55 16.8 33.1 18.15 32.45 19.45 31.8 19.45 31.3 19.3 26.45 19.8 24.1 20.4 20.95 22.55 17.95 27.1 11.7 40.8 5.7 51.9 0.85 57.7 0.1 63.9 -0.65 80.3 4.3 98.25 9.7 100.15 15.2 L100.5 17.35 Q100.55 17.95 102.2 20.15 L103.55 20.35 Q104.7 20.6 104.7 21.6 104.7 23.35 106.2 27.35 107.6 31.1 108.2 31.6" fill="#000000" fill-rule="evenodd" stroke="none"/>
      <path d="M100.35 23.25 Q102.8 28.7 105.05 31.6 108.95 36.6 115.45 39.9 L128.75 45.55 Q127.4 47.1 124.05 46.9 L112.45 45.25 Q107.5 44.5 104.05 46.3 102.3 47.2 97.8 51.2 L92.15 55.5 81.1 44.6 Q70.25 33.5 70.25 31.6 70.2 25.5 65.8 13.65 63.6 7.75 61.4 3.05 69.25 3.45 82.25 7.6 95.55 11.9 96.8 14.75 L100.35 23.25 M85.7 58.95 L86.3 58.7 86.4 58.65 86.5 58.6 Q80.2 61.5 72.5 62.95 64.0 64.55 51.05 61.15 35.9 57.25 29.7 57.25 22.3 57.25 11.7 60.3 6.4 61.8 2.6 63.25 L9.85 57.5 18.6 50.7 Q23.05 47.1 22.85 35.9 L22.55 27.2 Q22.55 22.5 23.45 20.15 25.65 14.5 40.45 8.35 47.5 5.4 55.25 3.65 L58.75 15.6 Q62.2 28.25 62.55 33.85 62.8 37.55 72.7 47.1 77.9 52.15 85.7 58.95" fill="#6b8537" fill-rule="evenodd" stroke="none"/>
      <path d="M104.95 31.45 L105.05 31.6 Q106.75 33.75 108.95 35.65 84.35 37.65 75.9 39.1 70.25 32.95 70.25 31.6 L70.25 30.8 Q80.35 29.35 90.45 29.35 L103.65 29.55 104.1 30.25 104.25 30.5 104.55 30.9 104.95 31.45 M62.55 33.85 Q62.7 36.15 66.6 40.75 L21.0 47.6 Q22.55 44.4 22.8 39.15 L22.85 35.9 22.55 27.2 Q22.55 22.5 23.45 20.15 L23.5 20.05 23.55 19.95 Q25.4 17.1 26.95 15.8 28.9 14.15 31.9 12.45 33.5 11.55 35.45 10.6 L34.9 11.7 Q32.6 16.5 32.6 18.8 32.6 22.0 35.35 27.85 39.2 36.1 45.1 36.1 51.7 34.4 59.45 32.75 L62.4 32.15 62.55 33.85" fill="#405812" fill-rule="evenodd" stroke="none"/>
      <path d="M126.55 44.65 L107.25 43.05 Q100.8 43.5 85.15 48.65 L84.3 48.0 Q83.85 47.7 84.1 47.6 97.95 42.3 102.8 41.55 108.7 40.65 121.2 42.35 L126.3 44.5 126.55 44.65 M113.35 38.75 L94.25 40.45 Q84.95 41.65 79.6 43.05 L78.45 41.85 Q82.6 40.0 91.7 38.7 100.4 37.45 110.9 37.15 111.65 37.1 112.9 37.9 114.2 38.7 113.35 38.75 M69.95 44.35 L71.15 45.6 Q46.35 50.65 16.95 52.0 16.2 52.05 17.3 51.25 L18.95 50.4 45.35 47.85 69.95 44.35 M26.0 53.6 L39.2 53.1 59.1 51.85 75.55 49.85 77.5 51.6 Q72.2 53.05 57.4 54.05 43.7 54.95 38.6 54.55 L24.4 55.35 Q13.9 56.8 6.9 59.8 7.55 58.9 9.05 57.85 10.25 57.0 10.75 56.8 16.6 54.75 26.0 53.6" fill="#405812" fill-rule="evenodd" stroke="none"/>
      <path d="M23.9 21.35 Q24.0 20.05 25.5 19.55 28.4 18.65 35.15 21.75 42.0 24.85 44.95 28.45 L55.65 40.1 55.0 41.05 52.65 39.4 Q48.9 36.75 46.45 33.6 L44.55 31.3 Q43.25 29.9 42.05 29.35 L37.55 28.45 Q33.4 27.6 33.1 27.0 32.95 26.65 33.1 25.55 L33.1 24.2 32.7 23.65 31.4 23.6 Q28.75 24.8 26.1 23.2 24.65 22.35 23.9 21.35 M27.9 23.1 Q28.55 23.35 29.2 23.1 29.8 22.8 30.05 22.15 30.3 21.5 30.0 20.9 29.75 20.3 29.1 20.05 L27.85 20.1 Q27.2 20.35 26.95 21.0 26.7 21.65 26.95 22.25 27.25 22.85 27.9 23.1" fill="#093a53" fill-rule="evenodd" stroke="none"/>
      <path d="M23.9 21.35 Q24.65 22.35 26.1 23.2 28.75 24.8 31.4 23.6 L32.7 23.65 33.1 24.2 33.1 25.55 Q32.95 26.65 33.1 27.0 33.4 27.6 37.55 28.45 L42.05 29.35 Q43.25 29.9 44.55 31.3 L46.45 33.6 Q48.9 36.75 52.65 39.4 L55.0 41.05 Q53.5 42.9 52.95 42.05 52.2 41.1 49.35 39.5 46.05 37.6 43.65 37.5 40.5 37.35 34.0 33.3 27.0 28.9 26.0 25.85 L24.35 23.2 Q23.85 22.1 23.9 21.35" fill="#7bc333" fill-rule="evenodd" stroke="none"/>
      <path d="M28.25 22.2 L28.9 22.2 Q29.2 22.05 29.3 21.7 L29.35 21.1 28.8 20.6 28.2 20.65 Q27.9 20.8 27.75 21.1 27.7 21.5 27.8 21.8 L28.25 22.2 M27.9 23.1 Q27.25 22.85 26.95 22.25 26.7 21.65 26.95 21.0 27.2 20.35 27.85 20.1 L29.1 20.05 Q29.75 20.3 30.0 20.9 30.3 21.5 30.05 22.15 29.8 22.8 29.2 23.1 28.55 23.35 27.9 23.1" fill="#ffffff" fill-rule="evenodd" stroke="none"/>
      <path d="M28.25 22.2 L27.8 21.8 Q27.7 21.5 27.75 21.1 27.9 20.8 28.2 20.65 L28.8 20.6 29.35 21.1 29.3 21.7 Q29.2 22.05 28.9 22.2 L28.25 22.2" fill="#000000" fill-rule="evenodd" stroke="none"/>
      <path d="M88.65 30.05 Q85.45 26.35 84.05 22.55 83.8 22.0 83.4 18.8 L85.2 17.35 Q88.65 15.05 90.65 16.35 92.6 17.65 91.95 21.75 91.3 25.65 88.65 30.05 M77.85 25.7 Q79.7 28.3 82.4 30.0 L86.75 32.7 Q84.5 35.55 82.0 37.1 78.5 39.4 76.55 38.1 74.55 36.8 75.25 32.7 75.75 29.4 77.85 25.7" fill="#cc0b0b" fill-rule="evenodd" stroke="none"/>
      <path d="M83.4 18.8 Q83.8 22.0 84.05 22.55 85.45 26.35 88.65 30.05 L88.5 30.2 88.4 30.4 88.2 30.7 87.35 31.9 86.75 32.7 82.4 30.0 Q79.7 28.3 77.85 25.7 L78.75 24.25 78.8 24.1 78.9 24.0 78.95 23.9 79.55 23.1 80.6 21.65 80.8 21.55 80.85 21.4 82.15 19.95 83.1 19.05 83.4 18.75 83.4 18.8" fill="#ffffff" fill-rule="evenodd" stroke="none"/>
      <path d="M51.75 23.8 L51.7 23.8 52.25 23.7 58.15 22.75 Q77.55 20.05 103.05 21.9 L103.15 22.2 103.25 22.4 103.5 23.15 104.25 25.65 Q105.15 28.8 106.45 31.9 L104.75 32.0 104.4 32.0 101.85 25.3 Q101.05 23.3 96.05 23.05 L87.7 22.55 51.75 23.8" fill="#cc4d00" fill-rule="evenodd" stroke="none"/>
      <path d="M104.4 32.0 Q80.3 33.3 62.8 36.05 43.85 39.0 20.0 45.55 20.55 42.0 19.6 37.7 L19.2 36.0 18.9 34.9 18.7 34.35 18.6 34.15 Q34.65 26.95 51.75 23.8 L87.7 22.55 96.05 23.05 Q101.05 23.3 101.85 25.3 L104.4 32.0" fill="#5b0b0b" fill-rule="evenodd" stroke="none"/>
    </g>
  </defs>
</svg>
