<?xml version="1.0" encoding="UTF-8" standalone="no"?>
<svg xmlns:ffdec="https://www.free-decompiler.com/flash" xmlns:xlink="http://www.w3.org/1999/xlink" ffdec:objectType="frame" height="247.95px" width="247.2px" xmlns="http://www.w3.org/2000/svg">
  <g transform="matrix(1.0, 0.0, 0.0, 1.0, 125.65, 165.35)">
    <use ffdec:characterId="379" height="82.4" transform="matrix(0.9966, -0.0824, 0.0824, 0.9966, -114.5, -56.9)" width="210.35" xlink:href="#sprite0"/>
  </g>
  <defs>
    <g id="sprite0">
      <use ffdec:characterId="378" height="82.4" transform="matrix(1.0, 0.0, 0.0, 1.0, 0.0, 0.0)" width="210.35" xlink:href="#shape0"/>
    </g>
    <g id="shape0">
      <path d="M116.9 7.4 Q118.9 10.7 122.9 19.95 L125.05 26.7 Q126.55 32.05 128.0 35.3 132.7 46.3 141.7 49.9 146.75 51.9 135.45 52.9 125.5 53.8 108.5 53.6 L80.8 52.25 Q68.65 50.9 72.35 49.05 79.2 45.55 83.9 36.65 85.8 32.95 89.9 21.5 92.95 13.0 96.8 7.4 101.9 0.1 107.15 0.0 112.2 -0.15 116.9 7.4" fill="#000000" fill-rule="evenodd" stroke="none"/>
      <path d="M116.3 9.05 Q118.15 12.25 121.95 21.6 L123.95 28.35 Q125.4 33.65 126.75 36.95 131.2 47.95 139.65 51.55 144.35 53.5 133.75 54.55 124.4 55.45 108.4 55.25 L82.35 53.9 Q71.0 52.6 74.45 50.75 80.9 47.25 85.3 38.35 87.1 34.65 90.95 23.15 93.8 14.65 97.45 9.1 102.2 1.75 107.2 1.65 111.9 1.55 116.3 9.05" fill="#d8b577" fill-rule="evenodd" stroke="none"/>
      <path d="M100.1 17.35 Q98.75 23.8 96.9 36.5 95.2 45.7 91.15 54.65 L77.1 53.1 Q72.0 52.05 74.45 50.75 80.9 47.25 85.3 38.35 87.1 34.65 90.95 23.15 93.75 14.95 97.2 9.5 101.75 2.3 106.45 1.7 102.45 5.95 100.1 17.35" fill="#b89a65" fill-rule="evenodd" stroke="none"/>
      <path d="M121.95 21.6 L124.1 28.9 117.4 36.35 107.2 25.75 Q96.8 36.1 95.9 36.35 95.1 35.65 89.7 26.95 L90.95 23.15 Q92.05 19.95 93.1 17.45 94.95 20.2 97.85 23.2 106.6 13.0 107.15 11.6 108.35 13.6 115.55 22.9 L119.85 16.35 121.95 21.6" fill="#378219" fill-rule="evenodd" stroke="none"/>
      <path d="M111.55 55.3 L107.1 52.15 102.6 55.15 Q86.25 54.7 78.55 53.35 L76.95 51.6 77.8 48.45 Q80.9 45.85 83.3 41.95 85.05 43.95 88.65 46.85 L91.9 49.3 Q106.1 38.05 106.95 36.5 108.95 38.75 120.7 49.05 L128.5 40.75 Q130.95 45.35 134.35 48.25 L136.75 53.85 136.4 54.25 111.55 55.3" fill="#a91212" fill-rule="evenodd" stroke="none"/>
      <path d="M208.85 53.6 Q212.0 55.3 208.55 59.8 205.2 64.1 197.55 69.0 189.45 74.15 180.15 77.55 169.65 81.4 160.6 81.85 154.2 82.1 136.75 81.4 116.7 80.55 106.7 80.6 L75.05 81.7 Q56.9 82.6 50.25 82.35 41.5 82.0 31.35 78.3 22.45 75.1 14.3 70.05 6.8 65.4 2.8 61.15 -1.25 56.8 0.55 55.1 3.9 51.8 38.55 49.45 L106.2 47.2 Q135.8 47.05 173.2 49.8 206.35 52.25 208.85 53.6" fill="#000000" fill-rule="evenodd" stroke="none"/>
      <path d="M206.95 54.5 Q210.05 55.75 206.65 59.8 203.35 63.7 195.75 68.25 187.7 73.05 178.6 76.2 168.2 79.8 159.4 80.2 153.3 80.45 136.75 79.65 118.0 78.8 108.1 78.85 L76.4 79.95 Q58.05 80.85 51.5 80.6 42.95 80.25 33.0 76.9 24.3 74.0 16.35 69.45 8.95 65.25 5.05 61.35 1.1 57.4 2.85 55.85 6.15 52.85 40.0 50.75 70.6 48.85 106.15 48.75 L171.9 51.1 Q204.55 53.3 206.95 54.5" fill="#b59b6f" fill-rule="evenodd" stroke="none"/>
      <path d="M5.05 61.35 Q1.1 57.4 2.85 55.85 4.8 54.1 18.15 52.55 L49.75 50.25 Q53.55 62.15 56.75 69.75 59.7 76.65 61.35 78.3 62.5 79.4 64.8 80.45 56.7 80.8 51.5 80.6 42.95 80.25 33.0 76.9 24.3 74.0 16.35 69.45 8.95 65.25 5.05 61.35 M206.95 54.5 Q210.05 55.75 206.65 59.8 203.35 63.7 195.75 68.25 187.7 73.05 178.6 76.2 168.2 79.8 159.4 80.2 L158.5 80.25 159.6 79.7 165.2 78.05 Q171.1 76.4 176.0 74.25 192.25 67.15 201.5 53.6 206.4 54.2 206.95 54.5" fill="#9a845e" fill-rule="evenodd" stroke="none"/>
      <path d="M206.95 54.5 Q209.5 55.5 207.65 58.4 205.95 61.15 201.0 64.8 177.55 61.6 152.8 60.0 L108.0 58.15 58.65 59.8 Q32.8 61.65 9.05 64.7 5.05 61.75 3.4 59.4 1.65 56.95 2.85 55.85 6.15 52.85 40.0 50.75 70.6 48.85 106.15 48.75 L171.9 51.1 Q204.55 53.3 206.95 54.5" fill="#000000" fill-rule="evenodd" stroke="none"/>
      <path d="M206.95 54.5 Q209.25 55.45 207.9 58.05 206.6 60.45 202.4 63.75 178.9 60.5 153.05 59.05 L108.0 57.45 Q87.05 57.0 57.7 58.85 29.95 60.6 7.45 63.5 4.3 60.95 3.05 58.9 1.75 56.85 2.85 55.85 6.15 52.85 40.0 50.75 70.6 48.85 106.15 48.75 L171.9 51.1 Q204.55 53.3 206.95 54.5" fill="#efe0c6" fill-rule="evenodd" stroke="none"/>
      <path d="M80.4 48.3 L80.45 50.8 Q80.6 53.5 80.9 54.65 81.25 55.85 80.5 55.3 L79.7 54.55 79.3 48.3 80.4 48.3 M45.2 49.75 L45.5 52.2 Q45.85 54.85 46.3 56.05 46.7 57.25 45.95 56.7 L45.05 55.95 44.1 49.7 45.2 49.75 M15.4 52.45 L16.05 54.7 Q16.8 57.25 17.4 58.35 18.0 59.4 17.15 58.9 L16.2 58.2 14.35 52.45 15.4 52.45 M155.3 55.8 Q156.1 53.9 156.75 49.4 L157.85 49.4 156.5 55.7 155.6 56.45 Q154.8 57.0 155.3 55.8 M117.3 53.95 Q117.7 52.75 117.8 50.05 L117.9 47.55 119.0 47.55 118.55 53.8 117.7 54.6 Q116.95 55.1 117.3 53.95 M189.75 51.7 L190.8 51.75 189.05 58.0 188.1 58.75 Q187.25 59.3 187.85 58.1 188.75 56.25 189.75 51.7" fill="#000000" fill-rule="evenodd" stroke="none"/>
      <path d="M80.25 52.1 Q82.6 52.1 84.45 53.85 86.25 55.65 86.4 58.15 86.6 60.65 85.0 62.4 83.45 64.15 81.05 64.15 78.7 64.1 76.9 62.35 75.1 60.6 74.9 58.1 74.75 55.6 76.3 53.85 77.85 52.05 80.25 52.1 M43.35 63.1 Q41.55 61.45 41.25 59.15 40.9 56.8 42.2 55.2 43.5 53.55 45.7 53.55 47.9 53.55 49.7 55.25 51.45 56.9 51.8 59.2 52.1 61.5 50.8 63.15 49.5 64.8 47.35 64.75 45.15 64.75 43.35 63.1 M15.45 64.4 Q13.65 62.9 13.15 60.8 12.65 58.7 13.65 57.25 14.75 55.75 16.75 55.8 18.7 55.8 20.55 57.3 22.3 58.75 22.85 60.85 23.35 62.95 22.3 64.45 21.25 65.95 19.25 65.95 17.25 65.9 15.45 64.4 M156.15 53.95 Q158.55 54.0 160.05 55.6 161.5 57.25 161.15 59.5 160.85 61.8 158.9 63.4 156.95 65.05 154.5 65.0 152.1 65.0 150.6 63.4 149.1 61.75 149.45 59.45 149.75 57.2 151.7 55.55 153.7 53.95 156.15 53.95 M112.45 62.8 Q110.75 61.0 110.95 58.55 111.2 56.05 113.25 54.3 115.25 52.5 117.9 52.55 120.55 52.55 122.25 54.35 123.95 56.1 123.75 58.6 123.55 61.1 121.5 62.85 119.45 64.6 116.8 64.6 114.15 64.55 112.45 62.8 M188.2 56.5 Q190.45 56.55 191.6 58.05 192.7 59.55 192.15 61.65 191.5 63.75 189.55 65.2 187.5 66.7 185.3 66.7 183.1 66.65 181.95 65.2 180.8 63.7 181.45 61.6 182.0 59.45 184.05 58.0 186.0 56.5 188.2 56.5" fill="#000000" fill-rule="evenodd" stroke="none"/>
      <path d="M80.35 53.5 Q82.2 53.5 83.55 54.85 84.95 56.25 85.1 58.15 85.2 60.05 84.0 61.4 82.8 62.75 80.95 62.75 79.15 62.75 77.8 61.35 76.4 60.0 76.25 58.1 76.1 56.15 77.3 54.8 78.5 53.45 80.35 53.5 M42.45 59.15 Q42.2 57.35 43.2 56.1 44.2 54.85 45.9 54.85 47.55 54.85 48.95 56.15 50.3 57.4 50.6 59.2 50.85 61.0 49.85 62.25 48.85 63.5 47.15 63.5 45.45 63.45 44.1 62.2 42.7 60.95 42.45 59.15 M18.95 64.75 Q17.4 64.75 16.05 63.6 14.7 62.45 14.3 60.85 13.9 59.2 14.65 58.1 15.45 56.95 17.05 56.95 18.6 56.95 19.95 58.1 21.3 59.25 21.7 60.85 22.1 62.5 21.3 63.6 20.5 64.75 18.95 64.75 M155.9 55.25 Q157.8 55.25 158.95 56.5 160.05 57.75 159.8 59.5 159.55 61.3 158.05 62.55 156.55 63.75 154.7 63.75 152.8 63.75 151.7 62.5 150.55 61.25 150.8 59.45 151.05 57.7 152.6 56.45 154.05 55.25 155.9 55.25 M113.6 61.8 Q112.25 60.45 112.45 58.55 112.6 56.6 114.2 55.25 115.75 53.95 117.75 53.95 119.8 53.95 121.15 55.3 122.45 56.7 122.25 58.6 122.1 60.5 120.5 61.85 118.95 63.2 116.95 63.2 114.9 63.2 113.6 61.8 M187.9 57.7 Q189.6 57.7 190.45 58.85 191.35 60.0 190.9 61.6 190.4 63.25 188.9 64.4 187.35 65.5 185.65 65.5 183.95 65.5 183.05 64.35 182.15 63.2 182.65 61.6 183.1 59.95 184.65 58.85 186.2 57.7 187.9 57.7" fill="#ffde00" fill-rule="evenodd" stroke="none"/>
    </g>
  </defs>
</svg>
