<?xml version="1.0" encoding="UTF-8" standalone="no"?>
<svg xmlns:ffdec="https://www.free-decompiler.com/flash" xmlns:xlink="http://www.w3.org/1999/xlink" ffdec:objectType="frame" height="247.95px" width="247.2px" xmlns="http://www.w3.org/2000/svg">
  <g transform="matrix(1.0, 0.0, 0.0, 1.0, 125.65, 165.35)">
    <use ffdec:characterId="154" height="89.6" transform="matrix(0.885, 0.0, 0.0, 0.885, -33.7, -49.55)" width="92.3" xlink:href="#sprite0"/>
  </g>
  <defs>
    <g id="sprite0">
      <use ffdec:characterId="153" height="89.6" transform="matrix(1.0, 0.0, 0.0, 1.0, 0.0, 0.0)" width="92.3" xlink:href="#shape0"/>
    </g>
    <g id="shape0">
      <path d="M83.5 13.05 Q87.75 16.25 90.45 19.9 L92.3 22.9 79.25 89.6 56.7 89.6 Q53.75 77.6 45.95 69.0 39.75 62.1 30.8 57.65 24.4 54.45 17.3 52.8 L13.0 52.0 11.45 51.8 0.0 16.45 Q0.5 15.2 1.8 13.45 4.4 9.85 8.55 7.1 21.9 -1.8 45.9 0.45 69.95 2.7 83.5 13.05" fill="#000000" fill-rule="evenodd" stroke="none"/>
      <path d="M87.5 21.25 Q88.8 23.0 89.25 24.1 L77.0 86.6 59.35 86.6 Q56.55 75.4 48.55 67.1 42.2 60.5 32.85 56.05 26.15 52.85 18.65 51.05 L14.15 50.15 12.45 49.9 2.7 18.05 Q3.15 16.9 4.35 15.2 6.8 11.85 10.7 9.25 23.25 0.9 45.75 3.05 68.25 5.15 81.0 14.85 85.0 17.85 87.5 21.25" fill="#52e11a" fill-rule="evenodd" stroke="none"/>
      <path d="M89.25 24.05 L89.25 24.1 77.0 86.6 59.7 86.6 62.25 18.3 85.95 19.35 88.3 22.4 89.2 24.0 89.25 24.05" fill="#40be0f" fill-rule="evenodd" stroke="none"/>
      <path d="M86.3 19.75 Q88.1 21.8 89.05 23.65 L61.8 24.5 Q60.95 23.1 58.75 20.8 54.25 16.25 47.05 12.05 34.1 4.45 20.65 4.75 31.2 1.65 45.75 3.05 66.55 5.0 79.15 13.5 83.35 16.35 86.3 19.75" fill="#e5ffdb" fill-rule="evenodd" stroke="none"/>
    </g>
  </defs>
</svg>
