<?xml version="1.0" encoding="UTF-8" standalone="no"?>
<svg xmlns:ffdec="https://www.free-decompiler.com/flash" xmlns:xlink="http://www.w3.org/1999/xlink" ffdec:objectType="frame" height="247.95px" width="247.2px" xmlns="http://www.w3.org/2000/svg">
  <g transform="matrix(1.0, 0.0, 0.0, 1.0, 125.65, 165.35)">
    <use ffdec:characterId="276" height="93.2" transform="matrix(1.2719, 0.0, 0.0, 1.2719, -84.15, -56.6)" width="131.4" xlink:href="#sprite0"/>
  </g>
  <defs>
    <g id="sprite0">
      <use ffdec:characterId="275" height="93.2" transform="matrix(1.0, 0.0, 0.0, 1.0, 0.0, 0.0)" width="131.4" xlink:href="#shape0"/>
    </g>
    <g id="shape0">
      <path d="M33.4 40.0 L39.1 45.55 Q42.65 49.15 44.75 50.75 50.45 55.15 51.7 58.0 53.05 60.95 50.6 64.0 48.5 66.6 44.35 75.1 L40.65 83.05 24.05 91.35 Q23.25 92.35 21.15 92.9 17.0 93.95 10.8 91.35 4.6 88.75 5.45 85.65 5.7 84.65 6.6 83.75 L7.5 83.05 Q5.85 82.25 4.1 80.15 0.6 76.0 0.05 69.8 -0.45 63.6 4.7 62.35 7.3 61.75 10.0 62.35 8.15 61.1 6.7 58.75 3.75 54.0 5.85 48.25 7.9 42.6 12.05 45.25 14.15 46.6 15.8 49.1 16.2 47.05 17.35 44.45 19.6 39.3 23.25 36.7 26.8 34.15 33.4 40.0" fill="#000000" fill-rule="evenodd" stroke="none"/>
      <path d="M32.8 42.75 L37.95 47.75 43.1 52.5 Q48.25 56.45 49.4 59.05 50.6 61.75 48.4 64.5 46.5 66.85 42.75 74.55 L39.35 81.8 24.35 89.3 Q23.6 90.25 21.7 90.7 17.95 91.65 12.35 89.3 6.7 86.95 7.45 84.15 7.7 83.25 8.55 82.4 L9.35 81.8 Q7.8 81.05 6.25 79.15 3.05 75.4 2.55 69.75 2.1 64.15 6.8 63.0 9.15 62.45 11.6 63.0 9.9 61.9 8.6 59.7 5.95 55.4 7.8 50.25 9.7 45.1 13.45 47.5 15.35 48.75 16.85 51.0 17.2 49.1 18.25 46.75 20.3 42.05 23.6 39.75 26.85 37.4 32.8 42.75" fill="#ffffff" fill-rule="evenodd" stroke="none"/>
      <path d="M7.8 50.25 Q9.7 45.1 13.45 47.5 15.35 48.75 16.85 51.0 17.2 49.1 18.25 46.75 20.3 42.05 23.6 39.75 26.0 38.0 29.7 40.35 26.5 41.15 24.45 43.05 22.3 45.0 20.2 50.0 L18.6 54.55 Q17.6 53.8 16.4 53.4 13.95 52.65 12.9 54.55 11.85 56.45 13.45 60.6 14.25 62.7 15.2 64.4 L14.7 64.55 13.5 65.2 Q11.55 66.75 10.7 70.05 9.55 74.8 11.4 77.1 12.65 78.65 15.65 79.3 14.9 81.5 15.65 83.25 16.8 85.75 20.85 85.65 23.8 85.6 30.3 83.5 L40.2 79.95 39.35 81.8 24.35 89.3 Q23.6 90.25 21.7 90.7 17.95 91.65 12.35 89.3 6.7 86.95 7.45 84.15 7.7 83.25 8.55 82.4 L9.35 81.8 Q7.8 81.05 6.25 79.15 3.05 75.4 2.55 69.75 2.1 64.15 6.8 63.0 9.15 62.45 11.6 63.0 9.9 61.9 8.6 59.7 5.95 55.4 7.8 50.25" fill="#e4e4e4" fill-rule="evenodd" stroke="none"/>
      <path d="M112.25 33.6 Q115.0 35.1 115.95 36.65 116.4 37.45 116.35 37.95 L117.0 37.0 Q117.85 35.95 118.75 35.4 121.55 33.55 123.6 37.05 125.9 40.95 124.15 44.55 123.3 46.3 122.0 47.35 L123.3 47.1 126.25 47.2 Q130.6 48.05 131.25 53.1 131.95 58.8 129.55 62.95 L127.8 65.2 126.95 65.9 127.9 66.65 Q128.95 67.6 129.35 68.65 130.65 72.05 125.1 75.2 122.3 76.8 118.9 77.4 L114.25 77.6 Q110.4 63.3 103.25 54.6 98.55 48.95 93.25 46.45 L99.5 40.95 Q102.25 38.85 106.4 34.85 109.7 32.2 112.25 33.6" fill="#000000" fill-rule="evenodd" stroke="none"/>
      <path d="M112.0 34.65 Q114.5 36.05 115.35 37.75 115.8 38.65 115.7 39.25 L116.35 38.4 117.9 36.9 Q120.5 35.2 122.35 38.45 124.4 42.05 122.8 45.3 122.0 46.95 120.8 47.9 L121.95 47.7 124.65 47.8 Q128.6 48.55 129.15 53.15 129.7 58.35 127.45 62.05 L125.85 64.05 125.05 64.7 125.9 65.35 Q126.85 66.2 127.2 67.1 128.3 70.1 123.35 72.9 120.85 74.25 118.8 74.65 L115.05 74.95 Q113.4 67.45 107.7 58.8 101.55 49.45 95.15 46.15 L97.7 43.85 100.7 41.45 Q103.2 39.55 106.8 35.8 109.65 33.35 112.0 34.65" fill="#ffffff" fill-rule="evenodd" stroke="none"/>
      <path d="M109.15 34.3 Q110.55 33.85 112.0 34.65 114.5 36.05 115.35 37.75 115.8 38.65 115.7 39.25 L116.35 38.4 117.9 36.9 Q120.5 35.2 122.35 38.45 124.4 42.05 122.8 45.3 122.0 46.95 120.8 47.9 L121.95 47.7 124.65 47.8 Q128.6 48.55 129.15 53.15 129.7 58.35 127.45 62.05 L125.85 64.05 125.05 64.7 125.9 65.35 Q126.85 66.2 127.2 67.1 128.3 70.1 123.35 72.9 120.35 74.55 117.75 74.8 L123.3 67.7 Q124.7 65.7 123.0 64.7 L121.7 64.25 121.05 64.15 122.95 61.1 Q124.95 57.5 125.55 54.55 126.15 51.65 121.6 50.35 L118.4 49.75 116.9 49.7 118.7 46.2 Q120.35 42.35 119.55 40.85 118.7 39.35 116.4 40.4 L114.3 41.8 113.35 40.45 110.9 37.65 Q109.6 36.5 106.45 36.15 108.0 34.7 109.15 34.3" fill="#e4e4e4" fill-rule="evenodd" stroke="none"/>
      <path d="M95.6 35.25 Q99.65 34.85 99.95 36.0 100.55 37.85 98.7 43.5 96.65 49.55 94.4 50.25 91.6 51.05 67.9 50.8 43.75 50.6 41.8 49.35 39.8 48.05 38.15 42.8 36.55 37.65 37.6 36.4 38.4 35.5 42.2 35.35 L46.4 35.15 Q47.9 34.25 50.3 28.45 L54.85 16.55 Q57.85 8.95 60.3 5.15 63.6 0.05 66.85 0.0 70.65 -0.05 74.2 5.15 76.75 8.85 80.05 16.8 L85.1 28.95 Q87.85 34.75 90.2 35.5 L95.6 35.25" fill="#000000" fill-rule="evenodd" stroke="none"/>
      <path d="M94.6 36.8 Q98.4 36.35 98.75 37.4 99.2 39.05 97.3 43.5 95.25 48.3 93.05 48.95 90.4 49.7 67.9 49.5 45.05 49.25 43.2 48.1 41.25 46.8 39.7 42.55 38.15 38.3 39.15 37.15 39.9 36.3 43.55 36.6 L47.55 36.85 Q49.0 35.95 51.2 30.15 L55.55 18.05 Q58.4 10.3 60.75 6.5 63.9 1.3 66.95 1.3 69.95 1.35 73.4 6.65 75.85 10.45 79.4 18.55 L84.8 30.75 Q87.65 36.5 89.5 37.1 L94.6 36.8" fill="#9ab7ff" fill-rule="evenodd" stroke="none"/>
      <path d="M95.35 36.7 L96.75 36.65 Q98.5 36.65 98.75 37.4 99.2 39.05 97.3 43.5 95.25 48.3 93.05 48.95 90.4 49.7 67.9 49.5 45.05 49.25 43.2 48.1 41.25 46.8 39.7 42.55 38.15 38.3 39.15 37.15 39.85 36.35 42.8 36.55 L44.35 36.7 47.2 36.9 Q64.65 38.05 89.2 37.0 L89.5 37.1 Q90.15 37.3 92.0 37.1 L95.35 36.7" fill="#6c89d1" fill-rule="evenodd" stroke="none"/>
      <path d="M94.6 36.8 Q98.4 36.35 98.75 37.4 99.2 39.05 97.3 43.5 95.25 48.3 93.05 48.95 L82.55 49.45 Q85.8 40.3 85.8 37.2 L83.55 37.2 82.0 37.3 79.6 31.75 Q76.95 25.2 75.8 20.05 74.6 14.7 72.6 9.8 70.85 5.45 69.05 2.9 68.35 1.9 66.85 1.35 L66.95 1.3 Q69.95 1.35 73.4 6.65 75.85 10.45 79.4 18.55 L84.8 30.75 Q87.65 36.5 89.5 37.1 L94.6 36.8" fill="#ffea00" fill-rule="evenodd" stroke="none"/>
      <path d="M65.7 1.55 Q64.0 3.45 62.65 8.55 61.55 12.65 58.9 24.7 56.3 35.1 54.05 37.0 L48.1 36.4 Q49.4 35.0 51.5 29.4 L55.5 18.3 Q61.05 3.1 65.7 1.55" fill="#6c89d1" fill-rule="evenodd" stroke="none"/>
      <path d="M39.15 37.15 Q39.8 36.45 42.2 36.55 L46.15 36.85 Q45.35 38.85 45.85 40.5 46.55 43.15 50.35 44.1 56.4 45.65 64.9 45.7 L84.4 44.5 Q83.8 46.95 82.8 49.45 70.7 49.65 58.45 49.3 44.55 48.95 43.2 48.1 41.25 46.8 39.7 42.55 38.15 38.3 39.15 37.15" fill="#4867b5" fill-rule="evenodd" stroke="none"/>
      <path d="M97.05 44.1 Q96.2 46.0 95.2 47.2 94.1 48.65 93.05 48.95 L82.5 49.45 84.25 44.7 97.05 44.1" fill="#cebd00" fill-rule="evenodd" stroke="none"/>
      <path d="M78.65 22.1 Q82.0 22.1 84.35 24.1 86.75 26.2 86.75 29.1 86.75 31.95 84.35 34.0 82.0 36.05 78.65 36.05 75.3 36.05 72.95 34.0 70.55 31.95 70.55 29.1 70.55 26.2 72.95 24.1 75.3 22.1 78.65 22.1" fill="#000000" fill-rule="evenodd" stroke="none"/>
      <path d="M78.35 22.85 Q81.2 22.85 83.15 24.6 85.2 26.35 85.2 28.8 85.2 31.25 83.15 33.0 81.2 34.7 78.35 34.7 75.5 34.7 73.5 33.0 71.5 31.25 71.5 28.8 71.5 26.35 73.5 24.6 75.5 22.85 78.35 22.85" fill="#ffea00" fill-rule="evenodd" stroke="none"/>
      <path d="M82.7 33.35 Q80.85 34.7 78.35 34.7 75.5 34.7 73.5 33.0 71.5 31.25 71.5 28.8 71.5 27.45 72.15 26.25 72.8 25.1 73.95 24.25 73.55 26.05 73.8 27.6 74.1 29.75 75.55 31.1 77.65 33.1 82.7 33.35" fill="#cebd00" fill-rule="evenodd" stroke="none"/>
      <path d="M69.1 18.3 Q66.7 16.2 66.7 13.25 66.7 10.35 69.1 8.3 71.45 6.2 74.85 6.2 78.25 6.2 80.65 8.3 83.05 10.35 83.05 13.25 83.05 16.2 80.65 18.3 78.25 20.35 74.85 20.35 71.45 20.35 69.1 18.3" fill="#000000" fill-rule="evenodd" stroke="none"/>
      <path d="M74.6 18.95 Q71.75 18.95 69.75 17.2 67.75 15.5 67.75 13.05 67.75 10.55 69.75 8.85 71.75 7.1 74.6 7.1 77.4 7.1 79.4 8.85 81.4 10.55 81.4 13.05 81.4 15.5 79.4 17.2 77.4 18.95 74.6 18.95" fill="#ffea00" fill-rule="evenodd" stroke="none"/>
      <path d="M74.6 18.95 Q71.75 18.95 69.75 17.2 67.75 15.5 67.75 13.05 67.75 11.65 68.45 10.4 69.1 9.25 70.3 8.4 69.8 10.25 70.0 11.9 70.25 14.25 71.8 15.7 73.8 17.55 78.45 17.95 76.65 18.95 74.6 18.95" fill="#cebd00" fill-rule="evenodd" stroke="none"/>
      <path d="M47.4 35.75 L56.25 36.15 69.9 36.75 81.9 36.6 89.05 36.3 92.0 37.3 86.8 37.75 Q79.7 38.15 69.9 38.1 L53.2 37.5 46.4 37.0 47.4 35.75" fill="#000000" fill-rule="evenodd" stroke="none"/>
    </g>
  </defs>
</svg>
