<?xml version="1.0" encoding="UTF-8" standalone="no"?>
<svg xmlns:ffdec="https://www.free-decompiler.com/flash" xmlns:xlink="http://www.w3.org/1999/xlink" ffdec:objectType="frame" height="247.95px" width="247.2px" xmlns="http://www.w3.org/2000/svg">
  <g transform="matrix(1.0, 0.0, 0.0, 1.0, 125.65, 165.35)">
    <use ffdec:characterId="50" height="109.6" transform="matrix(1.1887, 0.0, 0.0, 1.1887, -90.1, -72.6)" width="146.75" xlink:href="#sprite0"/>
  </g>
  <defs>
    <g id="sprite0">
      <use ffdec:characterId="49" height="109.6" transform="matrix(1.0, 0.0, 0.0, 1.0, 0.0, 0.0)" width="146.75" xlink:href="#shape0"/>
    </g>
    <g id="shape0">
      <path d="M125.7 6.5 Q126.4 6.45 129.3 8.65 L133.05 11.75 Q138.15 16.45 141.8 23.1 146.2 30.95 146.7 38.75 147.35 47.65 140.2 56.75 135.1 63.4 126.45 69.55 129.1 76.65 130.7 84.1 131.95 90.0 132.2 94.1 132.25 95.5 130.65 96.7 128.95 97.9 128.35 96.9 122.1 85.7 106.35 83.3 L106.85 109.6 95.0 109.2 90.9 107.15 93.1 82.6 Q69.8 82.7 48.15 88.95 34.0 93.0 23.05 98.8 22.4 99.15 21.2 97.6 19.95 96.05 20.1 94.9 21.65 86.0 24.45 77.25 28.35 64.9 34.1 55.35 50.1 28.8 76.85 28.6 88.05 28.55 97.45 33.2 105.7 37.3 112.4 45.0 117.55 44.25 121.1 42.45 125.55 40.25 127.25 36.6 129.4 31.9 128.8 26.2 128.2 20.9 125.45 16.2 L123.4 13.2 Q121.75 10.75 121.8 10.3 122.05 8.15 122.85 7.35 123.65 6.55 125.7 6.5" fill="#000000" fill-rule="evenodd" stroke="none"/>
      <path d="M126.75 13.5 Q126.75 12.4 127.25 11.8 128.5 10.4 131.4 13.05 136.65 17.95 139.95 23.65 144.15 30.9 144.7 38.55 145.55 51.4 129.3 62.5 124.2 65.95 118.0 68.85 L112.8 71.05 Q110.85 70.8 108.6 69.65 104.1 67.4 102.65 63.1 101.15 58.45 102.8 54.1 103.3 52.75 104.1 51.55 L104.75 50.7 107.85 50.05 Q111.65 49.15 115.1 47.85 126.05 43.65 129.1 37.05 131.2 32.5 130.5 26.35 129.85 21.05 127.35 15.85 126.8 14.65 126.75 13.5" fill="#e9e9e9" fill-rule="evenodd" stroke="none"/>
      <path d="M130.5 26.35 Q129.85 21.05 127.35 15.85 L127.1 15.25 Q130.1 20.25 131.25 24.4 133.35 31.75 130.85 38.05 128.45 44.05 121.85 48.8 117.7 51.75 113.25 54.1 L109.65 55.85 107.45 50.15 Q113.9 48.65 118.95 46.15 126.6 42.35 129.1 37.05 131.2 32.5 130.5 26.35 M141.35 29.25 Q140.15 25.05 138.55 21.4 144.05 29.6 144.7 38.55 145.35 48.05 136.35 56.8 130.1 62.85 120.0 67.9 L117.85 64.95 118.6 64.95 121.1 64.3 Q125.7 62.6 132.5 57.35 137.8 53.25 140.55 47.85 143.15 42.8 142.85 37.95 142.7 34.15 141.35 29.25" fill="#cbcbcb" fill-rule="evenodd" stroke="none"/>
      <path d="M129.7 95.15 L128.65 93.1 Q127.1 90.65 124.35 88.55 115.7 81.85 98.8 81.35 69.45 80.45 43.2 87.8 35.05 90.05 28.15 92.9 L22.9 95.3 Q23.4 91.25 24.85 85.15 27.75 73.0 32.6 62.9 39.35 48.75 48.9 40.7 60.85 30.6 76.55 30.75 92.95 30.85 104.95 40.95 114.6 49.0 121.0 63.05 125.6 73.1 128.1 85.1 129.35 91.1 129.7 95.15" fill="#433a3a" fill-rule="evenodd" stroke="none"/>
      <path d="M97.8 69.55 Q98.05 74.65 97.6 74.8 L97.25 74.4 97.1 73.9 24.45 86.95 Q25.85 80.6 27.8 74.8 32.9 60.75 39.7 51.05 49.2 37.55 60.8 34.7 54.05 39.3 50.6 45.05 47.7 49.9 47.4 55.15 47.15 59.55 48.6 63.25 49.95 66.55 51.7 67.5 56.75 70.25 61.65 70.75 L66.15 70.85 71.0 70.75 85.1 70.5 97.8 69.55 M103.1 40.55 L98.95 36.95 101.35 38.8 106.95 43.55 Q115.3 51.15 117.05 56.15 117.75 58.15 122.6 69.3 126.0 77.2 126.1 79.9 126.15 82.8 115.0 78.9 L107.35 75.95 103.85 74.45 103.85 70.35 107.6 71.05 Q111.75 71.85 113.55 72.55 115.95 73.45 117.5 73.55 119.45 73.65 120.45 72.55 121.9 70.95 118.5 62.8 115.2 54.75 110.95 49.1 107.9 45.0 103.1 40.55" fill="#2f2929" fill-rule="evenodd" stroke="none"/>
      <path d="M94.6 80.2 L96.9 80.3 95.25 108.35 92.95 107.0 94.6 80.2 M81.05 32.05 L79.25 31.05 79.25 30.95 80.15 31.05 82.2 31.95 85.75 34.3 Q90.8 38.3 92.85 43.6 95.2 49.8 96.1 61.7 96.55 67.7 96.5 72.4 L94.45 72.25 94.1 64.0 Q93.55 54.45 92.6 48.2 91.45 40.6 85.25 35.1 83.3 33.35 81.05 32.05" fill="#686868" fill-rule="evenodd" stroke="none"/>
      <path d="M88.2 36.65 Q84.9 33.1 80.5 31.3 74.95 30.55 67.75 32.3 53.95 35.6 43.4 47.0 35.35 55.7 29.55 71.55 26.65 79.5 25.3 85.7 30.35 83.55 37.45 81.1 51.6 76.2 62.05 74.65 74.4 72.75 86.6 72.4 92.7 72.2 96.3 72.4 96.55 70.3 96.45 66.45 96.25 58.7 94.45 49.7 92.9 41.75 88.2 36.65 M114.4 50.7 Q118.25 56.05 122.4 66.55 125.05 73.25 127.3 80.7 128.65 81.9 129.05 83.6 L129.95 88.4 130.55 93.1 Q130.65 93.95 130.1 94.95 L129.5 95.8 Q128.7 92.9 125.2 89.75 118.15 83.4 104.7 81.75 L105.45 108.5 95.0 108.3 96.15 81.2 Q70.2 80.45 43.85 88.0 30.65 91.75 22.7 95.65 L22.25 95.35 Q21.8 94.85 21.9 94.0 L22.85 87.9 Q23.6 84.35 24.45 81.25 27.15 71.15 31.7 62.3 37.95 50.1 47.05 41.6 55.7 33.55 67.35 31.1 73.2 29.9 77.3 30.3 L77.4 30.35 80.4 31.25 78.15 30.5 77.4 30.35 77.3 30.3 78.7 30.25 81.5 30.15 84.1 30.5 85.2 30.8 85.7 30.9 87.05 31.45 Q92.3 32.45 97.95 35.65 107.4 41.0 114.4 50.7 M105.65 67.35 L105.8 72.6 107.75 73.1 115.1 74.9 Q121.05 76.45 125.0 78.95 123.75 73.15 121.7 67.5 118.5 58.5 114.3 52.55 107.7 43.2 99.65 37.75 94.6 34.3 89.95 32.95 93.95 35.4 96.95 39.35 101.05 44.65 102.95 52.15 105.05 60.4 105.65 67.35" fill="#959595" fill-rule="evenodd" stroke="none"/>
      <path d="M19.9 3.3 Q23.35 0.05 23.9 0.0 25.1 -0.15 26.25 0.75 27.25 1.45 27.8 2.5 28.1 3.15 26.1 6.55 L23.75 10.4 Q20.55 17.55 19.8 22.45 18.75 29.4 21.8 34.55 25.95 41.5 37.0 45.1 42.5 46.9 47.2 47.3 L48.6 48.6 Q50.2 50.3 51.35 52.3 54.95 58.75 52.3 66.0 49.85 72.85 42.9 76.15 39.4 77.8 36.4 78.05 L30.5 75.2 Q23.4 71.45 17.6 67.1 -1.0 53.2 0.05 38.35 0.7 28.85 5.7 19.9 9.8 12.55 15.95 7.1 L19.9 3.3" fill="#000000" fill-rule="evenodd" stroke="none"/>
      <path d="M22.05 6.0 Q22.6 6.6 22.7 7.55 22.8 8.55 22.4 9.45 19.35 16.3 18.45 22.3 17.25 30.05 19.75 35.5 23.3 43.15 35.95 47.95 42.3 50.35 47.9 51.25 L48.65 52.3 50.15 55.2 Q52.1 60.2 50.3 65.6 48.7 70.6 43.45 73.2 40.85 74.5 38.6 74.8 L32.6 72.25 Q25.4 68.95 19.55 64.9 0.7 52.05 1.75 37.2 2.4 27.85 7.75 19.1 11.9 12.35 18.35 6.55 20.7 4.5 22.05 6.0" fill="#e9e9e9" fill-rule="evenodd" stroke="none"/>
      <path d="M18.35 6.55 L19.25 5.85 19.7 6.15 Q16.9 8.8 13.7 13.0 7.35 21.35 5.7 29.0 4.1 36.3 6.75 43.25 9.15 49.55 14.35 54.0 21.85 60.4 33.05 65.4 40.1 68.55 47.2 70.6 44.9 72.8 41.5 74.0 L38.6 74.8 32.6 72.25 Q25.4 68.95 19.55 64.9 0.7 52.05 1.75 37.2 2.4 27.85 7.75 19.1 11.9 12.35 18.35 6.55 M22.65 7.3 Q22.85 8.4 22.4 9.45 19.35 16.3 18.45 22.3 17.25 30.05 19.75 35.5 23.3 43.15 35.95 47.95 42.3 50.35 47.9 51.25 L48.25 51.7 49.05 52.9 Q44.65 52.5 40.05 51.15 33.05 49.15 27.2 45.5 L24.45 43.8 Q22.25 42.3 20.65 40.45 15.95 35.0 16.3 26.6 16.7 17.5 22.65 7.3" fill="#cbcbcb" fill-rule="evenodd" stroke="none"/>
      <path d="M25.65 1.7 Q26.25 2.15 26.5 2.9 L26.6 3.55 21.15 14.0 20.6 12.6 Q19.85 11.1 18.8 10.2 17.8 9.35 16.3 9.1 L15.0 9.0 23.6 1.25 24.2 1.2 Q24.95 1.25 25.65 1.7" fill="#000000" fill-rule="evenodd" stroke="none"/>
      <path d="M25.65 1.7 Q26.25 2.15 26.5 2.9 L26.6 3.55 21.5 12.4 21.15 11.4 Q20.6 10.2 19.55 9.3 18.55 8.5 17.3 8.05 L16.2 7.75 23.6 1.25 24.2 1.2 Q24.95 1.25 25.65 1.7" fill="#727272" fill-rule="evenodd" stroke="none"/>
      <path d="M25.75 1.85 L26.35 2.5 20.85 10.85 19.55 9.3 19.3 9.15 25.75 1.85" fill="#cbcbcb" fill-rule="evenodd" stroke="none"/>
      <path d="M24.4 1.2 L24.95 1.35 18.5 8.6 17.6 8.15 24.4 1.2" fill="#a7a7a7" fill-rule="evenodd" stroke="none"/>
      <path d="M126.2 7.75 L133.25 13.3 132.85 14.3 Q132.15 15.5 131.05 16.35 130.05 17.05 128.75 17.5 L127.65 17.8 123.2 10.05 123.35 9.45 Q123.55 8.7 124.2 8.25 124.9 7.75 125.6 7.7 L126.2 7.75" fill="#000000" fill-rule="evenodd" stroke="none"/>
      <path d="M126.2 7.75 L132.15 13.05 131.9 13.8 Q131.4 14.8 130.3 15.6 129.3 16.3 128.15 16.45 L127.15 16.45 123.2 10.05 123.35 9.45 Q123.55 8.7 124.2 8.25 124.9 7.75 125.6 7.7 L126.2 7.75" fill="#727272" fill-rule="evenodd" stroke="none"/>
      <path d="M124.3 8.2 Q124.8 7.9 125.2 7.8 L131.75 14.1 130.4 15.5 124.3 8.2" fill="#cbcbcb" fill-rule="evenodd" stroke="none"/>
      <path d="M123.3 9.55 L123.5 9.05 129.4 16.1 128.65 16.35 123.3 9.55" fill="#a7a7a7" fill-rule="evenodd" stroke="none"/>
    </g>
  </defs>
</svg>
