<?xml version="1.0" encoding="UTF-8" standalone="no"?>
<svg xmlns:ffdec="https://www.free-decompiler.com/flash" xmlns:xlink="http://www.w3.org/1999/xlink" ffdec:objectType="frame" height="247.95px" width="247.2px" xmlns="http://www.w3.org/2000/svg">
  <g transform="matrix(1.0, 0.0, 0.0, 1.0, 125.65, 165.35)">
    <use ffdec:characterId="249" height="88.95" transform="matrix(0.9982, 0.0607, -0.0607, 0.9982, -81.0, -7.4)" width="18.4" xlink:href="#sprite0"/>
    <use ffdec:characterId="251" height="94.7" transform="matrix(0.9987, 0.0512, -0.0512, 0.9987, -89.85, -75.55)" width="170.65" xlink:href="#sprite1"/>
  </g>
  <defs>
    <g id="sprite0">
      <use ffdec:characterId="248" height="88.95" transform="matrix(1.0, 0.0, 0.0, 1.0, 0.0, 0.0)" width="18.4" xlink:href="#shape0"/>
    </g>
    <g id="shape0">
      <path d="M8.55 0.65 Q9.15 2.8 9.55 20.55 9.95 38.1 9.55 39.35 9.25 40.4 8.35 40.7 L7.0 40.55 7.05 40.5 6.05 29.4 4.3 2.35 3.75 3.75 6.05 29.4 Q6.75 40.25 6.95 40.4 L7.0 40.55 Q6.5 41.65 5.7 41.25 L4.6 41.05 4.1 41.2 2.0 23.9 Q-0.1 6.05 0.0 3.35 0.05 0.1 3.9 0.0 L8.55 0.65 8.4 0.4 Q8.8 0.6 8.55 0.65" fill="#000000" fill-rule="evenodd" stroke="none"/>
      <path d="M7.55 34.15 L8.65 35.05 8.75 39.2 8.25 40.4 8.0 39.95 Q7.9 39.75 7.55 34.15 M7.85 31.35 L8.5 31.8 8.6 34.3 Q8.1 33.85 7.5 33.75 L7.3 31.2 7.85 31.35 M4.3 34.3 L5.55 35.1 6.0 39.75 6.15 40.35 Q6.25 40.8 5.7 40.55 L5.05 40.1 4.95 39.9 4.3 34.3 M5.15 31.25 L5.45 34.0 4.25 33.95 3.8 29.95 Q4.5 30.15 5.15 31.25 M3.75 29.55 L3.2 25.15 4.6 25.8 5.05 30.15 3.75 29.55 M7.05 27.25 Q7.7 27.3 8.4 28.35 L8.5 31.35 8.5 31.3 Q8.25 30.8 7.25 30.7 L7.05 27.25 M6.9 24.45 Q7.65 24.7 8.3 25.75 L8.4 27.75 Q7.9 27.2 7.05 27.0 L6.9 24.45 M6.6 20.05 L8.15 21.55 8.3 24.75 Q7.65 24.15 6.85 23.95 L6.6 20.05 M2.65 19.9 L3.15 20.05 Q3.6 20.1 4.1 20.65 L4.55 25.05 3.7 24.8 3.25 24.75 3.15 24.8 2.65 19.9 M2.65 19.55 L2.6 19.55 2.15 15.4 Q2.95 15.3 3.65 15.8 L4.05 20.05 Q3.4 19.45 2.65 19.55 M7.85 11.75 L7.95 15.45 6.3 14.1 5.95 9.4 Q7.0 10.4 7.85 11.75 M6.25 14.5 L7.95 16.4 8.1 20.65 Q7.35 19.95 6.6 19.5 L6.25 14.5 M6.8 6.6 Q7.4 7.2 7.65 7.9 L7.8 10.95 Q6.65 9.05 5.95 8.6 L5.8 5.8 Q6.3 6.0 6.8 6.6 M1.7 10.4 L2.35 10.45 3.15 10.7 3.55 14.9 2.75 14.7 2.2 14.8 2.1 14.85 1.7 10.4 M4.4 0.3 L6.55 0.55 7.5 1.1 7.65 6.9 Q6.5 5.35 5.7 5.1 L5.55 2.15 2.4 3.4 3.05 10.05 2.2 9.9 1.7 9.95 1.65 9.95 Q1.15 4.6 1.2 3.25 1.25 0.45 4.4 0.3" fill="#2b2b2b" fill-rule="evenodd" stroke="none"/>
      <path d="M3.2 50.0 L3.55 46.15 Q3.8 45.25 8.25 45.0 L12.95 45.3 Q14.35 48.65 16.35 64.1 L18.35 80.6 Q18.6 82.15 18.0 84.05 17.45 85.95 16.4 86.85 13.35 89.0 8.25 88.95 3.4 88.9 2.25 87.2 0.25 84.1 0.45 77.8 0.55 74.8 1.2 67.0 L2.3 56.35 3.2 50.0" fill="#000000" fill-rule="evenodd" stroke="none"/>
      <path d="M4.45 47.95 Q4.65 47.35 6.75 47.0 L6.6 47.4 Q6.25 48.8 7.25 60.85 8.25 71.95 8.95 77.1 9.7 82.25 9.15 87.1 L6.5 86.8 Q6.05 84.85 5.55 80.15 L4.95 71.95 Q4.85 67.65 5.3 51.25 L4.5 61.3 Q4.0 67.05 3.9 75.65 L4.1 85.8 3.5 85.25 Q2.7 83.85 2.5 81.7 2.3 80.15 2.4 76.85 L3.0 66.9 Q3.55 59.75 3.85 57.2 L4.35 51.4 4.45 47.95 M9.2 46.7 L9.7 46.7 Q10.4 54.05 11.7 57.65 L11.15 52.15 10.45 46.7 Q11.55 46.75 11.65 47.0 12.85 50.0 14.85 64.5 L16.8 79.75 Q17.05 81.25 16.65 82.85 16.25 84.55 15.4 85.35 16.4 82.75 14.05 72.4 L12.55 63.9 11.7 58.55 12.3 66.6 13.2 73.25 13.95 80.9 Q14.0 84.1 13.2 86.55 L11.45 86.95 Q11.8 81.4 11.55 77.55 L10.45 66.05 9.5 56.9 Q9.3 55.35 9.2 46.7 M7.1 46.95 L8.75 46.75 Q8.25 47.5 8.25 48.55 L9.45 63.05 10.5 77.4 Q10.15 76.6 9.45 71.75 L8.45 64.5 Q8.0 62.7 7.5 55.05 L7.1 46.95" fill="#2b2b2b" fill-rule="evenodd" stroke="none"/>
      <path d="M4.35 38.55 Q6.35 37.8 9.3 37.7 12.3 37.6 13.0 38.3 13.75 39.15 14.45 41.9 15.25 45.0 14.65 46.55 13.95 48.25 10.8 49.45 7.65 50.6 5.15 50.05 2.75 49.25 2.1 47.2 L1.3 42.1 Q1.2 39.7 4.35 38.55" fill="#000000" fill-rule="evenodd" stroke="none"/>
      <path d="M10.05 47.85 Q7.75 48.7 5.95 48.35 4.25 47.85 3.75 46.25 L3.2 42.65 Q3.15 40.8 5.4 40.05 6.85 39.5 8.95 39.4 11.15 39.35 11.6 39.85 12.1 40.45 12.65 42.5 13.25 44.7 12.8 45.8 12.35 47.05 10.05 47.85" fill="#202020" fill-rule="evenodd" stroke="none"/>
    </g>
    <g id="sprite1">
      <use ffdec:characterId="250" height="94.7" transform="matrix(1.0, 0.0, 0.0, 1.0, 0.0, 0.0)" width="170.65" xlink:href="#shape1"/>
    </g>
    <g id="shape1">
      <path d="M82.75 1.15 Q83.6 1.6 83.3 3.5 83.0 5.3 82.1 6.3 L43.6 39.05 Q5.65 71.05 3.7 71.75 1.5 72.55 0.7 70.95 -0.1 69.4 1.1 67.75 2.45 65.95 19.3 52.05 36.75 37.65 42.6 33.85 47.9 30.5 64.0 15.8 L79.1 1.8 80.5 1.25 82.75 1.15 M132.05 39.9 Q142.0 44.9 142.6 45.75 143.35 46.75 142.65 56.15 141.95 65.45 141.2 67.05 140.65 68.35 138.0 70.3 L135.45 72.15 131.75 70.7 132.45 72.25 114.15 72.4 Q96.55 72.7 89.05 74.65 76.6 73.45 57.7 83.65 48.2 88.75 41.2 94.05 L39.85 91.45 40.05 88.45 40.2 85.05 Q40.2 84.55 38.65 80.0 L36.4 73.7 Q35.8 72.4 35.05 67.95 L34.45 63.75 36.15 60.2 38.75 56.2 Q41.65 52.1 42.85 51.35 L48.5 47.85 54.45 44.4 Q56.1 43.45 65.05 40.75 73.9 38.0 75.2 38.0 L89.5 38.7 Q90.7 36.9 93.0 34.9 L95.9 32.8 Q96.95 32.3 108.25 33.1 119.4 33.95 120.8 34.55 123.0 35.4 132.05 39.9" fill="#2b2b2b" fill-rule="evenodd" stroke="none"/>
      <path d="M72.1 67.35 Q75.2 66.25 81.95 65.2 68.4 70.15 61.85 72.85 69.45 68.25 72.1 67.35 M90.55 46.4 Q100.55 44.05 103.15 44.15 101.35 42.85 95.35 43.15 88.35 43.55 76.1 46.05 64.5 48.4 53.15 54.75 43.7 60.0 41.9 62.9 40.5 65.35 40.3 66.95 40.05 69.15 41.15 74.0 41.75 78.45 41.05 86.15 40.45 92.3 41.3 93.45 44.05 89.85 57.55 81.4 70.9 76.35 72.65 75.9 L81.25 74.4 89.7 73.5 94.8 72.65 Q99.95 71.55 105.2 71.3 111.1 71.0 120.5 71.6 L128.7 72.4 113.2 70.7 Q96.4 69.5 90.0 71.55 83.05 71.0 73.6 74.1 67.1 76.25 60.35 79.7 L67.6 75.3 Q70.05 73.85 80.75 69.75 92.65 65.2 97.85 64.2 L91.75 64.0 81.95 65.2 89.05 62.6 87.7 62.35 82.95 62.1 Q73.45 62.4 59.7 69.0 L52.6 72.5 Q50.35 73.55 51.55 72.05 54.0 68.95 65.95 65.05 73.6 62.6 82.45 60.55 84.35 61.0 84.75 57.0 85.15 53.05 83.75 51.45 82.6 50.1 80.75 50.2 79.5 50.3 77.05 51.2 79.25 49.0 90.55 46.4 M82.4 3.95 Q82.75 2.65 82.3 2.35 81.8 2.05 80.3 2.65 79.15 3.1 76.15 6.25 L71.9 10.55 2.05 68.05 1.55 69.75 Q1.35 71.45 2.45 71.25 3.9 71.0 43.0 38.05 82.15 5.15 82.4 3.95 M169.95 40.85 L170.6 43.7 Q170.75 44.9 170.35 45.75 169.55 47.2 154.0 59.5 138.15 72.15 137.8 70.25 L136.15 63.15 Q134.9 57.8 134.7 54.5 134.5 49.65 132.8 46.7 130.6 42.9 125.55 40.9 121.45 39.3 114.15 38.75 106.15 38.2 98.05 39.15 118.4 38.55 127.15 44.15 131.6 47.0 132.95 52.1 L134.8 61.6 Q136.3 69.95 137.25 73.6 139.25 75.7 138.7 77.25 L137.85 78.3 Q132.5 76.15 124.0 74.75 106.95 72.0 90.9 76.2 73.9 76.5 56.8 85.15 51.3 88.0 46.4 91.35 43.25 93.55 42.0 94.65 39.6 94.95 39.25 93.2 39.0 92.25 39.45 88.9 L17.3 79.75 Q1.8 73.25 1.15 72.6 0.3 71.85 0.05 70.35 -0.15 68.95 0.2 68.1 L37.6 37.7 Q75.5 6.6 79.2 0.65 80.95 -0.35 82.9 0.25 83.8 0.5 85.45 1.55 99.75 11.6 136.6 26.75 L160.0 36.15 Q169.85 40.15 169.95 40.85 M61.85 72.85 L58.35 74.9 Q56.95 75.6 57.1 75.2 57.2 74.75 61.85 72.85" fill="#000000" fill-rule="evenodd" stroke="none"/>
    </g>
  </defs>
</svg>
