<?xml version="1.0" encoding="UTF-8" standalone="no"?>
<svg xmlns:ffdec="https://www.free-decompiler.com/flash" xmlns:xlink="http://www.w3.org/1999/xlink" ffdec:objectType="frame" height="247.95px" width="247.2px" xmlns="http://www.w3.org/2000/svg">
  <g transform="matrix(1.0, 0.0, 0.0, 1.0, 125.65, 165.35)">
    <use ffdec:characterId="740" height="140.9" transform="matrix(1.0, 0.0, 0.0, 1.0, 0.0, 0.0)" width="173.2" xlink:href="#shape0"/>
  </g>
  <defs>
    <g id="shape0">
      <path d="M85.75 54.1 L85.95 53.65 86.15 53.45 85.95 53.7 85.75 54.1 M-70.35 50.1 L-70.05 49.5 -70.2 49.85 -70.35 50.1" fill="#262731" fill-rule="evenodd" stroke="none"/>
      <path d="M-54.05 63.1 L-54.3 62.35 -47.4 41.65 -54.05 63.1" fill="#000000" fill-rule="evenodd" stroke="none"/>
      <path d="M80.5 7.85 Q79.95 9.25 73.65 11.9 67.2 14.6 57.75 17.3 34.0 24.0 13.25 24.9 1.55 25.35 -14.95 24.95 L-47.2 23.35 Q-84.75 20.45 -84.3 15.5 -83.95 12.3 -44.35 7.15 L-13.85 3.75 6.75 2.35 49.85 3.95 Q81.25 5.85 80.5 7.85" fill="#000000" fill-rule="evenodd" stroke="none"/>
      <path d="M51.4 19.45 L51.0 19.05 Q49.1 16.1 47.45 16.65 46.75 16.9 46.45 17.45 L44.85 17.35 Q42.75 18.1 41.95 18.7 L41.6 19.05 41.2 19.1 40.35 18.45 37.95 10.0 38.15 10.0 40.0 9.7 45.1 10.05 Q52.15 11.3 57.5 16.95 58.1 19.0 59.5 21.05 60.95 23.1 62.5 29.7 63.6 34.65 64.3 39.2 64.45 41.05 65.5 43.85 L65.85 44.7 Q66.9 47.55 68.35 49.9 L69.05 50.9 Q73.2 57.05 78.2 55.2 L78.8 54.85 78.95 54.7 Q77.6 56.95 75.6 58.55 L70.65 60.9 69.45 61.45 63.45 63.15 63.1 62.8 63.45 61.45 Q63.85 59.55 63.85 58.45 L63.7 56.55 63.7 48.45 62.55 42.9 61.3 38.75 61.3 38.5 60.8 36.25 60.3 34.2 Q60.3 32.75 59.2 29.55 58.2 26.75 57.45 25.5 L54.9 21.35 Q53.2 18.95 51.0 18.1 L50.95 18.65 51.4 19.45 M-40.45 11.1 Q-39.3 11.3 -38.75 11.85 -37.85 12.55 -38.25 13.5 L-54.3 62.35 -54.95 60.4 Q-55.95 57.05 -56.0 52.0 L-55.95 49.8 -55.85 49.0 -55.9 48.15 -55.85 44.25 -55.45 43.6 Q-54.8 42.5 -54.4 40.75 L-53.8 36.9 -52.6 34.75 -49.35 29.0 -49.45 27.6 Q-46.7 22.85 -46.7 22.05 -46.7 17.8 -49.0 18.1 -50.95 18.35 -54.05 21.7 L-54.25 21.95 Q-54.65 21.45 -55.75 22.4 -57.4 23.95 -59.4 27.8 -63.3 35.25 -64.4 42.9 L-64.7 43.6 Q-65.5 45.65 -65.8 48.3 L-66.3 53.55 -66.5 57.25 -65.15 69.1 Q-64.3 74.55 -63.2 77.5 L-67.9 76.8 Q-75.3 75.5 -80.25 73.0 -77.2 71.9 -74.4 69.1 -71.55 67.65 -70.35 64.75 -72.8 65.9 -77.1 62.35 -79.4 60.45 -81.9 57.5 -78.55 58.05 -74.7 56.15 -71.3 54.5 -69.55 51.85 -68.3 50.1 -66.5 43.6 L-66.45 43.3 Q-65.1 38.1 -63.7 31.1 L-62.05 27.75 Q-56.7 18.4 -46.6 11.5 L-40.45 11.1" fill="#262731" fill-rule="evenodd" stroke="none"/>
      <path d="M78.95 54.7 L78.8 54.85 78.2 55.2 Q73.2 57.05 69.05 50.9 L68.35 49.9 Q66.9 47.55 65.85 44.7 L65.5 43.85 Q64.45 41.05 64.3 39.2 63.6 34.65 62.5 29.7 60.95 23.1 59.5 21.05 58.1 19.0 57.5 16.95 L59.35 19.05 Q61.75 22.1 63.8 29.5 L67.15 42.2 67.95 44.7 Q69.35 48.8 70.95 50.9 L71.7 51.75 Q74.7 55.15 79.45 53.25 L79.75 53.15 79.7 53.3 79.65 53.4 79.65 53.45 79.65 53.5 79.45 53.65 79.25 54.1 79.2 54.2 79.05 54.45 78.95 54.7 M-63.7 31.1 Q-65.1 38.1 -66.45 43.3 L-66.5 43.6 Q-68.3 50.1 -69.55 51.85 -71.3 54.5 -74.7 56.15 -78.55 58.05 -81.9 57.5 L-84.0 54.9 -81.95 55.3 -76.25 55.15 -74.8 54.65 -74.6 54.6 -74.45 54.55 -74.05 54.35 -73.3 53.85 -72.45 53.15 -72.25 52.95 -70.65 50.75 -70.4 50.15 -70.35 50.1 -70.2 49.85 -70.05 49.5 -69.9 49.05 -69.8 48.8 Q-69.1 47.2 -68.05 43.6 L-67.85 42.85 -67.45 41.5 -67.15 40.65 -64.6 33.2 -63.7 31.0 -63.7 31.1 M-74.4 69.1 Q-77.2 71.9 -80.25 73.0 L-83.0 71.35 -80.25 70.55 -78.85 70.25 -78.65 70.25 -78.4 70.2 -77.3 69.95 -76.65 69.8 -75.1 69.3 -74.7 69.2 -74.4 69.05 -74.4 69.1" fill="#454a62" fill-rule="evenodd" stroke="none"/>
      <path d="M51.4 19.45 L50.95 18.65 51.0 18.1 Q53.2 18.95 54.9 21.35 L57.45 25.5 Q58.2 26.75 59.2 29.55 60.3 32.75 60.3 34.2 L60.8 36.25 61.3 38.5 61.3 38.75 62.55 42.9 63.7 48.45 63.7 56.55 63.85 58.45 Q63.85 59.55 63.45 61.45 L63.1 62.8 63.45 63.15 69.45 61.45 70.65 60.9 75.6 58.55 Q77.6 56.95 78.95 54.7 L79.05 54.45 79.2 54.2 79.25 54.1 79.45 53.7 79.65 53.5 79.65 53.45 79.65 53.4 79.7 53.3 79.75 53.15 79.45 53.25 Q74.7 55.15 71.7 51.75 L70.95 50.9 Q69.35 48.8 67.95 44.7 L67.15 42.2 63.8 29.5 Q61.75 22.1 59.35 19.05 L57.5 16.95 Q52.15 11.3 45.1 10.05 L40.0 9.7 38.15 10.0 37.35 7.95 39.75 7.75 45.8 8.35 Q55.3 10.25 60.9 18.05 63.45 21.55 65.45 28.9 L68.8 41.25 70.0 44.7 Q71.45 48.5 73.25 50.2 L74.05 50.9 Q76.35 52.65 79.45 51.8 L81.3 51.2 Q81.35 54.5 79.45 57.3 78.15 59.2 74.4 61.55 L71.85 62.15 70.85 62.55 Q66.6 64.25 63.15 65.1 62.75 65.45 62.4 65.45 61.8 65.45 61.5 64.7 L61.3 63.85 Q61.3 63.05 61.6 62.7 62.6 57.55 62.6 55.6 62.6 49.75 61.45 43.7 L60.25 38.7 60.3 38.3 59.0 34.45 57.15 29.1 53.55 22.9 51.4 19.45 M-40.45 11.1 L-46.6 11.5 Q-56.7 18.4 -62.05 27.75 L-63.7 31.1 -63.7 31.0 -64.6 33.2 -67.15 40.65 -67.45 41.5 -67.85 42.85 -68.05 43.6 Q-69.1 47.2 -69.8 48.8 L-69.9 49.05 -70.05 49.5 -70.35 50.1 -70.4 50.15 -70.65 50.75 -72.25 52.95 -72.45 53.15 -73.3 53.85 -74.05 54.35 -74.45 54.55 -74.6 54.6 -74.8 54.65 -76.25 55.15 -81.95 55.3 -84.0 54.9 -81.9 57.5 Q-79.4 60.45 -77.1 62.35 -72.8 65.9 -70.35 64.75 -71.55 67.65 -74.4 69.1 L-74.4 69.05 -74.7 69.2 -75.1 69.3 -76.65 69.8 -77.3 69.95 -78.4 70.2 -78.65 70.25 -78.85 70.25 -80.25 70.55 -83.0 71.35 -80.25 73.0 Q-75.3 75.5 -67.9 76.8 L-63.2 77.5 Q-64.3 74.55 -65.15 69.1 L-66.5 57.25 -66.3 53.55 -65.8 48.3 Q-65.5 45.65 -64.7 43.6 L-64.4 42.9 Q-63.3 35.25 -59.4 27.8 -57.4 23.95 -55.75 22.4 -54.65 21.45 -54.25 21.95 -54.05 22.2 -54.05 22.9 -54.05 23.6 -58.4 32.2 -61.1 38.25 -62.3 43.6 -63.1 47.2 -63.25 50.5 L-64.0 50.75 Q-64.55 54.85 -64.55 58.85 L-64.4 61.1 -64.65 63.2 -64.2 68.75 -63.05 74.05 -61.1 79.25 -61.9 80.05 -62.0 79.95 -69.8 78.6 Q-81.05 76.05 -85.4 70.4 -84.2 69.85 -82.4 69.5 L-79.3 69.05 Q-75.5 68.4 -73.4 66.0 -75.8 67.15 -80.4 61.9 -83.95 57.95 -87.05 52.7 -78.35 54.55 -74.6 51.5 -72.95 50.05 -71.7 47.4 -71.1 46.1 -70.25 43.6 L-69.7 41.75 Q-66.6 32.1 -63.75 27.1 -58.35 17.85 -48.35 11.0 -43.1 10.1 -40.45 11.1" fill="#000000" fill-rule="evenodd" stroke="none"/>
      <path d="M5.9 31.75 L2.9 31.9 Q-1.2 32.9 -6.7 37.2 -9.6 39.55 -12.15 48.2 L-14.2 55.2 Q-15.45 59.15 -16.9 61.45 -20.15 66.8 -24.75 66.9 -30.3 67.0 -37.45 59.4 L-31.0 58.65 Q-27.8 57.35 -27.8 54.15 L-27.85 50.15 -27.65 46.05 Q-27.0 41.35 -23.5 38.5 -30.3 42.05 -33.65 47.65 L-36.1 52.2 Q-37.6 54.8 -39.4 56.55 -41.65 58.7 -45.2 60.3 -49.0 62.05 -53.15 62.45 -63.3 63.6 -70.65 57.05 -65.85 57.15 -62.7 56.15 -59.85 55.25 -58.05 53.3 -60.25 54.55 -64.45 51.65 -68.15 49.1 -69.65 46.5 -65.55 45.7 -62.9 42.4 -60.95 39.9 -59.1 34.8 L-55.9 25.7 Q-53.75 20.45 -50.95 17.15 -46.4 12.0 -42.2 10.25 -40.1 9.35 -38.9 9.5 L-34.35 10.3 Q-28.65 11.45 -22.95 13.4 -4.9 19.75 5.9 31.75" fill="#000000" fill-rule="evenodd" stroke="none"/>
      <path d="M5.9 31.75 Q4.15 31.05 1.4 31.3 -4.15 31.75 -9.15 36.6 -11.5 38.9 -13.65 45.9 L-17.25 57.55 Q-19.7 63.6 -23.3 64.7 -27.85 66.1 -35.15 60.35 -26.45 62.15 -25.65 53.65 L-25.65 49.95 Q-25.75 47.6 -25.5 46.1 -24.75 41.3 -19.3 35.6 -28.65 37.45 -33.65 44.25 L-37.15 49.9 Q-39.1 53.25 -40.75 54.85 -45.55 59.5 -51.75 60.65 -59.0 61.95 -67.25 58.1 L-62.35 57.45 Q-60.0 56.9 -58.25 55.85 L-58.2 55.85 -57.8 55.6 -57.7 55.55 Q-53.8 53.05 -52.05 48.55 -51.25 46.2 -50.3 40.05 -49.55 34.65 -48.1 32.0 -45.95 28.1 -41.15 26.35 -46.0 27.6 -48.55 31.3 -50.35 34.0 -51.45 38.95 L-53.2 46.75 Q-54.45 50.7 -57.05 52.05 -59.25 52.25 -62.5 50.55 -65.45 49.1 -67.1 47.25 -62.8 45.95 -60.3 42.65 -58.45 40.15 -57.0 35.35 L-54.45 26.8 Q-52.6 21.8 -49.75 18.55 -45.25 13.4 -40.6 11.35 -38.25 10.35 -36.85 10.3 L-32.6 10.95 Q-27.25 11.95 -21.95 13.85 -4.9 19.75 5.9 31.75" fill="#2c2e39" fill-rule="evenodd" stroke="none"/>
      <path d="M-57.5 36.7 L-54.75 27.7 Q-52.9 22.25 -49.95 18.8 -40.05 22.65 -31.0 27.65 -18.95 34.35 -12.05 41.2 L-14.0 47.2 -15.85 53.6 -25.6 51.15 Q-25.8 46.7 -25.2 44.7 -24.0 40.6 -19.3 35.6 -25.9 36.9 -30.1 40.45 -32.9 42.8 -35.7 47.4 -42.65 44.55 -50.4 40.55 -49.6 34.85 -48.2 32.2 -46.1 28.1 -41.15 26.35 -46.25 27.6 -48.8 31.7 -50.55 34.45 -51.65 39.85 L-57.5 36.7" fill="#464b63" fill-rule="evenodd" stroke="none"/>
      <path d="M-21.85 39.95 Q-22.85 42.65 -22.65 48.0 -22.4 53.65 -23.1 55.75 -24.3 59.65 -29.05 61.3 L-33.1 61.85 -35.15 60.35 Q-26.45 62.15 -25.65 53.65 L-25.65 49.95 Q-25.75 47.6 -25.5 46.1 -24.75 41.3 -19.3 35.6 L-19.95 35.75 Q-17.2 34.2 -14.7 33.7 -20.15 35.75 -21.85 39.95 M-41.15 26.35 L-42.95 26.95 Q-40.8 25.6 -38.1 24.7 -44.75 28.35 -47.1 34.6 -47.95 36.95 -48.45 40.25 L-49.05 45.75 Q-49.8 52.3 -52.2 55.05 -55.65 58.95 -64.55 59.2 L-67.25 58.1 -62.35 57.45 Q-60.0 56.9 -58.25 55.85 L-58.2 55.85 -57.8 55.6 -57.7 55.55 Q-53.8 53.05 -52.05 48.55 -51.25 46.2 -50.3 40.05 -49.55 34.65 -48.1 32.0 -45.95 28.1 -41.15 26.35 M-56.9 34.85 L-54.35 26.55 Q-52.5 21.75 -49.75 18.55 L-49.1 17.85 Q-51.3 22.15 -53.2 28.9 L-55.8 39.6 Q-56.5 42.5 -59.3 44.6 -62.2 46.8 -66.05 46.9 -62.2 45.45 -59.95 42.05 -58.3 39.6 -56.9 34.85" fill="#6e7594" fill-rule="evenodd" stroke="none"/>
      <path d="M70.0 3.9 L76.95 5.15 Q81.45 6.25 81.5 7.4 81.55 8.5 77.0 9.05 L69.7 9.7 Q60.3 11.3 53.85 15.15 46.7 19.4 41.7 27.1 36.5 35.45 34.2 38.4 30.55 43.0 27.3 44.55 23.65 46.2 19.0 45.0 14.3 43.75 7.1 39.15 -2.25 33.25 -12.55 27.65 -25.9 20.35 -34.75 17.15 -41.4 14.75 -53.85 14.85 -65.35 14.9 -78.25 17.0 L-82.15 17.4 Q-84.8 17.35 -85.1 16.05 -85.4 14.7 -80.25 12.25 -76.15 10.25 -72.0 9.0 L-54.75 3.6 Q-45.6 0.6 -39.7 -2.05 -24.85 -8.85 -20.7 -18.3 -16.7 -27.5 4.65 -21.85 12.4 -19.85 20.9 -16.15 28.05 -13.2 31.95 -10.8 L36.5 -7.8 Q39.6 -5.55 42.5 -4.1 51.85 0.65 70.0 3.9" fill="#000000" fill-rule="evenodd" stroke="none"/>
      <path d="M-10.05 -34.75 Q-7.2 -32.75 -3.35 -31.85 L3.85 -30.9 11.05 -30.1 Q15.05 -29.35 17.9 -27.6 19.85 -14.2 37.4 -4.7 54.25 4.4 80.6 7.45 66.3 6.95 56.6 11.15 46.4 15.65 39.85 25.95 34.55 34.3 32.45 37.0 29.1 41.3 26.0 42.65 22.7 44.0 18.1 42.55 13.7 41.1 6.4 36.45 -2.85 30.55 -12.0 25.6 -24.15 19.0 -33.0 15.8 -40.5 13.05 -56.0 13.15 -71.15 13.2 -83.85 15.8 -77.2 12.15 -64.15 8.55 -48.6 4.15 -43.15 1.95 -31.55 -2.75 -24.05 -10.3 -14.85 -19.6 -10.05 -34.75" fill="#5b4634" fill-rule="evenodd" stroke="none"/>
      <path d="M-74.15 11.6 Q-70.55 10.3 -57.95 6.8 -47.6 3.9 -41.5 1.3 -50.1 8.95 -74.15 11.6 M1.1 -24.95 L17.95 -27.2 Q20.1 -13.95 37.6 -4.55 54.45 4.45 80.6 7.45 66.3 6.95 56.6 11.15 46.4 15.65 39.85 25.95 34.55 34.3 32.45 37.0 29.1 41.3 26.0 42.65 22.7 44.0 18.1 42.55 13.7 41.1 6.4 36.45 -2.8 30.6 -11.65 25.8 -3.2 26.4 3.7 26.15 11.45 25.95 15.05 24.8 25.05 21.55 30.25 17.9 38.65 11.9 37.55 3.65 37.05 0.15 31.3 -2.8 25.8 -5.7 16.65 -7.5 -2.95 -11.5 -25.05 -9.3 -19.7 -14.4 -15.75 -21.35 -7.8 -23.45 1.1 -24.95" fill="#8e6c4f" fill-rule="evenodd" stroke="none"/>
      <path d="M57.15 5.2 Q54.8 4.95 51.65 3.15 48.9 1.6 46.1 -0.7 60.9 5.2 80.6 7.45 67.8 6.95 58.75 10.3 58.1 9.7 58.5 9.35 L59.55 8.4 60.55 7.25 Q61.25 5.7 57.15 5.2 M-7.6 26.35 Q-2.9 29.0 -1.3 30.15 3.85 34.0 9.3 37.1 18.05 42.0 21.75 41.25 24.55 40.65 29.9 35.75 L27.65 31.05 31.3 34.45 40.5 24.8 38.05 20.5 42.95 21.65 39.85 25.95 Q34.55 34.3 32.45 37.0 29.1 41.3 26.0 42.65 22.7 44.0 18.1 42.55 13.7 41.1 6.4 36.45 -2.85 30.55 -12.0 25.6 -24.15 19.0 -33.0 15.8 -37.95 14.05 -46.55 13.45 L-36.4 13.9 -29.9 9.95 -34.45 14.2 -35.35 14.1 -33.0 14.7 Q-28.1 16.15 -21.0 19.4 L-16.15 18.55 -18.3 20.75 Q-12.8 23.4 -7.6 26.35" fill="#c49c79" fill-rule="evenodd" stroke="none"/>
      <path d="M11.85 -58.3 Q14.15 -56.15 16.65 -49.15 L21.35 -34.05 Q24.6 -23.75 27.75 -17.0 32.1 -7.6 37.6 -1.8 37.9 4.2 34.95 7.65 30.0 13.5 15.5 15.6 7.65 16.7 -1.5 15.35 -9.7 14.15 -17.2 11.25 -24.3 8.5 -28.25 5.3 -32.35 2.0 -31.35 -0.45 -22.65 -9.45 -21.3 -33.3 -21.0 -39.6 -21.1 -49.35 -21.15 -56.8 -20.85 -57.5 -19.25 -61.1 -15.0 -60.2 L-10.65 -59.0 Q-7.55 -58.0 -5.55 -57.65 -3.15 -57.25 -0.75 -58.15 0.7 -58.7 3.25 -59.95 5.4 -61.0 7.1 -60.8 9.3 -60.55 11.85 -58.3" fill="#000000" fill-rule="evenodd" stroke="none"/>
      <path d="M10.25 -56.9 Q12.6 -54.8 15.25 -47.25 L20.55 -31.0 Q24.05 -19.9 27.4 -12.8 32.05 -2.9 37.5 2.9 37.65 5.45 37.3 6.7 36.75 8.65 34.9 10.1 30.5 13.4 15.5 15.6 7.7 16.7 -1.0 14.85 -8.6 13.25 -15.45 9.7 -21.8 6.4 -25.35 2.7 -28.85 -1.1 -27.9 -3.6 -19.2 -12.5 -18.6 -33.55 -18.45 -39.05 -18.9 -47.65 -19.25 -54.15 -18.85 -54.85 -17.95 -56.9 -16.9 -57.45 L-14.5 -57.5 Q-13.5 -57.25 -11.15 -56.2 -8.65 -55.25 -6.45 -54.85 -4.05 -54.45 -1.75 -55.6 L1.95 -57.9 Q4.0 -59.2 5.6 -59.2 7.75 -59.2 10.25 -56.9" fill="#5b4634" fill-rule="evenodd" stroke="none"/>
      <path d="M10.25 -56.9 Q12.25 -55.1 14.4 -49.55 15.75 -46.2 18.55 -37.3 24.8 -17.05 29.85 -7.85 27.75 -4.5 25.2 -3.3 22.0 -1.85 18.5 -3.9 12.8 -7.3 6.75 -26.45 L2.75 -39.7 Q0.85 -45.85 0.0 -46.6 -0.85 -47.35 -3.8 -47.35 L-9.1 -47.55 Q-15.95 -48.6 -15.2 -57.15 L-15.15 -57.7 -11.65 -56.4 Q-8.85 -55.25 -6.45 -54.85 L-4.3 -54.8 Q-4.0 -52.5 -2.95 -51.2 -1.45 -49.45 1.1 -49.95 3.55 -50.45 6.05 -52.9 8.45 -55.2 9.2 -57.75 L10.25 -56.9" fill="#8e6c4f" fill-rule="evenodd" stroke="none"/>
      <path d="M-6.5 -52.7 L-5.4 -51.95 -3.6 -50.6 Q-1.95 -48.7 -8.4 -49.85 -13.6 -50.75 -14.85 -53.5 -15.65 -55.25 -14.65 -57.55 L-11.5 -56.4 Q-9.15 -55.4 -7.2 -55.0 L-6.5 -52.7 M10.25 -56.9 Q13.0 -54.45 16.55 -43.5 L19.9 -33.05 Q22.0 -26.25 23.75 -21.6 22.3 -23.1 20.45 -26.55 L19.0 -29.7 16.4 -30.8 18.25 -32.2 14.25 -42.95 9.6 -54.65 7.85 -56.6 5.6 -59.2 Q7.75 -59.2 10.25 -56.9" fill="#c49c79" fill-rule="evenodd" stroke="none"/>
      <path d="M26.8 -20.4 Q27.5 -20.25 28.2 -19.15 32.35 -12.95 34.9 -8.05 38.75 -0.6 37.75 1.5 35.3 6.65 32.55 9.45 26.25 15.95 15.8 17.05 1.05 18.6 -12.95 14.55 -29.05 9.8 -32.85 -0.1 -31.35 -5.8 -28.15 -12.05 -25.15 -17.8 -24.1 -18.0 -22.7 -18.1 -14.4 -15.4 -4.15 -12.8 6.85 -13.35 18.4 -14.0 22.65 -16.65 23.95 -17.5 24.6 -18.6 L25.35 -19.8 Q26.2 -20.45 26.8 -20.4" fill="#000000" fill-rule="evenodd" stroke="none"/>
      <path d="M32.15 -10.15 Q37.4 -0.85 36.15 1.75 L34.95 4.5 Q33.85 6.8 32.15 8.6 27.05 14.05 16.6 15.2 2.1 16.75 -11.3 13.05 -26.65 8.8 -30.85 -0.4 -29.5 -5.5 -26.3 -11.2 L-23.45 -15.8 -21.1 -15.0 -14.65 -13.3 Q-3.55 -11.0 7.85 -11.55 19.35 -12.15 24.2 -15.65 26.55 -17.35 26.7 -18.95 L32.15 -10.15" fill="#a25030" fill-rule="evenodd" stroke="none"/>
      <path d="M22.45 -13.45 Q16.15 -11.35 10.65 -10.35 -8.7 -6.95 -23.95 -15.1 L-23.45 -15.8 -21.1 -15.0 -14.65 -13.3 Q-3.55 -11.0 7.85 -11.55 19.35 -12.15 24.2 -15.65 26.55 -17.35 26.7 -18.95 L32.15 -10.15 Q37.4 -0.85 36.15 1.75 L35.65 2.95 Q34.75 -2.0 31.4 -8.6 28.6 -14.05 27.5 -14.9 L22.45 -13.45" fill="#dc9558" fill-rule="evenodd" stroke="none"/>
      <path d="M15.75 -10.3 L17.45 0.3 Q19.4 15.8 15.75 16.7 8.1 18.55 -2.0 18.25 -12.6 18.0 -16.85 15.5 -19.6 13.85 -23.95 8.25 -28.8 1.9 -27.75 -0.4 -26.7 -2.7 -21.95 -7.1 -16.5 -12.1 -13.7 -11.75 -6.15 -10.8 5.1 -12.85 10.7 -13.85 14.8 -15.05 L15.75 -10.3" fill="#000000" fill-rule="evenodd" stroke="none"/>
      <path d="M20.15 -14.4 L21.75 -10.05 24.75 -0.3 Q28.65 13.85 25.0 14.75 17.1 16.6 2.75 16.55 -12.4 16.45 -16.55 14.0 -19.15 12.45 -22.6 7.4 -26.4 1.85 -25.35 -0.5 -24.35 -2.75 -20.85 -5.95 -16.7 -9.75 -13.95 -9.4 0.4 -7.5 11.65 -10.75 17.35 -12.4 20.15 -14.4" fill="#a25030" fill-rule="evenodd" stroke="none"/>
      <path d="M-13.95 -9.4 L-13.75 -9.35 Q-14.4 -7.65 -15.5 -7.6 -16.45 -7.55 -19.0 -6.05 L-23.65 -3.05 Q-21.45 -5.7 -19.05 -7.45 -16.05 -9.6 -13.95 -9.4" fill="#dc9558" fill-rule="evenodd" stroke="none"/>
      <path d="M-5.85 16.2 L-10.5 15.7 Q-12.35 8.85 -12.6 0.45 -12.8 -4.7 -12.4 -9.15 L-7.35 -8.75 -5.85 16.2 M20.9 -12.35 L23.45 -4.65 24.2 1.55 Q25.45 4.2 24.4 5.7 24.5 10.5 24.2 14.95 L17.3 15.9 Q18.75 13.45 18.05 6.95 15.8 6.45 14.05 5.15 12.55 4.0 12.5 3.2 12.45 2.45 17.25 1.75 16.35 -2.55 15.1 -6.0 13.85 -9.65 12.55 -11.0 16.65 -12.35 19.45 -14.0 L20.9 -12.35" fill="#833212" fill-rule="evenodd" stroke="none"/>
      <path d="M-9.9 -14.6 Q-9.5 -16.45 -5.7 -15.7 L-3.15 -14.85 Q-2.0 -14.25 -2.15 -13.8 -2.8 -10.7 -2.05 -1.15 -1.3 8.5 0.35 17.8 0.4 18.35 -0.7 19.1 -1.85 19.9 -3.3 20.2 -7.25 21.05 -8.3 17.6 -9.6 14.2 -10.45 4.7 -11.5 -7.15 -9.9 -14.6" fill="#000000" fill-rule="evenodd" stroke="none"/>
      <path d="M-8.75 -13.8 Q-8.65 -14.9 -6.05 -14.2 -3.45 -13.5 -3.4 -12.3 L-3.15 -0.6 Q-2.8 9.65 -1.25 17.4 -1.2 17.95 -1.95 18.35 -2.7 18.8 -3.75 18.85 -6.3 19.0 -7.05 16.9 -8.1 14.15 -8.7 6.2 -9.5 -3.65 -8.75 -13.8" fill="#a25030" fill-rule="evenodd" stroke="none"/>
      <path d="M-8.75 -13.8 Q-8.65 -14.9 -6.05 -14.2 -3.45 -13.5 -3.4 -12.3 -3.25 -10.3 -3.2 -1.3 -2.9 8.2 -1.55 15.6 L-1.65 16.35 Q-3.15 14.1 -5.25 0.8 -7.2 -11.75 -7.85 -11.85 -8.35 -11.95 -8.85 -12.35 L-8.75 -13.8" fill="#dc9558" fill-rule="evenodd" stroke="none"/>
      <path d="M0.15 -16.8 L3.4 -16.45 Q6.35 -16.0 8.8 -16.55 10.25 -16.85 11.95 -18.0 L14.65 -19.9 Q17.85 -21.9 20.9 -19.85 24.35 -17.55 26.7 -12.1 28.8 -7.3 29.7 -0.9 30.5 5.15 29.95 10.5 29.45 15.9 27.75 18.4 26.2 20.7 21.55 20.35 L13.5 19.7 Q11.7 19.85 8.9 21.45 6.75 22.65 4.9 21.75 2.8 20.85 2.55 18.6 2.35 16.8 3.15 15.75 4.05 14.65 6.75 14.3 L12.65 14.15 17.05 13.9 Q18.55 13.6 19.6 12.75 20.55 11.95 20.8 8.55 21.0 5.25 20.5 1.15 19.2 -9.0 15.7 -11.45 L13.55 -11.3 Q11.2 -10.25 9.6 -9.95 L3.05 -9.4 -0.75 -9.8 Q-1.85 -10.85 -2.05 -13.1 -2.3 -15.9 0.15 -16.8" fill="#000000" fill-rule="evenodd" stroke="none"/>
      <path d="M1.0 -15.15 L3.85 -15.05 9.05 -15.3 Q10.5 -15.55 12.25 -16.6 L15.05 -18.35 Q18.1 -20.2 20.1 -18.55 23.0 -16.1 25.2 -11.0 27.2 -6.35 28.05 -0.6 28.9 5.05 28.45 9.95 27.95 15.05 26.1 17.75 25.2 19.05 21.3 18.7 L13.8 18.25 Q11.6 18.4 8.75 19.9 6.55 21.05 5.95 20.6 4.05 19.3 4.2 18.05 4.2 17.6 5.05 16.2 L7.85 15.9 13.45 15.75 18.45 15.25 Q20.55 14.9 21.5 14.1 22.45 13.3 22.65 9.4 22.8 5.7 22.25 0.95 20.75 -10.75 17.25 -13.1 L14.2 -13.05 9.3 -11.75 3.75 -10.9 0.8 -11.0 Q-0.25 -12.0 -0.45 -12.9 -0.75 -14.35 1.0 -15.15" fill="#f2da53" fill-rule="evenodd" stroke="none"/>
      <path d="M5.95 20.6 Q4.5 19.65 4.25 18.65 4.05 17.95 4.45 17.15 5.45 18.6 6.9 18.6 L10.95 18.1 16.15 17.45 Q18.6 17.3 21.3 17.4 L25.9 17.95 Q24.9 19.0 21.0 18.65 L13.8 18.25 Q11.6 18.4 8.75 19.9 6.55 21.05 5.95 20.6 M17.25 -13.1 L14.2 -13.05 9.3 -11.75 3.75 -10.9 0.8 -11.0 -0.35 -12.6 Q-0.8 -13.8 0.15 -14.65 0.55 -13.45 1.25 -12.75 2.05 -11.8 3.1 -11.85 L10.3 -13.7 Q16.05 -15.25 17.0 -14.8 18.15 -14.2 20.55 -10.1 22.8 -6.2 23.0 -4.9 L23.65 -2.1 Q24.25 0.6 24.45 2.8 25.25 9.9 22.35 12.15 23.4 7.2 21.8 -1.55 20.2 -11.05 17.25 -13.1" fill="#b2a141" fill-rule="evenodd" stroke="none"/>
      <path d="M23.15 -3.85 Q24.75 -3.4 25.55 -0.3 26.3 2.8 24.7 3.6 22.85 4.5 18.85 5.15 L13.15 5.4 Q11.55 4.85 10.85 2.2 10.2 -0.55 11.9 -1.45 13.25 -2.2 17.3 -3.15 21.8 -4.25 23.15 -3.85" fill="#000000" fill-rule="evenodd" stroke="none"/>
      <path d="M22.05 -2.4 Q23.6 -1.9 24.0 -0.05 24.4 1.9 22.8 2.65 20.85 3.6 18.5 4.0 L14.35 4.1 Q12.8 3.5 12.4 1.8 12.0 0.1 13.1 -0.35 L17.35 -1.8 Q20.7 -2.7 22.05 -2.4" fill="#f2da53" fill-rule="evenodd" stroke="none"/>
      <path d="M18.0 2.1 L23.8 1.7 22.8 2.65 Q20.85 3.6 18.5 4.0 L14.35 4.1 Q12.9 3.55 12.5 1.95 12.0 0.4 12.9 -0.25 13.35 1.05 14.55 1.7 16.0 2.55 18.0 2.1" fill="#b2a141" fill-rule="evenodd" stroke="none"/>
      <path d="M22.05 -2.45 Q23.85 -2.15 22.0 -0.45 21.35 0.1 19.35 -1.0 17.35 -2.05 18.25 -2.25 L22.05 -2.45 M20.45 -15.0 Q19.95 -15.8 17.65 -17.0 16.05 -17.85 16.85 -17.9 L18.35 -18.25 19.4 -18.4 Q20.15 -18.3 20.7 -16.05 21.3 -13.65 20.45 -15.0" fill="#fffadb" fill-rule="evenodd" stroke="none"/>
    </g>
  </defs>
</svg>
