<?xml version="1.0" encoding="UTF-8" standalone="no"?>
<svg xmlns:ffdec="https://www.free-decompiler.com/flash" xmlns:xlink="http://www.w3.org/1999/xlink" ffdec:objectType="frame" height="247.95px" width="247.2px" xmlns="http://www.w3.org/2000/svg">
  <g transform="matrix(1.0, 0.0, 0.0, 1.0, 125.65, 165.35)">
    <use ffdec:characterId="372" height="68.6" transform="matrix(1.0, 0.0, 0.0, 1.0, -89.35, -53.9)" width="147.65" xlink:href="#shape0"/>
    <use ffdec:characterId="375" height="42.1" transform="matrix(1.0, 0.0, 0.0, 1.0, -56.15, -29.9)" width="109.0" xlink:href="#sprite0"/>
    <use ffdec:characterId="376" height="79.3" transform="matrix(1.0, 0.0, 0.0, 1.0, -89.35, -53.9)" width="135.5" xlink:href="#shape2"/>
  </g>
  <defs>
    <g id="shape0">
      <path d="M53.1 4.15 Q57.05 5.8 58.8 11.6 59.7 14.5 59.8 17.05 L39.4 49.05 31.15 51.1 Q22.75 52.85 22.1 51.5 21.5 50.15 21.45 47.0 L21.55 44.1 18.7 47.6 15.2 45.35 Q10.95 42.35 7.15 38.4 3.35 34.45 5.0 30.25 L7.35 26.85 0.0 30.3 1.35 23.55 Q2.95 16.25 4.25 13.65 5.55 11.05 8.8 8.85 12.95 6.05 19.75 4.5 26.35 3.05 28.55 3.35 L26.3 0.0 37.35 1.05 Q49.15 2.45 53.1 4.15" fill="#003c3b" fill-rule="evenodd" stroke="none"/>
      <path d="M50.7 6.4 Q54.25 7.9 55.85 13.1 56.65 15.7 56.75 18.0 L38.45 46.7 31.8 48.55 Q25.05 50.1 24.5 48.9 23.95 47.7 24.3 42.8 L24.75 38.2 18.4 43.65 Q17.55 43.45 16.0 42.5 12.9 40.7 9.5 37.15 6.1 33.6 9.3 27.5 L13.2 22.1 2.95 26.55 Q5.0 18.65 6.9 14.95 7.95 12.85 11.85 10.55 16.3 7.95 22.55 6.45 28.15 5.1 31.45 5.4 33.1 5.55 33.65 6.0 L31.05 2.95 38.75 3.8 Q47.15 4.9 50.7 6.4" fill="#73cbc6" fill-rule="evenodd" stroke="none"/>
      <path d="M50.7 6.4 Q54.25 7.9 55.85 13.1 56.65 15.7 56.75 18.0 L43.35 38.95 Q41.65 34.05 39.05 30.5 36.5 27.05 35.55 28.05 33.7 30.0 34.1 35.9 34.3 38.8 34.9 41.35 L32.35 43.75 Q29.25 46.25 26.35 46.45 25.7 44.95 24.55 40.05 L24.75 38.2 18.4 43.65 Q17.55 43.45 16.0 42.5 12.9 40.7 9.5 37.15 6.1 33.6 9.3 27.5 L13.2 22.1 2.95 26.55 Q5.0 18.65 6.9 14.95 7.95 12.85 11.85 10.55 16.3 7.95 22.55 6.45 28.15 5.1 31.45 5.4 33.1 5.55 33.65 6.0 L31.05 2.95 38.75 3.8 Q47.15 4.9 50.7 6.4" fill="#ade9e6" fill-rule="evenodd" stroke="none"/>
      <path d="M50.7 6.4 Q54.25 7.9 55.85 13.1 56.65 15.7 56.75 18.0 L46.05 34.8 38.25 28.6 34.9 26.15 Q33.4 27.9 31.9 30.4 28.9 35.5 28.9 39.45 26.8 37.5 26.2 32.65 L26.05 28.2 Q23.8 29.1 21.4 30.45 16.65 33.15 16.05 35.5 13.35 32.55 14.6 26.35 15.7 20.95 17.65 19.35 14.25 18.1 9.45 20.75 6.35 22.45 3.25 25.35 5.25 18.15 6.9 14.95 7.95 12.85 11.85 10.55 16.3 7.95 22.55 6.45 28.15 5.1 31.45 5.4 33.1 5.55 33.65 6.0 L31.05 2.95 38.75 3.8 Q47.15 4.9 50.7 6.4" fill="#def4ea" fill-rule="evenodd" stroke="none"/>
      <path d="M50.1 8.25 Q54.0 9.85 54.4 13.8 54.6 15.8 54.05 17.45 L39.0 22.65 Q34.25 23.3 29.85 25.35 29.35 22.9 31.45 20.05 32.5 18.65 33.65 17.75 L29.2 17.35 Q24.5 17.15 23.2 18.25 23.8 16.05 28.05 13.7 30.2 12.5 32.2 11.75 L12.4 12.85 Q14.5 11.65 17.5 10.3 23.5 7.7 27.95 7.3 32.4 6.9 36.45 7.95 38.5 8.45 39.65 9.05 L35.05 4.6 40.25 5.45 Q46.25 6.65 50.1 8.25" fill="#f4fffb" fill-rule="evenodd" stroke="none"/>
      <path d="M133.4 43.8 Q133.8 44.1 136.05 47.95 138.65 51.95 141.15 53.3 143.2 54.45 145.65 60.8 L147.65 66.9 30.35 68.6 Q29.75 65.65 29.4 62.2 28.7 55.3 29.85 52.7 31.05 50.1 33.6 45.75 L35.95 41.9 Q34.9 38.95 34.1 35.4 32.45 28.3 33.65 25.25 35.7 19.9 46.25 17.35 58.55 14.35 77.95 16.7 92.3 18.45 112.2 29.95 116.95 32.7 133.4 43.8" fill="#362400" fill-rule="evenodd" stroke="none"/>
      <path d="M131.4 45.85 L133.15 48.6 Q134.75 51.3 136.4 52.45 138.2 53.65 140.85 59.25 142.2 62.0 143.15 64.55 L34.3 66.1 Q33.75 63.5 33.45 60.4 32.8 54.25 33.85 51.95 34.95 49.65 37.35 45.75 L39.55 42.35 Q38.55 39.75 37.8 36.6 36.25 30.25 37.35 27.55 39.25 22.8 49.05 20.5 60.5 17.85 78.5 19.95 91.75 21.5 110.95 32.6 120.9 38.35 131.4 45.85" fill="#ffe540" fill-rule="evenodd" stroke="none"/>
      <path d="M42.2 40.25 Q42.85 41.6 40.5 45.75 L37.75 50.4 Q37.05 52.95 38.25 56.1 39.15 58.45 40.15 59.4 40.9 60.2 47.25 58.45 L33.95 64.0 Q32.4 55.0 33.85 51.95 34.95 49.65 37.35 45.75 L39.55 42.35 Q38.55 39.75 37.8 36.6 36.25 30.25 37.35 27.55 37.9 26.3 39.0 25.2 38.45 26.4 38.25 28.55 37.95 31.7 42.2 40.25" fill="#ffa000" fill-rule="evenodd" stroke="none"/>
    </g>
    <g id="sprite0">
      <use ffdec:characterId="374" height="42.1" transform="matrix(1.0, 0.0, 0.0, 1.0, 0.0, 0.0)" width="109.0" xlink:href="#sprite1"/>
    </g>
    <g id="sprite1">
      <use ffdec:characterId="373" height="42.1" transform="matrix(1.0, 0.0, 0.0, 1.0, 0.0, 0.0)" width="109.0" xlink:href="#shape1"/>
    </g>
    <g id="shape1">
      <path d="M106.85 33.65 L109.0 38.25 Q107.75 39.5 104.0 40.65 L1.1 42.1 Q0.55 39.5 0.25 36.4 -0.4 30.25 0.65 27.95 2.4 24.25 6.35 18.35 5.35 15.75 4.6 12.6 3.05 6.25 4.15 3.55 4.9 1.65 7.25 0.0 6.65 3.7 12.7 8.5 L19.8 14.05 Q20.45 15.25 19.05 16.65 17.35 18.3 17.5 20.2 17.65 22.5 19.85 25.25 20.95 26.65 22.0 27.55 37.15 23.3 55.3 21.95 91.65 19.2 106.85 33.65" fill="#ffb905" fill-rule="evenodd" stroke="none"/>
    </g>
    <g id="shape2">
      <path d="M130.7 49.35 Q130.7 47.35 130.1 46.9 129.2 46.15 127.7 45.8 L124.9 45.0 Q122.8 44.2 105.1 31.2 101.85 29.4 97.1 27.3 87.65 23.15 80.2 21.85 L59.2 21.15 Q47.3 21.8 44.15 23.4 40.25 25.35 38.45 28.3 37.2 30.35 37.05 32.6 36.65 29.4 37.35 27.55 39.25 22.8 49.05 20.5 60.5 17.85 78.5 19.95 91.75 21.5 110.95 32.6 120.9 38.35 131.4 45.85 L133.15 48.6 Q134.75 51.3 136.4 52.45 138.25 53.75 141.35 60.35 L139.8 61.3 137.45 56.7 Q134.7 52.0 132.65 51.5 130.75 51.05 130.7 49.35" fill="#fff6b5" fill-rule="evenodd" stroke="none"/>
      <path d="M151.2 65.8 Q153.0 68.55 153.7 77.75 154.5 88.15 151.25 90.7 L148.3 87.3 Q146.2 85.05 144.4 83.85 132.65 78.5 115.05 77.4 99.0 76.35 80.85 78.95 63.5 81.4 48.85 86.55 33.9 91.8 26.15 98.3 18.1 92.5 18.35 83.0 18.55 75.9 22.55 70.15 25.95 65.35 38.35 60.0 56.95 52.0 86.05 48.8 114.95 45.65 134.55 53.9 146.9 59.1 151.2 65.8" fill="#362400" fill-rule="evenodd" stroke="none"/>
      <path d="M147.75 67.2 Q149.45 69.5 150.65 75.95 152.05 83.4 149.6 85.85 L147.35 82.6 Q145.95 80.85 144.2 79.85 118.9 69.35 79.4 75.05 62.9 77.45 48.5 82.2 34.45 86.9 26.85 92.35 21.3 87.6 22.25 80.45 22.95 75.0 26.55 70.6 29.85 66.65 41.9 62.2 59.9 55.55 87.75 52.95 115.35 50.4 132.95 57.3 143.35 61.35 147.75 67.2" fill="#ffe540" fill-rule="evenodd" stroke="none"/>
      <path d="M145.15 77.45 Q152.05 81.25 149.75 84.9 L149.55 85.85 147.35 82.6 Q145.95 80.85 144.2 79.85 118.9 69.35 79.4 75.05 62.9 77.45 48.5 82.2 34.45 86.9 26.85 92.35 21.3 87.6 22.25 80.45 22.95 75.0 26.55 70.6 27.8 69.05 31.45 66.95 36.35 64.1 43.5 61.6 41.55 62.95 40.45 64.8 39.35 66.7 39.9 72.45 40.45 78.65 42.65 80.95 47.25 78.05 68.1 74.1 94.2 69.2 114.9 70.8 136.2 72.5 145.15 77.45" fill="#ffd02c" fill-rule="evenodd" stroke="none"/>
      <path d="M31.75 87.45 L35.55 87.35 Q30.1 90.0 26.85 92.35 21.3 87.6 22.25 80.45 22.95 75.0 26.55 70.6 27.95 69.0 31.4 66.95 29.05 71.3 29.0 78.1 28.95 85.3 31.75 87.45" fill="#ffa000" fill-rule="evenodd" stroke="none"/>
      <path d="M111.45 54.5 Q100.1 53.65 82.3 54.85 L60.55 56.95 Q72.7 54.35 87.75 52.95 115.35 50.4 132.95 57.3 143.35 61.35 147.75 67.2 149.25 69.25 150.5 74.5 152.0 80.85 150.5 83.9 L148.9 80.45 Q149.15 78.3 148.9 75.65 148.35 70.35 145.8 67.8 134.25 56.25 111.45 54.5" fill="#fff6b5" fill-rule="evenodd" stroke="none"/>
    </g>
  </defs>
</svg>
