<?xml version="1.0" encoding="UTF-8" standalone="no"?>
<svg xmlns:ffdec="https://www.free-decompiler.com/flash" xmlns:xlink="http://www.w3.org/1999/xlink" ffdec:objectType="frame" height="247.95px" width="247.2px" xmlns="http://www.w3.org/2000/svg">
  <g transform="matrix(1.0, 0.0, 0.0, 1.0, 125.65, 165.35)">
    <use ffdec:characterId="59" height="86.25" transform="matrix(0.9211, 0.0, 0.0, 0.9211, -0.15, -7.55)" width="147.9" xlink:href="#shape0"/>
  </g>
  <defs>
    <g id="shape0">
      <path d="M11.85 -28.1 Q22.9 -27.05 29.2 -25.45 37.15 -23.4 46.45 -17.65 57.4 -10.85 59.45 -4.65 60.65 -0.95 61.0 18.25 L61.05 36.7 Q49.85 33.85 35.2 30.95 5.85 25.2 -11.45 25.2 -14.35 25.2 -16.3 32.85 -18.25 40.55 -19.9 40.55 -34.75 40.6 -50.25 37.0 -58.0 35.2 -62.8 33.4 -62.7 23.9 -61.75 13.6 -59.85 -7.0 -55.75 -11.05 -48.15 -18.5 -30.8 -24.0 -16.2 -28.6 -6.2 -28.95 L11.85 -28.1" fill="#1b0d00" fill-rule="evenodd" stroke="none"/>
      <path d="M11.55 -25.55 Q21.55 -24.6 27.25 -23.1 34.2 -21.35 43.75 -15.4 54.3 -8.9 55.25 -4.45 56.0 -1.0 56.8 34.6 L24.8 36.75 Q-9.8 38.7 -22.95 37.55 -36.1 36.35 -48.45 33.8 L-58.2 31.5 Q-58.1 22.7 -57.2 13.1 -55.45 -6.05 -51.65 -9.75 -44.5 -16.75 -28.45 -21.9 -14.55 -26.35 -5.6 -26.35 L11.55 -25.55" fill="#5d3f23" fill-rule="evenodd" stroke="none"/>
      <path d="M55.55 -1.75 L55.7 0.3 Q39.4 10.4 23.2 19.4 -4.1 34.65 -15.6 37.9 L-22.95 37.55 Q-36.1 36.35 -48.45 33.8 L-58.2 31.5 Q-58.1 22.7 -57.2 13.1 -55.45 -6.05 -51.65 -9.75 -44.75 -16.5 -29.45 -21.55 -16.35 -25.9 -6.85 -26.3 -18.6 -24.1 -31.2 -18.3 -43.7 -12.55 -44.15 -9.3 -38.85 -8.95 -26.75 -6.35 -14.85 -3.75 -13.35 -2.7 -8.0 -5.3 4.5 -7.25 18.55 -9.5 29.35 -8.55 42.55 -7.4 55.55 -1.75" fill="#3b2713" fill-rule="evenodd" stroke="none"/>
      <path d="M34.05 -2.85 L29.55 -3.0 Q29.6 -5.45 28.2 -8.75 25.45 -15.35 18.3 -19.4 13.0 -22.45 2.95 -25.2 L-6.1 -27.35 -0.45 -27.85 7.45 -26.05 Q16.45 -23.6 22.0 -20.3 27.95 -16.75 31.6 -9.45 33.4 -5.8 34.05 -2.85" fill="#1b0d00" fill-rule="evenodd" stroke="none"/>
      <path d="M55.15 -18.5 Q63.85 -9.6 67.9 1.95 70.85 10.45 70.3 15.7 70.0 18.6 62.4 11.45 L54.8 3.75 Q53.55 0.0 50.65 -4.65 44.8 -13.9 36.4 -18.2 30.65 -21.15 19.65 -23.8 7.25 -26.85 4.2 -28.05 5.5 -19.9 -2.75 -5.7 -6.9 1.4 -11.3 6.85 L-13.3 21.55 Q-15.65 36.75 -17.4 39.45 -19.45 42.55 -34.7 41.55 -49.4 40.6 -63.4 36.85 -75.75 33.55 -72.95 16.9 -70.55 2.75 -59.8 -12.25 -52.2 -22.9 -31.55 -30.0 -12.75 -36.45 -2.0 -34.65 0.55 -35.6 8.1 -34.9 15.8 -34.15 24.65 -32.05 47.1 -26.7 55.15 -18.5" fill="#1b0d00" fill-rule="evenodd" stroke="none"/>
      <path d="M52.45 -16.3 Q60.45 -8.25 64.15 2.4 66.85 10.2 66.35 15.0 66.05 17.65 62.85 13.45 L59.65 8.75 Q58.6 3.85 55.4 -2.2 49.05 -14.4 38.25 -20.4 30.0 -25.0 16.95 -27.85 8.75 -29.6 0.7 -30.35 L1.15 -29.65 Q3.45 -24.1 -5.75 -7.95 -10.35 0.15 -15.4 7.15 L-17.5 20.45 Q-19.95 34.25 -21.6 36.7 -23.4 39.5 -35.85 38.4 -47.35 37.4 -60.55 33.9 -71.9 30.9 -69.3 15.6 -67.1 2.6 -57.25 -11.1 -49.9 -21.4 -28.3 -28.15 -19.45 -30.9 -11.7 -31.75 -3.9 -32.65 -0.6 -31.2 L7.35 -31.55 Q14.4 -31.15 22.1 -29.65 43.25 -25.5 52.45 -16.3" fill="#bb824b" fill-rule="evenodd" stroke="none"/>
      <path d="M-1.15 -33.15 Q-13.05 -30.85 -26.1 -24.6 -52.3 -12.2 -58.3 7.35 -61.6 18.1 -59.2 23.35 -58.1 25.7 -54.45 27.75 -48.25 31.25 -39.1 31.45 -30.3 31.6 -28.05 28.8 -24.9 24.85 -21.8 19.3 L-23.65 38.9 -40.15 38.3 Q-57.8 37.0 -63.6 33.35 -68.8 30.05 -70.1 24.8 -71.75 18.15 -67.4 7.85 -61.5 -6.2 -56.6 -12.05 -48.8 -21.35 -33.5 -26.9 -22.1 -31.0 -10.5 -32.5 L-1.15 -33.15 M56.5 -5.9 Q59.05 -1.9 60.25 1.3 L55.7 -0.5 54.1 -3.5 Q51.15 -8.1 44.8 -15.6 40.15 -21.05 20.85 -26.55 L2.45 -31.0 17.3 -28.35 Q34.2 -24.45 44.5 -18.15 51.35 -13.95 56.5 -5.9" fill="#976636" fill-rule="evenodd" stroke="none"/>
      <path d="M13.5 -4.1 Q32.95 -6.0 44.5 -3.6 55.45 -1.35 63.7 2.8 71.65 6.75 72.8 10.25 75.1 17.05 74.2 27.9 73.2 40.25 67.95 41.9 62.6 43.6 21.1 42.85 -21.2 42.05 -23.7 39.45 -24.55 38.8 -24.25 33.65 -24.0 28.45 -22.75 22.2 -19.45 5.8 -14.1 2.5 -6.5 -2.15 13.5 -4.1" fill="#1b0d00" fill-rule="evenodd" stroke="none"/>
      <path d="M15.45 -1.65 Q34.0 -2.9 45.1 -0.6 55.3 1.45 61.9 4.7 68.35 7.8 69.4 11.0 71.45 17.1 71.05 26.85 70.55 37.8 66.5 38.95 L22.7 40.35 Q-17.0 40.15 -19.75 37.1 -22.05 34.6 -19.15 21.1 -16.15 7.0 -11.05 3.85 -4.2 -0.4 15.45 -1.65" fill="#bb824b" fill-rule="evenodd" stroke="none"/>
      <path d="M29.05 -2.05 Q18.25 -0.65 10.3 1.35 -2.2 4.45 -4.85 8.35 -8.5 13.85 -10.8 23.85 -13.05 33.5 -11.5 35.45 -9.9 37.5 24.7 38.05 59.9 38.6 66.05 35.9 69.6 34.35 71.0 27.1 70.75 31.9 69.75 34.9 68.55 38.35 66.5 38.95 L22.7 40.35 Q-17.0 40.15 -19.75 37.1 -22.05 34.6 -19.15 21.1 -16.15 7.0 -11.05 3.85 -6.25 0.9 5.95 -0.75 16.9 -2.2 29.05 -2.05" fill="#976636" fill-rule="evenodd" stroke="none"/>
      <path d="M-2.9 -37.3 Q-5.85 -41.35 -7.8 -39.8 -9.5 -38.4 -4.9 -34.7 L0.9 -29.8 0.95 -30.15 Q-1.0 -34.65 -2.9 -37.3 M16.95 -38.85 Q20.8 -34.2 11.75 -31.15 8.95 -30.2 5.15 -29.55 L1.95 -29.05 8.9 -31.75 Q15.35 -34.85 13.0 -36.75 10.15 -39.0 6.25 -34.75 2.55 -29.65 1.6 -28.9 L1.7 -28.35 1.5 -28.8 Q0.95 -28.4 0.9 -29.35 L0.45 -29.1 Q-2.45 -28.55 -5.95 -29.75 -9.3 -30.9 -11.5 -33.05 -13.8 -35.35 -13.55 -37.7 -13.25 -40.4 -9.5 -42.4 -5.2 -44.7 -2.1 -39.95 -0.05 -36.75 1.2 -31.05 2.85 -35.7 7.9 -39.05 13.6 -42.9 16.95 -38.85" fill="#1b0d00" fill-rule="evenodd" stroke="none"/>
    </g>
  </defs>
</svg>
