<?xml version="1.0" encoding="UTF-8" standalone="no"?>
<svg xmlns:ffdec="https://www.free-decompiler.com/flash" xmlns:xlink="http://www.w3.org/1999/xlink" ffdec:objectType="frame" height="247.95px" width="247.2px" xmlns="http://www.w3.org/2000/svg">
  <g transform="matrix(1.0, 0.0, 0.0, 1.0, 125.65, 165.35)">
    <use ffdec:characterId="463" height="63.5" transform="matrix(1.1735, 0.2046, -0.2211, 1.2681, -61.35, -59.45)" width="107.3" xlink:href="#sprite0"/>
  </g>
  <defs>
    <g id="sprite0">
      <use ffdec:characterId="462" height="63.5" transform="matrix(1.0, 0.0, 0.0, 1.0, 0.0, 0.0)" width="107.3" xlink:href="#shape0"/>
    </g>
    <g id="shape0">
      <path d="M54.6 21.25 Q58.95 25.35 60.3 29.35 L23.3 53.35 Q18.0 53.75 12.45 52.3 1.4 49.45 0.3 40.35 -1.3 27.7 6.25 20.05 14.5 11.65 31.3 12.35 46.0 13.0 54.6 21.25" fill="#000000" fill-rule="evenodd" stroke="none"/>
      <path d="M82.85 42.6 Q84.6 44.95 82.3 46.35 79.2 44.25 73.45 42.6 L68.3 41.35 74.3 46.35 Q71.3 47.35 66.3 47.35 63.2 47.35 58.45 46.35 L54.3 45.35 Q53.8 47.1 52.05 49.75 48.55 55.0 42.3 59.35 37.6 62.65 25.95 63.35 20.15 63.7 15.3 63.35 18.95 43.35 31.35 32.9 41.7 24.2 57.2 22.75 69.75 21.5 82.8 25.1 94.15 28.2 98.3 32.35 104.35 38.4 106.0 42.1 106.95 44.25 107.3 47.35 105.55 45.6 100.1 43.4 95.0 41.35 93.3 41.35 92.45 41.35 93.2 42.6 94.25 44.25 93.3 45.35 90.55 43.9 86.75 42.75 L82.3 41.35 Q81.55 41.05 81.85 41.4 L82.85 42.6" fill="#000000" fill-rule="evenodd" stroke="none"/>
      <path d="M89.9 28.3 Q91.85 28.75 93.75 30.1 L95.3 31.35 89.9 28.3 Q88.0 27.9 86.3 28.35 84.05 29.0 84.95 30.85 85.8 32.7 83.3 33.35 81.9 33.75 79.2 32.6 76.05 31.35 74.3 31.35 72.3 31.4 72.4 32.75 72.55 34.95 72.3 35.35 71.25 37.2 67.5 36.35 L61.3 34.35 68.3 34.6 Q70.9 34.4 70.3 32.35 69.65 30.3 70.35 29.8 L73.3 29.35 Q74.7 29.25 76.65 30.0 L80.3 30.35 Q81.85 30.1 81.9 27.95 81.95 26.05 84.3 26.35 86.6 26.7 89.9 28.3" fill="#e9e9e9" fill-rule="evenodd" stroke="none"/>
      <path d="M24.3 3.35 Q25.65 1.8 30.3 1.35 L37.3 23.15 35.3 24.35 29.55 14.15 Q23.9 3.8 24.3 3.35 M43.3 0.35 L45.4 0.0 Q47.85 -0.1 49.3 1.35 L41.85 20.15 39.3 21.35 43.3 0.35" fill="#000000" fill-rule="evenodd" stroke="none"/>
      <path d="M26.3 3.35 Q27.05 3.35 29.3 2.35 L36.3 21.35 35.3 22.35 30.5 12.85 Q25.8 3.35 26.3 3.35 M44.3 1.35 L45.65 1.35 Q47.05 1.5 47.3 2.35 45.65 6.95 42.3 18.35 L40.3 19.35 44.3 1.35" fill="#af601f" fill-rule="evenodd" stroke="none"/>
      <path d="M57.3 14.35 Q62.55 14.8 69.45 19.6 72.9 22.05 75.3 24.35 L66.85 23.7 Q57.65 23.2 51.15 24.55 44.5 25.95 34.9 33.4 30.05 37.2 25.7 41.25 25.0 41.7 25.7 39.25 27.15 34.2 27.9 30.15 28.45 27.25 29.4 25.7 30.1 24.5 32.3 22.35 35.6 19.1 37.65 17.75 40.35 15.9 43.3 15.35 L48.7 14.35 Q51.9 13.95 57.3 14.35" fill="#0b0500" fill-rule="evenodd" stroke="none"/>
      <path d="M57.3 16.35 Q62.55 17.35 67.45 19.95 69.9 21.25 71.3 22.35 L64.6 22.7 Q57.1 23.15 51.3 24.35 45.3 25.6 36.65 32.3 32.25 35.75 28.3 39.35 27.65 39.8 28.25 37.6 L30.3 29.35 Q31.15 24.55 35.95 20.95 38.6 18.9 42.2 17.45 L45.3 16.35 48.5 15.85 57.3 16.35" fill="#ebb589" fill-rule="evenodd" stroke="none"/>
      <path d="M41.2 25.95 Q47.45 21.6 54.3 21.35 62.25 21.1 67.1 21.7 L70.3 22.35 70.1 22.45 Q58.85 22.85 51.3 24.35 45.95 25.45 38.35 31.0 34.95 33.5 29.2 38.55 L28.25 37.7 30.3 29.35 Q31.15 24.55 35.95 20.95 L36.45 20.55 Q34.25 26.2 35.3 27.35 36.35 28.6 37.8 28.1 L41.2 25.95" fill="#c0804b" fill-rule="evenodd" stroke="none"/>
      <path d="M41.0 33.9 Q42.35 34.4 43.3 34.95 L42.1 37.3 Q40.5 39.8 38.3 40.35 36.1 40.95 35.95 41.2 35.9 41.35 36.3 41.35 L36.75 42.0 38.6 45.5 Q39.75 47.85 39.3 49.85 39.05 50.85 38.6 51.35 33.65 50.45 31.55 49.05 L29.1 47.15 28.3 46.35 Q27.3 47.4 24.5 49.05 21.65 50.65 18.6 51.35 18.35 50.4 18.35 49.05 18.25 46.3 19.25 44.35 L21.3 40.35 Q20.05 40.35 18.6 38.45 17.75 37.3 16.95 35.4 L16.3 33.75 19.4 33.1 Q22.7 32.75 24.2 34.25 L23.9 33.3 Q23.85 31.75 25.3 29.35 27.6 25.6 29.2 24.35 L30.7 25.95 Q32.4 28.05 33.3 30.35 34.1 32.4 33.75 33.1 33.6 33.45 33.3 33.35 L33.55 33.65 36.3 33.35 Q38.35 32.9 41.0 33.9" fill="#65021e" fill-rule="evenodd" stroke="none"/>
      <path d="M18.85 35.75 L18.3 34.35 21.15 34.05 Q24.25 33.95 25.75 34.9 24.8 33.75 26.3 31.35 L29.3 26.35 30.7 28.75 Q32.15 31.5 32.3 33.35 L32.35 35.3 Q32.95 34.85 35.3 34.35 L39.35 34.65 41.3 35.35 40.45 37.05 Q39.2 38.9 37.3 39.35 L34.7 40.15 34.3 40.35 35.2 41.15 Q36.25 42.35 37.3 44.35 38.3 46.4 37.9 48.05 37.7 48.9 37.3 49.35 33.05 48.6 31.3 47.35 30.2 46.6 29.15 44.9 L28.3 43.35 27.7 44.85 Q26.75 46.5 25.3 47.35 22.9 48.8 20.3 49.35 20.1 48.55 20.05 47.4 19.95 45.1 20.8 43.4 21.55 41.9 22.45 41.0 L23.3 40.35 Q21.5 39.95 20.3 38.35 19.5 37.4 18.85 35.75" fill="#e73769" fill-rule="evenodd" stroke="none"/>
      <path d="M31.4 30.25 Q32.15 32.05 32.3 33.35 L32.35 35.3 Q32.95 34.85 35.3 34.35 L36.15 34.25 36.3 34.35 Q35.55 34.35 34.8 34.75 33.3 35.5 33.3 37.35 33.3 39.25 35.8 39.0 L38.3 38.35 38.3 39.0 37.3 39.35 34.7 40.15 34.3 40.35 35.05 41.05 36.9 43.65 Q36.55 43.8 36.3 43.35 35.55 42.2 33.8 41.8 32.05 41.45 31.3 42.35 30.5 43.3 31.05 47.25 30.0 46.45 29.05 44.8 L28.3 43.35 Q27.75 45.65 25.7 47.1 L26.3 43.35 Q26.45 42.0 26.15 41.85 L24.3 41.35 Q23.15 41.05 21.45 42.35 22.45 40.8 23.3 40.35 21.55 39.95 20.4 38.45 21.8 39.55 23.3 39.35 24.75 39.25 25.2 38.3 L25.3 37.35 21.95 34.05 Q24.5 34.15 25.75 34.9 24.8 33.75 26.3 31.35 L26.5 31.05 26.3 32.35 Q26.05 34.3 27.0 35.45 28.15 36.85 30.3 34.35 31.65 32.75 31.4 30.25" fill="#9f0b35" fill-rule="evenodd" stroke="none"/>
      <path d="M31.3 42.35 Q32.35 43.05 35.05 47.1 L34.3 46.35 Q33.4 45.6 32.3 45.35 30.85 45.05 30.45 43.35 30.05 41.65 31.3 42.35 M25.3 42.35 Q26.65 42.6 22.3 46.35 22.3 45.35 23.3 43.35 23.95 42.05 24.15 42.05 L25.3 42.35 M28.3 29.35 L28.0 32.0 Q27.8 34.75 28.3 35.35 29.05 36.35 27.3 35.35 26.9 33.8 27.3 32.35 L28.3 29.35 M21.35 36.65 L21.3 36.35 25.3 37.35 24.3 38.35 22.3 37.35 Q21.5 37.0 21.35 36.65 M31.95 37.0 L34.3 36.35 Q36.5 35.95 37.3 36.35 34.3 38.35 33.3 38.35 32.7 38.35 31.95 37.85 L31.3 37.35 31.95 37.0" fill="#b91644" fill-rule="evenodd" stroke="none"/>
      <path d="M28.3 35.35 Q29.95 35.35 31.15 36.55 32.3 37.7 32.3 39.35 32.3 41.05 31.15 42.2 29.95 43.35 28.3 43.35 26.6 43.35 25.45 42.2 24.3 41.05 24.3 39.35 24.3 37.7 25.45 36.55 26.6 35.35 28.3 35.35" fill="#980f35" fill-rule="evenodd" stroke="none"/>
      <path d="M28.8 36.35 Q29.8 36.35 30.55 37.1 31.3 37.85 31.3 38.85 31.3 39.9 30.55 40.65 29.8 41.35 28.8 41.35 27.75 41.35 27.05 40.65 26.3 39.9 26.3 38.85 26.3 37.85 27.05 37.1 27.75 36.35 28.8 36.35" fill="#ffe1e1" fill-rule="evenodd" stroke="none"/>
    </g>
  </defs>
</svg>
