<?xml version="1.0" encoding="UTF-8" standalone="no"?>
<svg xmlns:ffdec="https://www.free-decompiler.com/flash" xmlns:xlink="http://www.w3.org/1999/xlink" ffdec:objectType="frame" height="247.95px" width="247.2px" xmlns="http://www.w3.org/2000/svg">
  <g transform="matrix(1.0, 0.0, 0.0, 1.0, 125.65, 165.35)">
    <use ffdec:characterId="465" height="103.05" transform="matrix(0.9231, 0.0567, -0.0567, 0.9231, -62.35, -53.4)" width="136.0" xlink:href="#sprite0"/>
  </g>
  <defs>
    <g id="sprite0">
      <use ffdec:characterId="464" height="103.05" transform="matrix(1.0, 0.0, 0.0, 1.0, 0.0, 0.0)" width="136.0" xlink:href="#shape0"/>
    </g>
    <g id="shape0">
      <path d="M123.5 36.2 Q123.35 37.4 122.65 38.2 L124.6 38.5 Q127.1 39.25 129.7 41.7 133.15 44.9 132.05 49.0 131.5 51.1 130.25 52.5 L132.0 52.85 Q134.05 54.05 135.6 58.4 136.8 61.95 134.35 63.95 L131.65 65.25 132.75 66.35 Q133.9 67.75 134.45 69.3 135.4 72.05 132.5 74.9 129.25 78.15 124.15 76.9 120.9 76.1 119.55 72.6 118.6 70.2 118.8 68.1 119.7 68.05 118.85 67.75 L118.8 68.1 115.05 67.75 Q112.1 67.35 110.6 64.6 109.65 62.8 109.4 60.25 108.95 61.05 106.5 61.05 103.9 61.05 102.55 58.7 L101.75 56.3 101.5 58.15 Q100.85 60.15 98.9 61.05 96.35 62.25 94.05 61.3 L92.25 60.1 Q92.45 61.1 91.8 62.05 90.5 64.05 86.4 64.0 82.2 63.95 80.15 60.65 L78.9 57.25 77.95 58.0 Q76.5 58.8 74.15 59.15 71.8 59.55 70.35 57.95 L69.4 56.3 69.0 58.3 Q68.25 60.45 66.55 61.05 L62.65 60.95 60.85 60.1 61.25 62.45 Q61.15 65.0 58.95 65.85 57.15 66.55 56.4 66.45 L56.1 65.85 56.05 66.1 Q56.05 66.4 56.4 66.45 57.35 68.55 56.1 70.6 54.85 72.6 53.25 73.45 L54.9 74.5 Q56.5 76.05 56.1 78.25 55.75 80.45 53.5 81.0 L51.35 81.1 51.9 81.8 Q52.45 82.95 52.3 84.9 52.2 86.85 49.85 87.05 L47.55 86.8 48.9 88.2 Q49.95 90.1 48.5 92.55 47.65 94.0 44.35 93.05 L41.25 91.8 41.4 92.7 41.25 95.7 Q41.0 97.4 38.15 97.25 L35.35 96.7 35.55 98.85 Q35.2 101.25 32.4 102.6 29.6 103.95 26.4 101.25 L23.75 98.25 Q22.75 99.45 20.6 99.65 17.0 100.0 15.15 99.7 10.95 99.0 8.8 95.7 6.75 92.5 7.45 89.35 L8.55 86.8 Q7.55 86.9 6.35 86.25 3.9 84.9 2.9 81.0 2.3 78.55 4.0 76.05 L5.85 74.1 2.8 73.75 Q-0.25 72.5 0.0 68.2 0.15 65.6 2.95 63.55 L5.7 62.05 Q4.7 61.85 3.7 61.15 1.75 59.75 1.95 57.4 2.15 54.4 3.75 53.2 4.6 52.5 5.6 52.5 4.55 52.5 3.75 51.65 2.35 50.2 2.9 46.6 3.55 42.8 6.1 41.55 L8.55 41.05 Q9.85 42.25 6.85 38.75 5.1 36.7 6.05 33.55 7.0 30.4 9.8 28.95 13.25 27.15 15.05 26.75 15.95 26.6 16.15 26.75 15.9 26.55 15.8 26.05 15.55 25.1 16.15 23.9 17.65 20.8 20.5 22.65 18.8 21.1 21.6 17.15 23.7 14.2 27.75 14.45 29.75 14.6 31.35 15.3 L31.85 14.4 Q32.85 13.3 35.15 12.45 37.05 11.75 38.85 11.95 L40.25 12.25 Q39.95 12.0 39.8 11.4 39.55 10.15 40.25 8.3 41.55 5.0 42.75 3.7 44.7 1.65 49.1 0.45 53.15 -0.65 57.4 1.0 59.55 1.85 60.85 2.9 L62.45 2.1 Q64.8 1.35 68.75 1.45 71.65 1.55 73.2 3.2 73.95 4.0 74.15 4.8 L76.4 3.25 Q79.45 1.8 83.5 2.4 86.3 2.85 87.65 5.8 88.3 7.25 88.4 8.65 L90.3 7.7 Q93.05 6.2 97.05 6.2 101.5 6.25 105.1 8.3 108.3 10.15 108.7 14.35 108.85 16.45 108.4 18.15 L110.05 18.6 Q112.05 19.4 113.95 21.1 117.15 23.85 117.35 26.4 117.45 28.05 116.35 29.25 117.45 29.05 120.75 31.5 123.7 33.7 123.5 36.2" fill="#000000" fill-rule="evenodd" stroke="none"/>
      <path d="M122.1 39.65 Q124.85 39.65 127.4 42.0 130.75 45.1 129.4 49.6 128.75 51.85 127.4 53.45 L129.4 53.3 Q131.65 53.95 133.1 58.2 134.3 61.65 131.9 63.65 L129.3 64.9 130.4 65.95 Q131.55 67.25 132.05 68.75 133.0 71.6 130.75 74.35 128.15 77.5 123.6 75.4 119.95 73.65 118.95 66.75 119.45 66.4 118.85 65.85 L118.95 66.75 Q118.15 67.25 115.05 66.8 111.5 66.35 110.55 61.75 L110.3 57.25 109.45 58.2 Q108.05 59.15 105.55 59.15 103.05 59.15 101.2 57.25 L99.85 55.35 99.65 57.45 Q99.0 59.65 97.0 60.1 94.95 60.6 92.95 59.0 L91.3 57.25 Q91.45 58.6 90.8 59.85 89.5 62.4 85.55 62.05 81.5 61.7 80.3 58.0 L79.85 54.4 78.35 55.6 Q76.4 56.9 74.15 57.25 71.9 57.65 69.95 56.05 L68.45 54.4 68.0 56.4 Q67.25 58.55 65.6 59.15 L61.75 59.05 59.9 58.2 60.25 61.05 Q60.15 64.05 58.0 64.9 L54.8 65.85 54.2 65.85 55.25 67.3 Q56.1 69.05 55.15 70.6 54.4 71.8 53.3 72.3 L52.3 72.5 53.45 73.6 Q54.55 75.15 54.2 77.3 53.85 79.45 51.6 80.0 L49.45 80.15 50.45 80.9 Q51.45 82.05 51.35 83.95 51.25 85.85 48.9 86.05 L46.6 85.85 47.9 87.3 Q48.95 89.2 47.55 91.6 46.7 93.0 44.15 91.95 L41.8 90.65 41.95 91.55 41.8 94.45 Q41.6 96.1 38.8 95.9 L36.1 95.4 36.35 97.45 Q36.0 99.8 33.25 101.1 30.55 102.4 27.35 100.0 L24.7 97.3 Q23.95 98.05 21.85 98.25 18.4 98.6 16.55 98.3 12.5 97.6 10.45 94.45 8.4 91.35 9.7 88.3 L11.4 85.85 Q10.1 85.95 8.65 85.25 5.7 83.9 4.75 80.15 4.15 77.8 5.8 75.4 L7.6 73.45 4.6 73.1 Q1.65 71.9 1.9 67.75 2.05 65.2 5.3 63.4 L8.55 62.05 Q7.3 61.75 6.05 61.0 3.6 59.5 3.8 57.25 4.0 54.35 6.85 53.15 8.4 52.5 10.2 52.5 8.35 52.5 6.85 51.7 4.2 50.25 4.75 46.75 5.3 43.35 8.0 42.3 L11.25 42.0 8.55 39.15 Q6.85 37.15 7.75 34.1 8.65 31.05 11.4 29.6 14.3 28.1 16.9 28.4 18.55 28.65 19.7 29.45 17.25 27.5 18.05 25.8 19.1 23.6 21.5 24.5 22.5 24.85 23.4 25.5 22.6 24.8 22.05 23.7 20.75 21.05 22.8 18.15 24.85 15.3 29.25 16.45 31.45 17.0 33.25 18.15 33.05 17.3 33.35 16.3 33.85 14.25 36.1 13.4 37.9 12.75 39.55 13.0 L40.85 13.4 40.45 12.55 Q40.15 11.4 40.85 9.6 42.1 6.4 43.3 5.15 45.2 3.15 49.45 1.95 53.35 0.9 57.5 2.75 59.55 3.65 60.85 4.8 L62.35 3.8 Q64.65 2.8 68.45 2.9 71.25 3.0 72.95 5.35 73.85 6.55 74.15 7.7 L76.1 5.4 Q78.8 3.25 82.7 3.85 85.45 4.3 86.75 8.4 87.35 10.5 87.45 12.45 L87.9 11.65 89.35 9.6 Q90.5 8.1 95.15 7.9 100.2 7.65 103.65 9.6 106.75 11.4 106.45 16.4 106.3 18.9 105.55 21.05 L107.75 20.55 Q110.35 20.4 112.2 22.0 115.9 25.2 114.9 28.2 114.4 29.7 113.15 30.55 L115.2 30.25 Q117.45 30.3 119.15 32.0 121.7 34.55 121.0 37.55 120.65 39.1 119.8 40.1 L122.1 39.65" fill="#1d1d1d" fill-rule="evenodd" stroke="none"/>
      <path d="M91.3 57.25 L91.3 57.8 Q91.25 59.5 90.3 60.6 88.85 62.35 85.55 62.05 81.5 61.7 80.3 58.0 L79.85 54.4 78.35 55.6 Q76.4 56.9 74.15 57.25 71.9 57.65 69.95 56.05 L68.45 54.4 68.0 56.4 Q67.25 58.55 65.6 59.15 L61.75 59.05 59.9 58.2 60.25 61.05 Q60.15 64.05 58.0 64.9 L54.8 65.85 54.2 65.85 55.25 67.3 Q56.1 69.05 55.15 70.6 54.4 71.8 53.3 72.3 L52.3 72.5 53.45 73.6 Q54.55 75.15 54.2 77.3 53.85 79.45 51.6 80.0 L49.45 80.15 50.45 80.9 Q51.45 82.05 51.35 83.95 51.25 85.85 48.9 86.05 L46.6 85.85 47.9 87.3 Q48.95 89.2 47.55 91.6 46.7 93.0 44.15 91.95 L41.8 90.65 41.95 91.55 41.8 94.45 Q41.6 96.1 38.8 95.9 L36.1 95.4 36.35 97.45 Q36.0 99.8 33.25 101.1 30.55 102.4 27.35 100.0 L24.7 97.3 Q23.95 98.05 21.85 98.25 18.4 98.6 16.55 98.3 12.5 97.6 10.45 94.45 8.4 91.35 9.7 88.3 L11.4 85.85 Q10.1 85.95 8.65 85.25 5.7 83.9 4.75 80.15 4.15 77.8 5.8 75.4 L7.6 73.45 4.6 73.1 Q1.65 71.9 1.9 67.75 2.05 65.2 5.3 63.4 L8.55 62.05 Q7.3 61.75 6.05 61.0 3.6 59.5 3.8 57.25 4.0 54.35 6.85 53.15 8.4 52.5 10.2 52.5 8.35 52.5 6.85 51.7 4.2 50.25 4.75 46.75 5.3 43.35 8.0 42.3 L11.25 42.0 8.55 39.15 Q6.85 37.15 7.75 34.1 8.65 31.05 11.4 29.6 14.3 28.1 16.9 28.4 18.55 28.65 19.7 29.45 17.25 27.5 18.05 25.8 19.1 23.6 21.5 24.5 22.5 24.85 23.4 25.5 22.6 24.8 22.05 23.7 20.75 21.05 22.8 18.15 24.85 15.3 29.25 16.45 31.45 17.0 33.25 18.15 L33.25 18.05 35.15 20.1 31.65 19.6 Q27.9 19.45 26.65 21.2 25.6 22.6 26.5 24.85 26.9 25.95 27.55 26.75 L25.25 26.8 Q22.95 27.1 22.8 28.65 22.6 31.15 23.75 33.4 22.05 32.45 20.0 32.2 15.9 31.75 14.25 35.35 12.6 38.9 15.15 41.3 16.45 42.5 18.05 42.95 17.9 43.35 13.65 44.2 9.7 45.55 10.6 48.7 11.0 50.15 14.1 51.45 L17.1 52.5 Q14.35 52.75 11.9 53.55 7.0 55.25 8.55 58.2 10.1 61.2 11.85 62.4 12.75 63.0 13.3 63.0 L8.65 65.0 Q4.65 67.4 7.6 69.65 L10.65 71.5 14.05 71.7 Q12.65 72.65 11.85 74.05 10.45 76.4 11.4 79.2 12.45 82.3 15.85 82.0 17.55 81.85 19.0 81.1 L17.85 81.9 Q16.5 82.95 15.8 84.15 13.5 87.95 18.05 91.6 21.0 94.0 24.6 92.1 26.35 91.15 27.55 89.7 L26.65 92.75 Q26.35 95.75 29.45 95.4 32.55 95.05 33.2 92.35 L33.25 89.7 34.9 91.45 Q36.8 92.9 38.0 91.6 39.2 90.3 39.65 87.95 L39.9 85.85 40.95 86.8 Q42.15 87.55 42.75 86.8 44.6 84.6 44.6 83.95 44.6 83.35 42.75 81.1 L44.75 81.25 Q46.7 81.2 46.6 80.15 L46.05 78.1 45.65 77.3 47.8 77.15 Q50.0 76.7 50.4 75.4 50.75 74.2 49.2 72.25 L47.55 70.6 49.4 70.55 Q51.25 70.05 51.35 67.75 51.45 65.6 50.45 63.6 L49.45 62.05 51.4 62.65 Q53.8 62.75 56.1 60.1 58.35 57.5 57.45 55.2 L56.1 53.45 58.95 54.65 Q62.15 55.75 63.7 55.35 65.25 55.0 66.5 52.3 L67.5 49.65 69.0 52.2 Q71.4 54.7 76.05 54.4 77.85 54.3 80.45 51.95 L82.7 49.65 81.45 52.7 Q80.6 56.15 82.7 58.2 84.85 60.25 88.3 58.95 90.0 58.3 91.3 57.25" fill="#0d0d0d" fill-rule="evenodd" stroke="none"/>
      <path d="M122.1 39.65 Q124.85 39.65 127.4 42.0 130.75 45.1 129.4 49.6 128.75 51.85 127.4 53.45 L129.4 53.3 Q131.65 53.95 133.1 58.2 134.3 61.65 131.9 63.65 L129.3 64.9 130.4 65.95 Q131.55 67.25 132.05 68.75 133.0 71.6 130.75 74.35 128.15 77.5 123.6 75.4 120.25 73.8 119.15 67.85 119.95 68.4 122.55 72.55 125.5 75.95 128.85 73.65 131.4 71.9 129.2 67.8 L126.45 63.95 128.2 63.35 Q129.95 62.15 130.25 59.15 130.6 55.5 128.4 55.2 L125.5 55.35 126.5 52.2 Q127.6 48.45 125.5 44.85 124.05 42.3 120.35 42.0 L116.95 42.2 Q117.95 40.8 118.45 38.95 119.45 35.35 116.95 33.4 114.45 31.5 112.15 31.8 L110.3 32.45 Q111.45 30.95 112.0 29.1 113.15 25.45 110.3 23.9 107.45 22.35 104.3 22.5 L101.75 22.95 Q103.2 21.15 103.7 18.85 104.7 14.2 99.85 11.5 96.2 9.45 91.45 11.7 L87.45 14.35 86.75 12.6 Q85.6 10.45 83.65 8.65 80.15 5.35 75.85 8.1 L72.25 11.5 Q72.8 9.7 72.55 7.95 72.15 4.45 68.45 4.8 64.75 5.2 62.9 7.9 L61.8 10.55 Q61.0 8.6 59.4 6.75 56.2 3.15 52.3 3.85 48.3 4.6 46.75 7.2 L45.65 10.55 45.0 13.85 44.65 16.25 Q43.6 15.4 42.15 14.85 39.2 13.75 37.05 15.3 34.95 16.85 34.85 18.65 34.8 19.55 35.15 20.1 L33.0 18.0 33.25 18.15 Q33.05 17.3 33.35 16.3 33.85 14.25 36.1 13.4 37.9 12.75 39.55 13.0 L40.85 13.4 40.45 12.55 Q40.15 11.4 40.85 9.6 42.1 6.4 43.3 5.15 45.2 3.15 49.45 1.95 53.35 0.9 57.5 2.75 59.55 3.65 60.85 4.8 L62.35 3.8 Q64.65 2.8 68.45 2.9 71.25 3.0 72.95 5.35 73.85 6.55 74.15 7.7 L76.1 5.4 Q78.8 3.25 82.7 3.85 85.45 4.3 86.75 8.4 87.35 10.5 87.45 12.45 L87.9 11.65 89.35 9.6 Q90.5 8.1 95.15 7.9 100.2 7.65 103.65 9.6 106.75 11.4 106.45 16.4 106.3 18.9 105.55 21.05 L107.75 20.55 Q110.35 20.4 112.2 22.0 115.9 25.2 114.9 28.2 114.4 29.7 113.15 30.55 L115.2 30.25 Q117.45 30.3 119.15 32.0 121.7 34.55 121.0 37.55 120.65 39.1 119.8 40.1 L122.1 39.65" fill="#484848" fill-rule="evenodd" stroke="none"/>
      <path d="M21.6 73.85 L21.85 73.45 22.35 74.85 Q23.15 76.25 24.7 76.35 27.4 76.5 27.55 74.1 27.8 75.4 29.45 75.4 30.9 75.4 32.2 73.95 L33.25 72.5 34.65 74.4 Q36.25 75.85 37.05 73.45 37.45 72.4 37.75 72.85 L38.0 73.45 37.9 75.8 Q37.55 78.15 36.1 78.25 34.7 78.4 33.85 77.4 L33.25 76.35 32.05 78.7 Q30.65 80.85 29.45 80.15 27.8 79.15 27.55 77.35 27.65 78.8 27.25 80.1 26.6 82.25 24.7 82.05 22.65 81.8 21.6 80.0 L20.9 78.25 20.2 80.45 Q19.15 82.5 17.1 82.05 15.05 81.6 14.45 79.85 L14.25 78.25 12.3 79.45 Q10.2 80.4 9.5 79.2 8.8 78.0 9.05 75.6 L9.5 73.45 11.45 74.8 Q13.4 75.7 13.3 73.45 15.0 74.9 16.2 74.25 L17.1 73.45 17.8 75.0 Q18.75 76.35 19.95 75.4 L21.6 73.85 M8.55 48.4 L9.5 44.85 9.7 46.4 Q10.3 48.1 12.35 48.7 L15.45 48.6 16.15 47.75 16.25 50.6 Q16.6 53.45 18.05 53.45 20.35 53.45 22.8 52.5 L22.75 53.55 Q23.15 54.55 25.65 54.4 28.15 54.3 28.6 53.4 L28.5 52.5 29.75 53.15 Q31.25 53.55 32.3 52.5 L34.2 50.6 34.9 52.8 Q35.2 55.2 33.5 56.25 32.65 56.75 29.45 56.3 L28.85 57.8 Q27.8 59.3 25.65 59.15 23.55 59.05 22.5 57.65 L21.85 56.3 20.3 57.55 Q18.3 58.7 16.15 58.2 14.0 57.75 13.9 54.6 L14.25 51.55 10.95 54.2 Q7.6 56.45 7.6 54.4 7.6 52.35 8.55 48.4" fill="#0d0d0d" fill-rule="evenodd" stroke="none"/>
      <path d="M22.55 70.75 Q22.0 69.95 21.85 68.85 21.95 69.5 21.7 70.15 21.3 71.35 19.95 71.55 17.65 71.95 16.7 70.4 16.15 69.45 16.15 68.0 15.85 69.45 12.35 70.6 9.75 71.45 8.9 68.75 L8.55 65.85 13.25 65.25 19.0 64.9 23.65 65.15 30.4 65.85 Q33.05 66.45 35.3 68.1 L37.05 69.65 Q35.35 71.0 33.25 71.55 31.95 71.95 30.1 70.35 L28.5 68.7 28.35 69.7 Q27.8 70.85 25.65 71.55 23.6 72.25 22.55 70.75 M16.15 46.75 Q14.0 46.75 13.45 43.9 L13.3 41.05 24.7 42.0 Q25.2 42.0 27.15 44.0 28.95 45.9 29.45 46.75 30.05 47.75 36.1 45.8 L35.55 47.55 Q34.55 49.5 32.3 50.6 30.05 51.65 28.6 49.8 L27.55 47.75 Q27.65 48.25 26.7 48.8 L22.95 49.0 Q20.65 48.45 21.05 46.6 L21.85 44.85 20.3 45.8 Q18.3 46.75 16.15 46.75 M50.4 30.55 L48.4 32.25 Q46.0 33.65 43.7 32.45 41.45 31.25 41.4 29.35 L41.8 27.7 Q41.15 28.3 40.1 28.7 38.0 29.5 36.1 28.65 34.2 27.8 34.0 26.25 L34.2 24.85 Q32.9 25.25 30.4 24.85 28.85 24.6 28.55 22.35 L28.5 20.1 34.25 21.65 Q40.25 23.3 41.8 23.9 44.3 24.85 50.4 30.55 M69.4 15.3 L71.3 20.35 Q72.9 24.4 73.2 25.8 73.65 27.7 69.95 28.15 66.2 28.6 64.65 26.75 63.45 25.3 64.75 21.95 65.9 19.05 65.6 19.1 64.15 19.75 63.1 19.85 61.2 20.05 59.9 18.15 58.6 16.25 60.05 14.65 60.8 13.85 61.8 13.4 58.85 12.65 57.05 11.5 55.0 10.25 55.75 7.8 56.5 5.3 57.05 5.75 L63.7 8.65 Q64.6 8.95 66.8 11.4 69.0 13.95 69.4 15.3 M100.8 41.05 Q100.3 43.1 98.85 44.15 95.95 46.2 91.3 41.05 87.7 37.1 89.6 38.2 L92.25 40.1 Q106.1 33.8 107.45 33.4 109.05 32.95 113.15 34.4 114.05 34.7 114.5 36.8 114.95 39.0 114.1 40.1 113.4 41.05 111.3 41.15 L109.35 41.05 108.45 42.5 Q107.2 43.9 105.55 43.9 103.9 43.9 102.2 42.5 L100.8 41.05 M86.5 22.95 L88.95 24.4 Q90.9 26.3 88.4 28.65 86.2 30.8 82.8 30.9 L79.85 30.55 79.8 26.65 Q79.75 22.6 79.85 22.0 80.1 20.85 81.2 18.65 82.55 15.9 83.65 15.3 84.6 14.8 84.85 13.5 85.05 12.45 85.55 12.45 L90.4 10.9 Q94.35 9.85 94.15 12.45 93.9 15.1 91.6 15.45 L89.35 15.3 91.5 16.6 Q93.55 18.3 93.2 20.1 92.65 22.85 89.5 23.2 L86.5 22.95 M123.6 44.85 Q124.45 47.25 122.2 47.25 L119.8 46.75 120.7 48.15 Q121.35 49.7 119.8 50.6 118.15 51.55 116.85 51.45 115.25 51.3 113.15 49.65 L106.75 50.2 Q100.95 50.55 103.65 49.65 110.15 47.45 114.95 44.75 L119.8 42.0 Q121.25 41.5 122.2 42.3 122.95 42.95 123.6 44.85" fill="#1d1d1d" fill-rule="evenodd" stroke="none"/>
    </g>
  </defs>
</svg>
