<?xml version="1.0" encoding="UTF-8" standalone="no"?>
<svg xmlns:ffdec="https://www.free-decompiler.com/flash" xmlns:xlink="http://www.w3.org/1999/xlink" ffdec:objectType="frame" height="247.95px" width="247.2px" xmlns="http://www.w3.org/2000/svg">
  <g transform="matrix(1.0, 0.0, 0.0, 1.0, 125.65, 165.35)">
    <use ffdec:characterId="467" height="98.7" transform="matrix(1.0807, 0.1655, -0.1588, 1.0372, -82.0, -70.25)" width="129.45" xlink:href="#sprite0"/>
  </g>
  <defs>
    <g id="sprite0">
      <use ffdec:characterId="466" height="98.7" transform="matrix(1.0, 0.0, 0.0, 1.0, 0.0, 0.0)" width="129.45" xlink:href="#shape0"/>
    </g>
    <g id="shape0">
      <path d="M36.35 92.3 L36.85 91.4 Q37.3 90.65 40.6 89.65 44.0 88.6 44.9 87.35 46.0 85.85 36.4 84.45 L17.85 82.45 Q32.15 89.65 36.35 92.3 M129.4 53.75 Q130.65 56.45 131.05 59.15 L131.65 63.15 Q126.85 62.15 119.65 61.9 105.3 61.4 93.3 65.2 81.2 69.0 68.75 78.45 64.75 81.45 59.4 86.05 L51.95 92.4 Q46.5 96.85 39.1 99.6 L34.55 101.05 32.8 101.5 35.7 93.9 26.55 93.4 17.0 92.4 Q13.35 92.0 11.95 89.8 10.8 87.9 11.65 85.35 12.3 83.35 14.3 82.05 9.15 81.0 7.55 77.95 5.95 75.0 8.25 71.55 9.0 70.5 10.85 69.75 L12.65 69.2 Q10.0 69.15 7.4 68.4 2.15 66.9 2.2 63.5 2.3 59.05 4.85 58.15 6.35 57.55 7.6 58.15 L4.35 55.45 Q1.6 52.55 2.55 50.4 3.8 47.65 6.35 47.1 L8.6 47.05 Q6.2 46.1 4.5 44.3 1.15 40.75 4.55 36.6 6.4 34.4 10.7 34.45 L14.65 34.95 Q11.9 34.1 9.75 32.4 5.5 29.0 8.6 24.85 10.6 22.2 14.85 21.75 16.95 21.5 18.7 21.8 17.45 21.2 16.75 20.05 15.4 17.65 18.0 14.75 19.25 13.45 23.8 13.45 L28.1 13.75 Q26.7 13.15 25.95 12.05 24.4 9.9 27.45 7.7 29.9 5.9 34.6 6.3 37.0 6.5 38.85 7.05 38.4 6.5 38.3 5.8 38.1 4.45 39.85 3.65 43.0 2.3 51.05 3.15 59.65 4.1 69.65 7.25 81.05 10.9 91.15 16.5 102.8 22.95 111.1 31.25 125.6 45.75 129.4 53.75" fill="#000000" fill-rule="evenodd" stroke="none"/>
      <path d="M30.15 81.75 L30.8 81.3 35.85 92.4 Q31.25 92.85 26.55 92.45 17.15 91.65 16.65 87.35 16.25 83.7 19.35 82.0 22.1 80.45 25.75 81.3 28.9 82.1 30.15 81.75 M93.3 32.9 Q91.7 33.85 86.15 34.95 L79.2 35.95 Q77.9 35.95 67.5 41.35 L52.95 49.05 Q49.6 50.85 47.3 63.4 L45.65 73.45 Q44.7 78.95 43.9 81.3 44.1 80.3 36.45 80.7 L28.75 81.3 16.65 79.3 Q12.8 78.6 12.15 76.95 11.55 75.35 13.65 72.25 15.35 69.7 15.65 68.7 L15.65 68.2 Q8.25 66.75 7.6 66.2 4.35 63.5 4.05 62.85 3.55 61.7 6.6 61.15 10.15 60.55 11.25 58.75 L11.65 57.6 11.65 57.1 7.6 53.1 5.6 50.55 Q5.35 49.7 7.6 49.05 9.7 48.45 11.4 47.65 L12.65 47.05 Q12.4 47.1 11.65 46.65 10.15 45.7 7.6 43.0 6.3 41.65 7.0 40.15 7.8 38.45 10.6 37.95 13.15 37.55 15.65 36.2 L17.7 34.95 12.65 29.9 Q10.4 27.65 10.75 26.5 11.1 25.35 13.65 25.85 L18.55 25.15 Q22.55 24.25 22.7 23.85 22.1 20.9 22.4 18.4 23.05 13.4 27.75 15.75 30.6 17.2 32.5 16.15 33.45 15.6 33.8 14.75 L34.3 14.9 Q34.3 14.65 31.8 12.75 29.4 10.95 30.1 10.8 L31.55 10.7 33.85 10.55 42.0 9.45 46.9 8.7 Q46.1 8.55 45.3 8.1 43.7 7.15 43.9 5.7 44.15 3.9 51.6 4.8 59.2 5.75 67.1 8.7 71.05 10.2 79.05 14.15 L86.25 17.8 104.4 29.9 99.75 30.9 Q94.8 32.1 93.3 32.9" fill="#fbfbfb" fill-rule="evenodd" stroke="none"/>
      <path d="M19.7 81.3 L23.85 81.4 Q23.6 81.8 20.7 83.35 16.9 85.35 18.45 88.6 19.2 90.2 20.7 91.4 L16.5 91.0 Q12.3 90.1 12.65 87.35 12.95 84.6 14.75 83.15 16.4 81.8 19.7 81.3 M46.9 6.7 Q46.05 8.25 46.35 9.05 46.55 9.6 47.25 9.7 L42.6 10.0 Q38.95 10.5 36.85 11.75 34.3 13.2 36.35 15.15 L38.85 16.8 34.2 16.65 Q29.05 16.9 26.75 18.8 24.45 20.7 26.4 22.45 27.35 23.35 28.75 23.85 26.75 24.0 24.5 24.75 19.95 26.15 18.7 28.9 17.45 31.6 20.45 34.05 21.95 35.25 23.75 35.95 22.05 36.2 20.1 36.95 16.15 38.45 14.65 41.0 13.2 43.5 16.3 45.5 17.85 46.55 19.7 47.05 14.95 47.75 13.25 48.65 10.65 50.0 10.6 53.1 10.6 55.2 14.65 56.7 16.65 57.45 18.7 57.8 16.35 57.75 13.9 58.4 9.0 59.7 8.6 63.15 8.3 65.5 13.5 67.1 L18.7 68.2 18.25 68.3 Q17.75 68.5 17.2 68.9 15.55 70.2 14.65 73.25 13.55 76.95 15.55 78.4 16.3 78.95 17.8 79.45 L20.7 80.3 21.55 80.8 15.65 80.3 Q10.65 79.55 9.3 77.9 8.05 76.3 9.6 73.25 10.4 71.75 12.9 70.35 L15.35 69.2 8.6 67.2 Q3.7 65.75 3.7 64.0 3.65 62.85 6.6 60.15 9.0 57.9 10.1 57.6 L10.95 58.15 10.9 57.75 Q10.7 57.4 10.1 57.6 6.15 55.0 4.55 53.1 3.15 51.45 4.05 50.55 4.7 49.9 7.6 49.05 L14.65 47.05 12.75 46.6 Q10.35 45.8 7.6 44.0 4.05 41.75 4.7 39.5 5.3 37.5 8.6 36.95 L19.7 34.95 16.8 34.55 Q13.55 33.8 11.65 31.9 9.35 29.6 9.1 28.15 8.85 26.6 10.6 24.85 12.1 23.4 18.05 22.95 21.05 22.75 23.75 22.85 21.65 22.2 19.85 21.15 16.3 19.05 17.85 17.0 18.9 15.55 20.95 15.1 L27.75 14.75 32.65 15.3 Q31.15 14.6 28.75 12.75 27.35 11.65 27.1 11.0 26.85 10.4 27.6 10.0 28.05 9.7 29.65 9.15 L32.45 8.05 Q34.25 7.2 44.75 8.35 L42.4 7.65 Q40.85 6.95 40.85 5.7 40.85 4.35 44.15 4.15 L52.1 4.75 Q47.95 4.85 46.9 6.7" fill="#5b0895" fill-rule="evenodd" stroke="none"/>
      <path d="M19.7 81.3 Q20.05 81.55 19.55 81.45 L19.7 81.3 M15.65 69.2 L9.85 68.2 Q3.95 66.65 3.55 64.2 3.0 60.65 5.6 59.1 7.3 58.1 10.15 58.1 8.7 58.5 7.65 59.35 6.1 60.45 5.6 62.15 4.7 65.05 9.25 67.1 11.55 68.1 14.0 68.55 L14.4 68.75 16.35 68.9 Q14.6 69.8 13.25 71.35 11.9 72.9 11.4 74.55 10.25 78.55 14.65 80.0 L19.55 81.45 19.05 81.8 16.35 81.3 Q10.35 80.2 8.65 77.0 7.95 75.65 8.15 74.25 8.35 72.95 9.3 71.9 10.25 70.85 13.05 69.9 L15.65 69.2 M12.65 25.85 Q10.75 28.4 14.35 32.25 16.15 34.2 18.35 35.6 16.15 35.9 13.85 36.6 9.25 38.0 8.6 40.0 8.0 42.0 10.5 44.95 11.75 46.45 13.15 47.55 11.7 47.75 10.15 48.3 7.0 49.35 6.6 51.05 5.95 53.55 8.55 55.9 9.85 57.1 11.3 57.8 L10.95 57.85 Q7.95 56.6 5.95 55.2 2.7 52.95 3.55 51.05 4.8 48.35 7.85 47.4 L10.6 47.05 Q8.05 45.8 6.2 44.05 2.45 40.6 5.9 37.95 8.65 35.9 12.95 35.2 L16.65 34.95 Q13.75 34.0 11.5 32.25 6.95 28.85 10.1 24.85 12.2 22.3 18.15 22.15 L23.7 22.5 19.35 22.65 Q14.55 23.35 12.65 25.85 M40.85 7.7 Q39.8 6.95 39.5 6.1 38.9 4.35 42.9 4.0 L44.15 3.95 Q42.45 4.9 42.2 5.7 41.85 6.8 42.35 7.55 L42.9 8.05 38.95 7.7 Q34.5 7.65 32.05 9.15 29.45 10.65 30.6 13.1 31.15 14.3 32.3 15.25 29.8 15.1 27.05 15.3 21.65 15.75 20.7 17.8 19.6 20.25 21.35 21.45 22.3 22.1 23.75 22.5 L23.7 22.5 Q21.05 21.7 19.2 20.5 15.45 18.0 18.7 15.45 19.6 14.75 25.45 14.7 28.4 14.65 31.1 14.75 29.5 14.05 28.3 12.9 25.95 10.65 28.25 8.7 30.3 7.0 35.8 7.2 L40.85 7.7" fill="#8f3cc8" fill-rule="evenodd" stroke="none"/>
      <path d="M61.0 12.95 L66.0 13.75 64.9 13.15 Q63.85 12.35 63.05 10.75 62.2 9.1 63.55 8.25 64.25 7.8 65.05 7.7 80.3 11.05 98.9 24.85 108.25 31.75 114.5 37.95 L108.35 40.1 Q101.85 42.2 100.15 42.0 98.25 41.75 90.6 44.2 84.3 46.2 76.4 49.25 70.85 51.4 54.8 67.1 46.75 74.95 39.85 82.35 L37.85 82.15 37.85 92.4 Q33.7 93.0 29.85 92.5 22.15 91.55 23.75 86.35 25.0 82.1 28.2 81.3 26.45 81.1 24.95 80.1 22.6 78.55 21.7 75.25 21.05 72.9 23.85 70.85 24.7 70.2 25.8 69.65 L26.75 69.2 Q25.25 69.35 23.75 68.65 20.7 67.3 20.7 63.15 20.7 60.8 25.25 59.2 27.5 58.45 29.8 58.15 L25.15 56.7 Q20.65 54.8 21.4 52.4 22.5 48.7 26.75 48.0 28.9 47.65 30.8 48.05 L28.65 46.3 Q26.7 44.15 27.75 42.0 29.7 38.0 34.5 37.6 L38.85 37.95 Q36.55 37.2 34.6 35.8 30.75 33.05 32.8 29.9 34.8 26.85 39.55 26.05 L43.9 25.85 44.6 26.0 45.9 25.85 Q40.1 20.65 48.0 19.7 51.9 19.25 57.0 19.8 55.4 18.8 54.2 17.55 51.85 15.05 54.0 13.75 56.05 12.5 61.0 12.95" fill="#ba3506" fill-rule="evenodd" stroke="none"/>
      <path d="M119.5 43.3 L122.9 47.7 109.45 47.05 Q107.6 46.8 100.1 49.2 93.9 51.15 86.25 54.1 80.8 56.2 63.8 69.45 55.35 76.1 47.95 82.35 L36.85 92.4 34.0 92.75 Q30.8 92.8 28.75 91.4 27.9 90.8 27.5 89.25 27.1 87.65 27.45 86.0 28.4 81.7 33.15 81.3 36.6 81.0 41.25 81.4 L35.85 80.65 32.65 79.9 Q29.65 78.65 29.9 76.35 29.55 73.8 31.65 71.55 33.55 69.55 35.5 69.35 34.55 69.4 33.65 68.65 31.8 67.15 31.8 63.15 31.8 60.85 36.35 59.6 L40.85 58.8 40.15 58.25 38.4 57.2 Q35.8 55.5 35.85 53.4 35.85 49.65 39.9 48.95 L43.9 49.05 Q42.45 48.6 41.05 47.7 38.35 46.0 38.85 44.0 39.6 40.95 44.5 40.15 L49.3 40.0 49.95 40.0 48.2 36.75 Q46.8 33.15 48.25 31.55 50.6 29.0 55.8 28.95 L59.5 29.1 62.05 28.9 58.4 26.85 Q56.65 25.4 58.0 23.85 60.1 21.4 65.8 22.4 68.7 22.9 71.1 23.85 69.8 22.85 68.85 21.55 67.0 19.05 69.1 17.8 70.75 16.8 74.05 17.2 76.25 17.5 78.85 18.35 77.55 17.75 76.15 16.8 74.7 15.75 75.65 13.65 L76.4 12.3 76.85 11.75 Q94.5 17.3 110.35 33.05 115.2 37.85 119.5 43.3" fill="#efb732" fill-rule="evenodd" stroke="none"/>
      <path d="M97.0 22.5 L97.15 22.4 100.35 24.2 97.0 22.5 M88.0 17.7 L90.3 17.8 91.55 18.3 Q93.1 19.0 94.3 19.8 97.35 21.9 97.15 22.4 91.6 19.45 89.9 19.4 87.55 19.3 89.25 21.75 90.6 23.65 92.3 24.85 L87.0 23.7 80.2 22.85 Q77.2 23.3 79.9 26.15 L83.1 28.8 Q82.35 28.4 78.6 27.9 74.05 27.25 72.15 27.9 69.5 28.75 72.05 31.95 73.35 33.5 75.15 34.95 L69.05 34.25 Q62.65 33.95 61.05 35.95 59.75 37.5 62.3 40.9 63.55 42.65 65.05 44.0 L59.0 43.25 Q52.9 42.95 51.95 45.0 50.9 47.4 52.8 50.0 L54.2 51.5 54.95 52.1 48.4 52.5 Q43.15 54.1 49.95 60.15 38.6 61.15 39.6 65.8 40.1 68.1 42.9 70.25 L41.95 70.5 Q40.75 70.9 39.75 71.4 36.45 73.0 35.85 75.25 35.55 76.25 37.1 78.15 L40.4 81.3 40.85 81.3 40.5 81.45 42.9 83.35 38.35 82.45 Q34.65 84.5 33.8 87.35 33.3 89.25 35.0 91.55 35.85 92.65 36.85 93.4 35.0 93.1 33.35 92.2 30.0 90.4 30.8 87.35 31.6 84.15 33.3 82.55 34.55 81.3 35.85 81.3 L36.1 81.3 Q34.55 80.25 33.7 78.95 32.55 77.2 32.8 75.25 33.15 72.65 37.25 71.05 L39.6 70.3 Q40.4 70.05 39.85 69.9 38.45 69.6 37.45 67.7 36.4 65.85 36.85 64.2 37.45 61.9 40.2 60.75 41.95 60.05 46.9 59.15 44.45 57.35 43.7 55.65 43.0 54.1 43.85 52.9 44.6 51.7 46.5 51.2 L50.9 51.05 Q48.5 50.7 48.25 48.05 48.05 45.5 49.95 43.0 50.9 41.75 55.7 41.85 L58.6 41.95 Q59.8 41.9 59.55 41.5 L58.45 40.5 57.25 39.1 Q56.15 37.0 59.0 33.95 60.7 32.15 65.8 32.55 L68.65 32.7 Q69.65 32.65 69.1 31.9 67.65 29.95 67.7 28.85 67.7 27.3 70.1 25.85 71.35 25.1 75.35 25.95 L79.2 26.85 78.25 25.35 77.2 23.8 Q76.15 22.0 77.95 21.2 79.95 20.3 83.25 20.7 85.85 20.95 87.15 21.6 L87.25 21.8 Q87.65 21.8 87.15 21.6 85.9 18.3 88.0 17.7" fill="#9e2900" fill-rule="evenodd" stroke="none"/>
      <path d="M43.7 82.4 Q46.6 82.65 48.95 83.35 48.4 84.85 44.85 88.05 40.5 91.9 36.85 92.4 35.95 92.55 34.95 91.7 34.05 90.9 33.5 89.6 32.25 86.4 34.8 84.35 37.85 81.95 43.7 82.4 M115.65 38.1 Q120.85 43.75 124.55 50.05 L106.1 52.05 Q85.9 55.0 77.2 60.15 69.8 64.5 58.65 73.85 53.05 78.55 48.95 82.35 47.5 82.4 46.0 81.55 42.9 79.95 42.9 76.3 42.85 73.05 47.9 72.35 50.45 71.95 52.95 72.25 L50.25 70.3 Q47.75 67.75 48.95 65.2 49.9 63.15 55.95 63.05 L61.05 63.15 57.85 61.15 Q54.9 58.6 56.0 56.1 56.9 54.05 61.65 54.4 L66.1 55.1 Q59.6 48.95 66.7 48.4 L75.15 49.05 Q73.95 47.5 73.4 45.6 72.2 41.8 75.15 40.0 77.25 38.7 82.95 40.7 85.85 41.7 88.25 43.0 L85.65 39.8 Q83.4 36.3 85.25 34.95 87.3 33.4 92.0 35.55 94.4 36.6 96.35 37.95 94.75 35.95 93.7 33.95 91.6 29.9 94.3 29.9 97.05 29.9 101.0 32.4 L104.4 34.95 Q103.15 33.4 102.25 31.8 100.5 28.5 102.4 27.9 104.3 27.25 107.1 29.6 L110.45 32.9 112.25 34.6 115.65 38.1" fill="#ffffff" fill-rule="evenodd" stroke="none"/>
      <path d="M113.5 45.0 Q112.6 43.65 112.3 42.25 111.7 39.35 114.5 38.95 117.25 38.6 122.2 46.3 124.65 50.15 126.6 54.1 L105.4 55.1 Q86.95 56.4 69.7 67.55 60.25 73.7 51.95 82.35 48.4 86.1 43.1 89.45 L38.5 92.1 38.15 91.75 Q37.75 91.35 37.6 90.75 L41.4 89.4 Q44.05 88.55 44.9 87.35 45.75 86.2 40.15 85.05 42.15 83.95 45.55 83.5 L48.6 83.35 Q48.25 82.6 48.2 81.3 48.2 78.8 49.95 76.3 51.7 73.75 55.55 73.75 57.45 73.75 59.0 74.25 58.1 73.4 57.55 72.1 56.35 69.5 58.05 67.4 59.6 65.4 64.05 65.6 L68.1 66.2 Q66.9 65.05 66.1 63.6 64.4 60.65 66.1 59.15 67.6 57.75 71.55 58.3 L75.15 59.15 Q73.95 58.55 73.2 57.6 71.75 55.75 74.15 54.1 76.55 52.45 81.65 54.15 84.2 54.95 86.25 56.1 85.45 55.05 85.2 53.65 84.6 50.85 87.25 49.05 89.9 47.3 94.9 50.0 97.4 51.35 99.35 53.1 97.85 51.45 96.8 49.55 94.75 45.75 97.3 44.35 99.05 43.35 102.4 45.6 L105.4 48.05 Q104.95 46.8 104.85 45.45 104.65 42.7 106.4 42.0 108.3 41.25 111.1 43.05 112.45 43.95 113.5 45.0" fill="#d1c6c6" fill-rule="evenodd" stroke="none"/>
      <path d="M46.55 82.0 L51.95 83.35 50.95 84.35 44.8 82.75 Q37.5 81.2 31.8 81.3 L19.4 81.9 15.0 82.35 15.35 81.3 22.95 80.65 Q31.45 80.05 35.85 80.3 40.25 80.6 46.55 82.0 M13.35 68.9 L24.3 68.35 Q38.9 68.75 57.0 73.25 L64.15 75.0 70.95 76.8 68.85 78.35 Q62.45 75.85 56.0 74.25 39.7 70.35 24.5 69.85 16.9 69.55 12.55 70.1 L13.35 68.9 M7.95 58.45 L8.6 57.45 Q16.05 57.3 24.95 57.45 42.8 57.75 50.25 59.25 58.25 60.85 65.4 63.8 72.6 66.75 79.5 71.25 L78.0 72.2 Q63.1 62.4 48.5 60.65 31.85 58.7 18.2 58.4 11.4 58.25 7.95 58.45 M105.2 59.3 Q105.3 59.95 103.9 59.15 L102.9 59.25 Q98.4 53.1 90.6 46.25 75.0 32.6 58.6 29.1 42.2 25.65 28.3 23.55 L17.7 22.15 19.7 21.8 35.7 23.55 Q53.2 25.7 60.45 27.9 71.05 31.0 80.1 36.55 89.15 42.05 97.8 50.75 105.05 58.0 105.2 59.3 M87.05 67.55 L85.35 68.3 Q78.05 62.25 70.4 58.2 60.65 53.0 50.95 51.45 36.05 49.05 22.65 48.05 L9.3 47.4 8.85 47.15 9.6 46.35 26.75 47.15 Q45.4 48.3 52.8 50.1 62.3 52.45 70.65 56.65 79.0 60.9 87.05 67.55 M57.45 41.0 Q68.85 44.35 77.85 49.3 88.1 54.95 96.35 63.15 L97.25 64.1 94.1 64.95 Q90.2 59.75 83.4 54.7 71.05 45.5 55.6 42.25 40.3 39.0 27.05 36.95 L14.65 35.3 14.4 35.15 15.0 34.25 31.85 36.35 Q50.15 38.85 57.45 41.0 M114.1 56.85 Q114.15 57.5 112.8 56.6 L111.8 56.65 Q107.7 50.3 100.3 43.0 85.55 28.4 69.4 23.95 53.1 19.45 37.9 16.5 27.9 14.6 25.4 14.45 L27.55 14.35 28.75 14.75 27.55 14.35 29.4 14.3 46.05 17.0 Q64.15 20.25 71.35 22.8 81.7 26.55 90.4 32.6 99.1 38.7 107.25 47.85 114.0 55.5 114.1 56.85 M121.3 55.05 Q121.55 56.05 120.55 55.45 L118.85 54.75 Q115.05 47.95 108.05 40.05 94.05 24.25 78.2 18.8 62.3 13.4 48.5 9.65 L37.85 7.05 40.2 7.05 56.0 10.6 Q73.2 14.8 80.2 17.8 90.35 22.2 98.65 28.75 106.95 35.35 114.5 45.0 120.8 53.1 121.3 55.05" fill="#000000" fill-rule="evenodd" stroke="none"/>
      <path d="M63.05 75.25 Q63.9 75.25 64.5 75.85 65.05 76.45 65.05 77.3 65.05 78.15 64.5 78.7 63.9 79.3 63.05 79.3 62.2 79.3 61.65 78.7 61.05 78.15 61.05 77.3 61.05 76.45 61.65 75.85 62.2 75.25 63.05 75.25 M41.4 92.4 Q42.0 92.4 42.45 92.85 42.9 93.3 42.9 93.95 42.9 94.55 42.45 95.0 L41.4 95.45 Q40.75 95.45 40.3 95.0 39.85 94.55 39.85 93.95 39.85 93.3 40.3 92.85 40.75 92.4 41.4 92.4 M52.45 84.35 Q53.1 84.35 53.55 84.8 54.0 85.25 54.0 85.85 L53.55 86.95 Q53.1 87.35 52.45 87.35 51.85 87.35 51.4 86.95 50.95 86.5 50.95 85.85 50.95 85.25 51.4 84.8 51.85 84.35 52.45 84.35 M106.4 56.1 Q107.25 56.1 107.85 56.7 108.45 57.3 108.45 58.15 108.45 58.95 107.85 59.55 107.25 60.15 106.4 60.15 105.6 60.15 105.0 59.55 104.4 58.95 104.4 58.15 104.4 57.3 105.0 56.7 105.6 56.1 106.4 56.1 M91.3 59.15 Q92.15 59.15 92.7 59.7 93.3 60.35 93.3 61.15 93.3 62.0 92.7 62.6 92.15 63.15 91.3 63.15 90.45 63.15 89.85 62.6 89.3 62.0 89.3 61.15 89.3 60.3 89.85 59.7 90.45 59.15 91.3 59.15 M76.15 66.2 Q77.0 66.2 77.6 66.8 78.2 67.4 78.2 68.2 78.2 69.05 77.6 69.65 77.0 70.25 76.15 70.25 75.35 70.25 74.75 69.65 74.15 69.05 74.15 68.2 74.15 67.35 74.75 66.8 75.35 66.2 76.15 66.2 M122.55 56.1 Q123.4 56.1 124.0 56.7 124.55 57.3 124.55 58.15 124.55 58.95 124.0 59.55 123.4 60.15 122.55 60.15 121.7 60.15 121.1 59.55 120.55 58.95 120.55 58.15 120.55 57.3 121.1 56.7 121.7 56.1 122.55 56.1" fill="#ffffff" fill-rule="evenodd" stroke="none"/>
      <path d="M44.3 83.95 Q46.75 83.7 48.95 84.0 L47.95 84.95 45.9 87.35 Q45.0 88.65 41.7 90.3 L38.5 91.75 Q37.8 91.7 37.4 91.1 36.5 89.95 37.85 87.35 39.35 84.5 44.3 83.95" fill="#d1c6c6" fill-rule="evenodd" stroke="none"/>
    </g>
  </defs>
</svg>
