<?xml version="1.0" encoding="UTF-8" standalone="no"?>
<svg xmlns:ffdec="https://www.free-decompiler.com/flash" xmlns:xlink="http://www.w3.org/1999/xlink" ffdec:objectType="frame" height="247.95px" width="247.2px" xmlns="http://www.w3.org/2000/svg">
  <g transform="matrix(1.0, 0.0, 0.0, 1.0, 125.65, 165.35)">
    <use ffdec:characterId="286" height="34.9" transform="matrix(1.9054, -0.1991, 0.1991, 1.9054, 0.95, -10.1)" width="108.1" xlink:href="#sprite0"/>
  </g>
  <defs>
    <g id="sprite0">
      <use ffdec:characterId="285" height="34.9" transform="matrix(1.0, 0.0, 0.0, 1.0, 0.0, 0.0)" width="108.1" xlink:href="#shape0"/>
    </g>
    <g id="shape0">
      <path d="M43.35 2.45 Q49.4 4.05 52.25 6.8 55.2 9.65 53.25 12.7 43.6 21.3 21.15 15.6 14.0 13.75 4.5 10.25 -6.65 6.0 -6.85 5.9 L4.1 5.3 6.3 4.8 8.3 5.7 Q2.75 7.8 5.85 7.4 L10.05 6.55 8.3 5.7 14.85 3.4 Q21.75 1.05 29.75 0.85 37.05 0.75 43.35 2.45" fill="#000000" fill-rule="evenodd" stroke="none"/>
      <path d="M42.25 3.05 Q48.1 4.4 50.8 6.75 53.65 9.25 51.85 11.95 42.6 19.6 21.25 14.55 14.5 12.95 5.45 9.8 L-5.4 6.0 5.1 5.4 7.15 5.0 9.5 6.0 Q3.5 8.05 6.5 7.5 L10.7 6.55 9.5 6.0 15.0 4.2 Q21.6 2.1 29.25 1.85 36.2 1.65 42.25 3.05" fill="#8a6438" fill-rule="evenodd" stroke="none"/>
      <path d="M13.15 -9.2 Q15.55 -3.1 17.65 0.6 21.7 7.6 25.85 8.5 29.9 9.3 27.7 9.5 L24.75 9.55 17.7 11.65 3.5 10.45 -7.6 9.1 -19.75 7.45 Q-31.9 2.05 -28.4 -0.25 -26.15 -1.6 -23.7 -6.15 -22.3 -8.6 -20.55 -12.45 -19.65 -14.2 -17.1 -15.1 L-13.85 -16.0 -10.85 -15.7 Q-8.55 -15.05 -6.05 -13.45 -5.7 -14.1 -2.9 -15.35 -0.2 -16.55 1.9 -17.0 4.05 -17.45 8.0 -14.8 12.05 -12.1 13.15 -9.2" fill="#000000" fill-rule="evenodd" stroke="none"/>
      <path d="M11.45 -8.85 Q14.0 -2.65 16.55 1.45 21.5 9.0 26.3 8.8 33.5 9.85 29.9 11.3 L26.65 12.2 24.8 12.55 17.65 12.55 3.35 10.05 -7.3 8.8 -19.0 7.3 -21.35 6.45 -25.1 4.7 Q-29.9 2.15 -27.75 0.85 -25.65 -0.4 -22.9 -5.1 L-19.5 -11.45 Q-18.65 -13.0 -16.35 -13.85 L-13.3 -14.65 Q-12.4 -14.9 -10.6 -14.15 L-6.2 -11.75 Q-5.85 -12.4 -2.9 -13.85 0.2 -15.3 2.05 -15.75 4.05 -16.1 7.2 -13.8 10.35 -11.5 11.45 -8.85" fill="#8a6438" fill-rule="evenodd" stroke="none"/>
      <path d="M-1.05 -12.75 Q0.0 -12.95 0.7 -13.25 -0.55 -12.55 -2.0 -12.0 L-6.5 -11.9 -7.25 -12.4 -6.2 -11.75 -5.1 -12.65 -1.05 -12.75" fill="#000000" fill-rule="evenodd" stroke="none"/>
      <path d="M-12.8 -12.2 L-14.65 -10.1 -16.9 -5.0 Q-18.85 -0.25 -20.5 2.55 -22.35 5.65 -23.95 5.0 L-25.1 4.15 Q-25.8 3.55 -26.05 3.45 -26.75 3.25 -26.9 2.0 L-26.85 0.2 Q-24.95 -1.5 -22.5 -5.8 L-19.5 -11.45 Q-18.65 -13.0 -16.35 -13.85 L-13.3 -14.65 Q-12.3 -14.9 -10.2 -13.95 -11.45 -13.5 -12.8 -12.2 M44.5 10.2 Q44.9 12.5 40.55 13.35 36.9 14.0 30.55 13.6 L20.05 12.3 Q15.2 11.4 14.6 10.6 L14.45 10.35 Q13.5 9.2 12.6 5.65 L10.95 -1.55 9.05 -9.0 Q7.8 -12.8 6.35 -14.4 L9.4 -11.9 Q10.8 -10.4 11.45 -8.85 14.6 -1.0 17.95 3.35 L18.05 3.35 18.9 5.3 Q19.5 6.35 20.7 7.05 L25.45 6.4 33.25 6.05 Q43.85 6.35 44.5 10.2" fill="#755530" fill-rule="evenodd" stroke="none"/>
      <path d="M18.5 4.15 L21.4 7.0 Q17.7 8.0 10.6 8.65 L-2.95 9.3 -15.8 7.75 Q-17.7 7.05 -18.7 6.25 -19.75 5.45 -19.45 4.85 -18.8 3.4 -11.95 4.3 L5.7 5.0 18.5 4.15" fill="#be9565" fill-rule="evenodd" stroke="none"/>
      <path d="M12.7 13.05 Q5.7 12.1 -6.15 12.55 L-25.25 13.45 Q-38.75 13.9 -45.95 12.25 -57.2 9.6 -52.8 2.0 -48.2 -6.1 -26.25 -1.0 -9.7 2.85 12.7 13.05" fill="#000000" fill-rule="evenodd" stroke="none"/>
      <path d="M9.35 12.0 Q2.8 11.25 -8.25 11.65 L-25.95 12.45 Q-38.5 12.85 -45.15 11.45 -55.65 9.2 -51.55 2.65 -47.2 -4.3 -26.85 0.05 -11.5 3.35 9.35 12.0" fill="#261a0d" fill-rule="evenodd" stroke="none"/>
    </g>
  </defs>
</svg>
