<?xml version="1.0" encoding="UTF-8" standalone="no"?>
<svg xmlns:ffdec="https://www.free-decompiler.com/flash" xmlns:xlink="http://www.w3.org/1999/xlink" ffdec:objectType="frame" height="247.95px" width="247.2px" xmlns="http://www.w3.org/2000/svg">
  <g transform="matrix(1.0, 0.0, 0.0, 1.0, 125.65, 165.35)">
    <use ffdec:characterId="470" height="89.4" transform="matrix(0.9521, -6.0E-4, 7.0E-4, 0.9775, -77.2, -63.8)" width="153.45" xlink:href="#sprite0"/>
  </g>
  <defs>
    <g id="sprite0">
      <use ffdec:characterId="469" height="89.4" transform="matrix(1.0, 0.0, 0.0, 1.0, 0.0, 0.0)" width="153.45" xlink:href="#shape0"/>
    </g>
    <g id="shape0">
      <path d="M116.75 68.35 L121.4 68.3 Q126.9 68.25 131.0 68.35 135.1 68.5 144.7 71.5 L153.45 74.45 Q150.6 77.5 146.5 79.3 142.65 81.0 136.6 82.05 L131.3 82.75 Q129.55 78.2 123.0 72.85 L116.75 68.35" fill="#000000" fill-rule="evenodd" stroke="none"/>
      <path d="M116.75 68.25 L121.05 68.2 Q126.1 68.15 129.9 68.25 133.7 68.35 142.55 71.1 L150.65 73.8 Q148.3 76.45 144.45 77.95 141.1 79.25 135.5 80.1 L130.6 80.7 Q129.0 76.6 122.7 72.0 L116.75 68.25" fill="#140b5d" fill-rule="evenodd" stroke="none"/>
      <path d="M83.15 15.95 Q89.55 20.8 102.0 38.85 108.2 47.9 113.15 55.95 L132.15 62.95 Q142.3 66.95 148.75 71.35 151.95 73.55 153.15 74.95 149.0 73.5 142.55 72.3 129.65 69.85 118.15 70.95 108.9 71.85 84.7 79.4 59.2 87.35 47.55 89.0 33.0 91.1 17.3 82.65 9.6 78.55 6.15 74.95 L21.15 70.95 28.65 69.25 Q32.65 68.35 33.15 66.95 34.5 63.3 34.15 47.95 34.05 43.8 35.6 38.45 L37.15 33.95 Q35.55 35.8 34.15 35.95 33.4 36.05 32.45 36.7 L27.15 39.95 Q23.2 42.2 19.75 42.65 L17.1 42.65 Q20.0 34.15 20.35 28.75 20.95 20.5 24.7 15.1 26.3 12.75 36.85 6.8 46.85 1.2 49.3 0.7 L52.25 0.05 55.15 0.45 Q58.35 1.5 66.3 5.65 76.4 10.9 83.15 15.95" fill="#000000" fill-rule="evenodd" stroke="none"/>
      <path d="M83.55 20.5 Q89.7 25.15 100.75 41.95 106.25 50.4 110.55 57.85 L116.1 60.0 127.15 64.1 Q133.7 66.45 150.45 73.15 145.8 71.45 139.95 70.1 127.3 67.2 116.75 68.25 107.8 69.1 84.25 76.3 59.25 83.9 48.25 85.55 34.3 87.6 21.55 81.95 17.55 80.15 14.2 77.85 L11.6 75.85 13.95 74.9 Q16.85 73.9 19.9 73.8 23.35 73.65 28.7 71.9 33.75 70.2 35.1 68.95 36.25 67.9 36.85 57.95 37.35 49.85 37.2 43.35 37.1 39.35 38.85 35.05 L40.65 31.55 Q39.25 30.7 37.85 30.9 L33.75 33.1 26.1 37.8 Q22.3 39.95 20.75 40.1 L19.9 39.85 21.15 36.65 Q22.45 32.75 22.65 29.5 23.2 21.65 26.8 16.35 28.35 14.1 38.45 8.4 48.05 2.95 50.35 2.5 L52.75 2.35 55.15 3.2 Q57.55 4.0 66.65 9.4 76.85 15.45 83.55 20.5" fill="#352a8b" fill-rule="evenodd" stroke="none"/>
      <path d="M34.4 28.8 L34.6 26.9 Q34.8 25.0 35.8 23.95 37.85 21.7 41.35 19.8 L39.8 22.7 Q38.35 26.05 38.55 28.1 L38.95 30.9 37.85 30.9 Q37.05 31.0 31.8 34.35 30.55 34.8 30.25 35.05 L29.05 36.05 Q27.6 36.95 26.1 37.8 21.8 40.3 20.3 40.15 22.75 37.3 26.1 34.35 27.85 32.8 30.95 31.0 L34.4 28.8 M43.4 26.05 Q46.35 23.95 48.25 23.25 L48.95 23.25 46.4 28.25 Q43.75 34.25 43.4 39.2 L43.0 49.85 42.75 59.2 Q42.6 61.75 43.5 63.7 44.95 65.65 48.95 66.15 53.6 66.8 62.45 65.85 L70.4 64.8 55.45 67.95 57.95 67.55 Q42.85 73.65 36.5 75.15 L29.05 77.0 Q23.75 78.15 20.55 77.95 L13.15 77.1 11.6 75.85 11.65 75.8 16.55 74.15 19.9 73.8 Q23.35 73.65 28.7 71.9 33.75 70.2 35.1 68.95 36.25 67.9 36.85 57.95 37.35 49.85 37.2 43.35 37.1 39.35 38.85 35.05 L40.65 31.55 39.35 31.0 Q42.1 26.95 43.4 26.05" fill="#1e1375" fill-rule="evenodd" stroke="none"/>
      <path d="M74.0 15.35 L73.15 15.65 Q60.7 7.85 55.85 5.95 52.65 4.7 49.7 5.4 47.9 5.85 45.5 7.35 40.7 9.6 36.6 11.8 28.55 16.05 27.5 18.4 25.85 22.05 25.1 24.5 24.05 28.1 24.05 31.55 24.05 33.2 22.75 35.25 L20.8 37.55 Q22.4 33.3 22.65 29.5 23.2 21.65 26.8 16.35 28.35 14.1 38.45 8.4 48.05 2.95 50.35 2.5 L52.75 2.35 55.15 3.2 Q56.8 3.75 62.65 7.05 69.15 10.75 75.2 14.7 L74.0 15.35 M99.45 44.0 Q91.6 31.15 84.0 25.25 81.6 23.4 79.6 22.45 L78.0 21.9 86.3 23.25 87.65 24.7 90.45 28.1 93.3 31.25 Q101.85 42.7 110.55 57.85 L116.1 60.0 127.15 64.1 Q132.8 66.15 146.35 71.5 L145.25 71.5 Q129.7 67.0 116.75 68.25 107.8 69.1 84.25 76.3 59.25 83.9 48.25 85.55 34.3 87.6 21.55 81.95 17.55 80.15 14.2 77.85 L11.6 75.85 13.45 75.05 Q16.9 78.65 24.05 80.7 36.1 84.2 54.5 81.4 64.05 79.95 76.95 75.9 L93.9 70.3 Q102.05 67.9 123.0 64.8 123.85 64.8 107.65 58.0 L106.4 57.85 106.15 57.35 105.7 57.15 106.05 57.15 99.45 44.0" fill="#7d75b6" fill-rule="evenodd" stroke="none"/>
      <path d="M5.35 41.25 L13.15 42.95 19.9 40.55 21.15 47.95 27.15 51.95 21.15 55.95 16.4 66.15 10.15 57.95 5.55 57.9 Q0.8 57.85 0.15 57.95 -0.9 58.2 5.15 49.95 L5.35 41.25" fill="#0d0d0d" fill-rule="evenodd" stroke="none"/>
      <path d="M7.45 43.35 L12.95 46.1 18.5 43.35 18.5 48.85 24.05 52.35 18.5 55.1 16.4 62.7 11.6 55.8 3.3 56.5 Q2.4 56.65 8.1 50.95 L7.45 43.35" fill="#fee224" fill-rule="evenodd" stroke="none"/>
      <path d="M17.1 45.4 Q16.55 45.3 14.7 46.75 L12.95 48.2 Q10.35 46.1 9.5 46.1 9.15 46.1 9.6 48.35 10.05 50.9 9.5 51.65 8.95 52.35 3.9 55.45 L8.1 50.95 7.45 43.35 12.95 46.1 18.5 43.35 18.5 48.85 24.05 52.35 18.5 55.1 16.4 62.7 16.1 62.25 16.4 60.65 16.95 56.25 17.1 53.7 Q21.6 53.7 20.55 52.35 19.95 51.5 18.1 50.45 L16.4 49.55 Q18.0 45.6 17.1 45.4" fill="#fff8c8" fill-rule="evenodd" stroke="none"/>
      <path d="M16.4 62.7 L11.6 55.8 3.3 56.5 Q2.9 56.55 3.95 55.35 L7.45 55.1 12.95 54.4 13.45 56.4 Q14.35 59.15 16.4 62.7" fill="#e1a821" fill-rule="evenodd" stroke="none"/>
      <path d="M46.2 47.5 L48.25 41.25 50.3 43.2 Q52.45 45.2 53.1 45.4 L60.0 44.7 57.25 51.65 62.1 57.15 52.4 56.5 45.5 62.7 Q46.35 56.15 45.5 55.1 L42.75 52.65 40.65 50.95 46.2 47.5 M52.4 2.5 Q52.75 3.2 52.4 6.65 L57.25 8.75 54.55 9.8 Q51.85 10.95 51.7 11.5 51.55 12.35 50.25 14.45 48.8 16.7 48.25 16.35 47.85 16.1 47.25 13.75 46.65 11.5 46.2 11.5 L41.35 10.8 44.8 8.05 44.1 4.6 44.1 3.9 48.25 5.25 Q52.05 1.8 52.4 2.5 M84.95 51.65 L91.15 50.95 93.9 46.1 96.0 51.65 102.9 52.35 98.75 56.5 99.45 59.25 Q95.15 58.9 93.9 59.25 L89.65 59.4 86.3 59.25 Q87.5 57.35 87.7 56.5 87.85 55.6 84.95 51.65 M85.6 22.55 L82.3 23.05 Q78.9 23.65 78.7 23.95 73.15 31.2 71.8 30.9 71.05 30.7 70.25 26.6 69.5 22.55 69.0 22.55 68.2 22.55 66.2 21.45 64.15 20.3 64.15 19.8 64.15 19.45 67.3 18.15 70.4 16.8 70.4 16.35 L69.7 10.1 76.6 14.95 Q80.1 17.4 85.6 22.55" fill="#fee224" fill-rule="evenodd" stroke="none"/>
      <path d="M42.05 26.7 Q44.25 25.7 45.5 26.05 L38.55 32.95 39.05 31.7 37.85 28.1 Q37.45 26.6 39.0 24.45 L40.65 22.55 Q41.15 25.15 39.95 26.7 39.0 27.9 39.15 31.25 L39.25 30.9 Q39.35 29.8 40.25 28.45 41.15 27.1 42.05 26.7 M94.8 58.8 L112.6 57.15 114.0 59.25 98.0 61.25 Q80.95 63.75 71.1 66.85 59.25 70.55 44.7 70.45 L30.25 69.65 Q29.8 69.3 31.7 68.4 L33.7 67.55 45.25 67.85 Q59.05 67.45 70.4 64.1 86.05 59.5 94.8 58.8" fill="#0d0d0d" fill-rule="evenodd" stroke="none"/>
    </g>
  </defs>
</svg>
