<?xml version="1.0" encoding="UTF-8" standalone="no"?>
<svg xmlns:ffdec="https://www.free-decompiler.com/flash" xmlns:xlink="http://www.w3.org/1999/xlink" ffdec:objectType="frame" height="247.95px" width="247.2px" xmlns="http://www.w3.org/2000/svg">
  <g transform="matrix(1.0, 0.0, 0.0, 1.0, 125.65, 165.35)">
    <use ffdec:characterId="474" height="80.05" transform="matrix(1.082, 0.0, 0.0, 1.0193, -65.2, -15.35)" width="100.7" xlink:href="#sprite0"/>
  </g>
  <defs>
    <g id="sprite0">
      <use ffdec:characterId="473" height="80.05" transform="matrix(1.0, 0.0, 0.0, 1.0, 0.0, 0.0)" width="100.7" xlink:href="#shape0"/>
    </g>
    <g id="shape0">
      <path d="M16.15 36.25 L22.9 36.05 Q29.45 36.15 28.25 37.55 27.15 38.85 26.9 41.3 L26.9 43.45 Q14.6 42.45 14.8 41.5 L16.15 36.25" fill="#000000" fill-rule="evenodd" stroke="none"/>
      <path d="M17.5 36.25 L22.05 36.55 Q26.4 37.1 25.55 38.2 24.7 39.35 24.7 41.2 L24.9 42.8 Q16.65 42.3 16.8 41.5 L17.5 36.25" fill="#424242" fill-rule="evenodd" stroke="none"/>
      <path d="M96.7 13.4 Q99.7 17.05 100.5 21.85 101.25 26.55 98.9 24.4 87.9 14.3 79.4 12.6 72.95 11.25 65.9 11.9 58.75 12.55 51.8 15.2 43.85 18.25 36.25 28.1 32.4 33.1 29.6 38.2 L21.9 38.65 14.8 38.2 Q14.25 32.15 17.2 26.35 19.1 22.65 24.2 16.5 28.9 10.9 38.2 6.35 49.45 0.85 61.9 0.1 73.95 -0.65 84.5 4.4 92.4 8.15 96.7 13.4" fill="#000000" fill-rule="evenodd" stroke="none"/>
      <path d="M94.85 13.9 Q97.8 17.5 99.15 21.0 100.45 24.45 98.2 22.45 95.1 19.55 90.1 16.5 83.35 12.35 78.05 11.25 64.2 8.45 51.8 13.25 44.1 16.25 35.1 27.3 32.05 31.05 29.8 34.55 27.8 37.7 28.25 37.55 L16.15 36.9 Q15.7 32.05 18.75 26.6 20.65 23.1 25.55 17.2 30.0 11.85 39.35 7.3 50.5 1.9 62.4 1.2 73.9 0.5 83.6 5.3 90.65 8.8 94.85 13.9" fill="#424242" fill-rule="evenodd" stroke="none"/>
      <path d="M19.95 25.85 Q18.1 28.7 17.15 31.5 20.15 34.6 24.2 32.95 25.55 32.4 26.8 30.75 L29.1 26.95 19.95 25.85 M28.0 16.75 L26.55 18.05 33.95 19.1 35.15 17.7 28.0 16.75 M25.3 19.3 L23.55 21.1 31.8 22.2 33.0 20.35 25.3 19.3 M22.75 22.1 L21.3 23.9 30.15 25.05 31.0 23.5 22.75 22.1 M90.8 12.6 L94.65 15.25 Q88.05 8.2 84.1 6.0 79.75 3.65 73.2 2.8 66.15 1.85 57.2 2.75 43.25 4.1 29.75 15.25 L37.15 15.7 37.7 15.2 Q42.95 10.7 52.2 7.75 62.25 4.55 70.65 5.35 78.45 6.1 83.75 8.35 87.05 9.75 90.8 12.6 M94.85 13.9 Q96.55 16.0 97.7 18.05 L97.65 18.15 Q98.9 20.55 98.9 21.1 L98.45 22.6 98.2 22.45 Q95.1 19.55 90.1 16.5 83.35 12.35 78.05 11.25 64.2 8.45 51.8 13.25 47.8 14.8 42.95 18.95 40.2 20.35 39.7 21.1 L36.9 25.15 32.2 31.05 30.95 32.3 Q30.15 33.0 29.05 35.45 28.35 37.0 26.25 36.9 L22.15 36.95 19.5 36.9 Q18.45 36.7 17.55 36.1 L16.8 35.55 Q16.8 35.9 16.15 34.9 L16.1 34.85 Q16.35 30.55 19.25 25.7 21.15 22.55 25.55 17.2 30.0 11.85 39.35 7.3 50.5 1.9 62.4 1.2 73.9 0.5 83.6 5.3 90.65 8.8 94.85 13.9" fill="#626161" fill-rule="evenodd" stroke="none"/>
      <path d="M91.45 14.75 Q95.25 17.2 97.55 19.15 98.0 19.55 98.55 19.65 99.55 21.8 99.5 22.65 99.45 23.6 98.2 22.45 95.1 19.55 90.1 16.5 83.35 12.35 78.05 11.25 64.2 8.45 51.8 13.25 44.1 16.25 35.1 27.3 32.05 31.05 29.8 34.55 27.8 37.7 28.25 37.55 L16.15 36.9 16.2 33.75 Q18.9 35.15 21.55 34.9 25.25 34.6 27.2 32.8 L28.95 30.3 Q30.6 26.15 33.7 22.0 39.75 13.75 49.0 10.6 67.55 4.15 79.4 8.65 85.3 10.85 91.45 14.75" fill="#232323" fill-rule="evenodd" stroke="none"/>
      <path d="M26.3 22.55 Q31.45 23.2 32.3 23.75 33.3 24.4 35.0 28.35 L33.65 30.3 32.5 28.25 Q31.4 26.1 31.6 25.7 31.8 25.4 31.3 25.4 L28.95 25.05 23.35 24.15 19.5 23.75 Q19.0 23.25 20.2 22.45 21.0 21.85 26.3 22.55 M29.4 18.7 L23.55 18.5 23.4 18.3 Q23.4 17.9 24.2 17.2 25.05 16.5 30.8 17.1 L36.35 17.85 39.0 23.1 37.7 24.4 35.0 19.8 Q34.7 19.1 29.4 18.7" fill="#000000" fill-rule="evenodd" stroke="none"/>
      <path d="M8.2 43.1 Q13.75 39.8 21.0 40.15 28.25 40.55 33.55 44.45 39.15 48.6 41.15 54.65 42.85 59.85 41.7 65.8 40.4 72.6 34.9 76.35 30.05 79.7 23.15 80.0 16.65 80.3 11.1 77.9 5.35 75.4 3.4 71.15 -1.3 61.0 0.5 53.4 2.1 46.7 8.2 43.1" fill="#000000" fill-rule="evenodd" stroke="none"/>
      <path d="M34.1 47.35 L32.95 46.1 35.75 48.8 Q38.75 52.2 39.7 55.35 40.7 58.8 40.4 62.75 40.1 66.95 38.35 69.7 36.05 73.4 30.9 75.9 28.35 77.1 26.25 77.6 31.3 75.8 34.0 73.15 37.3 69.9 38.35 64.45 39.75 57.25 36.5 50.95 35.45 49.0 34.1 47.35" fill="#424242" fill-rule="evenodd" stroke="none"/>
      <path d="M8.85 45.1 Q12.25 42.85 19.9 43.15 27.7 43.45 31.05 46.1 35.6 49.6 36.45 55.0 36.95 58.05 36.1 64.8 35.5 69.85 30.6 73.65 25.55 77.6 18.95 77.6 13.25 77.6 8.45 74.15 L4.8 70.7 Q0.6 62.0 2.8 54.15 4.55 47.95 8.85 45.1" fill="#424242" fill-rule="evenodd" stroke="none"/>
      <path d="M11.65 48.25 L13.45 48.05 12.6 48.95 Q12.35 49.9 15.5 50.0 L22.5 50.0 26.25 50.0 Q26.9 50.2 28.95 47.4 L31.8 48.05 Q34.8 49.7 35.65 54.6 36.7 60.7 33.65 67.3 30.55 74.1 26.25 74.3 L17.65 75.15 Q13.15 75.45 11.45 74.3 9.05 72.7 7.5 70.4 5.6 67.6 6.05 65.1 L7.8 66.85 Q10.05 68.85 12.45 70.05 20.2 73.95 26.9 68.4 29.6 66.2 30.7 64.25 32.1 61.7 31.6 58.55 31.4 57.1 29.8 55.4 L28.25 53.95 28.45 57.65 Q28.25 61.3 26.25 61.2 L25.65 58.0 Q25.1 54.5 22.9 53.3 20.4 52.0 16.7 51.9 12.75 51.75 10.75 53.3 8.05 55.4 7.1 57.55 L6.05 61.2 Q5.1 58.8 5.8 55.6 6.45 52.65 8.1 50.65 9.55 48.85 11.65 48.25" fill="#232323" fill-rule="evenodd" stroke="none"/>
      <path d="M6.05 50.1 Q4.6 53.3 4.05 55.95 3.0 60.75 3.8 64.7 4.2 66.7 4.8 67.75 3.95 66.95 3.2 65.3 1.65 62.05 2.0 57.9 2.4 53.85 4.95 50.2 L7.4 47.4 6.05 50.1 M24.9 65.8 L23.65 68.6 Q21.5 71.25 16.8 70.4 14.6 70.0 13.5 68.35 L12.85 66.75 14.8 68.05 Q17.3 69.2 19.95 68.75 22.6 68.25 24.0 67.0 L24.9 65.8 M21.85 61.1 L22.95 59.85 21.75 62.1 Q19.9 64.35 16.8 64.45 14.3 64.55 12.35 61.6 10.2 58.3 12.85 54.95 13.4 54.3 13.05 56.15 12.5 59.1 13.45 60.55 14.65 62.3 15.9 62.8 17.1 63.25 18.95 62.8 20.45 62.45 21.85 61.1 M13.9 49.05 L19.45 49.15 26.25 49.35 Q27.25 49.5 27.85 47.15 L28.25 44.75 29.6 45.5 32.3 47.4 Q34.05 48.9 35.5 52.35 37.25 56.65 37.0 61.2 36.65 67.15 34.0 70.5 31.05 74.15 24.2 76.3 18.25 78.15 13.3 76.0 10.3 74.65 8.25 72.2 9.9 73.7 14.9 74.8 L23.5 75.15 Q28.0 74.0 31.4 70.85 35.25 67.2 35.65 62.5 36.3 55.6 33.05 50.95 31.85 49.3 30.6 48.55 29.5 47.85 29.25 48.4 28.85 50.9 28.0 51.0 L20.85 50.75 12.7 50.3 Q10.7 50.2 11.5 47.1 12.5 43.3 12.8 44.75 L13.9 49.05" fill="#6b6b6b" fill-rule="evenodd" stroke="none"/>
      <path d="M18.85 53.95 Q22.9 54.35 22.95 58.1 23.0 61.8 18.7 62.0 L20.8 59.4 Q21.65 57.05 18.85 53.95" fill="#232323" fill-rule="evenodd" stroke="none"/>
      <path d="M12.15 45.45 Q11.95 42.25 12.6 41.0 13.05 40.05 14.35 39.7 L15.55 39.5 22.05 39.9 Q28.65 40.4 28.85 41.0 29.15 41.7 28.55 45.2 27.9 48.75 27.4 49.15 14.6 49.65 13.35 49.15 12.3 48.75 12.15 45.45" fill="#000000" fill-rule="evenodd" stroke="none"/>
      <path d="M13.4 45.1 Q13.5 42.65 14.15 41.5 14.55 40.65 15.4 40.65 L16.15 40.8 21.4 41.15 Q26.7 41.6 26.9 42.15 27.25 42.95 26.95 45.2 26.6 47.7 25.55 48.05 15.3 48.45 14.15 48.05 13.25 47.7 13.4 45.1" fill="#424242" fill-rule="evenodd" stroke="none"/>
      <path d="M14.8 41.5 L14.65 41.2 Q13.85 43.8 14.8 44.75 16.0 45.95 19.15 45.85 L23.55 45.4 Q25.15 45.3 25.0 42.3 21.95 41.4 18.85 41.5 L14.8 41.5 M15.4 40.65 L16.15 40.8 21.4 41.15 Q26.7 41.6 26.9 42.15 L27.05 43.15 26.6 42.9 Q25.7 46.0 24.2 46.75 22.2 47.7 15.5 47.4 L13.4 46.35 Q13.3 45.15 13.55 43.65 13.8 42.2 14.15 41.5 14.55 40.65 15.4 40.65" fill="#626161" fill-rule="evenodd" stroke="none"/>
      <path d="M13.35 45.05 Q16.3 46.8 20.15 46.9 24.2 46.95 24.9 46.1 26.05 44.1 26.25 42.15 L26.25 41.8 Q26.85 41.95 26.9 42.15 27.25 42.95 26.95 45.2 26.6 47.7 25.55 48.05 15.3 48.45 14.15 48.05 13.25 47.75 13.35 45.05" fill="#272727" fill-rule="evenodd" stroke="none"/>
    </g>
  </defs>
</svg>
