<?xml version="1.0" encoding="UTF-8" standalone="no"?>
<svg xmlns:ffdec="https://www.free-decompiler.com/flash" xmlns:xlink="http://www.w3.org/1999/xlink" ffdec:objectType="frame" height="247.95px" width="247.2px" xmlns="http://www.w3.org/2000/svg">
  <g transform="matrix(1.0, 0.0, 0.0, 1.0, 125.65, 165.35)">
    <use ffdec:characterId="476" height="79.5" transform="matrix(0.9658, -0.0794, 0.0794, 0.9658, -56.9, -42.75)" width="140.8" xlink:href="#sprite0"/>
  </g>
  <defs>
    <g id="sprite0">
      <use ffdec:characterId="475" height="79.5" transform="matrix(1.0, 0.0, 0.0, 1.0, 0.0, 0.0)" width="140.8" xlink:href="#shape0"/>
    </g>
    <g id="shape0">
      <path d="M83.4 17.45 Q85.8 21.1 88.1 30.45 89.75 37.1 90.75 43.6 91.25 46.95 93.05 50.6 L94.0 52.5 Q94.3 53.15 94.05 53.0 92.55 52.7 83.35 55.1 73.85 57.55 61.7 61.5 49.05 65.6 43.6 66.6 L25.3 68.45 Q14.25 69.25 4.05 67.5 -1.0 66.6 -3.9 65.55 -4.95 51.95 -3.9 39.9 -2.55 24.0 2.15 18.25 7.75 11.4 17.05 8.15 27.5 4.45 46.3 3.85 63.25 3.25 73.65 8.75 79.85 12.05 83.4 17.45" fill="#000000" fill-rule="evenodd" stroke="none"/>
      <path d="M135.35 59.3 Q137.75 63.3 134.45 67.1 132.6 69.25 127.65 72.2 123.9 74.45 114.95 74.55 L109.2 74.45 106.75 74.25 Q105.8 71.65 102.4 68.35 L99.25 65.55 104.55 63.45 Q111.3 60.85 118.55 58.6 L125.6 56.4 Q128.5 55.55 130.05 55.5 131.75 55.45 132.9 56.35 134.05 57.15 135.35 59.3" fill="#000000" fill-rule="evenodd" stroke="none"/>
      <path d="M71.4 10.0 Q74.45 11.6 77.0 13.95 L80.2 17.2 Q82.55 19.45 85.75 31.45 L87.8 40.1 Q88.55 44.1 88.4 45.0 88.15 46.45 89.6 49.7 90.75 52.35 90.45 52.25 87.55 51.6 82.75 52.2 74.7 53.15 64.8 57.4 L57.8 60.4 50.55 62.85 Q41.9 65.3 25.75 66.65 15.1 67.55 6.05 65.65 1.5 64.7 -0.95 63.55 -2.0 49.8 -1.3 39.5 -0.3 24.75 4.2 19.3 9.55 12.8 18.3 9.8 28.1 6.5 46.3 5.9 62.45 5.35 71.4 10.0 M133.6 59.45 Q136.35 63.05 133.05 66.35 L129.75 68.8 126.4 70.75 Q122.9 72.8 114.85 73.05 L109.65 73.0 107.45 72.85 Q107.45 72.1 104.6 68.8 L101.75 65.6 102.6 64.3 Q103.75 62.7 105.3 61.4 110.2 57.2 117.2 57.2 L123.05 56.9 127.4 56.6 Q129.4 56.55 130.75 57.1 132.3 57.8 133.6 59.45" fill="#929292" fill-rule="evenodd" stroke="none"/>
      <path d="M132.85 57.25 Q133.75 58.2 134.3 60.0 135.6 64.3 132.55 67.05 L129.55 69.1 126.4 70.75 Q122.9 72.8 114.85 73.2 L109.65 73.3 107.45 73.2 Q107.45 72.6 105.5 70.05 L114.75 70.45 Q121.1 70.3 124.35 68.7 129.0 66.45 130.15 63.95 131.1 61.9 129.45 60.45 128.3 59.45 125.7 58.8 L123.3 58.4 124.05 57.85 125.95 56.75 Q129.05 55.35 131.5 56.5 L132.85 57.25" fill="#650000" fill-rule="evenodd" stroke="none"/>
      <path d="M44.65 1.7 Q46.75 3.25 47.25 4.75 L47.3 5.9 28.85 5.9 28.85 5.2 29.3 3.6 Q30.5 1.15 34.1 0.25 L40.85 -0.05 Q42.9 0.35 44.65 1.7" fill="#000000" fill-rule="evenodd" stroke="none"/>
      <path d="M40.25 1.5 Q41.85 1.85 43.2 2.8 L44.9 3.9 30.9 5.9 30.9 5.4 31.25 4.2 Q32.2 2.4 35.0 1.75 L40.25 1.5 M45.25 3.85 L45.3 4.0 44.9 3.9 45.25 3.85" fill="#910000" fill-rule="evenodd" stroke="none"/>
      <path d="M71.4 10.0 Q74.45 11.6 77.0 13.95 L80.2 17.2 Q82.55 19.45 85.75 31.45 L87.8 40.1 Q88.55 44.1 88.4 45.0 88.15 46.45 89.6 49.7 90.75 52.35 90.45 52.25 87.55 51.6 82.75 52.2 74.7 53.15 64.8 57.4 L57.8 60.4 50.55 62.85 Q41.9 65.3 25.75 66.65 15.1 67.55 6.05 65.65 1.5 64.7 -0.95 63.55 -2.0 49.8 -1.3 39.5 -0.3 24.75 4.2 19.3 9.55 12.8 18.3 9.8 28.1 6.5 46.3 5.9 62.45 5.35 71.4 10.0" fill="#ececec" fill-rule="evenodd" stroke="none"/>
      <path d="M75.25 12.5 L78.15 15.1 80.2 17.2 Q82.4 19.3 85.75 31.6 88.0 40.0 89.0 45.35 89.25 46.8 90.25 50.25 90.9 52.45 90.45 52.25 L87.1 51.9 84.95 46.2 Q83.35 41.3 82.25 35.75 L80.05 24.6 Q79.4 21.3 78.2 17.45 77.35 14.75 75.25 12.5" fill="#ffffff" fill-rule="evenodd" stroke="none"/>
      <path d="M4.2 19.3 Q8.3 14.3 14.1 11.5 20.55 8.45 30.9 7.05 26.65 9.65 23.4 12.6 18.6 17.05 17.55 21.35 14.5 33.65 15.2 49.0 15.55 56.65 16.5 61.5 L21.7 62.2 31.95 63.55 42.15 63.1 47.35 62.55 53.5 61.5 Q49.55 62.75 43.5 64.0 31.35 66.55 20.65 66.65 L11.1 66.45 Q6.25 65.9 2.15 64.65 L-0.95 63.55 Q-2.0 49.8 -1.3 39.5 -0.3 24.75 4.2 19.3" fill="#bfbfbf" fill-rule="evenodd" stroke="none"/>
      <path d="M57.6 11.05 L61.45 14.15 Q62.1 14.9 62.8 17.6 63.35 19.95 63.1 21.4 L62.75 22.35 Q62.4 20.7 61.15 18.55 58.75 14.25 54.5 12.05 L46.85 8.2 44.25 6.9 44.55 6.6 Q44.75 6.3 44.25 6.15 L50.0 7.8 Q55.6 9.6 57.6 11.05" fill="#bfbfbf" fill-rule="evenodd" stroke="none"/>
      <path d="M131.15 55.8 Q131.35 56.2 130.1 56.85 127.6 58.2 120.25 59.45 113.85 60.5 97.85 67.4 L84.5 73.05 Q76.75 76.15 70.95 78.0 59.8 81.45 40.65 74.9 34.7 72.85 28.6 70.05 L23.7 67.7 Q30.5 67.7 40.05 66.0 54.05 63.45 63.75 58.4 75.55 52.3 85.15 51.65 89.95 51.3 92.4 52.25 L95.65 53.9 Q99.85 55.7 104.85 56.35 111.6 57.25 122.05 56.6 L131.15 55.8" fill="#000000" fill-rule="evenodd" stroke="none"/>
      <path d="M116.0 57.95 L127.0 56.75 117.15 58.4 Q111.25 59.4 96.15 65.9 L83.55 71.25 Q76.3 74.25 70.95 75.9 60.7 79.15 44.75 74.25 39.8 72.7 34.85 70.55 L30.9 68.7 Q36.65 68.7 44.4 67.2 55.7 65.05 64.8 60.45 73.5 56.1 83.35 54.25 88.3 53.3 91.5 53.25 L93.5 54.4 Q96.35 55.85 100.75 57.4 L116.0 57.95" fill="#ececec" fill-rule="evenodd" stroke="none"/>
      <path d="M121.55 57.65 L117.15 58.4 Q113.2 59.1 106.9 61.5 100.75 61.0 95.6 59.45 90.5 57.9 85.3 53.9 L91.5 53.25 93.5 54.4 Q96.35 55.85 100.75 57.4 105.05 58.9 117.15 57.85 L121.55 57.65" fill="#ffffff" fill-rule="evenodd" stroke="none"/>
      <path d="M128.2 56.55 L117.15 58.4 Q111.25 59.4 96.15 65.9 L83.55 71.25 Q76.3 74.25 70.95 75.9 60.7 79.15 44.75 74.25 39.8 72.7 34.85 70.55 L30.9 68.7 39.15 68.05 Q51.95 73.7 57.6 73.85 62.45 74.0 73.4 70.9 83.35 68.1 88.4 65.6 92.2 63.8 97.05 61.7 102.7 59.35 106.2 58.2 114.15 58.6 128.2 56.55" fill="#910000" fill-rule="evenodd" stroke="none"/>
      <path d="M24.05 7.9 L30.9 6.9 Q26.2 8.8 21.65 10.0 18.3 10.9 15.6 13.65 13.05 16.3 10.35 21.35 8.2 25.45 8.15 46.6 8.1 57.2 8.5 66.95 L6.4 66.25 6.1 54.2 Q5.9 40.75 6.25 33.7 6.7 25.6 8.45 20.95 9.9 17.0 13.45 13.1 16.6 9.6 24.05 7.9 M64.2 16.0 Q63.35 13.9 62.4 12.65 60.15 9.6 54.5 7.95 50.8 6.85 45.1 6.25 L40.15 5.9 45.0 5.65 52.45 5.9 Q57.55 6.75 60.3 8.25 64.8 10.75 66.85 16.2 68.95 21.85 70.5 31.95 71.8 40.6 72.0 47.1 72.1 51.7 72.55 54.4 L72.95 56.15 69.9 57.4 69.25 42.4 Q68.1 26.25 65.8 20.3 L64.2 16.0" fill="#000000" fill-rule="evenodd" stroke="none"/>
      <path d="M34.0 12.05 L35.45 11.9 Q36.95 11.95 37.05 13.1 37.25 14.65 35.55 15.5 33.85 16.35 32.95 15.15 32.2 14.15 33.0 13.0 L34.0 12.05 M70.95 10.0 Q72.75 10.8 73.9 11.6 L74.7 12.25 Q74.7 12.9 74.3 13.4 L71.9 13.3 Q71.0 12.75 70.9 11.35 L70.95 10.0" fill="#900000" fill-rule="evenodd" stroke="none"/>
    </g>
  </defs>
</svg>
