<?xml version="1.0" encoding="UTF-8" standalone="no"?>
<svg xmlns:ffdec="https://www.free-decompiler.com/flash" xmlns:xlink="http://www.w3.org/1999/xlink" ffdec:objectType="frame" height="247.95px" width="247.2px" xmlns="http://www.w3.org/2000/svg">
  <g transform="matrix(1.0, 0.0, 0.0, 1.0, 125.65, 165.35)">
    <use ffdec:characterId="478" height="71.0" transform="matrix(1.2903, -0.0108, 0.0097, 1.1667, -84.55, -49.35)" width="116.05" xlink:href="#sprite0"/>
  </g>
  <defs>
    <g id="sprite0">
      <use ffdec:characterId="477" height="71.0" transform="matrix(1.0, 0.0, 0.0, 1.0, 0.0, 0.0)" width="116.05" xlink:href="#shape0"/>
    </g>
    <g id="shape0">
      <path d="M8.1 46.0 Q8.15 40.8 14.1 40.0 16.5 39.7 18.55 40.85 L20.1 42.0 9.5 50.0 Q9.15 50.1 8.8 49.65 8.05 48.7 8.1 46.0 M22.1 23.25 Q21.65 20.5 22.55 18.35 23.3 16.65 25.1 15.0 26.9 13.45 29.65 14.05 31.05 14.4 32.1 15.0 L24.1 27.0 Q23.75 26.9 23.3 26.35 22.45 25.3 22.1 23.25 M67.05 6.0 Q71.5 4.7 75.1 6.0 78.5 7.25 79.05 10.0 79.5 12.2 78.8 14.35 L78.05 16.0 66.05 9.0 Q65.55 8.5 65.45 7.85 65.2 6.6 67.05 6.0 M87.05 22.0 L90.55 22.05 Q93.6 22.55 95.1 25.05 96.45 27.35 96.35 30.45 L96.05 33.0 91.6 31.0 86.35 24.75 85.05 23.5 85.65 22.75 Q86.4 22.0 87.05 22.0" fill="#000000" fill-rule="evenodd" stroke="none"/>
      <path d="M11.1 41.9 Q11.9 41.45 15.1 41.0 L18.8 41.35 Q19.65 41.65 20.1 42.0 L11.1 49.0 10.1 45.0 Q9.55 42.75 11.1 41.9 M26.1 16.0 Q27.25 15.05 29.3 15.4 L31.1 16.0 27.1 26.0 Q25.7 25.0 24.1 22.0 22.6 19.15 26.1 16.0 M69.05 7.0 Q70.8 6.1 73.35 6.65 76.05 7.2 77.05 9.0 77.95 10.65 77.1 13.0 L76.05 15.0 66.05 9.05 Q66.35 8.45 69.05 7.0 M94.05 25.0 Q94.85 27.8 94.05 30.0 L91.05 30.0 87.05 25.0 86.05 25.0 85.75 24.0 Q85.55 23.0 86.05 23.0 L90.05 22.95 Q93.55 23.25 94.05 25.0" fill="#ecece3" fill-rule="evenodd" stroke="none"/>
      <path d="M109.05 36.0 Q111.15 37.25 114.0 38.1 115.85 39.4 116.05 45.0 116.2 49.25 108.15 52.05 L100.05 54.0 Q100.05 52.75 99.25 51.5 97.75 49.0 94.05 49.0 L83.3 49.3 Q75.55 49.9 66.05 52.0 56.15 54.25 46.65 58.75 37.05 63.35 35.6 63.7 L27.65 64.4 23.1 64.0 Q22.25 64.0 20.5 67.5 L18.95 71.0 14.6 70.2 Q9.65 69.0 6.45 66.85 2.4 64.1 1.85 63.5 -0.35 61.1 0.1 57.0 0.35 54.85 6.85 49.0 L15.1 42.0 Q16.65 40.7 20.1 33.4 L26.1 20.0 Q28.95 13.75 38.5 6.85 48.1 0.0 54.05 0.0 59.25 0.0 65.75 3.85 69.95 6.35 74.05 10.0 L84.7 20.0 Q93.2 27.85 95.05 29.0 96.2 29.75 101.3 32.15 106.85 34.75 109.05 36.0" fill="#0a0001" fill-rule="evenodd" stroke="none"/>
      <path d="M106.05 36.0 L112.05 39.15 Q114.9 41.2 114.05 45.0 113.5 47.45 106.7 50.5 L100.05 53.0 Q101.45 51.5 102.15 50.0 103.6 47.0 100.05 47.0 91.55 47.0 85.7 47.35 74.05 48.0 65.05 50.0 55.55 52.15 47.1 56.4 38.55 60.65 37.1 61.0 L27.5 62.0 21.1 62.0 Q14.55 62.0 15.65 65.5 16.25 67.25 18.1 69.0 L14.95 68.25 Q11.15 67.05 8.1 65.0 4.95 63.5 3.75 62.5 1.7 60.8 2.1 57.0 2.35 54.95 8.35 50.0 L16.1 44.0 Q17.6 42.75 21.1 35.25 L27.1 22.0 Q29.9 15.9 39.1 9.0 48.4 2.0 54.05 2.0 59.1 2.0 64.2 4.9 67.4 6.7 71.05 10.0 L82.05 20.55 Q90.95 29.1 92.7 30.15 93.75 30.8 98.7 32.75 103.85 34.75 106.05 36.0" fill="#c00512" fill-rule="evenodd" stroke="none"/>
      <path d="M107.05 41.0 Q111.85 43.0 113.05 43.0 L106.7 44.75 Q99.95 46.4 98.05 46.0 95.35 45.5 81.15 45.75 66.25 46.05 64.05 47.0 51.75 52.6 49.1 55.0 46.7 57.25 28.1 61.0 L11.1 62.0 4.1 62.0 3.05 61.8 Q1.75 60.2 2.1 57.0 2.35 54.95 8.35 50.0 L16.1 44.0 Q17.6 42.75 21.1 35.25 L27.1 22.0 Q29.8 16.1 38.65 9.35 47.65 2.5 53.45 2.05 L58.05 3.0 58.45 3.5 Q58.6 3.95 57.05 4.0 55.65 4.05 52.8 5.15 48.9 6.65 46.1 9.0 42.85 11.75 40.85 13.9 36.95 18.05 33.1 24.0 31.85 25.95 29.05 32.45 26.1 39.35 24.2 42.6 L24.1 43.0 22.15 45.9 19.1 50.0 Q17.7 51.6 13.1 54.0 27.1 54.6 33.1 54.0 36.0 53.75 43.1 50.15 50.95 46.15 56.05 45.0 L69.05 42.4 82.05 41.0 96.5 40.05 Q104.0 39.75 107.05 41.0" fill="#9b030d" fill-rule="evenodd" stroke="none"/>
      <path d="M39.1 38.0 Q36.95 39.3 34.15 38.0 30.95 36.6 31.1 33.0 31.15 30.7 34.1 29.35 36.9 28.05 39.1 29.0 41.15 29.9 41.05 33.45 40.95 36.9 39.1 38.0 M56.05 36.0 L57.05 35.0 Q56.95 34.15 59.8 32.3 62.8 30.4 64.05 33.0 65.7 36.45 63.65 38.45 61.8 40.3 58.05 40.0 55.1 39.8 55.3 37.9 L56.05 36.0 M49.15 15.75 L50.1 13.0 55.05 12.0 57.0 13.2 Q58.95 14.65 59.05 16.0 59.25 18.45 57.45 20.05 55.15 22.15 51.1 20.0 48.7 18.8 49.15 15.75 M107.05 45.0 Q106.35 44.9 108.6 44.2 110.75 43.5 112.9 43.1 L114.05 44.0 114.15 44.1 114.05 45.0 113.75 45.7 107.05 45.0 M92.7 30.15 Q93.75 30.8 98.7 32.75 103.85 34.75 106.05 36.0 107.8 37.05 111.35 38.7 114.1 40.35 114.2 42.95 L112.9 43.1 Q110.75 41.4 108.65 40.0 98.6 39.65 91.05 40.0 83.6 40.4 69.55 42.65 54.25 45.1 50.1 47.0 48.9 47.55 40.55 52.2 35.05 55.2 33.1 55.0 L12.1 54.0 23.15 53.1 Q21.25 53.05 19.5 51.0 L18.1 49.0 23.1 48.0 24.15 48.15 Q25.35 48.4 26.1 49.0 27.2 49.9 26.9 51.1 26.55 52.5 24.1 53.0 L33.25 52.4 Q38.05 52.15 42.7 49.15 L49.1 45.0 Q58.9 41.1 65.65 39.65 73.65 37.85 83.05 38.0 L86.05 38.0 Q78.4 37.7 76.95 34.35 76.5 33.25 76.75 32.05 L77.05 31.0 78.15 31.5 82.05 32.0 Q83.15 32.0 84.6 32.55 85.4 32.7 85.05 31.0 L84.4 28.15 Q83.95 27.2 82.05 26.0 79.7 24.55 78.0 22.9 75.85 20.8 73.05 17.0 71.35 14.7 70.1 13.7 L67.05 11.0 65.0 8.55 Q63.6 6.95 62.05 6.0 60.75 4.95 59.55 4.45 57.5 3.5 53.1 3.0 L48.35 3.45 Q51.8 2.0 54.05 2.0 59.1 2.0 64.2 4.9 67.4 6.7 71.05 10.0 L82.05 20.55 Q90.95 29.1 92.7 30.15 M95.65 35.95 Q96.5 34.7 94.25 32.85 91.25 32.0 90.05 32.0 90.5 33.05 89.35 35.4 88.2 37.85 86.35 38.0 94.35 37.8 95.65 35.95" fill="#e82633" fill-rule="evenodd" stroke="none"/>
      <path d="M100.05 41.0 Q106.45 40.7 109.5 41.2 112.1 41.7 113.05 43.0 113.9 44.2 113.9 45.4 112.9 47.8 106.4 50.65 L100.05 53.0 Q101.45 51.5 102.15 50.0 103.6 47.0 100.05 47.0 91.55 47.0 85.7 47.35 74.05 48.0 65.05 50.0 55.55 52.15 46.6 56.9 37.55 61.65 36.1 62.0 L27.5 62.55 22.1 62.0 Q15.3 61.9 16.0 65.45 16.4 67.2 18.1 69.0 15.9 68.7 13.05 67.6 8.75 65.0 6.15 62.75 2.9 59.95 4.1 59.0 6.45 57.2 7.9 56.95 10.95 56.35 20.1 57.0 L33.35 56.5 44.1 52.0 Q54.35 47.7 57.1 46.8 63.3 44.75 71.05 44.0 L86.75 42.25 100.05 41.0" fill="#ddddc7" fill-rule="evenodd" stroke="none"/>
      <path d="M10.2 56.7 L14.85 56.7 Q14.5 58.1 15.3 59.3 16.5 61.05 20.1 62.0 L20.25 62.05 Q15.1 62.45 16.1 65.75 16.6 67.45 18.1 69.0 15.9 68.7 13.05 67.6 8.75 65.0 6.15 62.75 2.9 59.95 4.1 59.0 L5.65 57.8 10.2 56.7" fill="#bcbca5" fill-rule="evenodd" stroke="none"/>
      <path d="M96.95 41.2 L100.05 41.0 Q106.45 40.7 109.5 41.2 112.1 41.7 113.05 43.0 113.9 44.2 113.9 45.4 112.9 47.8 106.4 50.65 L100.05 53.0 Q101.45 51.5 102.15 50.0 103.6 47.0 100.05 47.0 L97.45 47.0 Q95.75 45.1 91.65 47.1 L91.0 47.1 Q94.7 43.65 96.05 43.0 97.05 42.5 96.95 41.2" fill="#f4f4e2" fill-rule="evenodd" stroke="none"/>
      <path d="M55.25 52.95 L53.5 53.65 51.2 52.95 Q49.8 52.6 49.1 52.0 L47.55 50.55 50.95 49.15 Q51.15 51.1 53.4 52.1 L55.25 52.95 M16.65 67.05 L12.15 67.05 8.35 64.5 Q13.85 66.5 15.1 66.0 L16.05 65.7 16.65 67.05 M6.0 57.6 Q7.25 56.95 9.45 56.75 9.75 61.9 17.1 62.0 L19.15 62.2 Q17.45 62.5 16.65 63.2 L16.1 63.0 12.0 62.85 Q7.65 61.9 6.1 58.0 L6.0 57.6 M25.55 62.4 L22.1 62.0 21.8 62.05 Q18.8 60.6 17.6 59.7 16.65 58.95 16.75 56.8 L19.55 57.0 Q19.75 59.15 21.1 60.0 22.75 61.1 25.55 62.4 M30.85 57.05 L32.1 58.0 Q34.55 59.65 39.25 60.85 L36.1 62.0 32.5 61.15 Q28.75 59.9 28.1 58.0 L27.8 57.3 30.85 57.05 M40.1 57.0 L37.9 54.75 40.85 53.45 Q41.15 55.45 43.1 56.0 L46.75 56.8 45.85 57.3 42.6 57.75 Q40.85 57.8 40.1 57.0 M70.05 47.0 L68.0 44.4 71.05 44.0 71.55 44.0 72.05 46.0 74.3 48.4 72.9 48.6 Q70.75 47.7 70.05 47.0 M60.05 49.0 Q59.35 48.45 58.0 46.55 L61.2 45.65 Q61.5 47.2 62.05 48.0 L63.75 50.35 62.0 50.8 60.05 49.0 M109.05 49.0 L111.05 47.8 109.25 49.25 103.5 51.8 101.4 51.35 102.15 50.1 Q106.65 50.2 109.05 49.0 M107.05 46.0 Q109.1 45.05 109.2 41.2 110.7 41.4 111.8 41.95 L111.05 44.0 Q108.6 47.3 102.55 48.9 102.65 48.15 102.25 47.75 L107.05 46.0 M100.1 47.05 L100.05 47.0 96.5 47.05 Q100.35 45.35 101.05 44.0 101.8 42.55 100.6 41.0 L102.9 40.9 Q103.4 43.1 103.05 44.0 102.35 45.8 100.1 47.05 M88.05 47.0 Q91.75 45.0 90.85 41.8 L94.4 41.45 Q94.5 42.4 94.05 44.0 93.85 44.65 92.7 45.6 L90.75 47.15 87.75 47.25 88.05 47.0 M82.05 45.0 Q82.05 46.2 84.6 47.4 L82.2 47.6 Q80.7 46.85 80.05 46.0 L78.25 43.25 82.05 42.8 82.05 45.0" fill="#90907b" fill-rule="evenodd" stroke="none"/>
      <path d="M18.1 48.9 Q18.0 48.1 19.35 47.55 22.9 46.0 24.55 47.9 25.9 49.55 24.05 50.55 L20.4 50.75 Q18.2 49.85 18.1 48.9 M33.35 27.75 Q35.7 25.05 37.95 26.55 40.1 28.0 40.1 31.75 40.1 35.1 38.3 36.4 36.7 37.55 34.1 37.0 31.95 36.6 31.5 33.6 31.05 30.4 33.35 27.75 M57.05 39.0 Q54.4 38.6 56.55 35.3 58.75 32.0 61.65 32.0 64.5 32.0 61.95 35.7 59.4 39.4 57.05 39.0 M50.65 11.2 Q51.95 9.9 53.75 10.0 57.35 10.2 57.2 14.75 57.05 19.25 54.1 19.0 48.85 18.6 49.3 14.2 49.45 12.45 50.65 11.2 M86.65 32.3 Q87.15 34.15 85.9 35.3 84.6 36.5 82.05 36.0 77.45 35.15 76.25 31.0 75.8 29.5 76.05 28.2 76.25 27.0 76.8 27.0 85.25 27.55 86.65 32.3" fill="#87020b" fill-rule="evenodd" stroke="none"/>
      <path d="M20.35 47.75 Q22.95 46.7 24.1 48.0 25.1 49.15 23.75 49.85 L21.1 50.0 Q17.9 48.8 20.35 47.75 M34.1 29.0 Q35.85 27.0 37.5 28.15 39.1 29.25 39.1 32.0 39.1 34.45 37.5 35.05 36.35 35.5 34.1 35.0 32.55 34.7 32.45 32.9 32.35 31.05 34.1 29.0 M58.05 37.0 Q56.1 36.7 57.55 34.85 58.95 33.0 61.05 33.0 63.1 33.0 61.45 35.15 59.75 37.25 58.05 37.0 M56.55 14.2 Q56.3 17.2 54.05 17.0 50.05 16.7 50.55 13.8 51.0 10.85 54.05 11.0 56.8 11.2 56.55 14.2 M85.15 31.6 Q85.6 32.85 84.75 33.55 83.85 34.35 82.05 34.0 78.8 33.35 77.8 30.6 76.85 27.95 78.05 28.0 84.0 28.4 85.15 31.6" fill="#efefe9" fill-rule="evenodd" stroke="none"/>
      <path d="M84.05 30.1 Q85.8 31.65 85.15 33.05 84.45 34.5 82.05 34.0 L80.0 33.25 Q81.9 33.5 83.05 32.0 L84.05 30.1" fill="#aeaeae" fill-rule="evenodd" stroke="none"/>
      <path d="M60.6 36.0 Q59.1 37.2 58.05 37.0 57.05 36.85 57.05 36.1 57.05 35.4 57.8 34.6 58.8 35.9 60.6 36.0" fill="#aeaeae" fill-rule="evenodd" stroke="none"/>
      <path d="M32.9 30.7 L33.1 30.0 33.8 31.7 Q34.9 33.3 37.1 33.0 38.5 32.85 39.0 32.0 38.6 35.65 36.1 35.0 34.6 34.65 33.95 34.2 33.3 33.75 33.1 33.0 32.75 31.65 32.9 30.7 M39.15 29.95 L39.1 29.0 Q39.85 30.8 39.0 32.0 L39.15 29.95" fill="#aeaeae" fill-rule="evenodd" stroke="none"/>
      <path d="M55.05 15.0 L56.55 13.75 Q56.6 15.1 55.9 16.05 55.2 17.1 54.05 17.0 52.25 16.85 51.3 16.05 50.5 15.3 50.5 14.2 53.5 16.25 55.05 15.0" fill="#aeaeae" fill-rule="evenodd" stroke="none"/>
    </g>
  </defs>
</svg>
