<?xml version="1.0" encoding="UTF-8" standalone="no"?>
<svg xmlns:ffdec="https://www.free-decompiler.com/flash" xmlns:xlink="http://www.w3.org/1999/xlink" ffdec:objectType="frame" height="247.95px" width="247.2px" xmlns="http://www.w3.org/2000/svg">
  <g transform="matrix(1.0, 0.0, 0.0, 1.0, 125.65, 165.35)">
    <use ffdec:characterId="490" height="49.05" transform="matrix(1.3582, -0.0344, 0.0405, 1.6015, -69.4, -26.1)" width="98.5" xlink:href="#sprite0"/>
  </g>
  <defs>
    <g id="sprite0">
      <use ffdec:characterId="489" height="49.05" transform="matrix(1.0, 0.0, 0.0, 1.0, 0.0, 0.0)" width="98.5" xlink:href="#shape0"/>
    </g>
    <g id="shape0">
      <path d="M96.9 24.2 L98.5 24.3 91.25 26.1 91.95 26.25 Q92.75 26.45 93.45 26.9 95.65 28.3 95.8 31.5 95.9 34.75 95.05 38.6 L94.15 41.85 92.0 37.35 Q89.45 32.35 87.65 29.7 86.4 27.9 82.4 25.95 L79.75 24.75 78.6 24.3 Q78.55 25.95 77.6 27.55 75.75 30.75 71.4 30.6 66.4 30.45 62.0 29.25 60.2 28.75 59.75 28.35 59.25 27.95 60.55 27.9 63.8 27.75 64.75 25.6 65.25 24.5 65.05 23.4 L63.25 23.85 Q60.8 24.55 57.85 26.1 54.85 27.65 52.9 29.3 L51.5 30.6 51.9 27.4 Q52.45 23.9 53.3 22.5 53.8 21.7 52.95 21.7 52.2 21.7 50.7 22.35 49.15 23.05 47.7 24.0 L45.2 26.1 Q43.65 27.95 42.45 29.9 L41.55 31.5 40.6 30.25 Q39.65 28.5 39.75 26.1 L39.65 25.3 39.25 25.65 37.35 28.55 Q33.5 34.35 29.85 36.0 L21.7 39.6 23.4 37.3 Q25.15 34.55 25.3 32.4 L25.35 28.9 25.25 27.9 25.1 28.5 24.2 30.3 Q22.35 33.55 18.25 37.9 14.5 41.95 9.45 45.4 L6.6 47.4 Q5.45 48.25 5.2 48.8 4.8 49.95 5.5 45.35 L6.35 40.5 3.35 42.1 Q0.3 43.9 0.0 45.0 L0.1 39.1 Q0.4 32.4 1.55 28.6 2.6 25.25 5.4 21.8 L7.3 19.7 8.15 18.9 1.8 20.7 3.3 18.7 Q5.05 16.65 6.35 16.2 L12.65 14.4 10.65 13.15 Q8.35 11.85 7.25 11.7 5.95 11.55 7.85 11.25 L12.65 10.8 16.35 11.15 17.2 11.7 Q17.0 10.15 17.15 8.45 17.45 5.05 19.0 4.5 L24.4 2.7 22.6 9.0 23.7 7.85 Q25.15 6.45 27.1 5.2 33.25 1.35 41.55 0.9 49.45 0.5 57.0 1.1 L62.3 1.55 66.85 1.8 74.5 0.9 77.7 0.0 71.4 6.3 74.3 5.75 81.3 5.4 86.95 5.95 88.55 6.3 79.0 10.65 82.0 10.3 Q84.7 10.6 87.65 12.6 L93.4 16.3 94.85 17.1 86.75 18.0 88.8 20.4 Q91.25 22.85 93.05 23.4 L96.9 24.2" fill="#000000" fill-rule="evenodd" stroke="none"/>
      <path d="M25.35 36.5 L25.25 36.6 25.2 36.6 25.35 36.5 26.2 34.35 Q26.9 32.35 27.0 30.5 27.15 28.45 25.8 26.25 L24.85 24.9 24.4 24.4 24.4 25.15 23.8 27.2 Q22.4 30.8 18.2 34.75 L10.75 41.75 Q8.25 44.2 7.85 45.3 7.45 46.4 7.15 42.05 L6.95 37.5 4.15 39.0 Q1.3 40.8 1.05 41.85 L1.45 37.4 Q2.1 32.25 3.2 28.55 4.2 25.3 8.65 21.55 10.9 19.6 13.05 18.3 L6.1 18.3 7.1 17.7 9.6 16.55 Q10.8 16.15 13.8 15.9 L16.55 15.7 15.45 14.45 Q14.15 13.2 13.05 13.1 11.65 12.9 12.35 12.65 L15.7 12.2 Q17.8 12.1 18.7 13.6 L19.15 15.7 19.15 15.0 18.7 13.6 Q18.1 10.95 18.1 9.1 18.1 6.5 19.15 6.1 20.65 5.55 21.4 4.5 L21.8 3.5 21.8 12.2 Q23.35 10.0 26.55 7.65 32.95 3.05 40.95 2.6 49.45 2.2 55.25 2.6 L64.1 3.65 69.75 3.4 72.35 2.6 68.0 7.0 71.25 6.9 Q75.15 6.8 78.45 7.0 L80.15 7.0 83.65 7.0 74.1 11.35 75.1 11.1 77.7 10.8 Q82.0 10.75 85.4 13.1 L90.65 16.55 81.95 16.55 84.05 18.6 Q86.45 20.8 88.0 21.8 L91.5 24.35 92.4 25.3 88.9 24.4 89.7 24.8 91.45 26.0 Q94.0 28.25 94.15 31.4 L94.2 36.75 94.15 38.35 91.1 33.6 Q87.75 28.55 86.3 27.0 83.8 24.4 79.75 22.55 L77.45 21.75 Q76.65 21.7 77.3 22.35 L77.45 23.4 Q77.6 24.65 77.35 25.65 76.55 28.9 72.35 28.75 L67.8 28.75 64.7 28.8 63.4 28.6 Q63.35 28.4 64.5 27.9 67.5 26.55 67.15 24.05 L66.65 22.45 66.25 21.8 64.05 21.75 Q61.25 22.05 58.4 23.55 55.7 24.95 54.6 26.05 54.05 26.65 54.05 27.0 L54.0 24.2 Q54.1 21.4 54.9 20.05 55.35 19.3 54.3 19.3 L51.5 19.9 Q49.65 20.55 48.0 21.5 46.15 22.55 45.3 23.55 42.9 26.35 41.85 27.9 L41.3 26.65 Q40.8 25.0 40.95 22.65 L40.85 21.95 40.3 22.45 38.15 25.85 Q34.05 32.4 30.5 34.0 26.1 35.95 25.35 36.5" fill="#262626" fill-rule="evenodd" stroke="none"/>
      <path d="M25.35 36.5 L25.25 36.6 25.2 36.6 25.35 36.5 26.2 34.35 Q26.9 32.35 27.0 30.5 27.15 28.45 25.8 26.25 L24.85 24.9 24.4 24.4 24.4 25.15 23.8 27.2 Q22.4 30.8 18.2 34.75 L10.75 41.75 Q8.25 44.2 7.85 45.3 7.45 46.4 7.15 42.05 L6.95 37.5 4.35 38.65 Q1.7 40.0 1.45 41.1 L1.5 39.1 2.0 34.25 3.45 36.6 5.95 34.3 9.6 30.5 Q10.25 32.15 10.4 35.4 L10.45 38.35 14.05 35.4 Q18.05 31.85 20.05 28.75 21.8 26.1 22.85 23.25 L23.5 20.95 24.8 21.95 27.5 24.4 Q31.3 28.15 30.5 29.65 30.05 30.5 30.6 30.3 L32.25 29.25 Q35.05 26.95 36.6 24.4 37.95 22.25 40.9 19.6 L43.55 17.45 42.7 23.55 46.2 20.75 Q50.1 17.85 52.3 17.45 L57.95 16.75 61.0 16.55 57.5 21.8 58.45 21.7 61.45 20.65 Q66.6 18.95 68.85 19.2 70.25 19.35 71.45 20.25 72.55 21.1 73.15 22.35 73.7 23.55 73.55 24.55 73.35 25.7 72.35 26.15 L70.2 27.0 69.7 27.0 69.75 27.1 70.2 27.0 73.45 26.4 Q75.7 25.5 75.8 23.55 75.9 22.45 75.4 20.7 L74.95 19.2 76.4 19.5 79.95 20.75 Q85.65 23.1 88.9 27.0 L93.25 32.25 93.8 29.5 94.15 31.4 94.2 36.75 94.15 38.35 91.1 33.6 Q87.75 28.55 86.3 27.0 83.8 24.4 79.75 22.55 L77.45 21.75 Q76.65 21.7 77.3 22.35 L77.45 23.4 Q77.6 24.65 77.35 25.65 76.55 28.9 72.35 28.75 L67.8 28.75 64.7 28.8 63.4 28.6 Q63.35 28.4 64.5 27.9 67.5 26.55 67.15 24.05 L66.65 22.45 66.25 21.8 64.05 21.75 Q61.25 22.05 58.4 23.55 55.7 24.95 54.6 26.05 54.05 26.65 54.05 27.0 L54.0 24.2 Q54.1 21.4 54.9 20.05 55.35 19.3 54.3 19.3 L51.5 19.9 Q49.65 20.55 48.0 21.5 46.15 22.55 45.3 23.55 42.9 26.35 41.85 27.9 L41.3 26.65 Q40.8 25.0 40.95 22.65 L40.85 21.95 40.3 22.45 38.15 25.85 Q34.05 32.4 30.5 34.0 26.1 35.95 25.35 36.5" fill="#1e1e1e" fill-rule="evenodd" stroke="none"/>
      <path d="M60.15 4.35 Q61.05 4.65 62.0 5.35 L63.6 6.95 Q65.05 9.15 62.5 10.75 60.8 11.8 57.1 11.7 L54.7 11.5 53.75 11.4 54.15 11.7 54.95 12.45 Q55.95 13.75 54.9 14.8 53.6 16.15 47.15 15.2 L42.85 14.4 40.95 13.95 44.1 14.0 50.25 13.3 Q52.7 12.7 51.9 11.3 L51.15 10.4 50.65 10.05 53.95 10.0 Q57.55 9.75 58.95 8.9 62.2 6.85 58.9 4.95 57.85 4.4 56.25 3.9 L54.9 3.5 56.75 3.7 60.15 4.35" fill="#535353" fill-rule="evenodd" stroke="none"/>
    </g>
  </defs>
</svg>
