<?xml version="1.0" encoding="UTF-8" standalone="no"?>
<svg xmlns:ffdec="https://www.free-decompiler.com/flash" xmlns:xlink="http://www.w3.org/1999/xlink" ffdec:objectType="frame" height="247.95px" width="247.2px" xmlns="http://www.w3.org/2000/svg">
  <g transform="matrix(1.0, 0.0, 0.0, 1.0, 125.65, 165.35)">
    <use ffdec:characterId="210" height="27.85" transform="matrix(2.3621, -0.2465, 0.2465, 2.3621, 5.6, -14.9)" width="95.0" xlink:href="#sprite0"/>
  </g>
  <defs>
    <g id="sprite0">
      <use ffdec:characterId="209" height="27.85" transform="matrix(1.0, 0.0, 0.0, 1.0, 0.0, 0.0)" width="95.0" xlink:href="#shape0"/>
    </g>
    <g id="shape0">
      <path d="M-16.75 3.4 L-15.75 3.7 Q-15.25 3.85 -15.1 3.95 -14.8 4.25 -15.95 6.0 -18.8 9.0 -23.85 11.1 -28.6 13.05 -33.8 13.6 L-42.75 13.3 Q-46.75 12.3 -47.7 9.75 -48.65 7.2 -46.65 5.3 -44.75 3.5 -40.45 2.6 -31.2 0.65 -16.75 3.4" fill="#000000" fill-rule="evenodd" stroke="none"/>
      <path d="M-18.05 3.75 L-17.1 4.0 Q-16.6 4.15 -16.5 4.25 -16.2 4.5 -17.25 6.05 -19.6 8.7 -24.25 10.55 -28.55 12.3 -33.45 12.85 L-41.9 12.55 Q-45.7 11.65 -46.55 9.4 -47.4 7.15 -45.6 5.45 -43.85 3.85 -39.85 3.05 -31.35 1.3 -18.05 3.75" fill="#ffd200" fill-rule="evenodd" stroke="none"/>
      <path d="M-17.25 5.3 L-16.15 5.55 Q-15.95 5.75 -16.7 6.7 -18.4 8.3 -21.75 9.45 -24.85 10.5 -28.35 10.8 L-34.45 10.65 Q-37.15 10.1 -37.8 8.75 -38.45 7.35 -37.1 6.3 -35.85 5.35 -33.0 4.85 L-17.25 5.3" fill="#e3bb00" fill-rule="evenodd" stroke="none"/>
      <path d="M3.55 -3.45 Q4.75 0.3 4.75 4.0 -0.7 6.2 -6.3 7.6 -17.5 10.3 -18.3 6.1 -18.45 2.95 -17.75 -0.1 -17.0 -3.35 -15.45 -5.85 -11.7 -11.75 -4.95 -11.35 1.15 -11.0 3.55 -3.45" fill="#000000" fill-rule="evenodd" stroke="none"/>
      <path d="M2.85 -3.5 Q3.95 0.05 3.95 3.55 L-1.9 4.9 -12.95 7.0 -19.65 7.2 Q-20.5 7.0 -20.0 6.6 -19.5 6.2 -17.5 5.6 -17.6 2.9 -16.95 0.05 -16.25 -3.05 -14.85 -5.45 -11.3 -11.35 -5.1 -10.95 0.6 -10.6 2.85 -3.5" fill="#ffd200" fill-rule="evenodd" stroke="none"/>
      <path d="M-7.0 -10.9 L-8.95 -8.0 Q-10.25 -5.65 -10.85 -3.2 -11.4 -0.55 -11.65 2.95 L-11.8 5.95 -17.1 7.35 -20.15 6.95 Q-20.45 6.45 -17.5 5.6 -17.6 3.1 -17.05 0.45 -16.45 -2.4 -15.25 -4.7 -12.3 -10.3 -7.0 -10.9" fill="#e5bd00" fill-rule="evenodd" stroke="none"/>
      <path d="M-6.55 5.9 L-7.85 5.95 -14.7 5.8 -17.5 5.5 Q-17.6 3.45 -17.2 1.3 L-10.1 1.95 -5.85 2.15 -5.25 2.5 -4.15 3.35 Q-2.7 4.7 -3.85 5.35 L-6.55 5.9" fill="#595137" fill-rule="evenodd" stroke="none"/>
      <path d="M-12.25 2.1 L-9.8 2.35 -13.75 2.5 -17.15 2.3 -17.0 1.7 -12.25 2.1" fill="#988d6a" fill-rule="evenodd" stroke="none"/>
      <path d="M47.0 -1.5 Q47.25 2.4 44.75 5.95 42.25 9.55 37.8 11.55 33.6 13.4 28.95 13.65 L20.55 13.1 12.5 11.45 Q7.75 10.4 4.9 10.25 -2.1 9.75 -10.5 10.1 L-24.2 11.2 -11.7 2.65 Q-3.45 -2.9 2.9 -6.3 21.0 -15.95 33.05 -13.5 39.75 -12.1 43.4 -8.65 46.7 -5.6 47.0 -1.5" fill="#000000" fill-rule="evenodd" stroke="none"/>
      <path d="M46.0 -1.25 Q46.15 2.4 43.7 5.8 41.2 9.2 36.95 11.1 32.95 12.85 28.35 13.05 L20.05 12.35 12.1 10.6 Q7.45 9.55 4.6 9.45 -2.35 9.2 -9.8 9.5 L-22.7 10.5 -13.25 4.5 Q-4.7 -1.25 0.8 -4.35 20.5 -15.5 32.95 -12.65 39.35 -11.3 42.75 -8.05 45.85 -5.15 46.0 -1.25" fill="#2d221d" fill-rule="evenodd" stroke="none"/>
      <path d="M-25.2 -4.8 Q-25.65 -5.25 -25.4 -5.35 L-24.4 -5.3 -22.4 -4.4 Q-20.1 -3.0 -18.7 -0.4 -17.25 2.25 -17.45 4.95 L-17.9 5.15 -18.1 5.15 Q-18.4 1.65 -19.45 -0.35 -20.65 -2.65 -23.3 -3.8 -24.6 -4.35 -25.2 -4.8" fill="#000000" fill-rule="evenodd" stroke="none"/>
      <path d="M-22.8 -9.5 Q-21.8 -10.55 -20.45 -10.15 -19.2 -9.75 -18.4 -8.5 -17.55 -7.2 -17.85 -5.95 -18.2 -4.5 -20.05 -3.8 -18.95 -2.15 -19.35 -0.8 -19.7 0.4 -20.95 0.9 L-23.3 1.0 Q-24.55 0.55 -24.85 -0.75 -25.5 0.35 -26.55 0.3 -27.5 0.25 -28.35 -0.65 -29.15 -1.5 -29.3 -2.5 -29.4 -3.6 -28.5 -4.2 -29.85 -4.4 -30.35 -5.4 -30.75 -6.25 -30.35 -7.35 -30.0 -8.4 -29.15 -8.9 L-27.3 -8.85 Q-27.95 -9.9 -27.4 -10.9 -26.9 -11.75 -25.75 -12.1 -24.6 -12.45 -23.8 -11.85 -22.8 -11.2 -22.8 -9.5" fill="#000000" fill-rule="evenodd" stroke="none"/>
      <path d="M-20.9 -9.45 Q-19.75 -9.25 -19.05 -8.15 -18.3 -7.05 -18.65 -5.95 -19.05 -4.65 -20.85 -4.0 -19.8 -2.35 -20.05 -1.05 -20.25 0.1 -21.3 0.55 L-23.3 0.45 Q-24.4 -0.15 -24.8 -1.65 -25.4 -0.5 -26.4 -0.45 -27.3 -0.4 -27.95 -1.15 -28.65 -1.9 -28.6 -2.8 -28.55 -3.85 -27.45 -4.45 -28.95 -4.6 -29.55 -5.45 -30.15 -6.2 -29.85 -7.15 -29.55 -8.05 -28.7 -8.35 -27.75 -8.75 -26.55 -8.05 -27.35 -9.2 -26.95 -10.25 -26.6 -11.2 -25.65 -11.5 -24.7 -11.8 -24.0 -11.15 -23.15 -10.4 -23.15 -8.65 -22.15 -9.7 -20.9 -9.45" fill="#ff4f4f" fill-rule="evenodd" stroke="none"/>
      <path d="M-21.6 -3.5 L-21.35 -3.6 -20.8 -3.95 Q-19.8 -2.3 -20.05 -1.0 -20.3 0.1 -21.3 0.55 -20.9 0.0 -20.95 -0.9 L-21.6 -3.5 M-29.55 -7.7 L-28.8 -8.3 -27.7 -8.5 -27.45 -7.55 -29.55 -7.7 M-20.95 -9.45 Q-19.85 -9.3 -19.1 -8.25 -18.35 -7.2 -18.6 -6.1 -18.9 -4.85 -20.5 -4.1 L-19.85 -4.6 Q-19.2 -5.15 -19.5 -6.4 -19.75 -7.6 -20.6 -8.35 -21.35 -8.95 -22.3 -8.8 L-24.0 -8.2 Q-23.95 -9.8 -24.75 -10.55 -25.4 -11.05 -26.45 -11.05 -25.5 -12.0 -24.4 -11.45 -23.15 -10.85 -23.15 -8.65 -22.2 -9.7 -20.95 -9.45" fill="#ffa7a7" fill-rule="evenodd" stroke="none"/>
      <path d="M-24.4 -6.75 Q-23.75 -6.65 -23.3 -6.05 -22.9 -5.4 -23.0 -4.65 -23.1 -3.9 -23.65 -3.4 -24.25 -2.95 -24.9 -3.05 -25.6 -3.15 -26.0 -3.75 -26.4 -4.4 -26.3 -5.15 L-25.65 -6.4 Q-25.1 -6.85 -24.4 -6.75" fill="#ffffff" fill-rule="evenodd" stroke="none"/>
    </g>
  </defs>
</svg>
