<?xml version="1.0" encoding="UTF-8" standalone="no"?>
<svg xmlns:ffdec="https://www.free-decompiler.com/flash" xmlns:xlink="http://www.w3.org/1999/xlink" ffdec:objectType="frame" height="247.95px" width="247.2px" xmlns="http://www.w3.org/2000/svg">
  <g transform="matrix(1.0, 0.0, 0.0, 1.0, 125.65, 165.35)">
    <use ffdec:characterId="739" height="39.35" transform="matrix(1.0, 0.0, 0.0, 1.0, 0.0, 0.0)" width="72.55" xlink:href="#shape0"/>
    <use ffdec:characterId="130" height="52.35" transform="matrix(0.8631, -0.0635, 0.0635, 0.8631, 5.0, -3.05)" width="75.0" xlink:href="#sprite0"/>
  </g>
  <defs>
    <g id="shape0">
      <path d="M-4.6 -13.55 Q2.95 -10.2 6.05 -6.2 0.25 -4.25 -11.8 -2.15 L-22.7 -0.45 Q-29.25 -0.4 -35.35 -1.65 -47.6 -4.05 -45.45 -10.3 -43.0 -15.75 -35.7 -17.7 -29.2 -19.35 -20.25 -18.05 -11.95 -16.85 -4.6 -13.55" fill="#000000" fill-rule="evenodd" stroke="none"/>
      <path d="M7.05 -3.35 Q11.9 0.7 3.5 -0.75 L-5.8 -3.0 Q-15.45 -2.25 -24.65 -2.8 -43.05 -3.9 -40.8 -10.35 -39.35 -14.5 -33.25 -15.85 -27.65 -17.1 -19.65 -15.75 -11.85 -14.45 -4.65 -11.2 2.9 -7.75 7.05 -3.35" fill="#d6002d" fill-rule="evenodd" stroke="none"/>
      <path d="M19.5 -14.6 Q25.05 -7.4 26.3 -1.3 20.2 -1.4 8.2 -4.0 L-2.55 -6.65 Q-8.6 -9.4 -13.75 -13.45 -24.05 -21.6 -19.5 -28.1 -15.05 -33.6 -7.5 -32.75 -0.85 -32.05 6.85 -26.7 14.0 -21.7 19.5 -14.6" fill="#000000" fill-rule="evenodd" stroke="none"/>
      <path d="M26.0 2.6 Q28.85 9.5 21.75 4.2 L14.05 -2.5 Q4.9 -5.75 -3.4 -10.3 -19.9 -19.45 -15.25 -26.15 -12.2 -30.55 -5.95 -29.55 -0.3 -28.65 6.5 -23.65 13.15 -18.75 18.4 -11.8 24.0 -4.5 26.0 2.6" fill="#d6002d" fill-rule="evenodd" stroke="none"/>
    </g>
    <g id="sprite0">
      <use ffdec:characterId="129" height="52.35" transform="matrix(1.0, 0.0, 0.0, 1.0, 0.0, 0.0)" width="75.0" xlink:href="#shape1"/>
    </g>
    <g id="shape1">
      <path d="M24.65 -24.65 Q27.25 -25.85 28.65 -25.35 31.0 -24.5 33.65 -17.45 36.3 -10.35 37.4 -1.75 38.65 7.9 37.2 14.85 35.5 23.0 30.25 25.55 25.65 27.7 16.55 17.95 L10.7 11.05 8.3 7.8 7.2 7.05 Q5.9 6.05 5.2 4.6 2.9 0.05 7.15 -7.05 9.6 -11.1 12.85 -14.85 15.8 -18.3 19.0 -20.95 22.1 -23.45 24.65 -24.65" fill="#000000" fill-rule="evenodd" stroke="none"/>
      <path d="M23.8 -22.1 Q26.1 -23.2 27.3 -22.8 29.35 -22.0 31.65 -15.65 34.0 -9.3 34.95 -1.55 36.05 7.15 34.8 13.35 33.3 20.7 28.7 22.95 24.7 24.95 16.7 16.2 14.2 13.45 11.6 9.95 L9.5 7.0 8.55 6.35 Q7.4 5.45 6.8 4.2 4.8 0.05 8.5 -6.3 12.75 -13.6 18.9 -18.8 21.6 -21.05 23.8 -22.1" fill="#ff5450" fill-rule="evenodd" stroke="none"/>
      <path d="M22.2 17.6 Q27.4 21.4 31.1 21.2 L28.7 22.95 Q24.7 24.95 16.7 16.2 14.2 13.45 11.6 9.95 L9.5 7.0 Q8.85 6.75 8.1 6.0 6.65 4.6 6.25 2.5 L8.3 4.65 Q17.35 14.0 22.2 17.6" fill="#e0332f" fill-rule="evenodd" stroke="none"/>
      <path d="M27.3 -22.8 Q28.4 -22.35 29.65 -20.15 30.9 -18.0 32.05 -14.65 L29.9 -17.15 Q28.65 -18.45 27.7 -19.05 26.05 -20.1 22.25 -18.65 18.9 -17.4 14.4 -14.4 18.2 -18.65 21.9 -21.05 25.55 -23.4 27.3 -22.8" fill="#ffa5a3" fill-rule="evenodd" stroke="none"/>
      <path d="M6.2 0.2 L5.9 0.15 6.0 -0.05 6.2 0.2 Q6.85 0.0 8.8 -1.55 11.95 -4.1 15.5 -5.65 19.65 -7.45 19.9 -5.65 20.15 -3.65 19.25 -1.6 18.35 0.4 16.85 1.5 12.95 3.3 9.6 2.25 7.6 1.65 6.2 0.2" fill="#e0332f" fill-rule="evenodd" stroke="none"/>
      <path d="M-3.85 -6.7 Q0.85 1.55 -1.15 5.55 -1.75 6.8 -3.0 7.5 L-4.05 7.9 Q-8.4 13.65 -13.75 18.7 -24.45 28.8 -29.4 25.55 -33.5 22.95 -35.5 14.7 -37.15 7.7 -37.0 -1.95 -36.85 -10.65 -35.35 -17.65 -33.85 -24.7 -31.95 -25.6 -30.1 -26.45 -26.5 -25.5 -22.95 -24.5 -18.8 -21.95 -14.45 -19.25 -10.7 -15.55 -6.5 -11.4 -3.85 -6.7" fill="#000000" fill-rule="evenodd" stroke="none"/>
      <path d="M-5.25 -6.0 Q-1.15 1.4 -2.9 5.05 -3.4 6.15 -4.5 6.75 L-5.45 7.15 Q-9.3 12.3 -14.0 16.85 -23.4 26.0 -27.8 23.05 -31.45 20.65 -33.15 13.3 -34.65 6.95 -34.5 -1.75 -34.35 -9.55 -33.05 -15.9 -31.7 -22.25 -30.05 -23.05 -28.4 -23.85 -25.25 -22.95 -22.1 -22.05 -18.45 -19.8 -14.6 -17.35 -11.3 -14.0 -7.6 -10.25 -5.25 -6.0" fill="#ff5450" fill-rule="evenodd" stroke="none"/>
      <path d="M-4.4 4.65 L-2.35 2.55 Q-2.35 5.05 -3.9 6.35 -4.65 7.0 -5.45 7.15 -9.3 12.3 -14.0 16.85 -23.4 26.0 -27.8 23.05 -29.2 22.1 -30.35 20.35 -28.05 21.45 -25.8 21.15 -23.4 20.85 -20.45 19.05 -17.6 17.3 -13.6 13.7 L-4.4 4.65" fill="#e0332f" fill-rule="evenodd" stroke="none"/>
      <path d="M-13.05 -15.7 Q-11.9 -14.55 -12.0 -14.3 -12.05 -14.05 -13.85 -15.15 -19.25 -18.4 -23.4 -19.8 -28.1 -21.4 -29.95 -20.15 -31.2 -19.25 -32.75 -17.15 -32.2 -19.65 -31.5 -21.15 -30.8 -22.7 -30.05 -23.05 -27.75 -24.15 -22.85 -22.1 -17.85 -20.0 -13.05 -15.7" fill="#ffa5a3" fill-rule="evenodd" stroke="none"/>
      <path d="M-3.0 0.6 Q-3.9 2.5 -5.75 3.25 -8.9 4.55 -13.75 1.85 -15.3 0.75 -16.15 -1.25 -17.05 -3.3 -16.8 -5.3 -16.55 -7.1 -12.45 -5.3 -8.9 -3.75 -5.7 -1.2 L-3.0 0.6 -2.9 0.3 -2.85 0.5 -3.0 0.6" fill="#e0332f" fill-rule="evenodd" stroke="none"/>
      <path d="M-3.55 2.3 Q-4.35 2.25 -5.1 1.4 -7.1 -1.0 -10.4 -3.25 -14.35 -5.9 -16.0 -4.95 -17.55 -4.05 -15.85 -1.05 L-13.85 1.8 Q-15.6 0.55 -17.0 -1.1 -19.95 -4.4 -18.45 -6.35 -16.75 -8.5 -12.75 -7.35 -9.05 -6.25 -5.1 -2.95 -3.4 -1.5 -2.75 -0.2 -2.2 0.95 -2.5 1.7 -2.8 2.35 -3.55 2.3" fill="#000000" fill-rule="evenodd" stroke="none"/>
      <path d="M19.75 -1.1 L17.6 0.95 16.55 1.8 17.25 0.95 18.6 -1.05 Q20.3 -4.05 18.75 -4.95 17.1 -5.9 13.1 -3.25 9.8 -1.0 7.8 1.4 7.1 2.25 6.3 2.3 5.5 2.35 5.25 1.7 4.9 0.95 5.5 -0.2 6.15 -1.5 7.85 -2.95 11.8 -6.25 15.45 -7.35 19.45 -8.5 21.15 -6.35 22.65 -4.4 19.75 -1.1" fill="#000000" fill-rule="evenodd" stroke="none"/>
      <path d="M-0.45 -8.95 Q0.85 -8.9 2.5 -8.1 3.45 -9.05 5.25 -8.8 6.9 -8.6 7.85 -7.6 8.3 -7.15 8.95 -5.3 L10.0 -1.0 Q11.1 5.15 9.7 8.25 9.0 9.9 6.8 10.55 L2.35 10.95 -2.2 10.1 Q-4.3 9.45 -5.25 8.7 -6.05 8.05 -6.35 5.8 -6.65 3.7 -6.4 0.95 -6.15 -1.8 -5.55 -4.05 -4.9 -6.45 -4.05 -7.4 -2.55 -9.05 -0.45 -8.95" fill="#000000" fill-rule="evenodd" stroke="none"/>
      <path d="M-3.05 -5.4 Q-1.8 -6.7 -0.05 -6.65 1.05 -6.6 2.4 -5.95 3.2 -6.7 4.7 -6.55 6.1 -6.35 6.9 -5.6 L7.8 -3.85 8.7 -0.55 Q9.6 4.2 8.45 6.55 7.3 8.95 2.3 8.6 L-1.5 8.0 Q-3.3 7.5 -4.05 6.9 -4.75 6.4 -5.0 4.65 -5.2 3.1 -5.05 0.95 L-4.35 -2.85 Q-3.8 -4.7 -3.05 -5.4" fill="#ff5450" fill-rule="evenodd" stroke="none"/>
      <path d="M3.0 -3.3 Q2.2 -6.05 0.8 -6.8 L0.4 -7.1 2.4 -6.45 Q2.85 -6.9 3.65 -7.0 L3.7 -6.9 Q4.6 -4.9 4.15 -2.6 3.95 -1.5 3.55 -0.75 L3.0 -3.3" fill="#000000" fill-rule="evenodd" stroke="none"/>
    </g>
  </defs>
</svg>
