<?xml version="1.0" encoding="UTF-8" standalone="no"?>
<svg xmlns:ffdec="https://www.free-decompiler.com/flash" xmlns:xlink="http://www.w3.org/1999/xlink" ffdec:objectType="frame" height="127.35px" width="181.25px" xmlns="http://www.w3.org/2000/svg">
  <g transform="matrix(1.0, 0.0, 0.0, 1.0, 120.25, 58.85)">
    <use ffdec:characterId="190" height="69.6" transform="matrix(1.0, 0.0, 0.0, 1.0, -120.25, -47.05)" width="102.25" xlink:href="#sprite0"/>
  </g>
  <defs>
    <g id="sprite0">
      <use ffdec:characterId="189" height="69.6" transform="matrix(1.0, 0.0, 0.0, 1.0, 0.0, 0.0)" width="102.25" xlink:href="#shape0"/>
    </g>
    <g id="shape0">
      <path d="M99.95 1.7 Q101.75 3.85 102.25 5.35 101.9 6.9 98.9 8.85 92.3 13.2 91.55 13.8 87.95 16.55 83.8 22.5 L80.45 27.95 20.45 62.45 Q20.35 62.5 18.0 65.7 15.8 68.9 14.35 69.55 L12.65 69.4 Q11.0 68.95 9.25 67.95 4.2 65.2 1.7 59.9 -0.8 54.7 0.35 50.65 1.05 48.3 2.5 47.1 3.05 46.65 6.15 45.85 L10.15 44.85 Q24.85 36.15 39.25 27.7 67.85 10.95 70.45 9.9 L80.55 8.4 Q88.05 7.1 90.05 5.85 L93.25 3.45 96.95 0.25 Q97.85 -0.7 99.95 1.7" fill="#000000" fill-rule="evenodd" stroke="none"/>
      <path d="M88.95 13.8 L90.7 14.5 Q87.25 17.4 83.5 23.0 L80.45 27.95 20.45 62.45 19.75 63.25 18.65 64.8 17.75 64.25 Q16.75 63.3 12.4 55.0 7.9 46.4 8.25 45.35 L8.25 45.3 10.15 44.85 Q24.85 36.15 39.25 27.7 67.85 10.95 70.45 9.9 L78.7 8.7 Q85.1 7.7 88.05 6.7 L85.25 10.5 88.95 13.8" fill="#bf6300" fill-rule="evenodd" stroke="none"/>
      <path d="M17.65 40.4 Q17.05 41.2 16.75 42.05 16.25 43.3 16.55 44.35 16.9 45.7 20.7 51.25 L24.5 56.45 26.0 57.15 28.55 57.75 28.6 57.75 20.45 62.45 20.25 62.55 Q18.85 62.45 18.5 62.15 L13.75 55.7 Q9.35 49.5 9.1 48.55 8.8 47.6 9.65 44.95 L10.15 44.85 17.65 40.4" fill="#404040" fill-rule="evenodd" stroke="none"/>
      <path d="M89.15 12.3 Q89.85 13.8 91.15 14.1 87.6 16.95 83.7 22.75 L80.45 27.95 78.95 28.85 78.75 28.85 79.3 23.35 74.1 12.0 70.55 10.15 71.15 9.75 79.4 8.55 88.1 6.7 Q87.55 7.5 88.0 9.3 88.3 10.45 89.15 12.3" fill="#d18942" fill-rule="evenodd" stroke="none"/>
      <path d="M0.35 50.65 Q1.05 48.3 2.5 47.1 3.05 46.65 6.15 45.85 L10.15 44.85 10.65 44.5 10.75 44.65 10.35 45.8 Q10.05 47.25 10.2 48.5 10.35 49.8 14.0 55.25 L17.85 60.75 19.1 61.55 20.9 62.15 20.45 62.45 Q20.35 62.5 18.0 65.7 15.8 68.9 14.35 69.55 L12.65 69.4 Q11.0 68.95 9.25 67.95 4.2 65.2 1.7 59.9 -0.8 54.7 0.35 50.65" fill="#c33031" fill-rule="evenodd" stroke="none"/>
      <path d="M99.3 2.7 Q100.7 3.9 100.95 5.1 100.55 6.35 98.15 7.75 L91.55 11.95 Q87.9 14.6 83.05 20.9 L78.9 26.65 19.35 60.8 17.05 63.75 Q14.95 66.55 13.85 66.9 L12.4 66.75 Q11.05 66.4 9.65 65.6 5.6 63.25 3.7 59.0 1.8 54.85 2.75 51.75 3.05 50.75 3.7 49.85 L4.45 48.9 Q4.7 48.5 7.35 47.7 L10.85 46.5 Q25.95 37.6 40.7 29.05 70.05 12.05 72.45 11.5 L81.65 9.7 Q88.55 8.35 90.8 7.05 L93.55 5.0 96.85 2.2 Q97.8 1.3 99.3 2.7" fill="#000000" fill-rule="evenodd" stroke="none"/>
      <path d="M72.45 11.5 L73.4 11.25 75.5 12.2 73.45 18.55 81.5 20.8 79.95 25.1 78.9 26.65 23.85 58.2 20.55 55.55 Q18.4 53.55 17.65 51.95 16.65 50.55 15.8 48.5 14.7 45.85 14.8 44.2 33.45 33.25 47.3 25.25 70.3 12.0 72.45 11.5" fill="#ffba48" fill-rule="evenodd" stroke="none"/>
      <path d="M74.0 18.2 L81.3 21.2 79.9 25.2 78.9 26.65 23.85 58.2 20.55 55.55 Q18.4 53.55 17.65 51.95 L17.2 51.25 74.0 18.2" fill="#ec9914" fill-rule="evenodd" stroke="none"/>
      <path d="M87.75 8.25 Q87.6 9.35 88.4 11.1 L89.8 13.35 Q86.45 16.35 82.35 21.75 L78.9 26.65 78.85 26.65 80.05 23.3 80.95 21.2 77.35 20.1 73.4 18.65 Q73.05 18.4 74.1 15.3 L75.15 12.25 73.0 11.35 79.9 10.05 87.75 8.25" fill="#ffddbd" fill-rule="evenodd" stroke="none"/>
      <path d="M88.35 10.95 L89.8 13.35 Q86.6 16.2 82.65 21.4 80.45 24.25 78.95 26.6 79.2 25.5 80.1 23.25 L80.95 21.2 78.1 20.45 Q75.15 19.6 74.25 19.05 L81.45 14.9 88.35 10.95" fill="#f1b77e" fill-rule="evenodd" stroke="none"/>
      <path d="M3.7 49.85 L4.45 48.9 Q4.7 48.5 7.3 47.7 L10.8 46.55 Q10.1 49.65 12.4 53.0 14.25 55.65 16.65 57.7 18.75 59.55 20.4 60.2 L19.35 60.8 17.05 63.75 Q14.95 66.55 13.85 66.9 L12.4 66.75 Q11.05 66.4 9.65 65.6 5.6 63.25 3.7 59.0 1.8 54.85 2.75 51.75 3.05 50.75 3.7 49.85" fill="#ffa09f" fill-rule="evenodd" stroke="none"/>
      <path d="M13.85 66.9 Q13.2 67.25 10.75 66.15 7.7 64.75 5.6 62.15 6.5 61.4 6.95 59.15 L7.25 57.05 9.0 57.75 11.85 58.15 Q12.8 57.9 13.3 57.0 L13.8 55.75 Q13.85 55.5 15.9 57.2 L19.7 60.55 19.35 60.8 17.05 63.75 Q14.95 66.55 13.85 66.9" fill="#ff8182" fill-rule="evenodd" stroke="none"/>
      <path d="M16.55 43.2 Q16.5 44.65 16.95 46.3 17.6 48.7 19.25 51.0 21.05 53.6 22.95 55.25 24.6 56.7 25.85 57.05 L19.35 60.8 18.85 61.3 Q15.95 59.9 12.9 55.0 9.7 50.15 10.2 46.85 L10.85 46.5 16.55 43.2" fill="#404040" fill-rule="evenodd" stroke="none"/>
      <path d="M18.3 52.1 Q20.0 54.6 21.9 56.15 23.4 57.3 24.65 57.75 L19.4 60.75 Q17.3 59.55 15.25 56.95 15.0 54.75 15.1 54.95 L16.95 56.45 18.95 57.95 17.7 54.45 16.25 51.0 18.3 52.1 M15.6 43.75 L15.6 44.45 14.65 46.05 Q14.1 47.5 14.4 49.0 L15.75 53.75 10.95 47.9 10.95 46.5 Q13.25 45.1 15.6 43.75" fill="#838383" fill-rule="evenodd" stroke="none"/>
      <path d="M99.25 4.3 Q99.75 4.25 100.0 4.55 L100.25 5.05 Q100.35 5.35 99.25 6.2 98.15 7.05 97.3 7.2 96.9 7.4 97.75 6.5 L98.7 5.55 97.7 5.95 Q96.6 6.2 96.25 5.55 95.9 4.85 96.65 3.9 97.3 3.1 97.9 2.8 98.45 2.6 98.9 3.1 99.45 3.6 99.25 4.3" fill="#ffffff" fill-rule="evenodd" stroke="none"/>
    </g>
  </defs>
</svg>
