<?xml version="1.0" encoding="UTF-8" standalone="no"?>
<svg xmlns:ffdec="https://www.free-decompiler.com/flash" xmlns:xlink="http://www.w3.org/1999/xlink" ffdec:objectType="frame" height="127.35px" width="181.25px" xmlns="http://www.w3.org/2000/svg">
  <g transform="matrix(1.0, 0.0, 0.0, 1.0, 120.25, 58.85)">
    <use ffdec:characterId="69" height="78.45" transform="matrix(0.8693, 0.0, 0.0, 0.8693, -13.6, -38.4)" width="78.75" xlink:href="#shape0"/>
  </g>
  <defs>
    <g id="shape0">
      <path d="M16.7 35.45 L16.1 36.35 14.85 37.6 15.85 37.65 Q16.1 36.65 16.7 35.45 M26.45 22.3 L27.0 23.3 30.4 20.15 Q28.15 21.15 25.8 20.7 L26.45 22.3 M14.25 8.2 Q13.1 12.1 9.6 12.1 6.8 12.05 4.1 9.75 2.5 8.4 4.8 4.85 6.95 1.3 8.4 1.95 10.4 2.8 12.3 4.45 14.75 6.65 14.25 8.2 M39.15 11.2 Q36.45 10.9 35.35 9.1 34.35 7.45 36.25 4.95 38.25 2.3 41.15 3.25 41.95 3.45 42.75 4.5 43.1 2.6 43.9 1.5 44.9 0.15 48.25 0.0 51.65 -0.15 53.55 1.15 55.2 2.25 55.6 11.35 63.8 13.65 64.9 14.55 66.65 15.9 72.0 22.4 78.0 29.7 78.7 32.2 79.2 34.15 76.2 45.85 73.15 57.65 71.7 58.8 L66.35 61.6 Q68.5 63.45 69.3 65.8 70.4 68.85 68.8 71.65 67.4 74.25 64.0 74.3 60.75 74.35 58.4 72.3 L58.2 74.55 Q57.9 77.35 53.4 78.15 49.1 79.0 48.6 77.4 48.25 76.1 46.1 73.4 44.05 70.85 42.55 69.6 41.9 69.05 42.35 67.65 42.75 66.45 43.9 64.95 30.2 63.1 28.8 57.35 25.35 57.3 21.65 51.95 18.65 47.75 16.75 42.35 14.25 45.4 12.2 44.4 11.5 44.0 11.8 42.0 12.0 39.95 12.85 38.65 11.1 39.35 9.5 39.5 7.75 39.65 6.8 39.05 L2.5 35.75 Q-0.2 33.3 0.0 32.6 0.7 30.1 4.15 28.0 7.35 26.1 10.45 25.9 12.9 25.7 14.5 26.55 L17.1 28.35 Q18.35 29.25 17.85 32.0 17.6 33.55 17.0 34.9 17.9 33.0 19.65 30.65 L18.6 28.2 Q18.35 27.6 16.3 26.25 13.9 24.75 12.8 23.2 11.3 21.1 14.95 17.55 18.65 14.0 21.65 14.65 22.55 14.8 23.55 16.25 23.9 13.85 25.05 12.0 26.35 9.9 28.05 9.75 29.95 9.65 32.2 11.5 34.6 13.5 34.2 15.3 L33.75 16.65 39.15 11.2" fill="#316978" fill-rule="evenodd" stroke="none"/>
      <path d="M13.9 41.1 Q14.05 39.85 15.0 39.25 16.0 38.65 16.4 38.75 16.9 38.8 17.05 39.75 17.25 40.75 16.5 41.75 15.7 42.75 14.75 42.6 13.8 42.45 13.9 41.1 M15.8 28.75 Q17.0 29.65 16.65 31.7 16.3 33.4 15.0 35.45 13.8 37.15 11.75 37.8 9.6 38.4 8.1 37.45 L4.3 34.95 Q2.05 33.25 2.2 32.6 2.45 31.6 5.05 29.75 8.1 27.65 10.65 27.5 13.25 27.3 14.0 27.5 L15.8 28.75 M6.55 9.55 Q4.9 8.3 6.05 6.15 7.15 4.05 8.6 4.7 L11.6 5.8 Q13.15 6.55 12.7 8.0 12.1 9.75 10.2 10.35 8.25 10.85 6.55 9.55 M28.55 10.8 Q30.1 10.1 31.3 12.15 32.55 14.2 31.9 16.2 31.35 18.1 29.0 19.0 26.7 19.95 25.5 18.75 24.4 17.65 25.7 14.6 26.95 11.65 28.55 10.8 M59.05 68.95 Q57.75 66.2 60.05 64.8 60.3 64.65 63.7 63.6 65.2 63.05 66.75 64.8 68.55 66.85 67.0 69.75 65.35 72.95 62.95 72.65 60.6 72.3 59.05 68.95 M51.8 64.2 Q54.05 64.45 55.75 65.4 57.2 66.2 56.95 67.95 L56.0 72.55 Q55.65 75.4 53.4 75.9 51.35 76.45 50.9 74.85 50.35 73.0 45.75 68.95 44.55 67.95 45.7 66.3 46.75 64.8 48.3 64.35 L51.8 64.2 M37.8 8.0 Q36.9 6.75 38.1 6.05 39.1 5.45 40.9 5.45 42.2 5.45 42.55 5.95 L43.2 7.75 Q43.75 9.1 41.25 9.2 38.75 9.35 37.8 8.0 M46.0 3.1 Q46.9 1.85 48.35 2.05 49.6 2.2 51.65 3.65 53.4 4.9 53.85 13.55 L60.35 15.8 Q63.3 16.95 63.9 17.45 65.6 18.9 70.25 24.5 75.5 30.95 76.2 33.45 76.7 35.4 73.95 45.4 71.15 55.45 69.65 56.6 67.85 58.05 63.1 60.15 57.65 62.55 54.75 62.8 49.3 63.15 41.65 61.65 31.7 59.8 31.15 56.0 27.65 55.8 23.05 48.75 18.85 42.4 18.6 39.1 18.5 37.6 20.15 34.75 21.6 32.25 23.9 29.6 L21.95 26.15 Q21.75 25.7 19.45 25.25 16.95 24.7 15.8 23.1 14.45 21.25 16.9 19.25 19.1 17.5 20.9 17.5 23.1 17.5 25.0 22.85 25.8 25.0 28.75 25.25 30.3 24.35 36.1 18.2 41.8 12.25 43.05 11.6 L47.15 11.75 Q46.5 10.3 45.45 9.55 44.1 8.5 44.5 6.45 44.8 4.85 46.0 3.1" fill="#fffbea" fill-rule="evenodd" stroke="none"/>
      <path d="M37.9 26.9 Q37.5 29.0 38.2 32.25 38.9 35.5 39.85 35.9 42.05 36.8 38.0 36.0 35.0 35.45 34.8 34.1 34.6 32.75 37.9 26.9 38.0 26.15 38.35 25.75 39.05 24.9 37.9 26.9 M67.4 46.5 Q72.05 45.55 74.35 43.9 L71.75 52.35 65.1 51.35 Q61.8 50.55 61.65 49.95 L60.9 48.25 Q60.6 47.4 61.95 47.25 L67.4 46.5 M37.8 8.0 Q37.05 6.95 37.8 6.25 38.45 5.65 39.9 5.5 39.65 7.7 40.15 8.75 L40.25 9.2 Q38.45 8.95 37.8 8.0 M46.0 3.1 Q46.55 2.4 47.1 2.2 L46.7 5.75 48.2 10.8 46.45 10.55 45.45 9.55 Q44.1 8.5 44.5 6.45 44.8 4.85 46.0 3.1 M15.25 42.6 L14.75 42.6 Q13.8 42.45 13.9 41.1 14.05 39.85 15.0 39.25 L15.45 39.0 Q14.9 41.75 15.25 42.6 M2.2 32.6 Q2.3 32.15 3.3 31.2 L5.7 29.35 5.8 32.65 9.4 34.1 14.75 34.4 15.3 34.95 15.0 35.45 Q13.8 37.15 11.75 37.8 9.6 38.4 8.1 37.45 L4.3 34.95 Q2.05 33.25 2.2 32.6 M28.6 25.25 L28.75 25.25 Q30.2 24.35 34.5 19.9 31.45 26.5 31.2 29.05 28.6 28.65 28.6 25.25 M18.35 22.0 Q19.35 23.35 20.15 23.65 21.65 24.25 24.0 29.05 L23.9 29.6 21.95 26.15 Q21.75 25.7 19.45 25.25 16.95 24.7 15.8 23.1 14.35 21.2 17.0 19.15 17.4 20.6 18.35 22.0 M28.8 18.0 L29.15 18.95 27.15 19.4 Q26.1 19.35 25.5 18.75 24.85 18.1 25.1 16.5 25.35 15.1 26.25 13.5 27.15 15.75 28.8 18.0 M6.55 9.55 Q5.25 8.55 5.7 6.95 6.15 5.35 7.35 4.75 7.0 7.15 8.5 8.1 L11.05 9.95 Q10.05 10.55 8.85 10.45 7.6 10.35 6.55 9.55 M59.05 68.95 Q57.7 66.05 60.3 64.7 60.15 66.2 60.4 66.9 60.8 67.85 61.95 68.15 L64.8 68.4 67.45 68.65 67.0 69.75 Q65.35 72.95 62.95 72.65 60.6 72.3 59.05 68.95 M51.7 69.55 Q52.85 70.45 53.3 72.05 53.45 72.6 54.15 73.2 L55.5 74.25 Q54.6 75.9 52.9 76.0 51.2 76.1 50.9 74.85 50.35 73.0 45.75 68.95 44.7 68.05 45.45 66.65 46.1 65.5 47.5 64.7 L48.4 67.85 Q48.85 69.25 49.4 69.05 50.5 68.65 51.7 69.55 M58.8 60.3 Q59.25 60.9 59.2 61.7 L54.75 62.8 46.7 62.4 Q46.1 61.0 45.25 61.0 44.45 61.0 43.9 62.05 31.75 60.25 31.15 56.0 27.65 55.8 23.05 48.75 18.85 42.4 18.6 39.1 18.5 37.6 20.15 34.75 21.6 32.25 23.9 29.65 22.05 37.75 23.1 38.6 24.3 39.5 30.9 39.8 L31.55 42.25 Q32.15 45.1 31.8 46.95 31.4 49.0 34.8 52.15 37.85 55.05 39.55 55.3 41.65 55.65 43.7 56.35 46.6 57.35 47.05 58.3 47.4 59.3 51.7 59.7 55.4 60.05 57.45 59.8 58.35 59.65 58.8 60.3 M45.85 52.05 Q42.7 50.1 40.25 45.65 39.4 44.0 39.25 43.15 39.1 42.3 39.85 43.1 41.4 44.6 47.05 47.0 52.55 49.35 54.2 49.35 54.95 49.35 54.45 50.2 L52.6 51.8 Q48.95 54.0 45.85 52.05 M43.8 18.95 Q41.6 24.35 42.25 26.35 40.0 23.65 41.35 19.45 42.6 15.6 44.95 14.7 45.65 14.4 43.8 18.95" fill="#b5e8fb" fill-rule="evenodd" stroke="none"/>
    </g>
  </defs>
</svg>
