<?xml version="1.0" encoding="UTF-8" standalone="no"?>
<svg xmlns:ffdec="https://www.free-decompiler.com/flash" xmlns:xlink="http://www.w3.org/1999/xlink" ffdec:objectType="frame" height="127.35px" width="181.25px" xmlns="http://www.w3.org/2000/svg">
  <g transform="matrix(1.0, 0.0, 0.0, 1.0, 120.25, 58.85)">
    <use ffdec:characterId="532" height="25.0" transform="matrix(1.0, 0.0, 0.0, 1.0, -68.1, -4.45)" width="107.95" xlink:href="#sprite0"/>
  </g>
  <defs>
    <g id="sprite0">
      <use ffdec:characterId="531" height="25.0" transform="matrix(1.0, 0.0, 0.0, 1.0, 0.0, 0.0)" width="107.95" xlink:href="#shape0"/>
    </g>
    <g id="shape0">
      <path d="M107.95 11.45 Q107.65 16.65 102.4 20.9 100.0 22.9 95.2 24.2 90.7 25.4 89.0 24.85 88.25 24.6 83.1 21.5 78.0 18.4 75.65 17.65 72.35 16.6 70.75 16.65 68.85 16.7 64.9 18.3 L57.1 22.05 Q52.45 24.1 48.85 23.55 43.35 22.65 39.25 19.05 35.45 15.0 33.45 13.75 29.7 11.35 26.0 12.0 24.25 12.3 22.95 13.7 L22.0 15.0 Q21.0 13.55 19.0 12.05 14.95 9.05 10.0 9.0 L3.5 9.5 2.0 10.0 Q0.95 9.8 0.35 6.9 L0.0 4.0 13.0 2.65 28.1 1.3 32.2 0.6 42.15 0.0 56.35 0.6 Q61.05 1.05 63.6 1.95 68.8 3.85 70.95 3.9 L74.5 3.15 81.0 1.95 Q85.65 1.5 92.65 1.65 100.45 1.75 103.1 2.6 105.5 3.35 106.45 4.75 L107.1 6.55 Q108.1 8.8 107.95 11.45" fill="#000000" fill-rule="evenodd" stroke="none"/>
      <path d="M105.75 7.2 Q106.3 9.55 105.55 13.1 104.4 18.85 99.75 20.9 96.75 22.25 93.3 22.8 89.9 23.4 88.35 22.9 L82.1 19.55 Q76.55 16.45 74.3 15.7 71.45 14.75 69.7 15.0 68.3 15.2 64.15 16.85 L56.7 20.6 Q52.25 22.75 48.85 22.25 43.7 21.45 38.25 16.05 L32.1 10.45 29.45 9.7 26.75 9.8 Q25.1 10.1 23.1 10.95 L21.4 11.75 Q20.3 10.7 18.25 9.6 14.15 7.4 9.35 7.2 5.65 7.05 3.5 7.85 L2.0 8.0 Q1.3 7.0 2.0 5.0 L32.1 2.6 33.95 2.35 42.85 1.95 Q58.05 1.75 64.25 3.9 69.5 5.8 71.6 5.9 L74.2 4.8 Q76.6 3.55 79.65 3.25 84.1 2.85 90.6 3.0 97.85 3.15 100.4 3.9 102.9 4.65 104.4 5.75 105.6 6.6 105.75 7.2" fill="#4776e1" fill-rule="evenodd" stroke="none"/>
      <path d="M62.9 5.9 Q66.2 7.1 66.95 7.7 67.5 8.1 67.6 9.15 67.75 10.15 66.2 11.7 L62.25 15.05 Q58.8 17.8 56.25 18.5 52.2 19.6 46.85 17.65 42.05 15.9 39.55 12.35 37.1 8.9 38.8 6.55 40.8 3.75 49.6 3.85 57.6 3.9 62.9 5.9 M97.05 5.9 Q104.55 7.15 103.1 12.4 102.15 15.7 98.95 17.75 95.55 19.85 91.05 19.6 86.35 19.4 80.95 16.3 75.5 13.25 74.95 10.45 74.3 6.8 83.0 5.7 90.35 4.75 97.05 5.9" fill="#0a2e7f" fill-rule="evenodd" stroke="none"/>
      <path d="M99.65 17.3 Q96.85 19.3 93.05 19.6 L98.25 15.8 Q100.95 13.45 99.75 11.1 98.0 7.75 91.7 7.2 L84.25 7.4 Q79.55 8.2 78.3 10.45 76.95 13.05 82.65 16.25 86.0 18.15 90.1 19.5 85.45 18.95 80.5 16.05 75.45 13.1 74.95 10.45 74.3 6.8 83.0 5.7 90.35 4.75 97.05 5.9 104.55 7.15 103.1 12.4 102.3 15.3 99.65 17.3" fill="#041846" fill-rule="evenodd" stroke="none"/>
      <path d="M67.6 9.15 Q67.75 10.15 66.2 11.7 L62.25 15.05 Q59.95 16.9 57.95 17.85 L54.05 18.4 Q52.1 18.45 52.85 18.3 54.0 18.1 56.7 16.9 60.1 15.35 61.6 13.75 62.85 12.35 62.9 10.5 62.95 8.6 61.6 7.85 59.95 6.95 57.35 6.2 54.25 5.25 52.2 5.25 L46.95 5.3 Q43.55 5.75 41.5 7.85 39.25 10.2 43.0 14.0 46.5 17.65 48.5 17.3 L50.45 17.85 Q52.55 18.45 53.35 18.9 50.4 19.0 46.85 17.65 42.05 15.9 39.55 12.35 37.1 8.9 38.8 6.55 40.8 3.75 49.6 3.85 57.6 3.9 62.9 5.9 66.2 7.1 66.95 7.7 67.5 8.1 67.6 9.15" fill="#041846" fill-rule="evenodd" stroke="none"/>
      <path d="M56.2 5.9 Q50.65 8.05 49.6 9.35 47.1 12.5 54.25 17.45 50.8 18.45 46.85 16.1 43.2 13.9 41.95 10.8 40.65 7.45 43.7 5.95 47.35 4.15 56.2 5.9 M85.7 7.2 Q93.15 6.75 96.9 8.45 100.1 9.95 99.75 12.45 99.4 14.8 96.2 16.6 92.85 18.45 88.35 18.3 91.65 16.3 92.35 14.2 93.65 10.35 85.7 7.2" fill="#0b44c4" fill-rule="evenodd" stroke="none"/>
      <path d="M47.5 5.9 Q43.6 10.45 47.0 13.75 48.85 15.5 52.85 17.65 50.6 17.8 47.35 16.05 44.2 14.35 42.3 12.1 40.25 9.65 41.2 8.0 42.35 6.1 47.5 5.9 M93.7 7.85 Q95.45 7.6 97.3 9.1 99.15 10.65 99.5 12.6 100.35 17.85 89.7 18.3 96.35 15.5 94.7 11.45 L93.3 9.0 Q92.75 8.0 93.7 7.85" fill="#0552ff" fill-rule="evenodd" stroke="none"/>
      <path d="M59.55 18.95 Q59.7 18.0 61.55 17.1 59.55 19.4 59.55 18.95 M41.55 16.3 Q45.15 18.25 48.85 19.6 46.4 18.9 43.5 17.65 42.6 17.3 41.55 16.3 35.3 13.05 34.8 10.45 33.95 6.2 33.45 6.55 L10.7 5.9 Q5.3 5.75 2.15 6.95 3.2 6.5 3.75 5.9 4.65 5.0 2.0 5.0 L13.85 4.2 29.45 3.25 34.6 2.85 38.15 2.6 Q39.0 2.6 38.85 2.8 41.7 2.05 43.5 1.95 L55.55 2.6 60.25 3.9 49.55 3.25 Q41.15 2.9 37.75 4.75 L37.2 6.65 Q36.8 9.0 38.25 11.9 39.5 14.5 41.55 16.3 M71.6 6.55 Q73.45 6.85 76.15 5.15 77.95 4.05 77.65 4.6 76.9 5.95 75.75 7.1 L73.65 9.15 Q72.05 10.65 68.95 8.5 L63.6 4.6 Q65.75 4.75 67.85 5.5 L71.6 6.55 M85.0 18.95 Q84.0 19.8 82.35 18.95 L78.5 16.7 Q75.5 15.05 73.65 15.05 L69.25 15.15 Q66.95 15.25 65.6 15.7 62.35 16.75 61.55 17.1 L64.25 14.4 66.7 13.35 Q68.6 12.6 70.3 12.4 73.5 12.05 78.3 15.05 81.5 17.0 85.0 18.95 M105.1 8.5 Q105.2 10.5 104.75 12.7 104.25 14.75 103.75 15.05 L103.95 12.0 Q104.15 8.4 102.4 7.2 100.25 5.75 94.15 4.95 L87.7 4.6 86.1 4.5 Q85.3 4.2 86.35 3.9 L93.35 3.65 Q99.35 3.75 101.05 4.55 L103.9 5.85 Q104.95 6.65 105.1 8.5" fill="#7ca3fd" fill-rule="evenodd" stroke="none"/>
      <path d="M2.0 6.0 Q33.15 5.05 34.15 5.9 34.9 6.5 35.95 10.6 37.0 14.7 36.15 13.75 L33.25 10.65 Q30.9 8.5 28.8 7.85 L14.65 7.05 3.0 7.0 2.0 6.0 M72.3 9.15 Q74.45 9.0 75.65 7.2 L74.6 9.65 Q73.2 12.05 71.6 11.75 70.05 11.45 68.65 9.3 L67.6 7.2 69.15 8.25 Q70.95 9.25 72.3 9.15" fill="#3160ca" fill-rule="evenodd" stroke="none"/>
      <path d="M12.05 4.6 L34.8 2.6 42.15 2.6 Q39.3 2.95 37.5 4.6 36.4 5.55 36.3 7.8 L36.15 9.15 35.25 7.0 Q34.6 5.45 34.15 5.25 L12.05 4.6 M50.85 21.55 Q47.0 20.6 45.5 18.95 48.3 20.35 50.35 20.45 52.35 20.6 54.9 19.6 58.25 18.3 60.25 18.3 52.7 22.05 50.85 21.55 M76.95 5.25 Q72.8 8.5 70.95 8.5 69.8 8.5 68.9 7.85 L68.25 7.2 64.9 5.25 67.35 5.7 70.95 6.55 Q72.45 7.05 76.95 5.25 M87.65 20.45 Q84.95 19.3 87.0 19.6 L91.15 20.1 Q93.0 20.2 94.4 19.6 96.4 18.8 99.75 18.3 98.85 19.1 97.35 19.85 94.4 21.45 91.7 21.55 90.3 21.6 87.65 20.45 M101.75 5.25 Q104.7 5.25 105.1 7.2 105.3 8.35 104.9 10.75 104.55 13.2 104.4 12.4 L104.2 8.7 Q104.1 7.05 103.1 6.55 102.05 6.0 100.1 5.6 L98.4 5.25 101.75 5.25" fill="#d1dfff" fill-rule="evenodd" stroke="none"/>
    </g>
  </defs>
</svg>
