<?xml version="1.0" encoding="UTF-8" standalone="no"?>
<svg xmlns:ffdec="https://www.free-decompiler.com/flash" xmlns:xlink="http://www.w3.org/1999/xlink" ffdec:objectType="frame" height="127.35px" width="181.25px" xmlns="http://www.w3.org/2000/svg">
  <g transform="matrix(1.0, 0.0, 0.0, 1.0, 120.25, 58.85)">
    <use ffdec:characterId="534" height="167.45" transform="matrix(0.5113, 0.0, 0.0, 0.5113, -76.85, -17.1)" width="157.1" xlink:href="#sprite0"/>
  </g>
  <defs>
    <g id="sprite0">
      <use ffdec:characterId="533" height="167.45" transform="matrix(1.0, 0.0, 0.0, 1.0, 0.0, 0.0)" width="157.1" xlink:href="#shape0"/>
    </g>
    <g id="shape0">
      <path d="M77.45 53.95 Q74.3 56.2 71.4 59.95 65.6 67.5 66.85 75.2 L69.7 88.9 Q72.25 100.6 73.55 108.3 78.0 134.2 74.2 143.7 71.2 151.35 64.95 156.85 59.5 161.65 52.1 164.45 45.6 166.9 38.85 167.35 32.65 167.8 28.45 166.45 23.9 165.05 18.8 162.05 13.9 159.2 9.65 155.6 5.3 151.9 2.75 148.45 0.05 144.75 0.0 142.05 0.0 139.05 5.6 136.25 7.35 135.4 9.45 134.65 L11.2 134.1 12.0 136.95 Q13.15 140.45 15.0 143.5 21.05 153.15 32.1 154.4 38.55 155.15 44.5 153.45 50.55 151.7 55.0 147.75 59.7 143.55 61.8 137.6 64.1 131.15 63.2 123.35 62.55 118.1 60.8 109.6 L57.5 94.5 Q53.5 75.7 54.15 67.85 55.15 56.4 60.4 51.15 62.15 49.35 64.6 48.1 L67.95 46.6 Q70.05 45.55 73.95 49.65 75.9 51.7 77.45 53.95" fill="#000000" fill-rule="evenodd" stroke="none"/>
      <path d="M59.6 56.35 Q61.6 52.6 65.35 50.75 67.35 49.75 69.8 52.1 L71.85 54.7 70.4 56.5 Q68.75 58.75 67.45 61.3 63.3 69.35 64.5 76.65 L67.15 90.15 Q69.45 101.5 70.6 109.6 74.35 135.4 69.5 143.35 61.45 156.45 48.9 161.65 43.55 163.85 38.3 164.15 33.3 164.4 29.35 162.95 21.55 160.1 12.25 153.0 8.05 149.8 5.55 147.05 2.8 144.1 2.8 142.45 2.75 139.6 5.85 138.3 7.35 137.65 8.9 137.6 L10.6 140.05 12.2 143.1 Q14.4 146.7 17.2 149.65 26.1 159.0 37.8 157.75 44.15 157.1 48.3 156.0 53.35 154.65 56.75 152.25 64.4 146.85 65.85 134.05 66.9 124.95 62.45 102.95 L59.05 86.55 Q57.35 78.0 57.05 73.95 56.35 62.5 59.6 56.35" fill="#f7bf24" fill-rule="evenodd" stroke="none"/>
      <path d="M71.85 54.7 L70.4 56.5 Q68.75 58.75 67.45 61.3 63.3 69.35 64.5 76.65 L67.4 90.45 Q70.0 102.45 71.35 110.6 75.85 137.55 71.0 145.4 63.05 158.35 48.7 163.1 42.8 165.05 36.9 165.15 31.45 165.25 27.4 163.75 19.95 161.05 11.4 153.55 7.7 150.3 5.4 147.4 3.05 144.4 3.0 142.7 2.95 140.25 4.8 139.0 10.85 148.8 18.5 154.4 28.75 162.0 40.8 161.1 48.9 160.5 55.5 156.9 61.45 153.65 65.6 148.3 69.35 143.3 70.9 137.45 72.45 131.8 71.55 126.65 L66.1 99.55 Q62.45 81.35 62.5 76.85 62.65 69.05 64.3 63.6 66.7 55.8 71.85 54.7" fill="#b47420" fill-rule="evenodd" stroke="none"/>
      <path d="M63.2 104.3 L65.95 112.1 Q68.8 120.75 69.2 125.0 69.85 131.8 69.1 136.7 67.85 145.05 62.85 150.05 58.0 154.9 44.4 156.95 L34.25 158.0 42.5 156.85 Q54.25 154.55 59.5 149.05 64.95 143.45 65.95 133.85 L66.1 127.8 63.2 104.3 M56.8 64.75 Q57.25 60.55 59.6 56.4 61.7 52.8 63.5 51.8 L65.35 53.95 66.55 55.15 Q61.3 59.2 60.2 76.3 59.7 84.85 60.2 92.6 59.05 88.35 58.1 82.75 56.15 71.55 56.8 64.75" fill="#ffedbc" fill-rule="evenodd" stroke="none"/>
      <path d="M68.5 39.5 Q71.4 37.55 74.5 36.75 L75.55 58.5 Q72.95 58.5 70.2 57.3 64.6 55.0 63.65 49.2 62.7 43.35 68.5 39.5" fill="#000000" fill-rule="evenodd" stroke="none"/>
      <path d="M70.35 42.85 Q72.2 41.6 74.2 41.1 L74.9 55.15 Q73.2 55.15 71.4 54.4 67.85 52.9 67.2 49.15 66.6 45.35 70.35 42.85" fill="#f7bf24" fill-rule="evenodd" stroke="none"/>
      <path d="M132.65 24.4 Q129.15 20.9 124.6 18.95 119.85 16.95 114.7 16.95 109.55 16.95 104.8 18.95 100.25 20.9 96.75 24.4 93.2 27.9 91.3 32.45 89.3 37.2 89.3 42.35 89.3 47.5 91.3 52.2 93.2 56.8 96.75 60.3 100.25 63.8 104.8 65.75 109.55 67.75 114.7 67.75 119.85 67.75 124.6 65.75 129.15 63.8 132.65 60.3 136.2 56.8 138.1 52.2 140.1 47.5 140.1 42.35 140.1 37.2 138.1 32.45 136.2 27.9 132.65 24.4 M144.7 12.4 Q150.55 18.25 153.8 25.85 157.1 33.75 157.1 42.35 157.1 50.95 153.8 58.85 150.55 66.45 144.7 72.3 138.8 78.15 131.2 81.35 123.35 84.7 114.7 84.7 106.1 84.7 98.2 81.35 90.6 78.15 84.75 72.3 78.85 66.45 75.65 58.85 72.3 50.95 72.3 42.35 72.3 33.75 75.65 25.85 78.85 18.25 84.75 12.4 90.6 6.55 98.2 3.35 106.1 0.0 114.7 0.0 123.35 0.0 131.2 3.35 138.8 6.55 144.7 12.4" fill="#000000" fill-rule="evenodd" stroke="none"/>
      <path d="M141.0 15.85 Q146.1 21.0 149.0 27.75 152.0 34.7 152.25 42.35 152.75 57.35 142.95 67.1 133.2 76.85 114.95 79.6 107.5 80.75 100.4 78.0 93.75 75.45 88.35 69.9 83.15 64.5 80.2 57.35 77.15 50.0 77.15 42.35 77.15 34.75 80.1 27.75 82.95 21.0 88.15 15.85 93.35 10.65 100.1 7.8 107.05 4.85 114.7 4.85 122.35 4.85 129.25 7.8 135.85 10.65 141.0 15.85 M142.6 30.6 Q140.3 25.15 136.1 20.95 131.9 16.8 126.5 14.45 120.85 12.1 114.7 12.1 108.55 12.1 102.95 14.45 97.5 16.8 93.3 20.95 89.1 25.15 86.8 30.6 84.45 36.2 84.45 42.35 84.45 48.5 86.8 54.15 89.1 59.55 93.3 63.75 97.5 67.95 102.95 70.2 108.55 72.6 114.7 72.6 120.85 72.6 126.5 70.2 131.9 67.9 136.1 63.75 140.3 59.55 142.6 54.15 145.0 48.5 145.0 42.35 145.0 36.2 142.6 30.6" fill="#f7bf24" fill-rule="evenodd" stroke="none"/>
      <path d="M120.65 5.25 Q127.45 6.4 133.4 9.4 146.2 15.9 150.9 28.1 154.55 37.55 150.3 52.05 148.65 57.75 146.15 62.75 143.8 67.4 141.75 69.5 136.4 74.95 127.35 77.7 L122.35 78.75 121.45 78.7 Q121.35 78.5 122.0 78.2 128.6 75.2 132.85 72.1 136.35 69.55 137.3 67.75 L140.15 63.5 Q143.35 58.15 145.3 52.65 151.45 35.15 142.4 23.05 133.75 11.6 122.15 8.65 114.3 6.7 103.95 8.7 98.35 9.8 89.25 17.75 L83.35 23.35 80.6 26.35 Q83.15 21.15 87.9 16.0 96.7 6.4 106.95 5.0 113.8 4.1 120.65 5.25" fill="#ffefc2" fill-rule="evenodd" stroke="none"/>
      <path d="M77.2 46.15 Q76.8 42.05 77.15 38.0 L77.55 34.75 78.8 34.9 Q80.25 35.2 81.4 35.8 85.15 37.75 84.6 42.45 83.95 47.15 86.55 53.65 87.85 56.85 89.25 59.15 L86.25 67.5 Q78.4 59.2 77.2 46.15" fill="#ffedbc" fill-rule="evenodd" stroke="none"/>
      <path d="M152.1 37.75 L152.45 40.85 Q152.7 44.7 152.1 48.7 150.25 61.45 140.75 70.5 133.65 77.25 126.5 79.5 118.45 82.05 107.65 79.9 96.85 77.7 90.35 72.1 88.05 70.05 86.7 67.9 85.6 66.15 85.6 65.15 85.6 63.8 86.75 62.7 87.35 62.15 87.9 61.85 L89.25 63.9 Q91.05 66.35 93.3 68.5 100.4 75.25 109.3 75.85 119.65 76.6 124.85 75.65 129.75 74.8 134.05 71.5 139.6 67.3 142.85 62.5 146.0 57.75 147.4 51.8 148.05 49.0 148.15 44.8 L148.1 41.1 152.1 37.75" fill="#b47420" fill-rule="evenodd" stroke="none"/>
      <path d="M72.2 41.8 L72.2 43.45 72.55 48.15 71.7 48.1 69.55 48.45 Q68.5 48.8 68.4 50.5 L68.55 52.15 Q67.7 51.15 67.35 49.6 67.05 48.15 67.2 46.45 67.4 44.25 69.85 42.8 71.05 42.1 72.2 41.8 M88.05 23.45 Q90.25 22.3 91.35 22.25 92.45 22.2 91.25 23.4 85.35 29.5 84.7 40.4 84.4 45.9 85.25 50.15 84.1 51.25 82.6 51.7 79.65 52.65 77.9 49.45 75.2 38.85 79.25 31.75 82.1 26.65 88.05 23.45 M139.85 25.3 Q138.4 23.1 136.75 21.35 L135.4 20.05 137.5 20.35 Q140.05 20.8 142.3 21.75 149.6 24.75 151.4 31.1 154.95 43.6 149.55 48.65 147.85 50.2 145.45 50.8 L143.4 51.15 144.1 47.45 Q144.85 43.25 144.75 40.8 144.4 32.25 139.85 25.3" fill="#fffbef" fill-rule="evenodd" stroke="none"/>
    </g>
  </defs>
</svg>
