<?xml version="1.0" encoding="UTF-8" standalone="no"?>
<svg xmlns:ffdec="https://www.free-decompiler.com/flash" xmlns:xlink="http://www.w3.org/1999/xlink" ffdec:objectType="frame" height="127.35px" width="181.25px" xmlns="http://www.w3.org/2000/svg">
  <g transform="matrix(1.0, 0.0, 0.0, 1.0, 120.25, 58.85)">
    <use ffdec:characterId="497" height="62.1" transform="matrix(1.0, 0.0, 0.0, 1.0, -102.65, -34.1)" width="139.65" xlink:href="#shape0"/>
  </g>
  <defs>
    <g id="shape0">
      <path d="M100.25 20.55 Q106.35 22.3 107.7 28.65 108.95 34.55 105.8 41.85 102.55 49.3 96.3 54.4 89.3 60.05 80.95 60.5 69.85 61.3 61.75 53.9 53.3 46.1 55.85 35.4 57.55 25.4 72.6 20.95 86.85 16.7 100.25 20.55" fill="#000000" fill-rule="evenodd" stroke="none"/>
      <path d="M0.0 48.9 Q13.05 48.9 39.2 43.95 52.3 41.45 62.75 38.95 64.3 44.65 65.3 50.8 53.8 54.9 38.45 57.65 23.4 60.4 3.2 62.1 0.0 54.5 0.0 48.9" fill="#000000" fill-rule="evenodd" stroke="none"/>
      <path d="M94.6 23.5 Q103.0 20.75 114.45 14.2 126.45 7.35 133.2 0.0 L134.8 2.35 130.7 5.9 124.05 11.7 Q116.6 17.8 110.35 21.2 109.9 21.4 109.85 22.85 109.75 24.45 111.65 24.45 113.3 24.45 118.85 21.45 126.3 17.4 133.75 11.0 L138.15 7.35 139.65 9.95 Q132.6 16.05 126.3 20.4 114.6 28.5 99.4 33.75 L96.15 29.6 Q94.2 26.95 93.7 24.4 L94.2 24.0 94.6 23.5" fill="#000000" fill-rule="evenodd" stroke="none"/>
      <path d="M94.6 23.5 L94.2 24.0 93.7 24.4 93.6 23.8 94.4 23.6 94.6 23.5 M138.15 7.35 L133.75 11.0 Q126.3 17.4 118.85 21.45 113.3 24.45 111.65 24.45 109.75 24.45 109.85 22.85 109.9 21.4 110.35 21.2 116.6 17.8 124.05 11.7 L130.7 5.9 134.8 2.35 136.45 4.8 138.15 7.35" fill="#404553" fill-rule="evenodd" stroke="none"/>
      <path d="M73.6 28.15 Q65.7 28.2 58.85 31.5 62.4 28.3 69.2 25.85 75.75 23.45 82.95 22.7 100.0 20.8 103.85 28.3 107.4 35.2 101.2 44.3 98.95 47.65 96.0 50.3 93.4 52.7 92.0 53.1 96.35 45.75 94.6 39.75 93.05 34.35 87.0 31.2 81.25 28.15 73.6 28.15" fill="#404553" fill-rule="evenodd" stroke="none"/>
    </g>
  </defs>
</svg>
