<?xml version="1.0" encoding="UTF-8" standalone="no"?>
<svg xmlns:ffdec="https://www.free-decompiler.com/flash" xmlns:xlink="http://www.w3.org/1999/xlink" ffdec:objectType="frame" height="127.35px" width="181.25px" xmlns="http://www.w3.org/2000/svg">
  <g transform="matrix(1.0, 0.0, 0.0, 1.0, 120.25, 58.85)">
    <use ffdec:characterId="716" height="132.45" transform="matrix(0.2731, 0.0, 0.0, 0.2731, -48.65, -13.15)" width="320.95" xlink:href="#shape0"/>
  </g>
  <defs>
    <g id="shape0">
      <path d="M208.75 31.15 Q220.1 36.5 224.65 45.65 229.1 54.65 230.1 66.0 230.9 76.25 228.8 83.75 226.65 91.3 223.0 91.0 218.9 90.65 214.95 79.95 210.9 69.05 202.1 64.0 193.95 59.3 183.5 60.6 173.35 61.85 164.15 68.35 154.5 75.2 148.75 85.85 141.85 98.7 137.95 99.05 134.45 99.4 134.35 90.3 134.25 81.4 137.35 68.75 140.7 55.05 146.25 43.65 150.6 34.9 161.75 30.15 172.15 25.7 185.2 26.0 198.25 26.25 208.75 31.15" fill="#000000" fill-rule="evenodd" stroke="none"/>
      <path d="M203.3 38.95 Q211.8 42.5 216.4 48.25 220.9 53.75 222.8 59.6 224.45 64.75 223.5 67.9 222.6 70.95 219.75 69.7 216.6 68.25 212.7 61.7 208.6 54.9 201.65 51.15 195.05 47.65 187.1 47.6 179.2 47.5 171.7 50.85 163.85 54.35 158.1 60.95 152.6 67.25 149.5 68.05 146.7 68.7 146.65 65.05 146.55 61.45 149.0 55.9 151.6 49.85 155.9 44.5 160.2 39.1 168.6 36.6 176.45 34.25 185.85 34.9 195.2 35.5 203.3 38.95" fill="#131b23" fill-rule="evenodd" stroke="none"/>
      <path d="M173.1 17.55 Q176.55 24.1 177.45 41.9 178.65 63.9 173.25 83.05 166.35 107.75 149.65 121.8 129.2 139.0 95.6 139.0 61.85 139.0 41.6 121.6 24.8 107.1 18.85 82.3 13.95 61.85 17.4 40.6 20.5 21.35 27.3 16.05 33.15 11.5 56.1 9.1 L103.85 7.25 Q130.75 7.6 149.75 10.15 170.7 13.0 173.1 17.55" fill="#000000" fill-rule="evenodd" stroke="none"/>
      <path d="M159.5 29.0 Q162.4 34.15 163.6 48.3 165.1 66.0 161.2 81.3 156.1 101.1 142.6 112.45 126.05 126.25 98.0 126.25 68.7 126.25 51.1 111.5 36.45 99.15 31.35 78.15 27.15 60.65 30.35 42.85 33.3 26.5 39.75 22.25 44.75 18.9 63.65 17.95 80.8 17.05 102.85 18.35 124.8 19.6 140.4 22.35 157.5 25.4 159.5 29.0" fill="#231b13" fill-rule="evenodd" stroke="none"/>
      <path d="M142.75 22.8 L140.6 24.85 Q126.75 36.0 122.75 49.7 119.7 59.8 121.35 76.75 122.55 89.0 115.85 102.4 109.2 115.65 96.75 126.2 63.15 125.85 45.35 105.9 69.2 86.1 75.5 74.35 79.0 67.75 77.8 59.85 L74.25 46.35 Q72.2 38.35 73.8 32.7 76.0 25.0 85.3 17.65 L116.0 19.3 Q131.7 20.7 142.75 22.8" fill="#999378" fill-rule="evenodd" stroke="none"/>
      <path d="M334.1 23.35 Q337.0 29.95 336.9 47.85 336.8 69.95 330.65 88.75 322.65 113.0 305.95 126.1 292.3 136.9 273.5 139.65 L272.5 138.7 Q269.95 134.85 259.25 125.4 245.05 112.85 228.4 100.95 209.25 87.25 197.5 82.3 191.5 79.8 188.05 79.9 L183.75 78.7 Q180.5 58.45 184.9 37.95 188.95 18.85 195.7 14.0 201.5 9.75 223.45 8.6 243.3 7.55 268.9 9.3 294.45 11.1 312.45 14.7 332.1 18.65 334.1 23.35" fill="#000000" fill-rule="evenodd" stroke="none"/>
      <path d="M304.2 23.9 Q320.8 27.15 322.5 30.95 324.95 36.35 324.95 50.9 324.85 68.85 319.7 84.15 313.05 103.85 299.0 114.55 283.4 126.45 259.7 126.25 L256.1 122.6 Q243.75 110.45 227.3 98.5 209.8 85.8 198.5 81.35 L197.2 80.85 196.3 76.55 Q193.3 59.7 197.05 42.65 200.45 27.1 206.1 23.15 211.0 19.7 229.4 18.8 246.15 18.0 267.65 19.45 289.1 20.95 304.2 23.9" fill="#231b13" fill-rule="evenodd" stroke="none"/>
      <path d="M288.35 21.4 Q304.8 23.45 313.95 26.2 L311.9 27.9 Q297.45 38.25 292.65 51.7 289.05 61.65 289.75 78.65 290.2 90.75 282.95 103.6 275.75 116.35 263.0 126.2 L260.05 126.25 Q254.1 120.15 247.05 113.8 232.0 100.35 222.75 95.35 238.7 82.5 244.15 73.55 247.95 67.3 247.3 59.5 L244.6 46.15 Q242.95 38.15 244.5 32.75 246.65 25.4 255.35 18.75 272.6 19.45 288.35 21.4" fill="#999378" fill-rule="evenodd" stroke="none"/>
    </g>
  </defs>
</svg>
