<?xml version="1.0" encoding="UTF-8" standalone="no"?>
<svg xmlns:ffdec="https://www.free-decompiler.com/flash" xmlns:xlink="http://www.w3.org/1999/xlink" ffdec:objectType="frame" height="127.35px" width="181.25px" xmlns="http://www.w3.org/2000/svg">
  <g transform="matrix(1.0, 0.0, 0.0, 1.0, 120.25, 58.85)">
    <use ffdec:characterId="500" height="83.0" transform="matrix(0.5344, 0.0, 0.0, 0.5344, -98.4, -58.85)" width="250.15" xlink:href="#shape0"/>
  </g>
  <defs>
    <g id="shape0">
      <path d="M182.9 20.25 Q188.6 20.45 193.9 22.1 L193.35 30.7 Q188.2 28.8 182.8 28.45 L174.55 28.7 170.7 29.25 171.55 21.3 175.2 20.7 182.9 20.25" fill="#000000" fill-rule="evenodd" stroke="none"/>
      <path d="M109.6 23.65 L111.7 35.0 Q103.35 36.8 92.15 39.75 69.75 45.6 55.7 51.35 43.75 56.2 20.7 70.1 9.15 77.05 0.0 83.0 L3.7 72.2 Q7.8 68.35 16.15 62.65 32.8 51.15 54.0 41.65 73.55 32.9 93.55 27.4 103.55 24.65 109.6 23.65" fill="#000000" fill-rule="evenodd" stroke="none"/>
      <path d="M246.9 23.8 Q252.5 34.0 248.45 43.1 244.4 52.2 233.05 54.8 221.7 57.45 209.7 52.1 197.7 46.75 192.1 36.5 186.45 26.3 190.5 17.2 194.55 8.15 205.9 5.5 217.25 2.9 229.25 8.25 241.3 13.6 246.9 23.8" fill="#000000" fill-rule="evenodd" stroke="none"/>
      <path d="M244.5 23.15 Q250.6 32.35 246.65 39.55 243.1 46.0 233.4 46.45 224.3 46.9 214.9 42.05 206.15 37.5 201.1 30.25 196.05 23.0 197.25 16.65 198.6 9.65 206.7 7.25 215.25 4.7 226.3 9.1 238.35 13.95 244.5 23.15" fill="#93acc0" fill-rule="evenodd" stroke="none"/>
      <path d="M247.15 38.5 L246.65 39.55 Q243.1 46.0 233.4 46.45 224.3 46.9 214.9 42.05 206.15 37.5 201.1 30.25 196.05 23.0 197.25 16.65 197.65 14.85 198.55 13.3 203.45 11.25 209.85 11.45 220.95 11.8 231.5 19.5 241.8 27.05 247.15 38.5" fill="#d7e2ea" fill-rule="evenodd" stroke="none"/>
      <path d="M174.35 25.0 Q174.9 37.55 163.9 46.75 152.9 55.95 137.55 55.85 123.55 55.8 114.3 47.75 105.2 39.8 105.75 28.7 106.3 18.1 115.5 9.9 124.7 1.65 137.8 0.25 152.1 -1.25 162.85 5.85 173.8 13.1 174.35 25.0" fill="#000000" fill-rule="evenodd" stroke="none"/>
      <path d="M167.65 13.25 Q172.5 19.65 169.85 26.6 167.3 33.4 158.7 37.9 149.9 42.5 139.1 42.4 125.7 42.25 117.35 35.6 108.75 28.75 111.6 19.55 114.55 9.9 127.45 5.4 139.8 1.05 152.35 4.15 162.7 6.7 167.65 13.25" fill="#93acc0" fill-rule="evenodd" stroke="none"/>
      <path d="M170.5 19.65 Q171.2 23.2 169.85 26.6 167.3 33.4 158.7 37.9 149.9 42.5 139.1 42.4 126.25 42.25 117.95 36.05 109.4 29.65 111.25 20.9 116.2 15.05 123.05 11.75 132.75 7.0 144.8 8.15 155.85 9.25 163.1 13.3 168.0 16.05 170.5 19.65" fill="#d7e2ea" fill-rule="evenodd" stroke="none"/>
    </g>
  </defs>
</svg>
