<?xml version="1.0" encoding="UTF-8" standalone="no"?>
<svg xmlns:ffdec="https://www.free-decompiler.com/flash" xmlns:xlink="http://www.w3.org/1999/xlink" ffdec:objectType="frame" height="127.35px" width="181.25px" xmlns="http://www.w3.org/2000/svg">
  <g transform="matrix(1.0, 0.0, 0.0, 1.0, 120.25, 58.85)">
    <use ffdec:characterId="224" height="50.35" transform="matrix(0.6444, -0.1425, 0.1425, 0.6444, -69.45, -5.25)" width="50.0" xlink:href="#sprite0"/>
  </g>
  <defs>
    <g id="sprite0">
      <use ffdec:characterId="223" height="50.35" transform="matrix(1.0, 0.0, 0.0, 1.0, 0.0, 0.0)" width="50.0" xlink:href="#shape0"/>
    </g>
    <g id="shape0">
      <path d="M46.4 36.0 L48.2 43.8 29.25 50.35 21.45 38.7 46.4 36.0" fill="#000000" fill-rule="evenodd" stroke="none"/>
      <path d="M46.7 26.15 L45.5 34.0 4.35 37.8 11.1 21.3 46.7 26.15" fill="#000000" fill-rule="evenodd" stroke="none"/>
      <path d="M50.0 14.8 L45.55 24.7 0.0 18.25 11.55 0.0 50.0 14.8" fill="#000000" fill-rule="evenodd" stroke="none"/>
      <path d="M44.7 37.45 L45.9 42.25 29.85 47.65 25.5 40.1 44.7 37.45" fill="#ffc600" fill-rule="evenodd" stroke="none"/>
      <path d="M44.05 27.5 L43.35 32.8 9.1 34.75 12.7 24.25 44.05 27.5" fill="#ffc600" fill-rule="evenodd" stroke="none"/>
      <path d="M46.6 15.85 L44.5 21.7 4.9 15.2 11.7 4.15 46.6 15.85" fill="#ffc600" fill-rule="evenodd" stroke="none"/>
    </g>
  </defs>
</svg>
