<?xml version="1.0" encoding="UTF-8" standalone="no"?>
<svg xmlns:ffdec="https://www.free-decompiler.com/flash" xmlns:xlink="http://www.w3.org/1999/xlink" ffdec:objectType="frame" height="127.35px" width="181.25px" xmlns="http://www.w3.org/2000/svg">
  <g transform="matrix(1.0, 0.0, 0.0, 1.0, 120.25, 58.85)">
    <use ffdec:characterId="745" height="49.4" transform="matrix(1.0, 0.0, 0.0, 1.0, 0.0, 0.0)" width="152.95" xlink:href="#shape0"/>
  </g>
  <defs>
    <g id="shape0">
      <path d="M6.0 9.0 L2.8 7.75 0.95 5.25 Q-0.3 6.55 -1.3 8.55 L-2.85 12.3 Q-4.85 17.5 -7.85 20.35 -13.4 25.75 -23.55 25.4 -27.85 25.2 -31.95 24.0 -35.95 22.85 -38.65 21.05 -42.25 18.6 -45.2 10.8 -46.45 7.55 -47.1 4.45 L-63.05 5.45 -83.95 7.15 -85.45 7.65 Q-85.85 8.0 -85.85 8.8 L-85.75 11.0 -85.6 14.9 Q-85.6 19.1 -90.6 23.1 -92.55 24.65 -94.7 25.65 -96.7 26.65 -97.9 26.65 -99.0 26.7 -100.25 25.65 -101.5 24.65 -102.4 23.05 -104.65 19.2 -103.35 16.15 -101.05 9.2 -99.2 4.7 -95.65 -3.8 -92.1 -4.8 -88.65 -5.85 -70.6 -9.45 L-49.85 -13.6 Q-49.3 -15.1 -48.5 -16.0 -47.95 -16.7 -45.0 -17.7 -41.6 -18.9 -40.4 -19.6 -38.5 -20.7 -32.65 -21.4 L-21.15 -21.9 Q-16.55 -21.8 -10.45 -19.25 L-5.5 -17.15 Q-2.6 -16.05 -0.05 -15.55 2.6 -16.1 5.15 -17.25 L9.35 -19.45 Q14.4 -22.15 18.75 -22.55 24.2 -22.95 29.9 -22.6 35.8 -22.2 37.65 -21.2 38.85 -20.6 42.55 -19.75 45.8 -19.0 46.35 -18.45 47.7 -17.05 48.55 -13.95 49.4 -10.9 48.95 -9.35 48.7 -8.7 47.85 -7.7 46.85 -6.6 45.95 -6.3 46.3 0.65 44.6 7.35 42.8 14.75 39.55 17.15 37.25 18.8 33.75 20.1 30.0 21.5 26.1 22.0 L23.55 22.25 22.3 21.0 21.35 20.1 25.35 20.05 Q32.95 19.45 38.05 15.75 L38.15 15.7 39.6 14.2 Q41.65 11.45 42.85 5.75 44.3 -0.95 43.95 -8.15 46.4 -8.9 46.7 -9.85 47.2 -11.45 46.8 -13.2 46.4 -15.1 45.1 -16.45 44.55 -17.0 41.9 -17.6 38.85 -18.3 37.65 -18.95 35.8 -19.95 30.5 -20.35 25.25 -20.7 19.85 -20.25 15.5 -19.95 9.85 -16.95 6.4 -15.1 5.2 -14.6 2.45 -13.35 -0.15 -12.8 -2.7 -13.3 -5.55 -14.45 L-10.3 -16.55 Q-16.1 -19.2 -20.65 -19.3 L-31.9 -18.8 Q-37.5 -18.1 -39.4 -16.95 -40.65 -16.2 -43.85 -15.3 L-46.0 -14.55 -46.0 -14.6 -47.15 -13.9 Q-48.4 -12.4 -48.75 -10.4 -49.05 -8.6 -48.4 -6.95 -48.1 -6.0 -45.45 -5.35 -45.4 2.2 -43.55 9.1 -41.4 17.05 -37.9 19.3 -35.35 20.9 -31.85 21.9 -28.05 23.0 -24.2 23.1 -14.8 23.3 -9.3 18.0 -6.35 15.15 -3.55 8.75 L-1.4 4.15 Q-0.2 1.85 1.1 0.5 L1.15 0.55 1.1 0.55 Q2.2 1.75 3.35 3.95 L3.55 4.35 5.45 8.0 6.0 9.0 M-50.95 -6.95 Q-51.25 -8.35 -50.7 -10.75 L-70.3 -6.85 Q-87.15 -3.45 -90.6 -2.45 L-91.35 -2.15 -91.4 -2.15 Q-94.5 -0.55 -96.9 6.25 L-98.55 11.65 -98.65 12.1 -99.35 14.3 -99.9 15.75 Q-101.25 18.95 -100.6 21.45 -99.95 23.95 -97.7 23.85 -96.45 23.8 -94.7 23.15 -92.75 22.45 -91.15 21.25 -87.0 18.2 -87.95 14.15 -89.0 9.4 -88.25 7.2 -87.6 5.2 -85.2 4.75 L-62.95 2.8 -60.7 2.65 -47.65 1.65 Q-48.05 -1.05 -48.05 -3.6 -49.05 -3.8 -49.85 -4.9 L-50.8 -6.45 -50.95 -6.95" fill="#000000" fill-rule="evenodd" stroke="none"/>
      <path d="M1.15 0.55 L1.1 0.5 Q-0.2 1.85 -1.4 4.15 L-3.55 8.75 Q-6.35 15.15 -9.3 18.0 L-9.0 17.65 Q-13.3 19.6 -20.5 20.3 -29.65 21.2 -35.0 18.45 -40.55 15.6 -42.7 4.65 -43.4 1.1 -43.75 -3.25 L-44.05 -8.15 Q-45.5 -8.05 -46.0 -10.25 -46.35 -12.0 -46.0 -14.55 L-43.85 -15.3 Q-40.65 -16.2 -39.4 -16.95 -37.5 -18.1 -31.9 -18.8 L-20.65 -19.3 Q-16.1 -19.2 -10.3 -16.55 L-5.55 -14.45 Q-2.7 -13.3 -0.15 -12.8 2.45 -13.35 5.2 -14.6 6.4 -15.1 9.85 -16.95 15.5 -19.95 19.85 -20.25 25.25 -20.7 30.5 -20.35 35.8 -19.95 37.65 -18.95 38.85 -18.3 41.9 -17.6 44.55 -17.0 45.1 -16.45 46.4 -15.1 46.8 -13.2 47.2 -11.45 46.7 -9.85 46.4 -8.9 43.95 -8.15 44.3 -0.95 42.85 5.75 41.65 11.45 39.6 14.2 L40.05 13.5 Q37.1 15.35 34.05 16.2 26.55 18.3 20.05 17.3 L17.75 16.85 Q10.65 10.75 7.9 9.55 L5.1 4.9 2.8 0.7 Q1.8 -0.95 1.65 -0.6 L1.15 0.55 M7.65 -11.35 L6.4 -10.05 6.25 -9.8 Q3.9 -5.85 7.4 2.6 L8.0 4.0 10.0 7.8 10.7 9.0 11.9 10.7 14.0 12.9 Q17.2 15.3 23.1 15.6 29.85 15.95 33.9 12.5 L34.25 12.2 35.3 11.1 35.6 10.65 Q37.55 8.8 38.95 5.6 40.5 2.25 41.1 -1.7 41.7 -5.7 41.15 -9.05 40.55 -12.65 38.65 -14.6 36.75 -16.65 32.15 -17.3 27.9 -17.95 22.65 -17.35 17.5 -16.75 13.45 -15.25 9.15 -13.6 7.75 -11.55 L7.65 -11.35 M-91.35 -2.15 L-90.6 -2.45 Q-87.15 -3.45 -70.3 -6.85 L-50.7 -10.75 Q-51.25 -8.35 -50.95 -6.95 L-86.45 -0.9 -89.05 -0.95 Q-90.35 -1.3 -91.35 -2.15 M-38.75 -11.05 L-39.9 -9.4 -39.85 -9.4 Q-40.85 -7.65 -41.2 -5.15 -41.65 -1.65 -40.9 2.5 L-40.8 2.85 -40.7 3.45 -38.65 9.4 -38.35 10.0 Q-36.55 13.55 -34.2 15.45 -29.8 18.9 -22.6 18.3 -16.4 17.8 -13.1 15.15 L-11.8 13.9 -11.7 13.8 -11.35 13.35 Q-10.05 12.1 -8.45 9.5 -6.5 6.3 -5.1 2.7 -1.65 -6.45 -4.5 -10.4 -6.05 -12.55 -10.7 -14.05 -15.0 -15.5 -20.5 -15.95 L-30.55 -15.55 Q-35.45 -14.7 -37.4 -12.55 L-38.1 -11.65 -38.75 -11.05" fill="#ffffff" fill-rule="evenodd" stroke="none"/>
      <path d="M6.0 9.0 L5.45 8.0 3.55 4.35 3.35 3.95 Q2.2 1.75 1.1 0.55 L1.15 0.55 1.65 -0.6 Q1.8 -0.95 2.8 0.7 L5.1 4.9 7.9 9.55 6.75 9.25 6.0 9.0 M-9.3 18.0 Q-14.8 23.3 -24.2 23.1 -28.05 23.0 -31.85 21.9 -35.35 20.9 -37.9 19.3 -41.4 17.05 -43.55 9.1 -45.4 2.2 -45.45 -5.35 -48.1 -6.0 -48.4 -6.95 -49.05 -8.6 -48.75 -10.4 -48.4 -12.4 -47.15 -13.9 L-46.0 -14.6 -46.0 -14.55 Q-46.35 -12.0 -46.0 -10.25 -45.5 -8.05 -44.05 -8.15 L-43.75 -3.25 Q-43.4 1.1 -42.7 4.65 -40.55 15.6 -35.0 18.45 -29.65 21.2 -20.5 20.3 -13.3 19.6 -9.0 17.65 L-9.3 18.0 M39.6 14.2 L38.15 15.7 38.05 15.75 Q32.95 19.45 25.35 20.05 L21.35 20.1 18.0 17.05 17.75 16.85 20.05 17.3 Q26.55 18.3 34.05 16.2 37.1 15.35 40.05 13.5 L39.6 14.2 M37.2 8.1 L37.4 7.65 Q38.75 4.85 39.45 1.8 L39.5 1.25 39.75 -0.15 40.05 -2.4 40.1 -4.5 40.0 -6.1 Q39.8 -8.65 39.0 -10.5 L37.6 -12.8 37.55 -12.85 37.35 -13.05 37.3 -13.1 Q35.6 -14.9 31.7 -15.65 L30.8 -15.8 27.45 -16.1 27.35 -16.1 26.7 -16.1 24.65 -16.1 23.75 -16.05 22.65 -15.95 22.05 -15.9 21.3 -15.85 Q16.15 -15.25 12.1 -13.75 9.2 -12.65 7.65 -11.35 L7.75 -11.55 Q9.15 -13.6 13.45 -15.25 17.5 -16.75 22.65 -17.35 27.9 -17.95 32.15 -17.3 36.75 -16.65 38.65 -14.6 40.55 -12.65 41.15 -9.05 41.7 -5.7 41.1 -1.7 40.5 2.25 38.95 5.6 37.55 8.8 35.6 10.65 L35.95 10.15 36.85 8.7 36.95 8.55 37.15 8.15 37.2 8.1 M-50.95 -6.95 L-50.8 -6.45 -49.85 -4.9 Q-49.05 -3.8 -48.05 -3.6 -48.05 -1.05 -47.65 1.65 L-60.7 2.65 -62.95 2.8 -85.2 4.75 Q-87.6 5.2 -88.25 7.2 -89.0 9.4 -87.95 14.15 -87.0 18.2 -91.15 21.25 -92.75 22.45 -94.7 23.15 -96.45 23.8 -97.7 23.85 -99.95 23.95 -100.6 21.45 -101.25 18.95 -99.9 15.75 L-99.35 14.3 -98.65 12.1 -98.55 11.65 -96.9 6.25 Q-94.5 -0.55 -91.4 -2.15 L-91.35 -2.15 Q-90.35 -1.3 -89.05 -0.95 L-86.45 -0.9 -50.95 -6.95 M-4.6 -5.35 L-5.85 -8.9 Q-6.6 -9.95 -8.1 -10.85 L-9.35 -11.5 -9.8 -11.7 -11.4 -12.35 -12.0 -12.55 -12.15 -12.6 -12.35 -12.65 -13.6 -13.05 Q-17.35 -14.1 -21.85 -14.45 L-22.1 -14.45 -30.75 -14.25 -31.0 -14.2 -32.95 -13.85 -33.9 -13.55 -34.8 -13.3 Q-36.85 -12.65 -38.1 -11.65 L-37.4 -12.55 Q-35.45 -14.7 -30.55 -15.55 L-20.5 -15.95 Q-15.0 -15.5 -10.7 -14.05 -6.05 -12.55 -4.5 -10.4 -1.65 -6.45 -5.1 2.7 -6.5 6.3 -8.45 9.5 -10.05 12.1 -11.35 13.35 L-10.6 12.3 -9.75 11.0 -9.7 10.95 -9.5 10.65 -8.05 8.0 -7.95 7.7 -7.1 5.85 -6.6 4.65 -6.05 3.2 -5.35 0.9 Q-4.3 -2.75 -4.6 -5.35" fill="#cdcece" fill-rule="evenodd" stroke="none"/>
      <path d="M6.25 -9.8 L6.4 -10.05 7.65 -11.35 Q9.2 -12.65 12.1 -13.75 16.15 -15.25 21.3 -15.85 L22.05 -15.9 22.65 -15.95 23.75 -16.05 24.65 -16.1 26.7 -16.1 27.35 -16.1 27.45 -16.1 30.8 -15.8 31.7 -15.65 Q35.6 -14.9 37.3 -13.1 L37.35 -13.05 37.55 -12.85 37.6 -12.8 39.0 -10.5 Q39.8 -8.65 40.0 -6.1 L40.1 -4.5 40.05 -3.35 40.05 -3.05 40.05 -2.4 39.5 1.25 39.45 1.8 Q38.75 4.85 37.4 7.65 L37.2 8.1 Q37.95 4.65 38.15 1.2 L38.15 -2.65 Q37.9 -8.45 36.0 -10.45 33.2 -13.4 28.6 -14.05 26.4 -14.35 21.4 -14.05 17.8 -13.85 11.95 -11.9 L6.25 -9.8 M-31.0 -14.2 L-30.75 -14.25 -22.1 -14.45 -21.85 -14.45 Q-17.35 -14.1 -13.6 -13.05 L-12.35 -12.65 -12.15 -12.6 -12.0 -12.55 -11.4 -12.35 -9.8 -11.7 -9.35 -11.5 -8.1 -10.85 Q-6.6 -9.95 -5.85 -8.9 L-4.6 -5.35 Q-4.4 -3.2 -5.05 -0.35 L-5.35 0.9 -6.05 3.2 -6.6 4.65 -7.1 5.85 -7.95 7.7 -8.95 9.55 -8.15 6.35 Q-7.5 2.95 -7.45 -0.15 -7.4 -1.95 -7.6 -3.35 -7.95 -6.15 -9.15 -7.7 -11.45 -10.65 -16.75 -11.85 L-25.65 -12.55 -31.95 -11.9 -36.15 -10.75 -39.85 -9.4 -39.9 -9.4 -38.75 -11.05 -34.8 -13.3 -33.9 -13.55 -31.9 -14.05 -31.05 -14.2 -31.0 -14.2" fill="#310000" fill-rule="evenodd" stroke="none"/>
      <path d="M6.25 -9.8 L11.95 -11.9 Q27.9 -11.8 31.3 -1.75 32.0 0.2 32.15 2.4 28.3 4.2 23.8 4.95 15.3 6.45 8.0 4.0 L7.4 2.6 Q3.9 -5.85 6.25 -9.8 M39.5 1.25 L40.05 -2.4 40.05 -3.05 40.05 -3.35 40.1 -4.5 40.05 -2.4 39.75 -0.15 39.5 1.25 M11.9 10.7 L10.7 9.0 10.0 7.8 11.1 9.55 11.9 10.7 M-34.8 -13.3 L-38.75 -11.05 -38.1 -11.65 Q-36.85 -12.65 -34.8 -13.3 M-39.85 -9.4 L-36.15 -10.75 Q-21.75 -9.9 -17.7 1.1 -16.45 4.5 -16.25 8.2 L-23.9 7.85 Q-33.45 6.5 -41.1 1.2 L-40.8 2.85 -40.9 2.5 Q-41.65 -1.65 -41.2 -5.15 -40.85 -7.65 -39.85 -9.4 M-7.6 -3.35 Q-7.4 -1.95 -7.45 -0.15 -7.5 2.95 -8.15 6.35 L-9.9 7.0 -8.85 4.05 Q-7.8 0.4 -7.6 -3.35 M-5.35 0.9 L-5.05 -0.35 Q-4.4 -3.2 -4.6 -5.35 -4.3 -2.75 -5.35 0.9 M-9.7 10.95 L-9.75 11.0 -10.6 12.3 -10.15 11.6 -9.7 10.95" fill="#420000" fill-rule="evenodd" stroke="none"/>
      <path d="M11.95 -11.9 Q17.8 -13.85 21.4 -14.05 26.4 -14.35 28.6 -14.05 33.2 -13.4 36.0 -10.45 37.9 -8.45 38.15 -2.65 L38.15 1.2 38.1 1.25 Q37.1 5.05 35.35 7.6 33.45 10.3 31.3 10.65 L32.05 6.35 Q32.3 4.25 32.15 2.4 32.0 0.2 31.3 -1.75 27.9 -11.8 11.95 -11.9 M-31.0 -14.2 L-31.05 -14.2 -31.9 -14.05 -33.9 -13.55 -32.95 -13.85 -31.0 -14.2 M-36.15 -10.75 L-31.95 -11.9 -25.65 -12.55 -16.75 -11.85 Q-11.45 -10.65 -9.15 -7.7 -7.95 -6.15 -7.6 -3.35 -7.8 0.4 -8.85 4.05 L-9.9 7.0 Q-12.3 12.3 -16.65 14.15 -16.1 11.05 -16.25 8.2 -16.45 4.5 -17.7 1.1 -21.75 -9.9 -36.15 -10.75" fill="#875454" fill-rule="evenodd" stroke="none"/>
      <path d="M38.15 1.2 Q37.95 4.65 37.2 8.1 L37.15 8.15 36.95 8.55 36.85 8.7 35.95 10.15 35.6 10.65 35.3 11.1 34.25 12.2 33.9 12.5 Q29.85 15.95 23.1 15.6 17.2 15.3 14.0 12.9 L11.9 10.7 11.1 9.55 10.0 7.8 8.0 4.0 Q15.3 6.45 23.8 4.95 28.3 4.2 32.15 2.4 32.3 4.25 32.05 6.35 L31.3 10.65 Q33.45 10.3 35.35 7.6 37.1 5.05 38.1 1.25 L38.15 1.2 M-8.15 6.35 L-8.95 9.55 -7.95 7.7 -8.05 8.0 -9.5 10.65 -9.7 10.95 -10.15 11.6 -10.6 12.3 -11.35 13.35 -11.7 13.8 -11.8 13.9 -13.1 15.15 Q-16.4 17.8 -22.6 18.3 -29.8 18.9 -34.2 15.45 -36.55 13.55 -38.35 10.0 L-38.65 9.4 -40.7 3.45 -40.8 2.85 -41.1 1.2 Q-33.45 6.5 -23.9 7.85 L-16.25 8.2 Q-16.1 11.05 -16.65 14.15 -12.3 12.3 -9.9 7.0 L-8.15 6.35" fill="#5c1100" fill-rule="evenodd" stroke="none"/>
      <path d="M3.1 6.7 Q7.55 8.3 14.6 13.35 21.35 18.15 23.7 21.1" fill="none" stroke="#000000" stroke-linecap="round" stroke-linejoin="round" stroke-width="2.0"/>
    </g>
  </defs>
</svg>
