<?xml version="1.0" encoding="UTF-8" standalone="no"?>
<svg xmlns:ffdec="https://www.free-decompiler.com/flash" xmlns:xlink="http://www.w3.org/1999/xlink" ffdec:objectType="frame" height="127.35px" width="181.25px" xmlns="http://www.w3.org/2000/svg">
  <g transform="matrix(1.0, 0.0, 0.0, 1.0, 120.25, 58.85)">
    <use ffdec:characterId="496" height="23.4" transform="matrix(1.0, 0.0, 0.0, 1.0, -2.65, -0.65)" width="31.85" xlink:href="#shape0"/>
    <use ffdec:characterId="99" height="48.85" transform="matrix(1.0, 0.0, 0.0, 1.0, -114.45, -20.45)" width="175.45" xlink:href="#shape1"/>
  </g>
  <defs>
    <g id="shape0">
      <path d="M8.2 -8.85 L23.5 14.55 -8.35 5.0 8.2 -8.85" fill="#000000" fill-opacity="0.49803922" fill-rule="evenodd" stroke="none"/>
    </g>
    <g id="shape1">
      <path d="M174.7 14.3 Q172.85 16.25 169.3 17.4 L162.7 17.6 Q160.85 17.1 159.8 14.4 158.95 12.35 159.05 10.5 159.3 7.75 164.15 6.35 167.45 5.4 172.0 5.2 173.35 5.25 174.8 9.0 176.1 12.9 174.7 14.3" fill="#000000" fill-rule="evenodd" stroke="none"/>
      <path d="M172.75 13.85 Q171.2 15.35 168.5 16.2 L163.4 16.45 Q161.9 16.05 161.25 14.0 160.6 12.35 160.7 11.0 160.9 8.9 164.75 7.75 167.35 6.95 170.85 6.8 171.95 6.85 172.9 9.75 173.8 12.7 172.75 13.85" fill="#ffd800" fill-rule="evenodd" stroke="none"/>
      <path d="M172.35 31.8 Q171.0 37.25 163.75 41.2 156.9 44.95 149.7 44.8 139.75 44.8 131.65 39.45 123.95 34.5 120.3 26.95 119.0 24.25 118.45 21.6 118.1 24.8 116.65 28.15 113.15 36.35 105.1 41.9 96.55 48.0 85.8 48.75 77.8 49.3 70.15 45.9 62.05 42.35 60.2 36.8 57.85 29.55 60.9 17.75 64.35 4.35 72.25 3.2 80.95 1.95 93.8 2.85 103.5 3.4 108.2 4.7 L126.6 3.85 Q130.75 2.35 139.7 1.1 L159.45 0.2 Q166.7 0.8 170.6 13.45 174.05 24.7 172.35 31.8" fill="#000000" fill-rule="evenodd" stroke="none"/>
      <path d="M163.7 7.05 Q165.9 9.75 167.6 14.5 L167.75 14.85 167.9 15.3 168.1 16.05 Q169.5 20.4 169.9 23.95 L169.9 24.0 Q170.2 26.9 169.85 29.3 L169.65 30.3 168.85 32.6 167.9 34.05 167.95 34.05 167.1 35.05 163.9 37.75 163.55 38.0 162.45 38.65 Q160.5 39.8 158.5 40.55 154.5 42.05 150.2 42.15 L146.65 42.0 Q143.4 41.65 140.4 40.65 137.35 39.6 134.55 37.95 L134.35 37.8 131.85 36.15 129.45 34.2 128.95 33.75 128.8 33.6 128.65 33.45 128.45 33.25 128.35 33.15 128.25 33.05 127.25 31.9 126.9 31.55 126.45 30.95 124.45 28.0 124.0 27.15 123.9 27.0 123.85 26.85 Q122.2 23.55 121.9 20.4 L121.85 17.55 122.25 15.1 Q122.6 13.6 123.2 12.35 123.5 11.6 123.95 11.0 L125.5 9.1 Q126.05 8.55 126.7 8.15 L127.0 7.95 Q129.35 6.5 135.7 5.3 L138.7 4.75 139.95 4.55 140.2 4.5 143.1 4.1 143.3 4.05 143.7 4.0 144.15 3.95 144.45 3.9 145.8 3.75 147.05 3.65 147.15 3.65 150.45 3.4 150.8 3.35 156.15 3.3 156.25 3.3 157.2 3.35 157.35 3.35 157.85 3.4 Q160.35 3.7 162.5 5.75 L163.65 6.95 163.7 7.05 M111.9 11.15 L112.4 11.85 113.25 13.2 113.8 14.3 113.9 14.55 114.2 15.3 Q116.15 20.65 113.7 26.75 L113.7 26.85 Q111.7 31.65 107.7 35.55 L103.95 38.65 103.85 38.75 Q100.9 40.85 97.65 42.3 L91.65 44.3 87.55 45.0 87.35 45.0 84.6 45.15 84.4 45.15 82.5 45.1 81.95 45.05 80.45 44.9 75.2 43.75 73.5 43.15 Q71.8 42.5 70.45 41.75 L69.5 41.25 69.2 41.05 69.1 41.0 65.85 38.15 Q65.0 37.05 64.5 35.85 63.15 32.35 63.4 27.45 L63.55 25.8 63.55 25.6 Q63.8 22.95 64.5 19.9 L64.6 19.55 65.35 16.9 65.5 16.55 Q66.05 14.85 66.75 13.5 L67.35 12.5 67.65 11.95 69.1 10.15 69.45 9.85 Q70.95 8.35 72.85 7.8 L73.2 7.7 73.3 7.65 74.0 7.5 82.5 6.55 83.0 6.55 90.3 6.4 91.05 6.4 92.85 6.4 93.75 6.45 95.2 6.5 95.5 6.5 97.9 6.6 101.35 6.9 101.6 6.9 103.2 7.1 103.35 7.1 106.9 7.85 107.7 8.1 107.85 8.15 Q110.25 9.15 111.9 11.15" fill="#557465" fill-rule="evenodd" stroke="none"/>
      <path d="M157.85 3.4 Q160.35 3.7 162.5 5.75 L157.95 16.5 149.0 35.9 146.65 42.0 Q143.4 41.65 140.4 40.65 L144.6 29.5 Q146.3 24.9 149.35 18.2 L154.5 7.1 156.25 3.3 157.2 3.35 157.35 3.35 157.85 3.4 M150.45 3.4 L150.8 3.35 146.95 11.3 140.1 24.2 134.55 37.95 134.35 37.8 131.85 36.15 129.45 34.2 128.95 33.75 128.8 33.6 128.65 33.45 128.45 33.25 128.35 33.15 128.25 33.05 127.25 31.9 126.9 31.55 Q125.5 29.85 124.45 28.0 L124.7 27.5 130.25 17.45 Q131.35 14.5 135.45 6.05 L135.7 5.3 138.7 4.75 139.95 4.55 140.2 4.5 143.1 4.1 143.3 4.05 143.7 4.0 144.15 3.95 144.45 3.9 145.8 3.75 147.05 3.65 150.45 3.4 M83.0 6.55 L90.3 6.4 87.85 10.1 83.9 17.45 79.8 24.95 Q74.45 33.9 71.2 39.95 L70.45 41.75 69.5 41.25 69.2 41.05 69.1 41.0 65.85 38.15 65.15 37.1 66.6 34.4 75.55 19.25 Q79.6 11.45 82.5 6.55 L83.0 6.55 M107.7 8.1 L107.85 8.15 Q106.1 13.85 97.5 31.9 L94.5 38.1 Q92.7 41.8 91.65 44.3 L87.55 45.0 87.35 45.0 84.4 45.15 82.5 45.1 81.95 45.05 80.45 44.9 75.2 43.75 81.6 30.1 85.3 21.05 89.05 11.9 90.7 7.4 91.05 6.4 92.85 6.4 93.75 6.45 95.5 6.5 97.9 6.6 101.35 6.9 101.6 6.9 103.2 7.1 103.35 7.1 107.7 8.1" fill="#91aea0" fill-rule="evenodd" stroke="none"/>
      <path d="M167.1 35.05 L163.9 37.75 163.55 38.0 162.45 38.65 Q160.5 39.8 158.5 40.55 154.5 42.05 150.2 42.15 L146.65 42.0 Q143.4 41.65 140.4 40.65 137.35 39.6 134.55 37.95 L134.35 37.8 131.85 36.15 129.45 34.2 128.95 33.75 128.8 33.6 128.65 33.45 128.45 33.25 128.35 33.15 128.25 33.05 127.25 31.9 126.9 31.55 126.45 30.95 124.45 28.0 124.0 27.15 123.9 27.0 123.85 26.85 Q122.2 23.55 121.9 20.4 L121.85 17.55 122.25 15.1 Q122.6 13.6 123.2 12.35 123.5 11.6 123.95 11.0 L125.5 9.1 Q126.05 8.55 126.7 8.15 L128.0 10.7 Q129.35 12.8 132.3 15.9 141.8 25.7 168.0 29.3 L169.85 29.3 169.65 30.3 168.85 32.6 167.9 34.05 167.95 34.05 167.1 35.05 M91.65 44.3 L87.55 45.0 87.35 45.0 84.6 45.15 84.4 45.15 82.5 45.1 81.95 45.05 80.45 44.9 75.2 43.75 73.5 43.15 Q71.8 42.5 70.45 41.75 L69.5 41.25 69.2 41.05 69.1 41.0 65.85 38.15 Q65.0 37.05 64.5 35.85 63.15 32.35 63.4 27.45 L63.55 25.8 63.55 25.6 Q63.8 22.95 64.5 19.9 L64.6 19.55 65.35 16.9 65.5 16.55 Q66.05 14.85 66.75 13.5 L67.35 12.5 67.65 11.95 69.1 10.15 69.45 9.85 Q70.15 16.25 75.6 24.05 76.85 25.9 79.5 28.05 82.15 30.3 85.0 31.85 89.35 34.2 97.75 34.9 L107.7 35.55 103.95 38.65 103.85 38.75 Q100.9 40.85 97.65 42.3 L91.65 44.3" fill="#000000" fill-opacity="0.29803923" fill-rule="evenodd" stroke="none"/>
      <path d="M123.5 9.2 L124.55 8.25 119.7 8.75 110.9 8.8 112.0 9.6 Q113.35 10.85 114.7 13.25 L115.35 12.8 Q116.55 12.15 118.1 12.2 120.5 12.25 121.2 13.45 122.3 10.65 123.5 9.2 M116.85 18.55 Q117.45 22.1 115.85 26.4 113.8 31.8 109.25 36.15 103.15 41.95 94.65 44.35 88.05 46.25 81.9 45.8 75.2 45.25 70.5 43.0 64.6 40.05 62.95 34.9 60.8 27.7 64.1 18.05 67.05 9.75 70.2 7.65 72.95 5.05 87.1 5.3 L104.1 6.45 123.0 5.8 134.25 4.5 135.15 4.4 146.05 2.9 Q159.0 1.45 161.8 3.75 164.85 5.5 168.3 13.4 172.25 22.45 170.85 29.65 169.85 34.85 164.7 38.2 160.55 40.8 154.4 41.9 148.85 42.9 142.55 41.6 134.55 39.95 128.4 34.75 123.8 30.95 121.45 25.9 119.65 21.95 119.85 18.55 L119.7 18.55 116.85 18.55 M125.3 10.0 Q123.65 11.85 122.35 16.25 121.0 20.4 123.4 25.5 125.55 30.3 129.8 33.85 135.6 38.65 143.1 40.2 148.9 41.4 154.1 40.4 159.8 39.4 163.7 37.0 168.5 33.9 169.45 29.1 170.75 22.35 167.0 13.85 163.85 6.55 161.0 4.85 158.4 2.75 146.25 4.1 135.95 5.2 130.7 6.85 127.0 7.95 125.3 10.0 M65.45 18.95 Q62.4 27.5 64.45 34.15 65.95 39.0 71.45 41.7 75.85 43.75 82.1 44.3 87.8 44.8 93.95 43.0 101.9 40.7 107.65 35.3 111.85 31.25 113.75 26.2 115.75 20.8 113.95 16.7 112.1 12.35 110.15 10.6 108.1 8.7 103.95 7.95 L86.85 7.0 Q73.55 7.25 71.0 9.65 68.0 11.65 65.45 18.95" fill="#ffd800" fill-rule="evenodd" stroke="none"/>
      <path d="M21.6 12.25 Q19.55 12.9 17.1 17.3 L12.45 25.9 Q11.25 27.95 8.55 27.85 6.15 27.8 3.65 26.2 1.2 24.6 0.35 22.55 -0.6 20.3 1.15 18.65 L9.7 9.25 Q15.55 3.25 20.3 2.9 25.15 2.55 42.2 6.35 L61.5 10.95 Q62.2 11.05 62.35 12.45 62.55 13.9 62.05 15.55 60.85 19.9 57.35 19.15 L38.75 14.9 Q23.7 11.6 21.6 12.25" fill="#000000" fill-rule="evenodd" stroke="none"/>
      <path d="M52.9 11.0 L51.7 12.6 47.4 11.9 39.5 10.3 32.1 8.85 22.25 7.4 Q16.05 8.1 13.3 11.85 L11.35 14.95 Q10.25 16.75 8.85 17.6 L6.9 17.6 7.05 16.0 12.2 10.4 Q17.0 5.6 21.75 5.25 26.6 4.9 41.85 8.3 L52.9 11.0" fill="#ffd800" fill-rule="evenodd" stroke="none"/>
      <path d="M7.05 16.0 L6.9 17.6 8.85 17.6 Q10.25 16.75 11.35 14.95 L13.3 11.85 Q16.05 8.1 22.25 7.4 L32.1 8.85 39.5 10.3 47.4 11.9 51.7 12.6 52.9 11.0 55.8 11.7 57.4 12.1 59.4 12.55 Q60.7 12.7 60.75 13.9 L60.6 14.75 60.55 14.95 Q60.0 16.8 57.5 16.6 L56.4 16.4 54.1 15.9 53.45 15.75 53.25 15.7 51.2 15.25 37.85 12.25 Q22.9 9.1 20.8 9.75 18.7 10.4 16.1 14.65 L16.1 14.7 15.9 15.0 11.25 23.15 Q10.05 25.2 8.1 25.55 6.35 25.85 4.85 24.8 3.3 23.75 3.15 22.15 2.95 20.35 4.6 18.75 L4.7 18.65 4.85 18.55 5.2 18.15 7.05 16.0" fill="#d5aa00" fill-rule="evenodd" stroke="none"/>
      <path d="M59.8 10.05 Q63.15 10.55 67.25 12.15 68.45 12.75 68.1 16.55 67.65 20.45 65.8 21.15 63.3 22.1 59.7 21.65 56.0 21.1 53.75 19.25 52.25 18.1 52.5 15.35 52.65 13.2 53.5 11.65 54.85 9.4 59.8 10.05" fill="#000000" fill-rule="evenodd" stroke="none"/>
      <path d="M60.2 11.5 Q62.85 11.85 66.1 13.15 67.1 13.65 66.75 16.65 66.4 19.75 64.95 20.35 L60.1 20.75 Q57.2 20.35 55.35 18.85 54.2 17.85 54.4 15.7 54.5 13.95 55.2 12.75 56.25 10.95 60.2 11.5" fill="#ffd800" fill-rule="evenodd" stroke="none"/>
    </g>
  </defs>
</svg>
