<?xml version="1.0" encoding="UTF-8" standalone="no"?>
<svg xmlns:ffdec="https://www.free-decompiler.com/flash" xmlns:xlink="http://www.w3.org/1999/xlink" ffdec:objectType="frame" height="127.35px" width="181.25px" xmlns="http://www.w3.org/2000/svg">
  <g transform="matrix(1.0, 0.0, 0.0, 1.0, 120.25, 58.85)">
    <use ffdec:characterId="722" height="23.0" transform="matrix(1.289, 0.0, 0.0, 1.289, -38.9, -8.2)" width="58.0" xlink:href="#sprite0"/>
  </g>
  <defs>
    <g id="sprite0">
      <use ffdec:characterId="721" height="23.0" transform="matrix(1.0, 0.0, 0.0, 1.0, 0.0, 0.0)" width="58.0" xlink:href="#shape0"/>
    </g>
    <g id="shape0">
      <path d="M3.0 11.0 Q3.1 6.0 5.55 3.0 6.8 1.5 8.0 1.0 7.05 2.55 6.45 4.7 5.3 9.05 7.0 12.0 9.35 16.15 14.9 17.5 L20.0 18.0 15.0 22.0 Q11.95 21.8 8.9 20.35 2.85 17.4 3.0 11.0 M51.3 1.15 Q52.8 2.65 53.85 4.4 57.2 10.0 55.0 16.0 53.4 20.4 50.05 21.65 L47.0 22.0 44.0 19.0 45.5 18.65 Q47.3 18.1 48.75 17.05 53.4 13.8 53.0 7.0 52.85 4.8 50.0 0.0 L51.3 1.15" fill="#040601" fill-rule="evenodd" stroke="none"/>
      <path d="M5.0 23.0 Q4.85 21.3 6.4 19.0 L8.0 17.0 11.0 20.0 8.55 20.95 Q5.95 22.05 5.0 23.0 M6.0 16.0 Q4.6 15.2 2.15 17.05 L0.0 19.0 1.55 15.1 Q3.2 11.15 4.0 11.0 4.85 10.85 5.8 13.65 6.8 16.5 6.0 16.0 M53.0 16.0 L55.55 18.8 Q56.45 20.15 57.0 22.0 55.9 20.9 53.35 19.85 L51.0 19.0 51.5 17.1 Q52.2 15.3 53.0 16.0 M53.1 12.35 Q53.55 9.55 55.0 11.0 57.0 13.0 58.0 17.0 55.75 14.75 54.0 15.0 52.6 15.2 53.1 12.35" fill="#040601" fill-rule="evenodd" stroke="none"/>
    </g>
  </defs>
</svg>
