<?xml version="1.0" encoding="UTF-8" standalone="no"?>
<svg xmlns:ffdec="https://www.free-decompiler.com/flash" xmlns:xlink="http://www.w3.org/1999/xlink" ffdec:objectType="frame" height="127.35px" width="181.25px" xmlns="http://www.w3.org/2000/svg">
  <g transform="matrix(1.0, 0.0, 0.0, 1.0, 120.25, 58.85)">
    <use ffdec:characterId="715" height="38.85" transform="matrix(1.0, 0.0, 0.0, 1.0, -114.65, -12.55)" width="166.8" xlink:href="#shape0"/>
  </g>
  <defs>
    <g id="shape0">
      <path d="M170.5 18.05 Q169.8 19.0 163.7 19.9 L156.95 20.15 Q156.25 19.45 155.85 16.85 155.3 14.15 156.05 13.4 156.55 12.75 162.7 11.85 L168.7 11.25 Q170.15 11.9 170.75 14.5 171.3 17.1 170.5 18.05" fill="#000000" fill-rule="evenodd" stroke="none"/>
      <path d="M167.75 17.35 L167.55 16.8 Q166.85 15.15 166.65 13.95 L159.85 15.55 157.45 15.7 157.65 15.0 Q158.05 14.6 163.05 13.7 L168.15 12.9 Q169.0 13.3 169.25 14.85 169.6 16.2 169.15 16.75 L167.75 17.35" fill="#d2d8e3" fill-rule="evenodd" stroke="none"/>
      <path d="M167.75 17.35 L163.7 18.25 158.25 18.8 Q157.85 18.5 157.6 16.95 L157.45 15.7 159.85 15.55 166.65 13.95 Q166.85 15.15 167.55 16.8 L167.75 17.35" fill="#aab5cc" fill-rule="evenodd" stroke="none"/>
      <path d="M152.3 30.5 Q147.0 35.85 139.5 35.85 132.0 35.85 126.7 30.5 121.45 25.1 121.45 17.5 121.45 10.0 126.7 4.6 132.0 -0.8 139.5 -0.8 147.0 -0.8 152.3 4.6 157.65 10.0 157.65 17.5 157.65 25.1 152.3 30.5" fill="#000000" fill-rule="evenodd" stroke="none"/>
      <path d="M99.75 0.55 Q107.9 0.55 113.75 6.05 119.55 11.55 119.55 19.3 119.55 27.05 113.75 32.55 107.9 38.05 99.75 38.05 91.6 38.05 85.75 32.55 80.0 27.05 80.0 19.3 80.0 11.55 85.75 6.05 91.6 0.55 99.75 0.55" fill="#000000" fill-rule="evenodd" stroke="none"/>
      <path d="M87.2 7.45 Q92.35 2.55 99.6 2.55 106.9 2.55 112.05 7.45 117.2 12.35 117.2 19.25 117.2 26.1 112.05 31.0 106.9 35.9 99.6 35.9 92.35 35.9 87.2 31.0 82.05 26.1 82.05 19.25 82.05 12.35 87.2 7.45" fill="#aab5cc" fill-rule="evenodd" stroke="none"/>
      <path d="M127.95 6.55 Q132.4 1.5 138.95 1.2 145.55 0.9 150.45 5.45 155.35 10.05 155.7 16.8 156.0 23.55 151.55 28.55 147.1 33.6 140.5 33.9 133.95 34.2 129.05 29.65 124.15 25.05 123.85 18.3 123.5 11.55 127.95 6.55" fill="#aab5cc" fill-rule="evenodd" stroke="none"/>
      <path d="M101.65 4.05 L101.8 4.05 Q105.5 4.45 108.7 6.55 L109.65 7.25 110.3 7.8 Q113.85 10.75 115.0 15.1 L115.4 17.3 Q115.9 21.7 114.05 25.4 L112.0 28.4 Q109.2 31.8 105.3 33.25 103.5 33.9 101.45 34.15 L96.75 34.05 Q93.25 33.45 90.25 31.25 L89.85 30.9 89.75 30.85 89.6 30.75 Q86.85 28.55 85.45 25.7 84.35 23.45 84.05 20.8 83.4 14.65 87.45 9.8 88.55 8.5 89.8 7.5 93.3 4.6 98.1 4.1 L99.65 4.0 99.8 4.0 100.0 4.0 100.15 4.0 100.3 4.0 100.45 4.0 100.65 4.0 100.8 4.0 100.9 4.0 101.05 4.0 101.4 4.0 101.65 4.05" fill="#9264c4" fill-rule="evenodd" stroke="none"/>
      <path d="M146.75 4.75 L148.2 5.8 148.35 5.95 149.5 7.05 150.0 7.6 Q152.85 10.95 153.3 15.65 153.9 21.75 150.3 26.55 L150.2 26.75 148.3 28.8 147.95 29.15 Q144.95 31.7 140.95 32.2 L139.3 32.35 Q134.55 32.35 130.75 29.05 128.95 27.55 127.85 25.75 L127.3 24.8 Q126.5 23.3 126.05 21.6 L125.7 19.7 125.6 19.15 Q125.4 16.9 125.8 14.75 126.4 11.25 128.6 8.25 L129.45 7.25 129.45 7.2 129.55 7.1 129.7 6.95 Q131.0 5.45 132.65 4.55 L133.0 4.3 133.1 4.25 133.2 4.2 133.35 4.1 137.65 2.75 137.8 2.75 137.95 2.75 139.85 2.65 139.95 2.65 141.2 2.7 Q143.75 2.95 146.05 4.25 L146.75 4.75" fill="#9264c4" fill-rule="evenodd" stroke="none"/>
      <path d="M148.35 5.95 L149.5 7.05 150.0 7.6 Q146.45 15.3 139.6 31.5 L139.3 32.35 Q134.55 32.35 130.75 29.05 128.95 27.55 127.85 25.75 L133.7 14.15 139.85 2.65 Q144.45 2.65 148.2 5.8 L148.35 5.95 M137.8 2.75 Q128.1 22.8 127.3 24.8 126.5 23.3 126.05 21.6 L125.7 19.7 125.6 19.15 Q125.4 16.9 125.8 14.75 L126.85 12.4 129.1 8.0 129.55 7.1 129.7 6.95 Q131.3 5.25 133.2 4.2 L133.35 4.1 137.65 2.75 137.8 2.75" fill="#c79ada" fill-rule="evenodd" stroke="none"/>
      <path d="M124.55 16.7 Q125.7 17.2 125.7 19.0 125.7 20.85 124.55 21.35 L122.1 21.1 Q120.1 20.4 119.15 20.4 118.2 20.4 116.25 21.1 L113.75 21.35 Q112.65 20.85 112.65 19.0 112.65 17.2 113.75 16.7 L116.25 15.7 Q117.75 15.15 119.15 15.15 120.55 15.15 122.1 15.7 L124.55 16.7" fill="#000000" fill-rule="evenodd" stroke="none"/>
      <path d="M123.1 17.6 Q124.0 17.8 124.0 18.65 124.0 19.55 123.1 19.8 L121.15 19.65 118.85 19.35 116.6 19.65 114.6 19.8 Q113.8 19.55 113.8 18.65 113.8 17.8 114.6 17.6 L116.6 17.1 118.85 16.85 121.15 17.1 123.1 17.6" fill="#aab5cc" fill-rule="evenodd" stroke="none"/>
      <path d="M115.0 15.1 L105.3 33.25 Q103.5 33.9 101.45 34.15 L96.75 34.05 Q96.9 32.85 103.2 21.0 L110.3 7.8 Q113.85 10.75 115.0 15.1 M101.65 4.05 L101.8 4.05 Q105.5 4.45 108.7 6.55 104.9 11.0 90.25 31.25 L89.85 30.9 89.75 30.85 89.6 30.75 Q86.85 28.55 85.45 25.7 94.4 9.9 99.65 4.0 L99.8 4.0 100.0 4.0 100.15 4.0 100.3 4.0 100.45 4.0 100.65 4.0 100.8 4.0 100.9 4.0 101.05 4.0 101.4 4.0 101.65 4.05" fill="#c79ada" fill-rule="evenodd" stroke="none"/>
      <path d="M101.65 4.05 L101.8 4.05 Q105.5 4.45 108.7 6.55 L109.65 7.25 110.3 7.8 Q113.85 10.75 115.0 15.1 L115.4 17.3 Q115.9 21.7 114.05 25.4 L114.35 23.4 Q114.65 14.2 108.0 9.2 100.75 3.7 89.8 7.5 93.3 4.6 98.1 4.1 L99.65 4.0 99.8 4.0 100.0 4.0 100.15 4.0 100.3 4.0 100.45 4.0 100.65 4.0 100.8 4.0 100.9 4.0 101.05 4.0 101.4 4.0 101.65 4.05" fill="#000000" fill-opacity="0.29803923" fill-rule="evenodd" stroke="none"/>
      <path d="M150.0 7.6 Q152.85 10.95 153.3 15.65 153.9 21.75 150.3 26.55 L150.2 26.75 148.3 28.8 147.95 29.15 148.4 28.15 Q151.15 22.95 150.9 17.65 150.65 12.65 147.75 9.15 144.85 5.55 140.3 4.85 135.2 4.15 129.45 7.2 L129.55 7.1 129.7 6.95 Q131.0 5.45 132.65 4.55 L133.0 4.3 133.1 4.25 133.2 4.2 133.35 4.1 137.65 2.75 137.8 2.75 137.95 2.75 139.85 2.65 139.95 2.65 141.2 2.7 Q143.75 2.95 146.05 4.25 L146.75 4.75 148.2 5.8 148.35 5.95 149.5 7.05 150.0 7.6" fill="#000000" fill-opacity="0.29803923" fill-rule="evenodd" stroke="none"/>
      <path d="M75.5 18.2 Q75.25 20.25 74.9 20.55 L44.25 16.95 13.55 12.75 Q13.1 12.35 13.4 10.35 13.65 8.25 14.4 7.9 L44.75 11.65 75.4 15.75 Q75.75 16.05 75.5 18.2" fill="#000000" fill-rule="evenodd" stroke="none"/>
      <path d="M73.05 18.2 Q73.0 19.0 72.65 19.25 L55.85 17.2 44.85 15.65 43.4 15.45 14.05 11.05 Q13.65 10.7 14.0 10.2 14.3 9.75 15.15 9.35 L43.8 13.05 44.85 13.2 55.85 14.65 72.75 17.1 Q73.1 17.45 73.05 18.2" fill="#aab5cc" fill-rule="evenodd" stroke="none"/>
      <path d="M32.7 9.55 Q33.2 10.65 32.9 13.05 32.55 15.5 31.75 16.15 31.15 16.65 25.95 15.5 20.55 14.3 19.7 14.55 18.5 14.95 16.25 18.2 14.3 21.0 13.25 23.25 12.85 24.15 10.85 24.15 8.85 24.1 7.0 23.2 2.0 20.75 5.7 16.3 12.65 7.9 16.75 7.6 L25.05 8.15 32.7 9.55" fill="#000000" fill-rule="evenodd" stroke="none"/>
      <path d="M82.45 22.4 L75.7 22.65 Q69.55 22.2 68.8 21.3 67.95 20.4 68.3 17.8 68.7 15.15 70.1 14.4 L76.1 14.55 Q82.3 15.0 82.9 15.6 83.7 16.3 83.35 19.0 83.1 21.65 82.45 22.4" fill="#000000" fill-rule="evenodd" stroke="none"/>
      <path d="M81.35 17.3 Q81.75 17.65 81.55 19.25 L81.4 20.45 81.4 18.85 81.35 17.3 M79.15 21.3 L75.6 21.0 Q70.5 20.4 70.05 19.9 69.55 19.4 69.8 18.0 L70.1 16.8 79.15 17.75 79.15 21.3" fill="#aab5cc" fill-rule="evenodd" stroke="none"/>
      <path d="M81.4 20.45 L81.05 21.15 81.0 21.2 80.35 21.3 79.8 21.3 79.15 21.3 79.15 17.75 70.1 16.8 Q70.25 16.35 70.55 16.15 L70.75 16.0 75.9 16.4 76.0 16.4 79.65 16.9 81.35 17.3 81.4 18.85 81.4 20.45" fill="#d2d8e3" fill-rule="evenodd" stroke="none"/>
      <path d="M30.8 11.75 L30.45 11.75 26.85 11.5 24.1 11.0 20.8 10.7 16.9 10.7 14.1 10.4 Q13.7 10.65 13.35 11.0 L7.95 15.55 Q11.0 11.65 13.35 10.05 14.9 9.0 16.15 8.9 L16.45 8.9 16.75 8.85 23.55 9.45 Q28.7 10.1 30.45 10.7 L30.8 11.75" fill="#d2d8e3" fill-rule="evenodd" stroke="none"/>
      <path d="M7.95 15.55 L13.35 11.0 Q13.7 10.65 14.1 10.4 L16.9 10.7 20.8 10.7 24.1 11.0 26.85 11.5 30.45 11.75 30.8 11.75 30.95 12.95 Q30.95 14.35 30.3 14.85 29.75 15.25 24.65 14.1 L18.55 13.1 Q17.55 13.45 15.3 16.9 13.45 19.8 12.45 21.95 12.1 22.7 10.7 22.75 9.3 22.75 7.9 22.1 4.3 20.4 6.5 17.45 L7.95 15.55" fill="#aab5cc" fill-rule="evenodd" stroke="none"/>
    </g>
  </defs>
</svg>
