<?xml version="1.0" encoding="UTF-8" standalone="no"?>
<svg xmlns:ffdec="https://www.free-decompiler.com/flash" xmlns:xlink="http://www.w3.org/1999/xlink" ffdec:objectType="frame" height="127.35px" width="181.25px" xmlns="http://www.w3.org/2000/svg">
  <g transform="matrix(1.0, 0.0, 0.0, 1.0, 120.25, 58.85)">
    <use ffdec:characterId="742" height="29.05" transform="matrix(1.0, 0.0, 0.0, 1.0, 0.0, 0.0)" width="30.0" xlink:href="#shape0"/>
    <use ffdec:characterId="744" height="33.1" transform="matrix(1.4596, 0.0, 0.0, 1.4596, -88.15, -27.65)" width="97.05" xlink:href="#sprite0"/>
  </g>
  <defs>
    <g id="shape0">
      <path d="M6.95 -13.25 L20.9 15.8 -9.1 4.35 6.95 -13.25" fill="#000000" fill-opacity="0.49803922" fill-rule="evenodd" stroke="none"/>
    </g>
    <g id="sprite0">
      <use ffdec:characterId="743" height="33.1" transform="matrix(1.0, 0.0, 0.0, 1.0, 0.0, 0.0)" width="97.05" xlink:href="#shape1"/>
    </g>
    <g id="shape1">
      <path d="M97.05 17.85 Q97.05 24.55 92.3 29.3 87.5 34.05 80.8 34.05 74.05 34.05 69.25 29.3 64.5 24.55 64.5 17.85 64.5 11.15 69.25 6.4 74.05 1.65 80.8 1.65 87.5 1.65 92.3 6.4 97.05 11.15 97.05 17.85" fill="#000000" fill-rule="evenodd" stroke="none"/>
      <path d="M95.9 17.85 Q95.9 24.1 91.45 28.5 87.05 32.9 80.8 32.9 74.5 32.9 70.1 28.5 65.65 24.1 65.65 17.85 65.65 11.6 70.1 7.25 74.5 2.85 80.8 2.85 87.05 2.85 91.45 7.25 95.9 11.6 95.9 17.85" fill="#4b99b2" fill-rule="evenodd" stroke="none"/>
      <path d="M82.8 1.55 Q85.4 1.3 88.35 2.1 91.45 2.95 94.0 4.85 100.3 9.45 100.3 17.75 100.3 25.95 94.3 30.7 91.8 32.7 88.65 33.6 L82.8 34.15 Q76.4 34.15 72.6 29.4 69.0 24.85 69.0 17.85 69.0 10.85 72.6 6.3 76.4 1.55 82.8 1.55" fill="#000000" fill-rule="evenodd" stroke="none"/>
      <path d="M94.75 6.95 Q99.25 11.5 99.25 17.85 99.25 24.25 94.75 28.75 90.25 33.25 83.9 33.25 77.5 33.25 73.0 28.75 68.5 24.25 68.5 17.85 68.5 11.5 73.0 6.95 77.5 2.45 83.9 2.45 90.25 2.45 94.75 6.95" fill="#85d1ea" fill-rule="evenodd" stroke="none"/>
      <path d="M94.05 6.3 Q84.3 24.15 79.25 32.55 76.75 31.75 74.65 30.15 72.55 28.55 71.1 26.35 L86.75 2.75 Q90.9 3.5 94.05 6.3" fill="#ffffff" fill-rule="evenodd" stroke="none"/>
      <path d="M69.55 11.1 L68.7 13.2 Q68.25 14.3 68.3 15.45 66.3 14.25 62.95 13.95 59.4 13.65 58.2 14.9 57.15 16.05 56.2 14.6 L55.65 13.5 55.45 12.95 55.3 12.7 Q55.4 12.2 56.7 11.0 57.15 10.05 58.85 9.3 60.5 8.6 62.6 8.4 64.85 8.25 66.6 8.85 68.65 9.55 69.55 11.1" fill="#000000" fill-rule="evenodd" stroke="none"/>
      <path d="M68.45 11.1 L67.7 12.45 Q67.3 13.15 67.35 13.9 65.65 13.1 62.85 12.85 59.95 12.6 58.95 13.35 58.15 14.0 57.4 13.15 L56.8 12.1 56.7 11.95 57.8 10.95 Q58.15 10.35 59.55 9.9 60.9 9.45 62.6 9.35 66.85 9.15 68.45 11.1" fill="#4b99b2" fill-rule="evenodd" stroke="none"/>
      <path d="M68.45 11.1 L68.35 11.3 Q65.95 10.6 62.95 10.45 59.75 10.35 58.65 11.0 L57.4 11.25 57.8 10.95 Q58.15 10.35 59.55 9.9 60.9 9.45 62.6 9.35 66.85 9.15 68.45 11.1" fill="#85d1ea" fill-rule="evenodd" stroke="none"/>
      <path d="M32.4 29.65 Q27.65 24.9 27.65 18.2 27.65 11.5 32.4 6.75 37.2 2.0 43.95 2.0 50.65 2.0 55.45 6.75 60.2 11.5 60.2 18.2 60.2 24.9 55.45 29.65 50.65 34.4 43.95 34.4 37.2 34.4 32.4 29.65" fill="#000000" fill-rule="evenodd" stroke="none"/>
      <path d="M33.25 28.85 Q28.8 24.45 28.8 18.2 28.8 11.95 33.25 7.6 37.65 3.2 43.95 3.2 50.2 3.2 54.6 7.6 59.05 11.95 59.05 18.2 59.05 24.45 54.6 28.85 50.2 33.25 43.95 33.25 37.65 33.25 33.25 28.85" fill="#4b99b2" fill-rule="evenodd" stroke="none"/>
      <path d="M45.95 1.9 Q48.55 1.65 51.5 2.45 54.65 3.3 57.2 5.2 63.45 9.8 63.45 18.1 63.45 26.3 57.5 31.05 54.95 33.05 51.8 33.95 48.8 34.85 45.95 34.5 39.55 34.5 35.75 29.75 32.15 25.2 32.15 18.2 32.15 11.2 35.75 6.65 39.55 1.9 45.95 1.9" fill="#000000" fill-rule="evenodd" stroke="none"/>
      <path d="M36.15 29.1 Q31.65 24.6 31.65 18.2 31.65 11.85 36.15 7.3 40.65 2.8 47.05 2.8 53.4 2.8 57.9 7.3 62.4 11.85 62.4 18.2 62.4 24.6 57.9 29.1 53.4 33.6 47.05 33.6 40.65 33.6 36.15 29.1" fill="#85d1ea" fill-rule="evenodd" stroke="none"/>
      <path d="M37.8 30.5 Q35.7 28.9 34.25 26.7 45.65 9.25 49.9 3.1 54.0 3.85 57.2 6.65 L42.45 32.9 Q39.9 32.1 37.8 30.5" fill="#ffffff" fill-rule="evenodd" stroke="none"/>
      <path d="M29.4 15.35 Q30.05 15.35 30.5 16.1 L31.0 17.7 Q31.05 18.75 30.7 19.4 30.3 20.2 29.35 20.15 L20.65 19.25 11.2 18.15 Q9.7 18.1 8.45 19.1 7.35 19.95 7.25 20.95 7.25 23.0 9.05 23.4 10.1 23.55 10.45 22.75 L10.85 20.15 Q10.9 19.35 11.65 19.0 L13.3 18.8 14.95 19.3 Q15.65 19.75 15.6 20.25 16.05 22.65 14.8 24.75 13.05 27.6 8.95 27.35 5.95 27.15 4.4 24.9 3.1 23.0 3.25 20.55 3.35 18.15 5.45 16.15 7.9 13.95 11.25 14.1 L18.0 14.65 29.4 15.35" fill="#000000" fill-rule="evenodd" stroke="none"/>
      <path d="M28.6 16.3 Q29.2 16.25 29.6 16.7 30.0 17.15 30.05 17.75 L29.75 18.85 Q29.3 19.35 28.45 19.3 L20.35 18.4 11.55 17.45 Q9.25 17.25 7.75 18.4 6.45 19.3 6.35 20.7 6.3 22.1 7.05 22.95 7.9 24.0 9.65 24.15 10.5 24.2 11.1 23.35 11.8 22.4 11.9 20.8 11.95 19.25 13.3 19.75 13.85 19.9 14.25 20.4 14.65 20.85 14.65 21.3 14.55 23.05 13.65 24.4 12.35 26.45 9.6 26.3 6.7 26.15 5.3 24.4 4.05 22.85 4.15 20.6 4.25 18.4 6.2 16.8 8.3 15.0 11.6 15.2 L17.85 15.6 28.6 16.3" fill="#ffde00" fill-rule="evenodd" stroke="none"/>
      <path d="M30.0 17.65 Q30.1 18.35 29.75 18.8 29.35 19.3 28.45 19.3 L20.35 18.4 11.55 17.45 Q9.25 17.25 7.75 18.4 6.45 19.3 6.35 20.7 L6.4 21.4 6.3 22.05 Q6.25 23.4 7.0 24.35 7.85 25.35 9.6 25.5 10.35 25.55 11.05 24.7 11.75 23.75 11.85 22.15 11.9 20.8 13.1 21.0 14.2 21.25 14.5 22.25 14.2 23.9 13.25 25.0 11.9 26.4 9.6 26.3 7.0 26.15 5.55 24.65 4.3 23.3 4.15 21.3 4.55 19.25 6.45 17.9 8.5 16.35 11.5 16.5 L30.0 17.65" fill="#daab1d" fill-rule="evenodd" stroke="none"/>
    </g>
  </defs>
</svg>
